%TF.GenerationSoftware,KiCad,Pcbnew,(6.0.8)*%
%TF.CreationDate,2022-10-15T16:47:31+02:00*%
%TF.ProjectId,Digital Delay,44696769-7461-46c2-9044-656c61792e6b,rev?*%
%TF.SameCoordinates,Original*%
%TF.FileFunction,Legend,Top*%
%TF.FilePolarity,Positive*%
%FSLAX46Y46*%
G04 Gerber Fmt 4.6, Leading zero omitted, Abs format (unit mm)*
G04 Created by KiCad (PCBNEW (6.0.8)) date 2022-10-15 16:47:31*
%MOMM*%
%LPD*%
G01*
G04 APERTURE LIST*
%ADD10C,0.300000*%
%ADD11C,0.150000*%
%ADD12C,0.120000*%
G04 APERTURE END LIST*
D10*
X39100714Y-78783571D02*
X39100714Y-77283571D01*
X39957857Y-78783571D01*
X39957857Y-77283571D01*
X41243571Y-78712142D02*
X41100714Y-78783571D01*
X40815000Y-78783571D01*
X40672142Y-78712142D01*
X40600714Y-78569285D01*
X40600714Y-77997857D01*
X40672142Y-77855000D01*
X40815000Y-77783571D01*
X41100714Y-77783571D01*
X41243571Y-77855000D01*
X41315000Y-77997857D01*
X41315000Y-78140714D01*
X40600714Y-78283571D01*
X41957857Y-77783571D02*
X41957857Y-79283571D01*
X41957857Y-77855000D02*
X42100714Y-77783571D01*
X42386428Y-77783571D01*
X42529285Y-77855000D01*
X42600714Y-77926428D01*
X42672142Y-78069285D01*
X42672142Y-78497857D01*
X42600714Y-78640714D01*
X42529285Y-78712142D01*
X42386428Y-78783571D01*
X42100714Y-78783571D01*
X41957857Y-78712142D01*
X43100714Y-77283571D02*
X43957857Y-77283571D01*
X43529285Y-78783571D02*
X43529285Y-77283571D01*
X44672142Y-78783571D02*
X44529285Y-78712142D01*
X44457857Y-78640714D01*
X44386428Y-78497857D01*
X44386428Y-78069285D01*
X44457857Y-77926428D01*
X44529285Y-77855000D01*
X44672142Y-77783571D01*
X44886428Y-77783571D01*
X45029285Y-77855000D01*
X45100714Y-77926428D01*
X45172142Y-78069285D01*
X45172142Y-78497857D01*
X45100714Y-78640714D01*
X45029285Y-78712142D01*
X44886428Y-78783571D01*
X44672142Y-78783571D01*
X46457857Y-78783571D02*
X46457857Y-77997857D01*
X46386428Y-77855000D01*
X46243571Y-77783571D01*
X45957857Y-77783571D01*
X45815000Y-77855000D01*
X46457857Y-78712142D02*
X46315000Y-78783571D01*
X45957857Y-78783571D01*
X45815000Y-78712142D01*
X45743571Y-78569285D01*
X45743571Y-78426428D01*
X45815000Y-78283571D01*
X45957857Y-78212142D01*
X46315000Y-78212142D01*
X46457857Y-78140714D01*
X47100714Y-78712142D02*
X47243571Y-78783571D01*
X47529285Y-78783571D01*
X47672142Y-78712142D01*
X47743571Y-78569285D01*
X47743571Y-78497857D01*
X47672142Y-78355000D01*
X47529285Y-78283571D01*
X47315000Y-78283571D01*
X47172142Y-78212142D01*
X47100714Y-78069285D01*
X47100714Y-77997857D01*
X47172142Y-77855000D01*
X47315000Y-77783571D01*
X47529285Y-77783571D01*
X47672142Y-77855000D01*
X48172142Y-77783571D02*
X48743571Y-77783571D01*
X48386428Y-77283571D02*
X48386428Y-78569285D01*
X48457857Y-78712142D01*
X48600714Y-78783571D01*
X48743571Y-78783571D01*
D11*
%TO.C,C115*%
X61232952Y-75160142D02*
X61185333Y-75207761D01*
X61042476Y-75255380D01*
X60947238Y-75255380D01*
X60804380Y-75207761D01*
X60709142Y-75112523D01*
X60661523Y-75017285D01*
X60613904Y-74826809D01*
X60613904Y-74683952D01*
X60661523Y-74493476D01*
X60709142Y-74398238D01*
X60804380Y-74303000D01*
X60947238Y-74255380D01*
X61042476Y-74255380D01*
X61185333Y-74303000D01*
X61232952Y-74350619D01*
X62185333Y-75255380D02*
X61613904Y-75255380D01*
X61899619Y-75255380D02*
X61899619Y-74255380D01*
X61804380Y-74398238D01*
X61709142Y-74493476D01*
X61613904Y-74541095D01*
X63137714Y-75255380D02*
X62566285Y-75255380D01*
X62852000Y-75255380D02*
X62852000Y-74255380D01*
X62756761Y-74398238D01*
X62661523Y-74493476D01*
X62566285Y-74541095D01*
X64042476Y-74255380D02*
X63566285Y-74255380D01*
X63518666Y-74731571D01*
X63566285Y-74683952D01*
X63661523Y-74636333D01*
X63899619Y-74636333D01*
X63994857Y-74683952D01*
X64042476Y-74731571D01*
X64090095Y-74826809D01*
X64090095Y-75064904D01*
X64042476Y-75160142D01*
X63994857Y-75207761D01*
X63899619Y-75255380D01*
X63661523Y-75255380D01*
X63566285Y-75207761D01*
X63518666Y-75160142D01*
%TO.C,C114*%
X58316952Y-61190142D02*
X58269333Y-61237761D01*
X58126476Y-61285380D01*
X58031238Y-61285380D01*
X57888380Y-61237761D01*
X57793142Y-61142523D01*
X57745523Y-61047285D01*
X57697904Y-60856809D01*
X57697904Y-60713952D01*
X57745523Y-60523476D01*
X57793142Y-60428238D01*
X57888380Y-60333000D01*
X58031238Y-60285380D01*
X58126476Y-60285380D01*
X58269333Y-60333000D01*
X58316952Y-60380619D01*
X59269333Y-61285380D02*
X58697904Y-61285380D01*
X58983619Y-61285380D02*
X58983619Y-60285380D01*
X58888380Y-60428238D01*
X58793142Y-60523476D01*
X58697904Y-60571095D01*
X60221714Y-61285380D02*
X59650285Y-61285380D01*
X59936000Y-61285380D02*
X59936000Y-60285380D01*
X59840761Y-60428238D01*
X59745523Y-60523476D01*
X59650285Y-60571095D01*
X61078857Y-60618714D02*
X61078857Y-61285380D01*
X60840761Y-60237761D02*
X60602666Y-60952047D01*
X61221714Y-60952047D01*
%TO.C,J105*%
X58023285Y-45270380D02*
X58023285Y-45984666D01*
X57975666Y-46127523D01*
X57880428Y-46222761D01*
X57737571Y-46270380D01*
X57642333Y-46270380D01*
X59023285Y-46270380D02*
X58451857Y-46270380D01*
X58737571Y-46270380D02*
X58737571Y-45270380D01*
X58642333Y-45413238D01*
X58547095Y-45508476D01*
X58451857Y-45556095D01*
X59642333Y-45270380D02*
X59737571Y-45270380D01*
X59832809Y-45318000D01*
X59880428Y-45365619D01*
X59928047Y-45460857D01*
X59975666Y-45651333D01*
X59975666Y-45889428D01*
X59928047Y-46079904D01*
X59880428Y-46175142D01*
X59832809Y-46222761D01*
X59737571Y-46270380D01*
X59642333Y-46270380D01*
X59547095Y-46222761D01*
X59499476Y-46175142D01*
X59451857Y-46079904D01*
X59404238Y-45889428D01*
X59404238Y-45651333D01*
X59451857Y-45460857D01*
X59499476Y-45365619D01*
X59547095Y-45318000D01*
X59642333Y-45270380D01*
X60880428Y-45270380D02*
X60404238Y-45270380D01*
X60356619Y-45746571D01*
X60404238Y-45698952D01*
X60499476Y-45651333D01*
X60737571Y-45651333D01*
X60832809Y-45698952D01*
X60880428Y-45746571D01*
X60928047Y-45841809D01*
X60928047Y-46079904D01*
X60880428Y-46175142D01*
X60832809Y-46222761D01*
X60737571Y-46270380D01*
X60499476Y-46270380D01*
X60404238Y-46222761D01*
X60356619Y-46175142D01*
%TO.C,C107*%
X45362952Y-63476142D02*
X45315333Y-63523761D01*
X45172476Y-63571380D01*
X45077238Y-63571380D01*
X44934380Y-63523761D01*
X44839142Y-63428523D01*
X44791523Y-63333285D01*
X44743904Y-63142809D01*
X44743904Y-62999952D01*
X44791523Y-62809476D01*
X44839142Y-62714238D01*
X44934380Y-62619000D01*
X45077238Y-62571380D01*
X45172476Y-62571380D01*
X45315333Y-62619000D01*
X45362952Y-62666619D01*
X46315333Y-63571380D02*
X45743904Y-63571380D01*
X46029619Y-63571380D02*
X46029619Y-62571380D01*
X45934380Y-62714238D01*
X45839142Y-62809476D01*
X45743904Y-62857095D01*
X46934380Y-62571380D02*
X47029619Y-62571380D01*
X47124857Y-62619000D01*
X47172476Y-62666619D01*
X47220095Y-62761857D01*
X47267714Y-62952333D01*
X47267714Y-63190428D01*
X47220095Y-63380904D01*
X47172476Y-63476142D01*
X47124857Y-63523761D01*
X47029619Y-63571380D01*
X46934380Y-63571380D01*
X46839142Y-63523761D01*
X46791523Y-63476142D01*
X46743904Y-63380904D01*
X46696285Y-63190428D01*
X46696285Y-62952333D01*
X46743904Y-62761857D01*
X46791523Y-62666619D01*
X46839142Y-62619000D01*
X46934380Y-62571380D01*
X47601047Y-62571380D02*
X48267714Y-62571380D01*
X47839142Y-63571380D01*
%TO.C,C106*%
X39854142Y-72239047D02*
X39901761Y-72286666D01*
X39949380Y-72429523D01*
X39949380Y-72524761D01*
X39901761Y-72667619D01*
X39806523Y-72762857D01*
X39711285Y-72810476D01*
X39520809Y-72858095D01*
X39377952Y-72858095D01*
X39187476Y-72810476D01*
X39092238Y-72762857D01*
X38997000Y-72667619D01*
X38949380Y-72524761D01*
X38949380Y-72429523D01*
X38997000Y-72286666D01*
X39044619Y-72239047D01*
X39949380Y-71286666D02*
X39949380Y-71858095D01*
X39949380Y-71572380D02*
X38949380Y-71572380D01*
X39092238Y-71667619D01*
X39187476Y-71762857D01*
X39235095Y-71858095D01*
X38949380Y-70667619D02*
X38949380Y-70572380D01*
X38997000Y-70477142D01*
X39044619Y-70429523D01*
X39139857Y-70381904D01*
X39330333Y-70334285D01*
X39568428Y-70334285D01*
X39758904Y-70381904D01*
X39854142Y-70429523D01*
X39901761Y-70477142D01*
X39949380Y-70572380D01*
X39949380Y-70667619D01*
X39901761Y-70762857D01*
X39854142Y-70810476D01*
X39758904Y-70858095D01*
X39568428Y-70905714D01*
X39330333Y-70905714D01*
X39139857Y-70858095D01*
X39044619Y-70810476D01*
X38997000Y-70762857D01*
X38949380Y-70667619D01*
X38949380Y-69477142D02*
X38949380Y-69667619D01*
X38997000Y-69762857D01*
X39044619Y-69810476D01*
X39187476Y-69905714D01*
X39377952Y-69953333D01*
X39758904Y-69953333D01*
X39854142Y-69905714D01*
X39901761Y-69858095D01*
X39949380Y-69762857D01*
X39949380Y-69572380D01*
X39901761Y-69477142D01*
X39854142Y-69429523D01*
X39758904Y-69381904D01*
X39520809Y-69381904D01*
X39425571Y-69429523D01*
X39377952Y-69477142D01*
X39330333Y-69572380D01*
X39330333Y-69762857D01*
X39377952Y-69858095D01*
X39425571Y-69905714D01*
X39520809Y-69953333D01*
%TO.C,C111*%
X47267952Y-74906142D02*
X47220333Y-74953761D01*
X47077476Y-75001380D01*
X46982238Y-75001380D01*
X46839380Y-74953761D01*
X46744142Y-74858523D01*
X46696523Y-74763285D01*
X46648904Y-74572809D01*
X46648904Y-74429952D01*
X46696523Y-74239476D01*
X46744142Y-74144238D01*
X46839380Y-74049000D01*
X46982238Y-74001380D01*
X47077476Y-74001380D01*
X47220333Y-74049000D01*
X47267952Y-74096619D01*
X48220333Y-75001380D02*
X47648904Y-75001380D01*
X47934619Y-75001380D02*
X47934619Y-74001380D01*
X47839380Y-74144238D01*
X47744142Y-74239476D01*
X47648904Y-74287095D01*
X49172714Y-75001380D02*
X48601285Y-75001380D01*
X48887000Y-75001380D02*
X48887000Y-74001380D01*
X48791761Y-74144238D01*
X48696523Y-74239476D01*
X48601285Y-74287095D01*
X50125095Y-75001380D02*
X49553666Y-75001380D01*
X49839380Y-75001380D02*
X49839380Y-74001380D01*
X49744142Y-74144238D01*
X49648904Y-74239476D01*
X49553666Y-74287095D01*
%TO.C,J101*%
X62214285Y-55586380D02*
X62214285Y-56300666D01*
X62166666Y-56443523D01*
X62071428Y-56538761D01*
X61928571Y-56586380D01*
X61833333Y-56586380D01*
X63214285Y-56586380D02*
X62642857Y-56586380D01*
X62928571Y-56586380D02*
X62928571Y-55586380D01*
X62833333Y-55729238D01*
X62738095Y-55824476D01*
X62642857Y-55872095D01*
X63833333Y-55586380D02*
X63928571Y-55586380D01*
X64023809Y-55634000D01*
X64071428Y-55681619D01*
X64119047Y-55776857D01*
X64166666Y-55967333D01*
X64166666Y-56205428D01*
X64119047Y-56395904D01*
X64071428Y-56491142D01*
X64023809Y-56538761D01*
X63928571Y-56586380D01*
X63833333Y-56586380D01*
X63738095Y-56538761D01*
X63690476Y-56491142D01*
X63642857Y-56395904D01*
X63595238Y-56205428D01*
X63595238Y-55967333D01*
X63642857Y-55776857D01*
X63690476Y-55681619D01*
X63738095Y-55634000D01*
X63833333Y-55586380D01*
X65119047Y-56586380D02*
X64547619Y-56586380D01*
X64833333Y-56586380D02*
X64833333Y-55586380D01*
X64738095Y-55729238D01*
X64642857Y-55824476D01*
X64547619Y-55872095D01*
%TO.C,C101*%
X44680142Y-63095047D02*
X44727761Y-63142666D01*
X44775380Y-63285523D01*
X44775380Y-63380761D01*
X44727761Y-63523619D01*
X44632523Y-63618857D01*
X44537285Y-63666476D01*
X44346809Y-63714095D01*
X44203952Y-63714095D01*
X44013476Y-63666476D01*
X43918238Y-63618857D01*
X43823000Y-63523619D01*
X43775380Y-63380761D01*
X43775380Y-63285523D01*
X43823000Y-63142666D01*
X43870619Y-63095047D01*
X44775380Y-62142666D02*
X44775380Y-62714095D01*
X44775380Y-62428380D02*
X43775380Y-62428380D01*
X43918238Y-62523619D01*
X44013476Y-62618857D01*
X44061095Y-62714095D01*
X43775380Y-61523619D02*
X43775380Y-61428380D01*
X43823000Y-61333142D01*
X43870619Y-61285523D01*
X43965857Y-61237904D01*
X44156333Y-61190285D01*
X44394428Y-61190285D01*
X44584904Y-61237904D01*
X44680142Y-61285523D01*
X44727761Y-61333142D01*
X44775380Y-61428380D01*
X44775380Y-61523619D01*
X44727761Y-61618857D01*
X44680142Y-61666476D01*
X44584904Y-61714095D01*
X44394428Y-61761714D01*
X44156333Y-61761714D01*
X43965857Y-61714095D01*
X43870619Y-61666476D01*
X43823000Y-61618857D01*
X43775380Y-61523619D01*
X44775380Y-60237904D02*
X44775380Y-60809333D01*
X44775380Y-60523619D02*
X43775380Y-60523619D01*
X43918238Y-60618857D01*
X44013476Y-60714095D01*
X44061095Y-60809333D01*
%TO.C,C116*%
X47267952Y-76176142D02*
X47220333Y-76223761D01*
X47077476Y-76271380D01*
X46982238Y-76271380D01*
X46839380Y-76223761D01*
X46744142Y-76128523D01*
X46696523Y-76033285D01*
X46648904Y-75842809D01*
X46648904Y-75699952D01*
X46696523Y-75509476D01*
X46744142Y-75414238D01*
X46839380Y-75319000D01*
X46982238Y-75271380D01*
X47077476Y-75271380D01*
X47220333Y-75319000D01*
X47267952Y-75366619D01*
X48220333Y-76271380D02*
X47648904Y-76271380D01*
X47934619Y-76271380D02*
X47934619Y-75271380D01*
X47839380Y-75414238D01*
X47744142Y-75509476D01*
X47648904Y-75557095D01*
X49172714Y-76271380D02*
X48601285Y-76271380D01*
X48887000Y-76271380D02*
X48887000Y-75271380D01*
X48791761Y-75414238D01*
X48696523Y-75509476D01*
X48601285Y-75557095D01*
X50029857Y-75271380D02*
X49839380Y-75271380D01*
X49744142Y-75319000D01*
X49696523Y-75366619D01*
X49601285Y-75509476D01*
X49553666Y-75699952D01*
X49553666Y-76080904D01*
X49601285Y-76176142D01*
X49648904Y-76223761D01*
X49744142Y-76271380D01*
X49934619Y-76271380D01*
X50029857Y-76223761D01*
X50077476Y-76176142D01*
X50125095Y-76080904D01*
X50125095Y-75842809D01*
X50077476Y-75747571D01*
X50029857Y-75699952D01*
X49934619Y-75652333D01*
X49744142Y-75652333D01*
X49648904Y-75699952D01*
X49601285Y-75747571D01*
X49553666Y-75842809D01*
%TO.C,R104*%
X56030952Y-58745380D02*
X55697619Y-58269190D01*
X55459523Y-58745380D02*
X55459523Y-57745380D01*
X55840476Y-57745380D01*
X55935714Y-57793000D01*
X55983333Y-57840619D01*
X56030952Y-57935857D01*
X56030952Y-58078714D01*
X55983333Y-58173952D01*
X55935714Y-58221571D01*
X55840476Y-58269190D01*
X55459523Y-58269190D01*
X56983333Y-58745380D02*
X56411904Y-58745380D01*
X56697619Y-58745380D02*
X56697619Y-57745380D01*
X56602380Y-57888238D01*
X56507142Y-57983476D01*
X56411904Y-58031095D01*
X57602380Y-57745380D02*
X57697619Y-57745380D01*
X57792857Y-57793000D01*
X57840476Y-57840619D01*
X57888095Y-57935857D01*
X57935714Y-58126333D01*
X57935714Y-58364428D01*
X57888095Y-58554904D01*
X57840476Y-58650142D01*
X57792857Y-58697761D01*
X57697619Y-58745380D01*
X57602380Y-58745380D01*
X57507142Y-58697761D01*
X57459523Y-58650142D01*
X57411904Y-58554904D01*
X57364285Y-58364428D01*
X57364285Y-58126333D01*
X57411904Y-57935857D01*
X57459523Y-57840619D01*
X57507142Y-57793000D01*
X57602380Y-57745380D01*
X58792857Y-58078714D02*
X58792857Y-58745380D01*
X58554761Y-57697761D02*
X58316666Y-58412047D01*
X58935714Y-58412047D01*
%TO.C,J106*%
X59904380Y-79009714D02*
X60618666Y-79009714D01*
X60761523Y-79057333D01*
X60856761Y-79152571D01*
X60904380Y-79295428D01*
X60904380Y-79390666D01*
X60904380Y-78009714D02*
X60904380Y-78581142D01*
X60904380Y-78295428D02*
X59904380Y-78295428D01*
X60047238Y-78390666D01*
X60142476Y-78485904D01*
X60190095Y-78581142D01*
X59904380Y-77390666D02*
X59904380Y-77295428D01*
X59952000Y-77200190D01*
X59999619Y-77152571D01*
X60094857Y-77104952D01*
X60285333Y-77057333D01*
X60523428Y-77057333D01*
X60713904Y-77104952D01*
X60809142Y-77152571D01*
X60856761Y-77200190D01*
X60904380Y-77295428D01*
X60904380Y-77390666D01*
X60856761Y-77485904D01*
X60809142Y-77533523D01*
X60713904Y-77581142D01*
X60523428Y-77628761D01*
X60285333Y-77628761D01*
X60094857Y-77581142D01*
X59999619Y-77533523D01*
X59952000Y-77485904D01*
X59904380Y-77390666D01*
X59904380Y-76200190D02*
X59904380Y-76390666D01*
X59952000Y-76485904D01*
X59999619Y-76533523D01*
X60142476Y-76628761D01*
X60332952Y-76676380D01*
X60713904Y-76676380D01*
X60809142Y-76628761D01*
X60856761Y-76581142D01*
X60904380Y-76485904D01*
X60904380Y-76295428D01*
X60856761Y-76200190D01*
X60809142Y-76152571D01*
X60713904Y-76104952D01*
X60475809Y-76104952D01*
X60380571Y-76152571D01*
X60332952Y-76200190D01*
X60285333Y-76295428D01*
X60285333Y-76485904D01*
X60332952Y-76581142D01*
X60380571Y-76628761D01*
X60475809Y-76676380D01*
%TO.C,J103*%
X39608285Y-47585380D02*
X39608285Y-48299666D01*
X39560666Y-48442523D01*
X39465428Y-48537761D01*
X39322571Y-48585380D01*
X39227333Y-48585380D01*
X40608285Y-48585380D02*
X40036857Y-48585380D01*
X40322571Y-48585380D02*
X40322571Y-47585380D01*
X40227333Y-47728238D01*
X40132095Y-47823476D01*
X40036857Y-47871095D01*
X41227333Y-47585380D02*
X41322571Y-47585380D01*
X41417809Y-47633000D01*
X41465428Y-47680619D01*
X41513047Y-47775857D01*
X41560666Y-47966333D01*
X41560666Y-48204428D01*
X41513047Y-48394904D01*
X41465428Y-48490142D01*
X41417809Y-48537761D01*
X41322571Y-48585380D01*
X41227333Y-48585380D01*
X41132095Y-48537761D01*
X41084476Y-48490142D01*
X41036857Y-48394904D01*
X40989238Y-48204428D01*
X40989238Y-47966333D01*
X41036857Y-47775857D01*
X41084476Y-47680619D01*
X41132095Y-47633000D01*
X41227333Y-47585380D01*
X41894000Y-47585380D02*
X42513047Y-47585380D01*
X42179714Y-47966333D01*
X42322571Y-47966333D01*
X42417809Y-48013952D01*
X42465428Y-48061571D01*
X42513047Y-48156809D01*
X42513047Y-48394904D01*
X42465428Y-48490142D01*
X42417809Y-48537761D01*
X42322571Y-48585380D01*
X42036857Y-48585380D01*
X41941619Y-48537761D01*
X41894000Y-48490142D01*
%TO.C,U102*%
X44029380Y-54673285D02*
X44838904Y-54673285D01*
X44934142Y-54625666D01*
X44981761Y-54578047D01*
X45029380Y-54482809D01*
X45029380Y-54292333D01*
X44981761Y-54197095D01*
X44934142Y-54149476D01*
X44838904Y-54101857D01*
X44029380Y-54101857D01*
X45029380Y-53101857D02*
X45029380Y-53673285D01*
X45029380Y-53387571D02*
X44029380Y-53387571D01*
X44172238Y-53482809D01*
X44267476Y-53578047D01*
X44315095Y-53673285D01*
X44029380Y-52482809D02*
X44029380Y-52387571D01*
X44077000Y-52292333D01*
X44124619Y-52244714D01*
X44219857Y-52197095D01*
X44410333Y-52149476D01*
X44648428Y-52149476D01*
X44838904Y-52197095D01*
X44934142Y-52244714D01*
X44981761Y-52292333D01*
X45029380Y-52387571D01*
X45029380Y-52482809D01*
X44981761Y-52578047D01*
X44934142Y-52625666D01*
X44838904Y-52673285D01*
X44648428Y-52720904D01*
X44410333Y-52720904D01*
X44219857Y-52673285D01*
X44124619Y-52625666D01*
X44077000Y-52578047D01*
X44029380Y-52482809D01*
X44124619Y-51768523D02*
X44077000Y-51720904D01*
X44029380Y-51625666D01*
X44029380Y-51387571D01*
X44077000Y-51292333D01*
X44124619Y-51244714D01*
X44219857Y-51197095D01*
X44315095Y-51197095D01*
X44457952Y-51244714D01*
X45029380Y-51816142D01*
X45029380Y-51197095D01*
%TO.C,C108*%
X39393952Y-75541142D02*
X39346333Y-75588761D01*
X39203476Y-75636380D01*
X39108238Y-75636380D01*
X38965380Y-75588761D01*
X38870142Y-75493523D01*
X38822523Y-75398285D01*
X38774904Y-75207809D01*
X38774904Y-75064952D01*
X38822523Y-74874476D01*
X38870142Y-74779238D01*
X38965380Y-74684000D01*
X39108238Y-74636380D01*
X39203476Y-74636380D01*
X39346333Y-74684000D01*
X39393952Y-74731619D01*
X40346333Y-75636380D02*
X39774904Y-75636380D01*
X40060619Y-75636380D02*
X40060619Y-74636380D01*
X39965380Y-74779238D01*
X39870142Y-74874476D01*
X39774904Y-74922095D01*
X40965380Y-74636380D02*
X41060619Y-74636380D01*
X41155857Y-74684000D01*
X41203476Y-74731619D01*
X41251095Y-74826857D01*
X41298714Y-75017333D01*
X41298714Y-75255428D01*
X41251095Y-75445904D01*
X41203476Y-75541142D01*
X41155857Y-75588761D01*
X41060619Y-75636380D01*
X40965380Y-75636380D01*
X40870142Y-75588761D01*
X40822523Y-75541142D01*
X40774904Y-75445904D01*
X40727285Y-75255428D01*
X40727285Y-75017333D01*
X40774904Y-74826857D01*
X40822523Y-74731619D01*
X40870142Y-74684000D01*
X40965380Y-74636380D01*
X41870142Y-75064952D02*
X41774904Y-75017333D01*
X41727285Y-74969714D01*
X41679666Y-74874476D01*
X41679666Y-74826857D01*
X41727285Y-74731619D01*
X41774904Y-74684000D01*
X41870142Y-74636380D01*
X42060619Y-74636380D01*
X42155857Y-74684000D01*
X42203476Y-74731619D01*
X42251095Y-74826857D01*
X42251095Y-74874476D01*
X42203476Y-74969714D01*
X42155857Y-75017333D01*
X42060619Y-75064952D01*
X41870142Y-75064952D01*
X41774904Y-75112571D01*
X41727285Y-75160190D01*
X41679666Y-75255428D01*
X41679666Y-75445904D01*
X41727285Y-75541142D01*
X41774904Y-75588761D01*
X41870142Y-75636380D01*
X42060619Y-75636380D01*
X42155857Y-75588761D01*
X42203476Y-75541142D01*
X42251095Y-75445904D01*
X42251095Y-75255428D01*
X42203476Y-75160190D01*
X42155857Y-75112571D01*
X42060619Y-75064952D01*
%TO.C,C103*%
X63015952Y-70207142D02*
X62968333Y-70254761D01*
X62825476Y-70302380D01*
X62730238Y-70302380D01*
X62587380Y-70254761D01*
X62492142Y-70159523D01*
X62444523Y-70064285D01*
X62396904Y-69873809D01*
X62396904Y-69730952D01*
X62444523Y-69540476D01*
X62492142Y-69445238D01*
X62587380Y-69350000D01*
X62730238Y-69302380D01*
X62825476Y-69302380D01*
X62968333Y-69350000D01*
X63015952Y-69397619D01*
X63968333Y-70302380D02*
X63396904Y-70302380D01*
X63682619Y-70302380D02*
X63682619Y-69302380D01*
X63587380Y-69445238D01*
X63492142Y-69540476D01*
X63396904Y-69588095D01*
X64587380Y-69302380D02*
X64682619Y-69302380D01*
X64777857Y-69350000D01*
X64825476Y-69397619D01*
X64873095Y-69492857D01*
X64920714Y-69683333D01*
X64920714Y-69921428D01*
X64873095Y-70111904D01*
X64825476Y-70207142D01*
X64777857Y-70254761D01*
X64682619Y-70302380D01*
X64587380Y-70302380D01*
X64492142Y-70254761D01*
X64444523Y-70207142D01*
X64396904Y-70111904D01*
X64349285Y-69921428D01*
X64349285Y-69683333D01*
X64396904Y-69492857D01*
X64444523Y-69397619D01*
X64492142Y-69350000D01*
X64587380Y-69302380D01*
X65254047Y-69302380D02*
X65873095Y-69302380D01*
X65539761Y-69683333D01*
X65682619Y-69683333D01*
X65777857Y-69730952D01*
X65825476Y-69778571D01*
X65873095Y-69873809D01*
X65873095Y-70111904D01*
X65825476Y-70207142D01*
X65777857Y-70254761D01*
X65682619Y-70302380D01*
X65396904Y-70302380D01*
X65301666Y-70254761D01*
X65254047Y-70207142D01*
%TO.C,R106*%
X59332952Y-70302380D02*
X58999619Y-69826190D01*
X58761523Y-70302380D02*
X58761523Y-69302380D01*
X59142476Y-69302380D01*
X59237714Y-69350000D01*
X59285333Y-69397619D01*
X59332952Y-69492857D01*
X59332952Y-69635714D01*
X59285333Y-69730952D01*
X59237714Y-69778571D01*
X59142476Y-69826190D01*
X58761523Y-69826190D01*
X60285333Y-70302380D02*
X59713904Y-70302380D01*
X59999619Y-70302380D02*
X59999619Y-69302380D01*
X59904380Y-69445238D01*
X59809142Y-69540476D01*
X59713904Y-69588095D01*
X60904380Y-69302380D02*
X60999619Y-69302380D01*
X61094857Y-69350000D01*
X61142476Y-69397619D01*
X61190095Y-69492857D01*
X61237714Y-69683333D01*
X61237714Y-69921428D01*
X61190095Y-70111904D01*
X61142476Y-70207142D01*
X61094857Y-70254761D01*
X60999619Y-70302380D01*
X60904380Y-70302380D01*
X60809142Y-70254761D01*
X60761523Y-70207142D01*
X60713904Y-70111904D01*
X60666285Y-69921428D01*
X60666285Y-69683333D01*
X60713904Y-69492857D01*
X60761523Y-69397619D01*
X60809142Y-69350000D01*
X60904380Y-69302380D01*
X62094857Y-69302380D02*
X61904380Y-69302380D01*
X61809142Y-69350000D01*
X61761523Y-69397619D01*
X61666285Y-69540476D01*
X61618666Y-69730952D01*
X61618666Y-70111904D01*
X61666285Y-70207142D01*
X61713904Y-70254761D01*
X61809142Y-70302380D01*
X61999619Y-70302380D01*
X62094857Y-70254761D01*
X62142476Y-70207142D01*
X62190095Y-70111904D01*
X62190095Y-69873809D01*
X62142476Y-69778571D01*
X62094857Y-69730952D01*
X61999619Y-69683333D01*
X61809142Y-69683333D01*
X61713904Y-69730952D01*
X61666285Y-69778571D01*
X61618666Y-69873809D01*
%TO.C,J107*%
X39735285Y-39789380D02*
X39735285Y-40503666D01*
X39687666Y-40646523D01*
X39592428Y-40741761D01*
X39449571Y-40789380D01*
X39354333Y-40789380D01*
X40735285Y-40789380D02*
X40163857Y-40789380D01*
X40449571Y-40789380D02*
X40449571Y-39789380D01*
X40354333Y-39932238D01*
X40259095Y-40027476D01*
X40163857Y-40075095D01*
X41354333Y-39789380D02*
X41449571Y-39789380D01*
X41544809Y-39837000D01*
X41592428Y-39884619D01*
X41640047Y-39979857D01*
X41687666Y-40170333D01*
X41687666Y-40408428D01*
X41640047Y-40598904D01*
X41592428Y-40694142D01*
X41544809Y-40741761D01*
X41449571Y-40789380D01*
X41354333Y-40789380D01*
X41259095Y-40741761D01*
X41211476Y-40694142D01*
X41163857Y-40598904D01*
X41116238Y-40408428D01*
X41116238Y-40170333D01*
X41163857Y-39979857D01*
X41211476Y-39884619D01*
X41259095Y-39837000D01*
X41354333Y-39789380D01*
X42021000Y-39789380D02*
X42687666Y-39789380D01*
X42259095Y-40789380D01*
%TO.C,J109*%
X43037285Y-75652380D02*
X43037285Y-76366666D01*
X42989666Y-76509523D01*
X42894428Y-76604761D01*
X42751571Y-76652380D01*
X42656333Y-76652380D01*
X44037285Y-76652380D02*
X43465857Y-76652380D01*
X43751571Y-76652380D02*
X43751571Y-75652380D01*
X43656333Y-75795238D01*
X43561095Y-75890476D01*
X43465857Y-75938095D01*
X44656333Y-75652380D02*
X44751571Y-75652380D01*
X44846809Y-75700000D01*
X44894428Y-75747619D01*
X44942047Y-75842857D01*
X44989666Y-76033333D01*
X44989666Y-76271428D01*
X44942047Y-76461904D01*
X44894428Y-76557142D01*
X44846809Y-76604761D01*
X44751571Y-76652380D01*
X44656333Y-76652380D01*
X44561095Y-76604761D01*
X44513476Y-76557142D01*
X44465857Y-76461904D01*
X44418238Y-76271428D01*
X44418238Y-76033333D01*
X44465857Y-75842857D01*
X44513476Y-75747619D01*
X44561095Y-75700000D01*
X44656333Y-75652380D01*
X45465857Y-76652380D02*
X45656333Y-76652380D01*
X45751571Y-76604761D01*
X45799190Y-76557142D01*
X45894428Y-76414285D01*
X45942047Y-76223809D01*
X45942047Y-75842857D01*
X45894428Y-75747619D01*
X45846809Y-75700000D01*
X45751571Y-75652380D01*
X45561095Y-75652380D01*
X45465857Y-75700000D01*
X45418238Y-75747619D01*
X45370619Y-75842857D01*
X45370619Y-76080952D01*
X45418238Y-76176190D01*
X45465857Y-76223809D01*
X45561095Y-76271428D01*
X45751571Y-76271428D01*
X45846809Y-76223809D01*
X45894428Y-76176190D01*
X45942047Y-76080952D01*
%TO.C,J104*%
X61706285Y-37762380D02*
X61706285Y-38476666D01*
X61658666Y-38619523D01*
X61563428Y-38714761D01*
X61420571Y-38762380D01*
X61325333Y-38762380D01*
X62706285Y-38762380D02*
X62134857Y-38762380D01*
X62420571Y-38762380D02*
X62420571Y-37762380D01*
X62325333Y-37905238D01*
X62230095Y-38000476D01*
X62134857Y-38048095D01*
X63325333Y-37762380D02*
X63420571Y-37762380D01*
X63515809Y-37810000D01*
X63563428Y-37857619D01*
X63611047Y-37952857D01*
X63658666Y-38143333D01*
X63658666Y-38381428D01*
X63611047Y-38571904D01*
X63563428Y-38667142D01*
X63515809Y-38714761D01*
X63420571Y-38762380D01*
X63325333Y-38762380D01*
X63230095Y-38714761D01*
X63182476Y-38667142D01*
X63134857Y-38571904D01*
X63087238Y-38381428D01*
X63087238Y-38143333D01*
X63134857Y-37952857D01*
X63182476Y-37857619D01*
X63230095Y-37810000D01*
X63325333Y-37762380D01*
X64515809Y-38095714D02*
X64515809Y-38762380D01*
X64277714Y-37714761D02*
X64039619Y-38429047D01*
X64658666Y-38429047D01*
%TO.C,RV101*%
X44140380Y-55475380D02*
X43664190Y-55142047D01*
X44140380Y-54903952D02*
X43140380Y-54903952D01*
X43140380Y-55284904D01*
X43188000Y-55380142D01*
X43235619Y-55427761D01*
X43330857Y-55475380D01*
X43473714Y-55475380D01*
X43568952Y-55427761D01*
X43616571Y-55380142D01*
X43664190Y-55284904D01*
X43664190Y-54903952D01*
X43140380Y-55761095D02*
X44140380Y-56094428D01*
X43140380Y-56427761D01*
X44140380Y-57284904D02*
X44140380Y-56713476D01*
X44140380Y-56999190D02*
X43140380Y-56999190D01*
X43283238Y-56903952D01*
X43378476Y-56808714D01*
X43426095Y-56713476D01*
X43140380Y-57903952D02*
X43140380Y-57999190D01*
X43188000Y-58094428D01*
X43235619Y-58142047D01*
X43330857Y-58189666D01*
X43521333Y-58237285D01*
X43759428Y-58237285D01*
X43949904Y-58189666D01*
X44045142Y-58142047D01*
X44092761Y-58094428D01*
X44140380Y-57999190D01*
X44140380Y-57903952D01*
X44092761Y-57808714D01*
X44045142Y-57761095D01*
X43949904Y-57713476D01*
X43759428Y-57665857D01*
X43521333Y-57665857D01*
X43330857Y-57713476D01*
X43235619Y-57761095D01*
X43188000Y-57808714D01*
X43140380Y-57903952D01*
X44140380Y-59189666D02*
X44140380Y-58618238D01*
X44140380Y-58903952D02*
X43140380Y-58903952D01*
X43283238Y-58808714D01*
X43378476Y-58713476D01*
X43426095Y-58618238D01*
%TO.C,J108*%
X58023285Y-37757380D02*
X58023285Y-38471666D01*
X57975666Y-38614523D01*
X57880428Y-38709761D01*
X57737571Y-38757380D01*
X57642333Y-38757380D01*
X59023285Y-38757380D02*
X58451857Y-38757380D01*
X58737571Y-38757380D02*
X58737571Y-37757380D01*
X58642333Y-37900238D01*
X58547095Y-37995476D01*
X58451857Y-38043095D01*
X59642333Y-37757380D02*
X59737571Y-37757380D01*
X59832809Y-37805000D01*
X59880428Y-37852619D01*
X59928047Y-37947857D01*
X59975666Y-38138333D01*
X59975666Y-38376428D01*
X59928047Y-38566904D01*
X59880428Y-38662142D01*
X59832809Y-38709761D01*
X59737571Y-38757380D01*
X59642333Y-38757380D01*
X59547095Y-38709761D01*
X59499476Y-38662142D01*
X59451857Y-38566904D01*
X59404238Y-38376428D01*
X59404238Y-38138333D01*
X59451857Y-37947857D01*
X59499476Y-37852619D01*
X59547095Y-37805000D01*
X59642333Y-37757380D01*
X60547095Y-38185952D02*
X60451857Y-38138333D01*
X60404238Y-38090714D01*
X60356619Y-37995476D01*
X60356619Y-37947857D01*
X60404238Y-37852619D01*
X60451857Y-37805000D01*
X60547095Y-37757380D01*
X60737571Y-37757380D01*
X60832809Y-37805000D01*
X60880428Y-37852619D01*
X60928047Y-37947857D01*
X60928047Y-37995476D01*
X60880428Y-38090714D01*
X60832809Y-38138333D01*
X60737571Y-38185952D01*
X60547095Y-38185952D01*
X60451857Y-38233571D01*
X60404238Y-38281190D01*
X60356619Y-38376428D01*
X60356619Y-38566904D01*
X60404238Y-38662142D01*
X60451857Y-38709761D01*
X60547095Y-38757380D01*
X60737571Y-38757380D01*
X60832809Y-38709761D01*
X60880428Y-38662142D01*
X60928047Y-38566904D01*
X60928047Y-38376428D01*
X60880428Y-38281190D01*
X60832809Y-38233571D01*
X60737571Y-38185952D01*
%TO.C,R105*%
X59713952Y-68553380D02*
X59380619Y-68077190D01*
X59142523Y-68553380D02*
X59142523Y-67553380D01*
X59523476Y-67553380D01*
X59618714Y-67601000D01*
X59666333Y-67648619D01*
X59713952Y-67743857D01*
X59713952Y-67886714D01*
X59666333Y-67981952D01*
X59618714Y-68029571D01*
X59523476Y-68077190D01*
X59142523Y-68077190D01*
X60666333Y-68553380D02*
X60094904Y-68553380D01*
X60380619Y-68553380D02*
X60380619Y-67553380D01*
X60285380Y-67696238D01*
X60190142Y-67791476D01*
X60094904Y-67839095D01*
X61285380Y-67553380D02*
X61380619Y-67553380D01*
X61475857Y-67601000D01*
X61523476Y-67648619D01*
X61571095Y-67743857D01*
X61618714Y-67934333D01*
X61618714Y-68172428D01*
X61571095Y-68362904D01*
X61523476Y-68458142D01*
X61475857Y-68505761D01*
X61380619Y-68553380D01*
X61285380Y-68553380D01*
X61190142Y-68505761D01*
X61142523Y-68458142D01*
X61094904Y-68362904D01*
X61047285Y-68172428D01*
X61047285Y-67934333D01*
X61094904Y-67743857D01*
X61142523Y-67648619D01*
X61190142Y-67601000D01*
X61285380Y-67553380D01*
X62523476Y-67553380D02*
X62047285Y-67553380D01*
X61999666Y-68029571D01*
X62047285Y-67981952D01*
X62142523Y-67934333D01*
X62380619Y-67934333D01*
X62475857Y-67981952D01*
X62523476Y-68029571D01*
X62571095Y-68124809D01*
X62571095Y-68362904D01*
X62523476Y-68458142D01*
X62475857Y-68505761D01*
X62380619Y-68553380D01*
X62142523Y-68553380D01*
X62047285Y-68505761D01*
X61999666Y-68458142D01*
%TO.C,C117*%
X56030952Y-59920142D02*
X55983333Y-59967761D01*
X55840476Y-60015380D01*
X55745238Y-60015380D01*
X55602380Y-59967761D01*
X55507142Y-59872523D01*
X55459523Y-59777285D01*
X55411904Y-59586809D01*
X55411904Y-59443952D01*
X55459523Y-59253476D01*
X55507142Y-59158238D01*
X55602380Y-59063000D01*
X55745238Y-59015380D01*
X55840476Y-59015380D01*
X55983333Y-59063000D01*
X56030952Y-59110619D01*
X56983333Y-60015380D02*
X56411904Y-60015380D01*
X56697619Y-60015380D02*
X56697619Y-59015380D01*
X56602380Y-59158238D01*
X56507142Y-59253476D01*
X56411904Y-59301095D01*
X57935714Y-60015380D02*
X57364285Y-60015380D01*
X57650000Y-60015380D02*
X57650000Y-59015380D01*
X57554761Y-59158238D01*
X57459523Y-59253476D01*
X57364285Y-59301095D01*
X58269047Y-59015380D02*
X58935714Y-59015380D01*
X58507142Y-60015380D01*
%TO.C,U103*%
X47942714Y-38695380D02*
X47942714Y-39504904D01*
X47990333Y-39600142D01*
X48037952Y-39647761D01*
X48133190Y-39695380D01*
X48323666Y-39695380D01*
X48418904Y-39647761D01*
X48466523Y-39600142D01*
X48514142Y-39504904D01*
X48514142Y-38695380D01*
X49514142Y-39695380D02*
X48942714Y-39695380D01*
X49228428Y-39695380D02*
X49228428Y-38695380D01*
X49133190Y-38838238D01*
X49037952Y-38933476D01*
X48942714Y-38981095D01*
X50133190Y-38695380D02*
X50228428Y-38695380D01*
X50323666Y-38743000D01*
X50371285Y-38790619D01*
X50418904Y-38885857D01*
X50466523Y-39076333D01*
X50466523Y-39314428D01*
X50418904Y-39504904D01*
X50371285Y-39600142D01*
X50323666Y-39647761D01*
X50228428Y-39695380D01*
X50133190Y-39695380D01*
X50037952Y-39647761D01*
X49990333Y-39600142D01*
X49942714Y-39504904D01*
X49895095Y-39314428D01*
X49895095Y-39076333D01*
X49942714Y-38885857D01*
X49990333Y-38790619D01*
X50037952Y-38743000D01*
X50133190Y-38695380D01*
X50799857Y-38695380D02*
X51418904Y-38695380D01*
X51085571Y-39076333D01*
X51228428Y-39076333D01*
X51323666Y-39123952D01*
X51371285Y-39171571D01*
X51418904Y-39266809D01*
X51418904Y-39504904D01*
X51371285Y-39600142D01*
X51323666Y-39647761D01*
X51228428Y-39695380D01*
X50942714Y-39695380D01*
X50847476Y-39647761D01*
X50799857Y-39600142D01*
%TO.C,C105*%
X39600142Y-58269047D02*
X39647761Y-58316666D01*
X39695380Y-58459523D01*
X39695380Y-58554761D01*
X39647761Y-58697619D01*
X39552523Y-58792857D01*
X39457285Y-58840476D01*
X39266809Y-58888095D01*
X39123952Y-58888095D01*
X38933476Y-58840476D01*
X38838238Y-58792857D01*
X38743000Y-58697619D01*
X38695380Y-58554761D01*
X38695380Y-58459523D01*
X38743000Y-58316666D01*
X38790619Y-58269047D01*
X39695380Y-57316666D02*
X39695380Y-57888095D01*
X39695380Y-57602380D02*
X38695380Y-57602380D01*
X38838238Y-57697619D01*
X38933476Y-57792857D01*
X38981095Y-57888095D01*
X38695380Y-56697619D02*
X38695380Y-56602380D01*
X38743000Y-56507142D01*
X38790619Y-56459523D01*
X38885857Y-56411904D01*
X39076333Y-56364285D01*
X39314428Y-56364285D01*
X39504904Y-56411904D01*
X39600142Y-56459523D01*
X39647761Y-56507142D01*
X39695380Y-56602380D01*
X39695380Y-56697619D01*
X39647761Y-56792857D01*
X39600142Y-56840476D01*
X39504904Y-56888095D01*
X39314428Y-56935714D01*
X39076333Y-56935714D01*
X38885857Y-56888095D01*
X38790619Y-56840476D01*
X38743000Y-56792857D01*
X38695380Y-56697619D01*
X38695380Y-55459523D02*
X38695380Y-55935714D01*
X39171571Y-55983333D01*
X39123952Y-55935714D01*
X39076333Y-55840476D01*
X39076333Y-55602380D01*
X39123952Y-55507142D01*
X39171571Y-55459523D01*
X39266809Y-55411904D01*
X39504904Y-55411904D01*
X39600142Y-55459523D01*
X39647761Y-55507142D01*
X39695380Y-55602380D01*
X39695380Y-55840476D01*
X39647761Y-55935714D01*
X39600142Y-55983333D01*
%TO.C,C104*%
X55141952Y-56999142D02*
X55094333Y-57046761D01*
X54951476Y-57094380D01*
X54856238Y-57094380D01*
X54713380Y-57046761D01*
X54618142Y-56951523D01*
X54570523Y-56856285D01*
X54522904Y-56665809D01*
X54522904Y-56522952D01*
X54570523Y-56332476D01*
X54618142Y-56237238D01*
X54713380Y-56142000D01*
X54856238Y-56094380D01*
X54951476Y-56094380D01*
X55094333Y-56142000D01*
X55141952Y-56189619D01*
X56094333Y-57094380D02*
X55522904Y-57094380D01*
X55808619Y-57094380D02*
X55808619Y-56094380D01*
X55713380Y-56237238D01*
X55618142Y-56332476D01*
X55522904Y-56380095D01*
X56713380Y-56094380D02*
X56808619Y-56094380D01*
X56903857Y-56142000D01*
X56951476Y-56189619D01*
X56999095Y-56284857D01*
X57046714Y-56475333D01*
X57046714Y-56713428D01*
X56999095Y-56903904D01*
X56951476Y-56999142D01*
X56903857Y-57046761D01*
X56808619Y-57094380D01*
X56713380Y-57094380D01*
X56618142Y-57046761D01*
X56570523Y-56999142D01*
X56522904Y-56903904D01*
X56475285Y-56713428D01*
X56475285Y-56475333D01*
X56522904Y-56284857D01*
X56570523Y-56189619D01*
X56618142Y-56142000D01*
X56713380Y-56094380D01*
X57903857Y-56427714D02*
X57903857Y-57094380D01*
X57665761Y-56046761D02*
X57427666Y-56761047D01*
X58046714Y-56761047D01*
%TO.C,C112*%
X40028952Y-39092142D02*
X39981333Y-39139761D01*
X39838476Y-39187380D01*
X39743238Y-39187380D01*
X39600380Y-39139761D01*
X39505142Y-39044523D01*
X39457523Y-38949285D01*
X39409904Y-38758809D01*
X39409904Y-38615952D01*
X39457523Y-38425476D01*
X39505142Y-38330238D01*
X39600380Y-38235000D01*
X39743238Y-38187380D01*
X39838476Y-38187380D01*
X39981333Y-38235000D01*
X40028952Y-38282619D01*
X40981333Y-39187380D02*
X40409904Y-39187380D01*
X40695619Y-39187380D02*
X40695619Y-38187380D01*
X40600380Y-38330238D01*
X40505142Y-38425476D01*
X40409904Y-38473095D01*
X41933714Y-39187380D02*
X41362285Y-39187380D01*
X41648000Y-39187380D02*
X41648000Y-38187380D01*
X41552761Y-38330238D01*
X41457523Y-38425476D01*
X41362285Y-38473095D01*
X42314666Y-38282619D02*
X42362285Y-38235000D01*
X42457523Y-38187380D01*
X42695619Y-38187380D01*
X42790857Y-38235000D01*
X42838476Y-38282619D01*
X42886095Y-38377857D01*
X42886095Y-38473095D01*
X42838476Y-38615952D01*
X42267047Y-39187380D01*
X42886095Y-39187380D01*
%TO.C,U101*%
X52260714Y-61682380D02*
X52260714Y-62491904D01*
X52308333Y-62587142D01*
X52355952Y-62634761D01*
X52451190Y-62682380D01*
X52641666Y-62682380D01*
X52736904Y-62634761D01*
X52784523Y-62587142D01*
X52832142Y-62491904D01*
X52832142Y-61682380D01*
X53832142Y-62682380D02*
X53260714Y-62682380D01*
X53546428Y-62682380D02*
X53546428Y-61682380D01*
X53451190Y-61825238D01*
X53355952Y-61920476D01*
X53260714Y-61968095D01*
X54451190Y-61682380D02*
X54546428Y-61682380D01*
X54641666Y-61730000D01*
X54689285Y-61777619D01*
X54736904Y-61872857D01*
X54784523Y-62063333D01*
X54784523Y-62301428D01*
X54736904Y-62491904D01*
X54689285Y-62587142D01*
X54641666Y-62634761D01*
X54546428Y-62682380D01*
X54451190Y-62682380D01*
X54355952Y-62634761D01*
X54308333Y-62587142D01*
X54260714Y-62491904D01*
X54213095Y-62301428D01*
X54213095Y-62063333D01*
X54260714Y-61872857D01*
X54308333Y-61777619D01*
X54355952Y-61730000D01*
X54451190Y-61682380D01*
X55736904Y-62682380D02*
X55165476Y-62682380D01*
X55451190Y-62682380D02*
X55451190Y-61682380D01*
X55355952Y-61825238D01*
X55260714Y-61920476D01*
X55165476Y-61968095D01*
%TO.C,R102*%
X48839380Y-60047047D02*
X48363190Y-60380380D01*
X48839380Y-60618476D02*
X47839380Y-60618476D01*
X47839380Y-60237523D01*
X47887000Y-60142285D01*
X47934619Y-60094666D01*
X48029857Y-60047047D01*
X48172714Y-60047047D01*
X48267952Y-60094666D01*
X48315571Y-60142285D01*
X48363190Y-60237523D01*
X48363190Y-60618476D01*
X48839380Y-59094666D02*
X48839380Y-59666095D01*
X48839380Y-59380380D02*
X47839380Y-59380380D01*
X47982238Y-59475619D01*
X48077476Y-59570857D01*
X48125095Y-59666095D01*
X47839380Y-58475619D02*
X47839380Y-58380380D01*
X47887000Y-58285142D01*
X47934619Y-58237523D01*
X48029857Y-58189904D01*
X48220333Y-58142285D01*
X48458428Y-58142285D01*
X48648904Y-58189904D01*
X48744142Y-58237523D01*
X48791761Y-58285142D01*
X48839380Y-58380380D01*
X48839380Y-58475619D01*
X48791761Y-58570857D01*
X48744142Y-58618476D01*
X48648904Y-58666095D01*
X48458428Y-58713714D01*
X48220333Y-58713714D01*
X48029857Y-58666095D01*
X47934619Y-58618476D01*
X47887000Y-58570857D01*
X47839380Y-58475619D01*
X47934619Y-57761333D02*
X47887000Y-57713714D01*
X47839380Y-57618476D01*
X47839380Y-57380380D01*
X47887000Y-57285142D01*
X47934619Y-57237523D01*
X48029857Y-57189904D01*
X48125095Y-57189904D01*
X48267952Y-57237523D01*
X48839380Y-57808952D01*
X48839380Y-57189904D01*
%TO.C,J102*%
X61833285Y-45157380D02*
X61833285Y-45871666D01*
X61785666Y-46014523D01*
X61690428Y-46109761D01*
X61547571Y-46157380D01*
X61452333Y-46157380D01*
X62833285Y-46157380D02*
X62261857Y-46157380D01*
X62547571Y-46157380D02*
X62547571Y-45157380D01*
X62452333Y-45300238D01*
X62357095Y-45395476D01*
X62261857Y-45443095D01*
X63452333Y-45157380D02*
X63547571Y-45157380D01*
X63642809Y-45205000D01*
X63690428Y-45252619D01*
X63738047Y-45347857D01*
X63785666Y-45538333D01*
X63785666Y-45776428D01*
X63738047Y-45966904D01*
X63690428Y-46062142D01*
X63642809Y-46109761D01*
X63547571Y-46157380D01*
X63452333Y-46157380D01*
X63357095Y-46109761D01*
X63309476Y-46062142D01*
X63261857Y-45966904D01*
X63214238Y-45776428D01*
X63214238Y-45538333D01*
X63261857Y-45347857D01*
X63309476Y-45252619D01*
X63357095Y-45205000D01*
X63452333Y-45157380D01*
X64166619Y-45252619D02*
X64214238Y-45205000D01*
X64309476Y-45157380D01*
X64547571Y-45157380D01*
X64642809Y-45205000D01*
X64690428Y-45252619D01*
X64738047Y-45347857D01*
X64738047Y-45443095D01*
X64690428Y-45585952D01*
X64119000Y-46157380D01*
X64738047Y-46157380D01*
%TO.C,RV102*%
X49633380Y-77541380D02*
X49300047Y-77065190D01*
X49061952Y-77541380D02*
X49061952Y-76541380D01*
X49442904Y-76541380D01*
X49538142Y-76589000D01*
X49585761Y-76636619D01*
X49633380Y-76731857D01*
X49633380Y-76874714D01*
X49585761Y-76969952D01*
X49538142Y-77017571D01*
X49442904Y-77065190D01*
X49061952Y-77065190D01*
X49919095Y-76541380D02*
X50252428Y-77541380D01*
X50585761Y-76541380D01*
X51442904Y-77541380D02*
X50871476Y-77541380D01*
X51157190Y-77541380D02*
X51157190Y-76541380D01*
X51061952Y-76684238D01*
X50966714Y-76779476D01*
X50871476Y-76827095D01*
X52061952Y-76541380D02*
X52157190Y-76541380D01*
X52252428Y-76589000D01*
X52300047Y-76636619D01*
X52347666Y-76731857D01*
X52395285Y-76922333D01*
X52395285Y-77160428D01*
X52347666Y-77350904D01*
X52300047Y-77446142D01*
X52252428Y-77493761D01*
X52157190Y-77541380D01*
X52061952Y-77541380D01*
X51966714Y-77493761D01*
X51919095Y-77446142D01*
X51871476Y-77350904D01*
X51823857Y-77160428D01*
X51823857Y-76922333D01*
X51871476Y-76731857D01*
X51919095Y-76636619D01*
X51966714Y-76589000D01*
X52061952Y-76541380D01*
X52776238Y-76636619D02*
X52823857Y-76589000D01*
X52919095Y-76541380D01*
X53157190Y-76541380D01*
X53252428Y-76589000D01*
X53300047Y-76636619D01*
X53347666Y-76731857D01*
X53347666Y-76827095D01*
X53300047Y-76969952D01*
X52728619Y-77541380D01*
X53347666Y-77541380D01*
%TO.C,R103*%
X39393952Y-74239380D02*
X39060619Y-73763190D01*
X38822523Y-74239380D02*
X38822523Y-73239380D01*
X39203476Y-73239380D01*
X39298714Y-73287000D01*
X39346333Y-73334619D01*
X39393952Y-73429857D01*
X39393952Y-73572714D01*
X39346333Y-73667952D01*
X39298714Y-73715571D01*
X39203476Y-73763190D01*
X38822523Y-73763190D01*
X40346333Y-74239380D02*
X39774904Y-74239380D01*
X40060619Y-74239380D02*
X40060619Y-73239380D01*
X39965380Y-73382238D01*
X39870142Y-73477476D01*
X39774904Y-73525095D01*
X40965380Y-73239380D02*
X41060619Y-73239380D01*
X41155857Y-73287000D01*
X41203476Y-73334619D01*
X41251095Y-73429857D01*
X41298714Y-73620333D01*
X41298714Y-73858428D01*
X41251095Y-74048904D01*
X41203476Y-74144142D01*
X41155857Y-74191761D01*
X41060619Y-74239380D01*
X40965380Y-74239380D01*
X40870142Y-74191761D01*
X40822523Y-74144142D01*
X40774904Y-74048904D01*
X40727285Y-73858428D01*
X40727285Y-73620333D01*
X40774904Y-73429857D01*
X40822523Y-73334619D01*
X40870142Y-73287000D01*
X40965380Y-73239380D01*
X41632047Y-73239380D02*
X42251095Y-73239380D01*
X41917761Y-73620333D01*
X42060619Y-73620333D01*
X42155857Y-73667952D01*
X42203476Y-73715571D01*
X42251095Y-73810809D01*
X42251095Y-74048904D01*
X42203476Y-74144142D01*
X42155857Y-74191761D01*
X42060619Y-74239380D01*
X41774904Y-74239380D01*
X41679666Y-74191761D01*
X41632047Y-74144142D01*
%TO.C,C110*%
X58824952Y-56491142D02*
X58777333Y-56538761D01*
X58634476Y-56586380D01*
X58539238Y-56586380D01*
X58396380Y-56538761D01*
X58301142Y-56443523D01*
X58253523Y-56348285D01*
X58205904Y-56157809D01*
X58205904Y-56014952D01*
X58253523Y-55824476D01*
X58301142Y-55729238D01*
X58396380Y-55634000D01*
X58539238Y-55586380D01*
X58634476Y-55586380D01*
X58777333Y-55634000D01*
X58824952Y-55681619D01*
X59777333Y-56586380D02*
X59205904Y-56586380D01*
X59491619Y-56586380D02*
X59491619Y-55586380D01*
X59396380Y-55729238D01*
X59301142Y-55824476D01*
X59205904Y-55872095D01*
X60729714Y-56586380D02*
X60158285Y-56586380D01*
X60444000Y-56586380D02*
X60444000Y-55586380D01*
X60348761Y-55729238D01*
X60253523Y-55824476D01*
X60158285Y-55872095D01*
X61348761Y-55586380D02*
X61444000Y-55586380D01*
X61539238Y-55634000D01*
X61586857Y-55681619D01*
X61634476Y-55776857D01*
X61682095Y-55967333D01*
X61682095Y-56205428D01*
X61634476Y-56395904D01*
X61586857Y-56491142D01*
X61539238Y-56538761D01*
X61444000Y-56586380D01*
X61348761Y-56586380D01*
X61253523Y-56538761D01*
X61205904Y-56491142D01*
X61158285Y-56395904D01*
X61110666Y-56205428D01*
X61110666Y-55967333D01*
X61158285Y-55776857D01*
X61205904Y-55681619D01*
X61253523Y-55634000D01*
X61348761Y-55586380D01*
%TO.C,C118*%
X61237952Y-71477142D02*
X61190333Y-71524761D01*
X61047476Y-71572380D01*
X60952238Y-71572380D01*
X60809380Y-71524761D01*
X60714142Y-71429523D01*
X60666523Y-71334285D01*
X60618904Y-71143809D01*
X60618904Y-71000952D01*
X60666523Y-70810476D01*
X60714142Y-70715238D01*
X60809380Y-70620000D01*
X60952238Y-70572380D01*
X61047476Y-70572380D01*
X61190333Y-70620000D01*
X61237952Y-70667619D01*
X62190333Y-71572380D02*
X61618904Y-71572380D01*
X61904619Y-71572380D02*
X61904619Y-70572380D01*
X61809380Y-70715238D01*
X61714142Y-70810476D01*
X61618904Y-70858095D01*
X63142714Y-71572380D02*
X62571285Y-71572380D01*
X62857000Y-71572380D02*
X62857000Y-70572380D01*
X62761761Y-70715238D01*
X62666523Y-70810476D01*
X62571285Y-70858095D01*
X63714142Y-71000952D02*
X63618904Y-70953333D01*
X63571285Y-70905714D01*
X63523666Y-70810476D01*
X63523666Y-70762857D01*
X63571285Y-70667619D01*
X63618904Y-70620000D01*
X63714142Y-70572380D01*
X63904619Y-70572380D01*
X63999857Y-70620000D01*
X64047476Y-70667619D01*
X64095095Y-70762857D01*
X64095095Y-70810476D01*
X64047476Y-70905714D01*
X63999857Y-70953333D01*
X63904619Y-71000952D01*
X63714142Y-71000952D01*
X63618904Y-71048571D01*
X63571285Y-71096190D01*
X63523666Y-71191428D01*
X63523666Y-71381904D01*
X63571285Y-71477142D01*
X63618904Y-71524761D01*
X63714142Y-71572380D01*
X63904619Y-71572380D01*
X63999857Y-71524761D01*
X64047476Y-71477142D01*
X64095095Y-71381904D01*
X64095095Y-71191428D01*
X64047476Y-71096190D01*
X63999857Y-71048571D01*
X63904619Y-71000952D01*
%TO.C,C113*%
X47521952Y-48744142D02*
X47474333Y-48791761D01*
X47331476Y-48839380D01*
X47236238Y-48839380D01*
X47093380Y-48791761D01*
X46998142Y-48696523D01*
X46950523Y-48601285D01*
X46902904Y-48410809D01*
X46902904Y-48267952D01*
X46950523Y-48077476D01*
X46998142Y-47982238D01*
X47093380Y-47887000D01*
X47236238Y-47839380D01*
X47331476Y-47839380D01*
X47474333Y-47887000D01*
X47521952Y-47934619D01*
X48474333Y-48839380D02*
X47902904Y-48839380D01*
X48188619Y-48839380D02*
X48188619Y-47839380D01*
X48093380Y-47982238D01*
X47998142Y-48077476D01*
X47902904Y-48125095D01*
X49426714Y-48839380D02*
X48855285Y-48839380D01*
X49141000Y-48839380D02*
X49141000Y-47839380D01*
X49045761Y-47982238D01*
X48950523Y-48077476D01*
X48855285Y-48125095D01*
X49760047Y-47839380D02*
X50379095Y-47839380D01*
X50045761Y-48220333D01*
X50188619Y-48220333D01*
X50283857Y-48267952D01*
X50331476Y-48315571D01*
X50379095Y-48410809D01*
X50379095Y-48648904D01*
X50331476Y-48744142D01*
X50283857Y-48791761D01*
X50188619Y-48839380D01*
X49902904Y-48839380D01*
X49807666Y-48791761D01*
X49760047Y-48744142D01*
%TO.C,R101*%
X49614952Y-60523380D02*
X49281619Y-60047190D01*
X49043523Y-60523380D02*
X49043523Y-59523380D01*
X49424476Y-59523380D01*
X49519714Y-59571000D01*
X49567333Y-59618619D01*
X49614952Y-59713857D01*
X49614952Y-59856714D01*
X49567333Y-59951952D01*
X49519714Y-59999571D01*
X49424476Y-60047190D01*
X49043523Y-60047190D01*
X50567333Y-60523380D02*
X49995904Y-60523380D01*
X50281619Y-60523380D02*
X50281619Y-59523380D01*
X50186380Y-59666238D01*
X50091142Y-59761476D01*
X49995904Y-59809095D01*
X51186380Y-59523380D02*
X51281619Y-59523380D01*
X51376857Y-59571000D01*
X51424476Y-59618619D01*
X51472095Y-59713857D01*
X51519714Y-59904333D01*
X51519714Y-60142428D01*
X51472095Y-60332904D01*
X51424476Y-60428142D01*
X51376857Y-60475761D01*
X51281619Y-60523380D01*
X51186380Y-60523380D01*
X51091142Y-60475761D01*
X51043523Y-60428142D01*
X50995904Y-60332904D01*
X50948285Y-60142428D01*
X50948285Y-59904333D01*
X50995904Y-59713857D01*
X51043523Y-59618619D01*
X51091142Y-59571000D01*
X51186380Y-59523380D01*
X52472095Y-60523380D02*
X51900666Y-60523380D01*
X52186380Y-60523380D02*
X52186380Y-59523380D01*
X52091142Y-59666238D01*
X51995904Y-59761476D01*
X51900666Y-59809095D01*
D12*
%TO.C,C115*%
X61963748Y-73887000D02*
X62486252Y-73887000D01*
X61963748Y-72417000D02*
X62486252Y-72417000D01*
%TO.C,C114*%
X60933000Y-63888252D02*
X60933000Y-63365748D01*
X59463000Y-63888252D02*
X59463000Y-63365748D01*
%TO.C,J105*%
X57979000Y-46818000D02*
X59309000Y-46818000D01*
X60639000Y-49418000D02*
X60639000Y-54558000D01*
X57979000Y-48148000D02*
X57979000Y-46818000D01*
X57979000Y-49418000D02*
X60639000Y-49418000D01*
X57979000Y-54558000D02*
X60639000Y-54558000D01*
X57979000Y-49418000D02*
X57979000Y-54558000D01*
%TO.C,C107*%
X46743252Y-65378000D02*
X46220748Y-65378000D01*
X46743252Y-63908000D02*
X46220748Y-63908000D01*
%TO.C,C106*%
X41883000Y-70731748D02*
X41883000Y-71254252D01*
X40413000Y-70731748D02*
X40413000Y-71254252D01*
%TO.C,C111*%
X50011000Y-69715748D02*
X50011000Y-70238252D01*
X48541000Y-69715748D02*
X48541000Y-70238252D01*
%TO.C,J101*%
X61662000Y-57217000D02*
X62992000Y-57217000D01*
X61662000Y-58547000D02*
X61662000Y-57217000D01*
X61662000Y-59817000D02*
X64322000Y-59817000D01*
X64322000Y-59817000D02*
X64322000Y-64957000D01*
X61662000Y-59817000D02*
X61662000Y-64957000D01*
X61662000Y-64957000D02*
X64322000Y-64957000D01*
%TO.C,C101*%
X45820000Y-59189252D02*
X45820000Y-58666748D01*
X44350000Y-59189252D02*
X44350000Y-58666748D01*
%TO.C,C116*%
X48775252Y-73506000D02*
X48252748Y-73506000D01*
X48775252Y-72036000D02*
X48252748Y-72036000D01*
%TO.C,R104*%
X57142748Y-66013000D02*
X57665252Y-66013000D01*
X57142748Y-64543000D02*
X57665252Y-64543000D01*
%TO.C,J106*%
X56642000Y-76394000D02*
X54042000Y-76394000D01*
X59242000Y-76394000D02*
X59242000Y-77724000D01*
X57912000Y-76394000D02*
X59242000Y-76394000D01*
X56642000Y-76394000D02*
X56642000Y-79054000D01*
X54042000Y-76394000D02*
X54042000Y-79054000D01*
X56642000Y-79054000D02*
X54042000Y-79054000D01*
%TO.C,J103*%
X39564000Y-54538000D02*
X42224000Y-54538000D01*
X39564000Y-50668000D02*
X39564000Y-49338000D01*
X39564000Y-51938000D02*
X42224000Y-51938000D01*
X42224000Y-51938000D02*
X42224000Y-54538000D01*
X39564000Y-49338000D02*
X40894000Y-49338000D01*
X39564000Y-51938000D02*
X39564000Y-54538000D01*
%TO.C,U102*%
X45349000Y-53213000D02*
X45349000Y-51263000D01*
X54219000Y-53213000D02*
X54219000Y-51263000D01*
X45349000Y-53213000D02*
X45349000Y-56663000D01*
X54219000Y-53213000D02*
X54219000Y-55163000D01*
%TO.C,C108*%
X46509000Y-69334748D02*
X46509000Y-69857252D01*
X47979000Y-69334748D02*
X47979000Y-69857252D01*
%TO.C,C103*%
X64362000Y-66921748D02*
X64362000Y-67444252D01*
X62892000Y-66921748D02*
X62892000Y-67444252D01*
%TO.C,R106*%
X53205748Y-70077000D02*
X53728252Y-70077000D01*
X53205748Y-68607000D02*
X53728252Y-68607000D01*
%TO.C,J107*%
X42351000Y-43937000D02*
X42351000Y-46537000D01*
X39691000Y-46537000D02*
X42351000Y-46537000D01*
X39691000Y-42667000D02*
X39691000Y-41337000D01*
X39691000Y-43937000D02*
X42351000Y-43937000D01*
X39691000Y-41337000D02*
X41021000Y-41337000D01*
X39691000Y-43937000D02*
X39691000Y-46537000D01*
%TO.C,J109*%
X45653000Y-72385000D02*
X45653000Y-74985000D01*
X42993000Y-72385000D02*
X42993000Y-74985000D01*
X42993000Y-72385000D02*
X45653000Y-72385000D01*
X42993000Y-71115000D02*
X42993000Y-69785000D01*
X42993000Y-69785000D02*
X44323000Y-69785000D01*
X42993000Y-74985000D02*
X45653000Y-74985000D01*
%TO.C,J104*%
X61662000Y-39310000D02*
X62992000Y-39310000D01*
X64322000Y-41910000D02*
X64322000Y-44510000D01*
X61662000Y-44510000D02*
X64322000Y-44510000D01*
X61662000Y-41910000D02*
X64322000Y-41910000D01*
X61662000Y-41910000D02*
X61662000Y-44510000D01*
X61662000Y-40640000D02*
X61662000Y-39310000D01*
%TO.C,RV101*%
X38618000Y-59240000D02*
X43688000Y-59240000D01*
X38618000Y-69010000D02*
X38618000Y-59240000D01*
X38618000Y-69010000D02*
X43688000Y-69010000D01*
X43688000Y-69010000D02*
X43688000Y-59240000D01*
%TO.C,J108*%
X57979000Y-44505000D02*
X60639000Y-44505000D01*
X60639000Y-41905000D02*
X60639000Y-44505000D01*
X57979000Y-39305000D02*
X59309000Y-39305000D01*
X57979000Y-41905000D02*
X57979000Y-44505000D01*
X57979000Y-40635000D02*
X57979000Y-39305000D01*
X57979000Y-41905000D02*
X60639000Y-41905000D01*
%TO.C,R105*%
X61094252Y-67156000D02*
X60571748Y-67156000D01*
X61094252Y-65686000D02*
X60571748Y-65686000D01*
%TO.C,C117*%
X57142748Y-66575000D02*
X57665252Y-66575000D01*
X57142748Y-68045000D02*
X57665252Y-68045000D01*
%TO.C,U103*%
X54092000Y-43561000D02*
X54092000Y-45511000D01*
X45222000Y-43561000D02*
X45222000Y-41611000D01*
X45222000Y-43561000D02*
X45222000Y-47011000D01*
X54092000Y-43561000D02*
X54092000Y-41611000D01*
%TO.C,C105*%
X40413000Y-57538252D02*
X40413000Y-57015748D01*
X41883000Y-57538252D02*
X41883000Y-57015748D01*
%TO.C,C104*%
X57142748Y-62130000D02*
X57665252Y-62130000D01*
X57142748Y-63600000D02*
X57665252Y-63600000D01*
%TO.C,C112*%
X45092252Y-38000000D02*
X44569748Y-38000000D01*
X45092252Y-39470000D02*
X44569748Y-39470000D01*
%TO.C,U101*%
X51943000Y-62972000D02*
X48493000Y-62972000D01*
X51943000Y-68092000D02*
X53893000Y-68092000D01*
X51943000Y-68092000D02*
X49993000Y-68092000D01*
X51943000Y-62972000D02*
X53893000Y-62972000D01*
%TO.C,R102*%
X46855748Y-62457000D02*
X47378252Y-62457000D01*
X46855748Y-60987000D02*
X47378252Y-60987000D01*
%TO.C,J102*%
X61662000Y-46803000D02*
X62992000Y-46803000D01*
X61662000Y-48133000D02*
X61662000Y-46803000D01*
X61662000Y-49403000D02*
X64322000Y-49403000D01*
X61662000Y-49403000D02*
X61662000Y-54543000D01*
X61662000Y-54543000D02*
X64322000Y-54543000D01*
X64322000Y-49403000D02*
X64322000Y-54543000D01*
%TO.C,RV102*%
X50487000Y-70622000D02*
X50487000Y-75692000D01*
X60257000Y-70622000D02*
X60257000Y-75692000D01*
X50487000Y-70622000D02*
X60257000Y-70622000D01*
X50487000Y-75692000D02*
X60257000Y-75692000D01*
%TO.C,R103*%
X46220748Y-66067000D02*
X46743252Y-66067000D01*
X46220748Y-67537000D02*
X46743252Y-67537000D01*
%TO.C,C110*%
X60806000Y-58681252D02*
X60806000Y-58158748D01*
X59336000Y-58681252D02*
X59336000Y-58158748D01*
%TO.C,C118*%
X56634748Y-68607000D02*
X57157252Y-68607000D01*
X56634748Y-70077000D02*
X57157252Y-70077000D01*
%TO.C,C113*%
X45219252Y-47652000D02*
X44696748Y-47652000D01*
X45219252Y-49122000D02*
X44696748Y-49122000D01*
%TO.C,R101*%
X50807252Y-60987000D02*
X50284748Y-60987000D01*
X50807252Y-62457000D02*
X50284748Y-62457000D01*
%TD*%
M02*
