%TF.GenerationSoftware,KiCad,Pcbnew,(6.0.8)*%
%TF.CreationDate,2022-10-15T16:47:31+02:00*%
%TF.ProjectId,Digital Delay,44696769-7461-46c2-9044-656c61792e6b,rev?*%
%TF.SameCoordinates,Original*%
%TF.FileFunction,Copper,L2,Inr*%
%TF.FilePolarity,Positive*%
%FSLAX46Y46*%
G04 Gerber Fmt 4.6, Leading zero omitted, Abs format (unit mm)*
G04 Created by KiCad (PCBNEW (6.0.8)) date 2022-10-15 16:47:31*
%MOMM*%
%LPD*%
G01*
G04 APERTURE LIST*
%TA.AperFunction,ComponentPad*%
%ADD10R,1.700000X1.700000*%
%TD*%
%TA.AperFunction,ComponentPad*%
%ADD11O,1.700000X1.700000*%
%TD*%
%TA.AperFunction,ComponentPad*%
%ADD12C,1.440000*%
%TD*%
%TA.AperFunction,ViaPad*%
%ADD13C,0.800000*%
%TD*%
G04 APERTURE END LIST*
D10*
%TO.N,/Signal_Out_Falling*%
%TO.C,J105*%
X59309000Y-48148000D03*
D11*
%TO.N,/Falling_Edge_Out*%
X59309000Y-50688000D03*
%TO.N,Signal_Falling*%
X59309000Y-53228000D03*
%TD*%
D10*
%TO.N,-5V*%
%TO.C,J101*%
X62992000Y-58547000D03*
D11*
%TO.N,GND*%
X62992000Y-61087000D03*
%TO.N,+5V*%
X62992000Y-63627000D03*
%TD*%
D10*
%TO.N,GND*%
%TO.C,J106*%
X57912000Y-77724000D03*
D11*
%TO.N,/Ref_Comp_B*%
X55372000Y-77724000D03*
%TD*%
D10*
%TO.N,GND*%
%TO.C,J103*%
X40894000Y-50668000D03*
D11*
%TO.N,/Ref_Comp_A*%
X40894000Y-53208000D03*
%TD*%
D10*
%TO.N,GND*%
%TO.C,J107*%
X41021000Y-42667000D03*
D11*
%TO.N,/Falling_Edge_Out*%
X41021000Y-45207000D03*
%TD*%
D10*
%TO.N,Signal_In*%
%TO.C,J109*%
X44323000Y-71115000D03*
D11*
%TO.N,GND*%
X44323000Y-73655000D03*
%TD*%
D10*
%TO.N,GND*%
%TO.C,J104*%
X62992000Y-40640000D03*
D11*
%TO.N,/Rising_Edge_Out*%
X62992000Y-43180000D03*
%TD*%
D12*
%TO.N,+5V*%
%TO.C,RV101*%
X41148000Y-61585000D03*
%TO.N,/Ref_Comp_A*%
X41148000Y-64125000D03*
%TO.N,-5V*%
X41148000Y-66665000D03*
%TD*%
D10*
%TO.N,GND*%
%TO.C,J108*%
X59309000Y-40635000D03*
D11*
%TO.N,/Both_Edges_Out*%
X59309000Y-43175000D03*
%TD*%
D10*
%TO.N,/Signal_Out_Rising*%
%TO.C,J102*%
X62992000Y-48133000D03*
D11*
%TO.N,/Rising_Edge_Out*%
X62992000Y-50673000D03*
%TO.N,Signal_Rising*%
X62992000Y-53213000D03*
%TD*%
D12*
%TO.N,+5V*%
%TO.C,RV102*%
X57912000Y-73152000D03*
%TO.N,/Ref_Comp_B*%
X55372000Y-73152000D03*
%TO.N,-5V*%
X52832000Y-73152000D03*
%TD*%
D13*
%TO.N,+5V*%
X61380489Y-71715511D03*
X47117000Y-48768000D03*
X46863000Y-38227000D03*
X61087000Y-67691000D03*
X57023000Y-61468000D03*
X42545000Y-57912000D03*
X46863000Y-39116000D03*
X46355000Y-60452000D03*
X48540220Y-57327899D03*
X46355000Y-59563000D03*
%TO.N,GND*%
X58420000Y-61976000D03*
X63627000Y-69342000D03*
X54610000Y-56642000D03*
X47498000Y-74168000D03*
X42799000Y-48895000D03*
X60579000Y-56388000D03*
X53467000Y-47752000D03*
X42545000Y-71628000D03*
X59690000Y-56388000D03*
X59055000Y-68707000D03*
X44450000Y-64389000D03*
X62992000Y-71755000D03*
X62230000Y-67818000D03*
X52819374Y-66255835D03*
X48821734Y-54085724D03*
X59436000Y-61595000D03*
X56822438Y-54797297D03*
X54483000Y-45339000D03*
X43577826Y-66776378D03*
X54610000Y-54864000D03*
X56740762Y-49784980D03*
X57789502Y-53366952D03*
X54380718Y-41388965D03*
X39751000Y-55880000D03*
X43434000Y-46990000D03*
X42672000Y-38227000D03*
X42672000Y-39116000D03*
X63881000Y-74549000D03*
X59563000Y-67945000D03*
X44196000Y-40132000D03*
X43831497Y-50800000D03*
X46482000Y-73152000D03*
X39751000Y-56769000D03*
X43307000Y-40132000D03*
X47498000Y-71501000D03*
X62992000Y-74549000D03*
X54483000Y-46482000D03*
X42545000Y-55880000D03*
X43561000Y-49784000D03*
X60325000Y-61595000D03*
X40788034Y-55250119D03*
X42545000Y-72517000D03*
X51435000Y-44323000D03*
X65024000Y-67818000D03*
X39751000Y-71628000D03*
X50673000Y-71501000D03*
X44450000Y-65405000D03*
X50016023Y-52314523D03*
X44450000Y-49784000D03*
X44323000Y-46990000D03*
X45974000Y-71120000D03*
X56022672Y-43053010D03*
X52675563Y-42298698D03*
X44848201Y-44539500D03*
X43269117Y-60297681D03*
X50971168Y-67906122D03*
X59055000Y-69850000D03*
X59436000Y-60706000D03*
X41148000Y-73152000D03*
X42799000Y-48006000D03*
X44704000Y-56769000D03*
X43688000Y-57465000D03*
X43688000Y-58354000D03*
X54610000Y-55753000D03*
X48102904Y-47789317D03*
X52521830Y-44310500D03*
X58674000Y-57531000D03*
X57553500Y-67147286D03*
X65024000Y-68707000D03*
X46482000Y-72263000D03*
X48553500Y-42418000D03*
X47371000Y-42418000D03*
X57402648Y-51546273D03*
X64389000Y-73152000D03*
X50690932Y-53935907D03*
X50673000Y-70612000D03*
X46482000Y-58354000D03*
X51562000Y-42291000D03*
X62230000Y-68707000D03*
X45974000Y-70231000D03*
X39751000Y-72517000D03*
X63881000Y-71755000D03*
X57912000Y-70739000D03*
%TO.N,-5V*%
X58740000Y-59370000D03*
X49022000Y-74168000D03*
X42545000Y-70358000D03*
X39751000Y-70358000D03*
X50673000Y-69469000D03*
%TO.N,/Ref_Comp_B*%
X56896000Y-68385699D03*
%TO.N,/Signal_Comp_B*%
X53002495Y-67238419D03*
X57277000Y-66167000D03*
%TO.N,Signal_Rising*%
X56755728Y-50784369D03*
%TO.N,Signal_Falling*%
X49784000Y-54356000D03*
X51054000Y-52336500D03*
X56740773Y-52295773D03*
%TO.N,/Both_Edges_Out*%
X54206979Y-42373251D03*
X52567500Y-46794942D03*
X51537258Y-54467638D03*
X53594000Y-44310500D03*
%TO.N,Signal_In*%
X51000883Y-66907062D03*
X44831000Y-50800000D03*
X41787296Y-55228163D03*
X47117000Y-47625000D03*
X43459590Y-64254501D03*
X44577000Y-66802000D03*
%TO.N,/Comp_Out_B*%
X55023873Y-43015500D03*
X55991262Y-55356262D03*
X45847000Y-44577000D03*
X52832000Y-43307000D03*
%TO.N,Net-(U102-Pad6)*%
X50419000Y-44577000D03*
X52959000Y-54102000D03*
%TO.N,Net-(U102-Pad8)*%
X53594000Y-49276000D03*
X52468201Y-47789500D03*
%TD*%
%TA.AperFunction,Conductor*%
%TO.N,GND*%
G36*
X46245640Y-37739502D02*
G01*
X46292133Y-37793158D01*
X46302237Y-37863432D01*
X46288563Y-37905041D01*
X46286316Y-37909232D01*
X46281950Y-37915444D01*
X46224406Y-38063037D01*
X46203729Y-38220096D01*
X46221113Y-38377553D01*
X46275553Y-38526319D01*
X46279788Y-38532622D01*
X46279792Y-38532629D01*
X46325922Y-38601277D01*
X46347315Y-38668974D01*
X46328711Y-38737490D01*
X46324428Y-38744004D01*
X46281950Y-38804444D01*
X46224406Y-38952037D01*
X46203729Y-39109096D01*
X46221113Y-39266553D01*
X46223723Y-39273684D01*
X46223723Y-39273686D01*
X46249899Y-39345214D01*
X46275553Y-39415319D01*
X46279789Y-39421622D01*
X46279789Y-39421623D01*
X46288292Y-39434276D01*
X46363908Y-39546805D01*
X46369527Y-39551918D01*
X46369528Y-39551919D01*
X46380903Y-39562269D01*
X46481076Y-39653419D01*
X46620293Y-39729008D01*
X46773522Y-39769207D01*
X46857477Y-39770526D01*
X46924319Y-39771576D01*
X46924322Y-39771576D01*
X46931916Y-39771695D01*
X47086332Y-39736329D01*
X47156742Y-39700917D01*
X47221072Y-39668563D01*
X47221075Y-39668561D01*
X47227855Y-39665151D01*
X47233626Y-39660222D01*
X47233629Y-39660220D01*
X47342536Y-39567204D01*
X47342536Y-39567203D01*
X47348314Y-39562269D01*
X47440755Y-39433624D01*
X47499842Y-39286641D01*
X47522162Y-39129807D01*
X47522307Y-39116000D01*
X47503276Y-38958733D01*
X47447280Y-38810546D01*
X47400832Y-38742963D01*
X47378732Y-38675493D01*
X47396618Y-38606786D01*
X47402350Y-38598070D01*
X47440755Y-38544624D01*
X47499842Y-38397641D01*
X47522162Y-38240807D01*
X47522307Y-38227000D01*
X47503276Y-38069733D01*
X47447280Y-37921546D01*
X47442979Y-37915288D01*
X47439459Y-37908555D01*
X47441067Y-37907714D01*
X47421964Y-37849402D01*
X47439847Y-37780694D01*
X47492038Y-37732562D01*
X47547904Y-37719500D01*
X65786500Y-37719500D01*
X65854621Y-37739502D01*
X65901114Y-37793158D01*
X65912500Y-37845500D01*
X65912500Y-79375500D01*
X65892498Y-79443621D01*
X65838842Y-79490114D01*
X65786500Y-79501500D01*
X38607500Y-79501500D01*
X38539379Y-79481498D01*
X38492886Y-79427842D01*
X38481500Y-79375500D01*
X38481500Y-77694964D01*
X54263148Y-77694964D01*
X54276424Y-77897522D01*
X54277845Y-77903118D01*
X54277846Y-77903123D01*
X54324971Y-78088674D01*
X54326392Y-78094269D01*
X54328809Y-78099512D01*
X54389550Y-78231270D01*
X54411377Y-78278616D01*
X54528533Y-78444389D01*
X54673938Y-78586035D01*
X54678742Y-78589245D01*
X54732980Y-78625486D01*
X54842720Y-78698812D01*
X54848023Y-78701090D01*
X54848026Y-78701092D01*
X54936707Y-78739192D01*
X55029228Y-78778942D01*
X55102244Y-78795464D01*
X55221579Y-78822467D01*
X55221584Y-78822468D01*
X55227216Y-78823742D01*
X55232987Y-78823969D01*
X55232989Y-78823969D01*
X55292756Y-78826317D01*
X55430053Y-78831712D01*
X55530499Y-78817148D01*
X55625231Y-78803413D01*
X55625236Y-78803412D01*
X55630945Y-78802584D01*
X55636409Y-78800729D01*
X55636414Y-78800728D01*
X55817693Y-78739192D01*
X55817698Y-78739190D01*
X55823165Y-78737334D01*
X56000276Y-78638147D01*
X56015495Y-78625490D01*
X56151913Y-78512031D01*
X56156345Y-78508345D01*
X56286147Y-78352276D01*
X56288969Y-78347236D01*
X56288973Y-78347231D01*
X56318067Y-78295279D01*
X56368804Y-78245617D01*
X56438335Y-78231270D01*
X56504586Y-78256791D01*
X56546522Y-78314080D01*
X56554001Y-78356845D01*
X56554001Y-78618669D01*
X56554371Y-78625490D01*
X56559895Y-78676352D01*
X56563521Y-78691604D01*
X56608676Y-78812054D01*
X56617214Y-78827649D01*
X56693715Y-78929724D01*
X56706276Y-78942285D01*
X56808351Y-79018786D01*
X56823946Y-79027324D01*
X56944394Y-79072478D01*
X56959649Y-79076105D01*
X57010514Y-79081631D01*
X57017328Y-79082000D01*
X57639885Y-79082000D01*
X57655124Y-79077525D01*
X57656329Y-79076135D01*
X57658000Y-79068452D01*
X57658000Y-79063884D01*
X58166000Y-79063884D01*
X58170475Y-79079123D01*
X58171865Y-79080328D01*
X58179548Y-79081999D01*
X58806669Y-79081999D01*
X58813490Y-79081629D01*
X58864352Y-79076105D01*
X58879604Y-79072479D01*
X59000054Y-79027324D01*
X59015649Y-79018786D01*
X59117724Y-78942285D01*
X59130285Y-78929724D01*
X59206786Y-78827649D01*
X59215324Y-78812054D01*
X59260478Y-78691606D01*
X59264105Y-78676351D01*
X59269631Y-78625486D01*
X59270000Y-78618672D01*
X59270000Y-77996115D01*
X59265525Y-77980876D01*
X59264135Y-77979671D01*
X59256452Y-77978000D01*
X58184115Y-77978000D01*
X58168876Y-77982475D01*
X58167671Y-77983865D01*
X58166000Y-77991548D01*
X58166000Y-79063884D01*
X57658000Y-79063884D01*
X57658000Y-77451885D01*
X58166000Y-77451885D01*
X58170475Y-77467124D01*
X58171865Y-77468329D01*
X58179548Y-77470000D01*
X59251884Y-77470000D01*
X59267123Y-77465525D01*
X59268328Y-77464135D01*
X59269999Y-77456452D01*
X59269999Y-76829331D01*
X59269629Y-76822510D01*
X59264105Y-76771648D01*
X59260479Y-76756396D01*
X59215324Y-76635946D01*
X59206786Y-76620351D01*
X59130285Y-76518276D01*
X59117724Y-76505715D01*
X59015649Y-76429214D01*
X59000054Y-76420676D01*
X58879606Y-76375522D01*
X58864351Y-76371895D01*
X58813486Y-76366369D01*
X58806672Y-76366000D01*
X58184115Y-76366000D01*
X58168876Y-76370475D01*
X58167671Y-76371865D01*
X58166000Y-76379548D01*
X58166000Y-77451885D01*
X57658000Y-77451885D01*
X57658000Y-76384116D01*
X57653525Y-76368877D01*
X57652135Y-76367672D01*
X57644452Y-76366001D01*
X57017331Y-76366001D01*
X57010510Y-76366371D01*
X56959648Y-76371895D01*
X56944396Y-76375521D01*
X56823946Y-76420676D01*
X56808351Y-76429214D01*
X56706276Y-76505715D01*
X56693715Y-76518276D01*
X56617214Y-76620351D01*
X56608676Y-76635946D01*
X56563522Y-76756394D01*
X56559895Y-76771649D01*
X56554369Y-76822514D01*
X56554000Y-76829328D01*
X56554000Y-77084160D01*
X56533998Y-77152281D01*
X56480342Y-77198774D01*
X56410068Y-77208878D01*
X56345488Y-77179384D01*
X56320567Y-77149994D01*
X56320331Y-77149608D01*
X56317776Y-77144428D01*
X56196320Y-76981779D01*
X56047258Y-76843987D01*
X56042375Y-76840906D01*
X56042371Y-76840903D01*
X55880464Y-76738748D01*
X55875581Y-76735667D01*
X55687039Y-76660446D01*
X55681379Y-76659320D01*
X55681375Y-76659319D01*
X55493613Y-76621971D01*
X55493610Y-76621971D01*
X55487946Y-76620844D01*
X55482171Y-76620768D01*
X55482167Y-76620768D01*
X55380793Y-76619441D01*
X55284971Y-76618187D01*
X55279274Y-76619166D01*
X55279273Y-76619166D01*
X55181620Y-76635946D01*
X55084910Y-76652564D01*
X54894463Y-76722824D01*
X54720010Y-76826612D01*
X54715670Y-76830418D01*
X54715666Y-76830421D01*
X54695723Y-76847911D01*
X54567392Y-76960455D01*
X54441720Y-77119869D01*
X54439031Y-77124980D01*
X54439029Y-77124983D01*
X54425870Y-77149994D01*
X54347203Y-77299515D01*
X54287007Y-77493378D01*
X54263148Y-77694964D01*
X38481500Y-77694964D01*
X38481500Y-73922966D01*
X42991257Y-73922966D01*
X43021565Y-74057446D01*
X43024645Y-74067275D01*
X43104770Y-74264603D01*
X43109413Y-74273794D01*
X43220694Y-74455388D01*
X43226777Y-74463699D01*
X43366213Y-74624667D01*
X43373580Y-74631883D01*
X43537434Y-74767916D01*
X43545881Y-74773831D01*
X43729756Y-74881279D01*
X43739042Y-74885729D01*
X43938001Y-74961703D01*
X43947899Y-74964579D01*
X44051250Y-74985606D01*
X44065299Y-74984410D01*
X44069000Y-74974065D01*
X44069000Y-74973517D01*
X44577000Y-74973517D01*
X44581064Y-74987359D01*
X44594478Y-74989393D01*
X44601184Y-74988534D01*
X44611262Y-74986392D01*
X44815255Y-74925191D01*
X44824842Y-74921433D01*
X45016095Y-74827739D01*
X45024945Y-74822464D01*
X45198328Y-74698792D01*
X45206200Y-74692139D01*
X45357052Y-74541812D01*
X45363730Y-74533965D01*
X45488003Y-74361020D01*
X45493313Y-74352183D01*
X45587670Y-74161267D01*
X45587738Y-74161096D01*
X48362729Y-74161096D01*
X48380113Y-74318553D01*
X48382723Y-74325684D01*
X48382723Y-74325686D01*
X48395654Y-74361020D01*
X48434553Y-74467319D01*
X48522908Y-74598805D01*
X48528527Y-74603918D01*
X48528528Y-74603919D01*
X48539903Y-74614269D01*
X48640076Y-74705419D01*
X48779293Y-74781008D01*
X48932522Y-74821207D01*
X49016477Y-74822526D01*
X49083319Y-74823576D01*
X49083322Y-74823576D01*
X49090916Y-74823695D01*
X49245332Y-74788329D01*
X49315742Y-74752917D01*
X49380072Y-74720563D01*
X49380075Y-74720561D01*
X49386855Y-74717151D01*
X49392626Y-74712222D01*
X49392629Y-74712220D01*
X49501536Y-74619204D01*
X49501536Y-74619203D01*
X49507314Y-74614269D01*
X49599755Y-74485624D01*
X49658842Y-74338641D01*
X49681162Y-74181807D01*
X49681307Y-74168000D01*
X49662276Y-74010733D01*
X49606280Y-73862546D01*
X49516553Y-73731992D01*
X49398275Y-73626611D01*
X49390889Y-73622700D01*
X49264988Y-73556039D01*
X49264989Y-73556039D01*
X49258274Y-73552484D01*
X49104633Y-73513892D01*
X49097034Y-73513852D01*
X49097033Y-73513852D01*
X49031181Y-73513507D01*
X48946221Y-73513062D01*
X48938841Y-73514834D01*
X48938839Y-73514834D01*
X48799563Y-73548271D01*
X48799560Y-73548272D01*
X48792184Y-73550043D01*
X48651414Y-73622700D01*
X48532039Y-73726838D01*
X48440950Y-73856444D01*
X48438190Y-73863524D01*
X48393254Y-73978779D01*
X48383406Y-74004037D01*
X48382414Y-74011570D01*
X48382414Y-74011571D01*
X48363970Y-74151672D01*
X48362729Y-74161096D01*
X45587738Y-74161096D01*
X45591469Y-74151672D01*
X45653377Y-73947910D01*
X45655555Y-73937837D01*
X45656986Y-73926962D01*
X45654775Y-73912778D01*
X45641617Y-73909000D01*
X44595115Y-73909000D01*
X44579876Y-73913475D01*
X44578671Y-73914865D01*
X44577000Y-73922548D01*
X44577000Y-74973517D01*
X44069000Y-74973517D01*
X44069000Y-73927115D01*
X44064525Y-73911876D01*
X44063135Y-73910671D01*
X44055452Y-73909000D01*
X43006225Y-73909000D01*
X42992694Y-73912973D01*
X42991257Y-73922966D01*
X38481500Y-73922966D01*
X38481500Y-70351096D01*
X39091729Y-70351096D01*
X39109113Y-70508553D01*
X39163553Y-70657319D01*
X39251908Y-70788805D01*
X39257527Y-70793918D01*
X39257528Y-70793919D01*
X39268903Y-70804269D01*
X39369076Y-70895419D01*
X39508293Y-70971008D01*
X39661522Y-71011207D01*
X39745477Y-71012526D01*
X39812319Y-71013576D01*
X39812322Y-71013576D01*
X39819916Y-71013695D01*
X39974332Y-70978329D01*
X40096555Y-70916858D01*
X40109072Y-70910563D01*
X40109075Y-70910561D01*
X40115855Y-70907151D01*
X40121626Y-70902222D01*
X40121629Y-70902220D01*
X40230536Y-70809204D01*
X40230536Y-70809203D01*
X40236314Y-70804269D01*
X40328755Y-70675624D01*
X40387842Y-70528641D01*
X40410162Y-70371807D01*
X40410307Y-70358000D01*
X40409472Y-70351096D01*
X41885729Y-70351096D01*
X41903113Y-70508553D01*
X41957553Y-70657319D01*
X42045908Y-70788805D01*
X42051527Y-70793918D01*
X42051528Y-70793919D01*
X42062903Y-70804269D01*
X42163076Y-70895419D01*
X42302293Y-70971008D01*
X42455522Y-71011207D01*
X42539477Y-71012526D01*
X42606319Y-71013576D01*
X42606322Y-71013576D01*
X42613916Y-71013695D01*
X42768332Y-70978329D01*
X42890555Y-70916858D01*
X42903072Y-70910563D01*
X42903075Y-70910561D01*
X42909855Y-70907151D01*
X43010670Y-70821046D01*
X43075459Y-70792016D01*
X43145659Y-70802621D01*
X43198981Y-70849495D01*
X43218500Y-70916858D01*
X43218501Y-71544468D01*
X43218501Y-71990066D01*
X43233266Y-72064301D01*
X43289516Y-72148484D01*
X43373699Y-72204734D01*
X43447933Y-72219500D01*
X43624500Y-72219500D01*
X43692621Y-72239502D01*
X43739114Y-72293158D01*
X43749218Y-72363432D01*
X43719724Y-72428012D01*
X43682681Y-72457263D01*
X43601458Y-72499545D01*
X43592738Y-72505036D01*
X43422433Y-72632905D01*
X43414726Y-72639748D01*
X43267590Y-72793717D01*
X43261104Y-72801727D01*
X43141098Y-72977649D01*
X43136000Y-72986623D01*
X43046338Y-73179783D01*
X43042775Y-73189470D01*
X42987389Y-73389183D01*
X42988912Y-73397607D01*
X43001292Y-73401000D01*
X45641344Y-73401000D01*
X45654875Y-73397027D01*
X45656180Y-73387947D01*
X45614214Y-73220875D01*
X45610894Y-73211124D01*
X45579242Y-73138328D01*
X51852880Y-73138328D01*
X51868872Y-73328767D01*
X51921549Y-73512473D01*
X51924367Y-73517955D01*
X51924368Y-73517959D01*
X52006085Y-73676963D01*
X52006088Y-73676967D01*
X52008905Y-73682449D01*
X52127612Y-73832220D01*
X52132306Y-73836215D01*
X52156086Y-73856453D01*
X52273149Y-73956082D01*
X52278527Y-73959088D01*
X52278529Y-73959089D01*
X52318733Y-73981558D01*
X52439972Y-74049316D01*
X52621728Y-74108372D01*
X52811493Y-74131000D01*
X52817628Y-74130528D01*
X52817630Y-74130528D01*
X52881393Y-74125622D01*
X53002039Y-74116339D01*
X53186108Y-74064945D01*
X53200954Y-74057446D01*
X53351189Y-73981558D01*
X53351191Y-73981557D01*
X53356690Y-73978779D01*
X53507286Y-73861120D01*
X53511312Y-73856456D01*
X53511315Y-73856453D01*
X53628134Y-73721116D01*
X53632161Y-73716451D01*
X53726557Y-73550283D01*
X53738350Y-73514834D01*
X53784934Y-73374796D01*
X53786881Y-73368944D01*
X53810833Y-73179341D01*
X53811215Y-73152000D01*
X53809874Y-73138328D01*
X54392880Y-73138328D01*
X54408872Y-73328767D01*
X54461549Y-73512473D01*
X54464367Y-73517955D01*
X54464368Y-73517959D01*
X54546085Y-73676963D01*
X54546088Y-73676967D01*
X54548905Y-73682449D01*
X54667612Y-73832220D01*
X54672306Y-73836215D01*
X54696086Y-73856453D01*
X54813149Y-73956082D01*
X54818527Y-73959088D01*
X54818529Y-73959089D01*
X54858733Y-73981558D01*
X54979972Y-74049316D01*
X55161728Y-74108372D01*
X55351493Y-74131000D01*
X55357628Y-74130528D01*
X55357630Y-74130528D01*
X55421393Y-74125622D01*
X55542039Y-74116339D01*
X55726108Y-74064945D01*
X55740954Y-74057446D01*
X55891189Y-73981558D01*
X55891191Y-73981557D01*
X55896690Y-73978779D01*
X56047286Y-73861120D01*
X56051312Y-73856456D01*
X56051315Y-73856453D01*
X56168134Y-73721116D01*
X56172161Y-73716451D01*
X56266557Y-73550283D01*
X56278350Y-73514834D01*
X56324934Y-73374796D01*
X56326881Y-73368944D01*
X56350833Y-73179341D01*
X56351215Y-73152000D01*
X56349874Y-73138328D01*
X56932880Y-73138328D01*
X56948872Y-73328767D01*
X57001549Y-73512473D01*
X57004367Y-73517955D01*
X57004368Y-73517959D01*
X57086085Y-73676963D01*
X57086088Y-73676967D01*
X57088905Y-73682449D01*
X57207612Y-73832220D01*
X57212306Y-73836215D01*
X57236086Y-73856453D01*
X57353149Y-73956082D01*
X57358527Y-73959088D01*
X57358529Y-73959089D01*
X57398733Y-73981558D01*
X57519972Y-74049316D01*
X57701728Y-74108372D01*
X57891493Y-74131000D01*
X57897628Y-74130528D01*
X57897630Y-74130528D01*
X57961393Y-74125622D01*
X58082039Y-74116339D01*
X58266108Y-74064945D01*
X58280954Y-74057446D01*
X58431189Y-73981558D01*
X58431191Y-73981557D01*
X58436690Y-73978779D01*
X58587286Y-73861120D01*
X58591312Y-73856456D01*
X58591315Y-73856453D01*
X58708134Y-73721116D01*
X58712161Y-73716451D01*
X58806557Y-73550283D01*
X58818350Y-73514834D01*
X58864934Y-73374796D01*
X58866881Y-73368944D01*
X58890833Y-73179341D01*
X58891215Y-73152000D01*
X58872566Y-72961803D01*
X58817329Y-72778850D01*
X58772469Y-72694481D01*
X58730503Y-72615553D01*
X58730501Y-72615550D01*
X58727609Y-72610111D01*
X58723719Y-72605341D01*
X58723716Y-72605337D01*
X58610717Y-72466787D01*
X58610714Y-72466784D01*
X58606822Y-72462012D01*
X58601082Y-72457263D01*
X58464319Y-72344123D01*
X58459570Y-72340194D01*
X58291461Y-72249298D01*
X58108899Y-72192785D01*
X58102781Y-72192142D01*
X58102776Y-72192141D01*
X57924965Y-72173453D01*
X57924963Y-72173453D01*
X57918836Y-72172809D01*
X57839644Y-72180016D01*
X57734652Y-72189571D01*
X57734649Y-72189572D01*
X57728513Y-72190130D01*
X57722607Y-72191868D01*
X57722603Y-72191869D01*
X57589352Y-72231088D01*
X57545180Y-72244088D01*
X57375818Y-72332628D01*
X57371018Y-72336488D01*
X57371017Y-72336488D01*
X57333329Y-72366790D01*
X57226879Y-72452378D01*
X57104036Y-72598776D01*
X57101068Y-72604174D01*
X57101065Y-72604179D01*
X57024584Y-72743300D01*
X57011969Y-72766246D01*
X57010108Y-72772113D01*
X57010107Y-72772115D01*
X57000714Y-72801727D01*
X56954183Y-72948410D01*
X56932880Y-73138328D01*
X56349874Y-73138328D01*
X56332566Y-72961803D01*
X56277329Y-72778850D01*
X56232469Y-72694481D01*
X56190503Y-72615553D01*
X56190501Y-72615550D01*
X56187609Y-72610111D01*
X56183719Y-72605341D01*
X56183716Y-72605337D01*
X56070717Y-72466787D01*
X56070714Y-72466784D01*
X56066822Y-72462012D01*
X56061082Y-72457263D01*
X55924319Y-72344123D01*
X55919570Y-72340194D01*
X55751461Y-72249298D01*
X55568899Y-72192785D01*
X55562781Y-72192142D01*
X55562776Y-72192141D01*
X55384965Y-72173453D01*
X55384963Y-72173453D01*
X55378836Y-72172809D01*
X55299644Y-72180016D01*
X55194652Y-72189571D01*
X55194649Y-72189572D01*
X55188513Y-72190130D01*
X55182607Y-72191868D01*
X55182603Y-72191869D01*
X55049352Y-72231088D01*
X55005180Y-72244088D01*
X54835818Y-72332628D01*
X54831018Y-72336488D01*
X54831017Y-72336488D01*
X54793329Y-72366790D01*
X54686879Y-72452378D01*
X54564036Y-72598776D01*
X54561068Y-72604174D01*
X54561065Y-72604179D01*
X54484584Y-72743300D01*
X54471969Y-72766246D01*
X54470108Y-72772113D01*
X54470107Y-72772115D01*
X54460714Y-72801727D01*
X54414183Y-72948410D01*
X54392880Y-73138328D01*
X53809874Y-73138328D01*
X53792566Y-72961803D01*
X53737329Y-72778850D01*
X53692469Y-72694481D01*
X53650503Y-72615553D01*
X53650501Y-72615550D01*
X53647609Y-72610111D01*
X53643719Y-72605341D01*
X53643716Y-72605337D01*
X53530717Y-72466787D01*
X53530714Y-72466784D01*
X53526822Y-72462012D01*
X53521082Y-72457263D01*
X53384319Y-72344123D01*
X53379570Y-72340194D01*
X53211461Y-72249298D01*
X53028899Y-72192785D01*
X53022781Y-72192142D01*
X53022776Y-72192141D01*
X52844965Y-72173453D01*
X52844963Y-72173453D01*
X52838836Y-72172809D01*
X52759644Y-72180016D01*
X52654652Y-72189571D01*
X52654649Y-72189572D01*
X52648513Y-72190130D01*
X52642607Y-72191868D01*
X52642603Y-72191869D01*
X52509352Y-72231088D01*
X52465180Y-72244088D01*
X52295818Y-72332628D01*
X52291018Y-72336488D01*
X52291017Y-72336488D01*
X52253329Y-72366790D01*
X52146879Y-72452378D01*
X52024036Y-72598776D01*
X52021068Y-72604174D01*
X52021065Y-72604179D01*
X51944584Y-72743300D01*
X51931969Y-72766246D01*
X51930108Y-72772113D01*
X51930107Y-72772115D01*
X51920714Y-72801727D01*
X51874183Y-72948410D01*
X51852880Y-73138328D01*
X45579242Y-73138328D01*
X45525972Y-73015814D01*
X45521105Y-73006739D01*
X45405426Y-72827926D01*
X45399136Y-72819757D01*
X45255806Y-72662240D01*
X45248273Y-72655215D01*
X45081139Y-72523222D01*
X45072552Y-72517517D01*
X44960765Y-72455807D01*
X44910795Y-72405375D01*
X44896023Y-72335932D01*
X44921139Y-72269527D01*
X44978170Y-72227242D01*
X45021658Y-72219499D01*
X45198066Y-72219499D01*
X45233818Y-72212388D01*
X45260126Y-72207156D01*
X45260128Y-72207155D01*
X45272301Y-72204734D01*
X45282621Y-72197839D01*
X45282622Y-72197838D01*
X45346168Y-72155377D01*
X45356484Y-72148484D01*
X45412734Y-72064301D01*
X45427500Y-71990067D01*
X45427500Y-71708607D01*
X60721218Y-71708607D01*
X60738602Y-71866064D01*
X60741212Y-71873195D01*
X60741212Y-71873197D01*
X60786201Y-71996135D01*
X60793042Y-72014830D01*
X60797278Y-72021133D01*
X60797278Y-72021134D01*
X60833221Y-72074622D01*
X60881397Y-72146316D01*
X60887016Y-72151429D01*
X60887017Y-72151430D01*
X60988848Y-72244088D01*
X60998565Y-72252930D01*
X61137782Y-72328519D01*
X61291011Y-72368718D01*
X61374966Y-72370037D01*
X61441808Y-72371087D01*
X61441811Y-72371087D01*
X61449405Y-72371206D01*
X61603821Y-72335840D01*
X61674231Y-72300428D01*
X61738561Y-72268074D01*
X61738564Y-72268072D01*
X61745344Y-72264662D01*
X61751115Y-72259733D01*
X61751118Y-72259731D01*
X61860025Y-72166715D01*
X61860025Y-72166714D01*
X61865803Y-72161780D01*
X61958244Y-72033135D01*
X62017331Y-71886152D01*
X62039651Y-71729318D01*
X62039796Y-71715511D01*
X62020765Y-71558244D01*
X61964769Y-71410057D01*
X61875042Y-71279503D01*
X61756764Y-71174122D01*
X61749378Y-71170211D01*
X61623477Y-71103550D01*
X61623478Y-71103550D01*
X61616763Y-71099995D01*
X61463122Y-71061403D01*
X61455523Y-71061363D01*
X61455522Y-71061363D01*
X61389670Y-71061018D01*
X61304710Y-71060573D01*
X61297330Y-71062345D01*
X61297328Y-71062345D01*
X61158052Y-71095782D01*
X61158049Y-71095783D01*
X61150673Y-71097554D01*
X61009903Y-71170211D01*
X60890528Y-71274349D01*
X60799439Y-71403955D01*
X60741895Y-71551548D01*
X60721218Y-71708607D01*
X45427500Y-71708607D01*
X45427499Y-70239934D01*
X45412734Y-70165699D01*
X45384203Y-70122999D01*
X45363377Y-70091832D01*
X45356484Y-70081516D01*
X45272301Y-70025266D01*
X45198067Y-70010500D01*
X44323142Y-70010500D01*
X43447934Y-70010501D01*
X43412182Y-70017612D01*
X43385874Y-70022844D01*
X43385872Y-70022845D01*
X43373699Y-70025266D01*
X43363379Y-70032161D01*
X43363378Y-70032162D01*
X43296755Y-70076679D01*
X43229003Y-70097894D01*
X43160536Y-70079111D01*
X43122913Y-70043281D01*
X43043855Y-69928251D01*
X43043854Y-69928249D01*
X43039553Y-69921992D01*
X42921275Y-69816611D01*
X42913889Y-69812700D01*
X42787988Y-69746039D01*
X42787989Y-69746039D01*
X42781274Y-69742484D01*
X42627633Y-69703892D01*
X42620034Y-69703852D01*
X42620033Y-69703852D01*
X42554181Y-69703507D01*
X42469221Y-69703062D01*
X42461841Y-69704834D01*
X42461839Y-69704834D01*
X42322563Y-69738271D01*
X42322560Y-69738272D01*
X42315184Y-69740043D01*
X42174414Y-69812700D01*
X42055039Y-69916838D01*
X41963950Y-70046444D01*
X41952162Y-70076679D01*
X41912708Y-70177874D01*
X41906406Y-70194037D01*
X41905414Y-70201570D01*
X41905414Y-70201571D01*
X41900364Y-70239934D01*
X41885729Y-70351096D01*
X40409472Y-70351096D01*
X40391276Y-70200733D01*
X40335280Y-70052546D01*
X40314867Y-70022845D01*
X40249855Y-69928251D01*
X40249854Y-69928249D01*
X40245553Y-69921992D01*
X40127275Y-69816611D01*
X40119889Y-69812700D01*
X39993988Y-69746039D01*
X39993989Y-69746039D01*
X39987274Y-69742484D01*
X39833633Y-69703892D01*
X39826034Y-69703852D01*
X39826033Y-69703852D01*
X39760181Y-69703507D01*
X39675221Y-69703062D01*
X39667841Y-69704834D01*
X39667839Y-69704834D01*
X39528563Y-69738271D01*
X39528560Y-69738272D01*
X39521184Y-69740043D01*
X39380414Y-69812700D01*
X39261039Y-69916838D01*
X39169950Y-70046444D01*
X39158162Y-70076679D01*
X39118708Y-70177874D01*
X39112406Y-70194037D01*
X39111414Y-70201570D01*
X39111414Y-70201571D01*
X39106364Y-70239934D01*
X39091729Y-70351096D01*
X38481500Y-70351096D01*
X38481500Y-69462096D01*
X50013729Y-69462096D01*
X50031113Y-69619553D01*
X50033723Y-69626684D01*
X50033723Y-69626686D01*
X50077400Y-69746039D01*
X50085553Y-69768319D01*
X50173908Y-69899805D01*
X50179527Y-69904918D01*
X50179528Y-69904919D01*
X50187141Y-69911846D01*
X50291076Y-70006419D01*
X50430293Y-70082008D01*
X50583522Y-70122207D01*
X50667477Y-70123526D01*
X50734319Y-70124576D01*
X50734322Y-70124576D01*
X50741916Y-70124695D01*
X50896332Y-70089329D01*
X50981600Y-70046444D01*
X51031072Y-70021563D01*
X51031075Y-70021561D01*
X51037855Y-70018151D01*
X51043626Y-70013222D01*
X51043629Y-70013220D01*
X51152536Y-69920204D01*
X51152536Y-69920203D01*
X51158314Y-69915269D01*
X51250755Y-69786624D01*
X51309842Y-69639641D01*
X51332162Y-69482807D01*
X51332307Y-69469000D01*
X51313276Y-69311733D01*
X51257280Y-69163546D01*
X51167553Y-69032992D01*
X51139192Y-69007723D01*
X51125006Y-68995084D01*
X51049275Y-68927611D01*
X51041889Y-68923700D01*
X50915988Y-68857039D01*
X50915989Y-68857039D01*
X50909274Y-68853484D01*
X50755633Y-68814892D01*
X50748034Y-68814852D01*
X50748033Y-68814852D01*
X50682181Y-68814507D01*
X50597221Y-68814062D01*
X50589841Y-68815834D01*
X50589839Y-68815834D01*
X50450563Y-68849271D01*
X50450560Y-68849272D01*
X50443184Y-68851043D01*
X50302414Y-68923700D01*
X50183039Y-69027838D01*
X50091950Y-69157444D01*
X50034406Y-69305037D01*
X50013729Y-69462096D01*
X38481500Y-69462096D01*
X38481500Y-68378795D01*
X56236729Y-68378795D01*
X56254113Y-68536252D01*
X56308553Y-68685018D01*
X56396908Y-68816504D01*
X56402527Y-68821617D01*
X56402528Y-68821618D01*
X56508460Y-68918008D01*
X56514076Y-68923118D01*
X56653293Y-68998707D01*
X56806522Y-69038906D01*
X56890477Y-69040225D01*
X56957319Y-69041275D01*
X56957322Y-69041275D01*
X56964916Y-69041394D01*
X57119332Y-69006028D01*
X57189742Y-68970616D01*
X57254072Y-68938262D01*
X57254075Y-68938260D01*
X57260855Y-68934850D01*
X57266626Y-68929921D01*
X57266629Y-68929919D01*
X57375536Y-68836903D01*
X57375536Y-68836902D01*
X57381314Y-68831968D01*
X57473755Y-68703323D01*
X57532842Y-68556340D01*
X57555162Y-68399506D01*
X57555307Y-68385699D01*
X57536276Y-68228432D01*
X57480280Y-68080245D01*
X57435300Y-68014798D01*
X57394855Y-67955950D01*
X57394854Y-67955948D01*
X57390553Y-67949691D01*
X57272275Y-67844310D01*
X57264889Y-67840399D01*
X57138988Y-67773738D01*
X57138989Y-67773738D01*
X57132274Y-67770183D01*
X56978633Y-67731591D01*
X56971034Y-67731551D01*
X56971033Y-67731551D01*
X56905181Y-67731206D01*
X56820221Y-67730761D01*
X56812841Y-67732533D01*
X56812839Y-67732533D01*
X56673563Y-67765970D01*
X56673560Y-67765971D01*
X56666184Y-67767742D01*
X56525414Y-67840399D01*
X56406039Y-67944537D01*
X56314950Y-68074143D01*
X56257406Y-68221736D01*
X56256414Y-68229269D01*
X56256414Y-68229270D01*
X56240971Y-68346576D01*
X56236729Y-68378795D01*
X38481500Y-68378795D01*
X38481500Y-66651328D01*
X40168880Y-66651328D01*
X40169396Y-66657471D01*
X40183072Y-66820326D01*
X40184872Y-66841767D01*
X40237549Y-67025473D01*
X40240367Y-67030955D01*
X40240368Y-67030959D01*
X40322085Y-67189963D01*
X40322088Y-67189967D01*
X40324905Y-67195449D01*
X40443612Y-67345220D01*
X40448306Y-67349215D01*
X40575630Y-67457576D01*
X40589149Y-67469082D01*
X40594527Y-67472088D01*
X40594529Y-67472089D01*
X40634733Y-67494558D01*
X40755972Y-67562316D01*
X40937728Y-67621372D01*
X41127493Y-67644000D01*
X41133628Y-67643528D01*
X41133630Y-67643528D01*
X41197393Y-67638622D01*
X41318039Y-67629339D01*
X41502108Y-67577945D01*
X41507612Y-67575165D01*
X41667189Y-67494558D01*
X41667191Y-67494557D01*
X41672690Y-67491779D01*
X41823286Y-67374120D01*
X41827312Y-67369456D01*
X41827315Y-67369453D01*
X41924977Y-67256310D01*
X41948161Y-67229451D01*
X42032406Y-67081152D01*
X42039514Y-67068640D01*
X42039515Y-67068639D01*
X42042557Y-67063283D01*
X42050721Y-67038743D01*
X42081904Y-66945003D01*
X42102881Y-66881944D01*
X42113852Y-66795096D01*
X43917729Y-66795096D01*
X43920515Y-66820326D01*
X43933735Y-66940068D01*
X43935113Y-66952553D01*
X43937723Y-66959684D01*
X43937723Y-66959686D01*
X43982480Y-67081990D01*
X43989553Y-67101319D01*
X43993789Y-67107622D01*
X43993789Y-67107623D01*
X44071981Y-67223984D01*
X44077908Y-67232805D01*
X44083527Y-67237918D01*
X44083528Y-67237919D01*
X44100326Y-67253204D01*
X44195076Y-67339419D01*
X44334293Y-67415008D01*
X44487522Y-67455207D01*
X44571477Y-67456526D01*
X44638319Y-67457576D01*
X44638322Y-67457576D01*
X44645916Y-67457695D01*
X44800332Y-67422329D01*
X44885600Y-67379444D01*
X44935072Y-67354563D01*
X44935075Y-67354561D01*
X44941855Y-67351151D01*
X44947626Y-67346222D01*
X44947629Y-67346220D01*
X45056536Y-67253204D01*
X45056536Y-67253203D01*
X45062314Y-67248269D01*
X45154755Y-67119624D01*
X45213842Y-66972641D01*
X45223760Y-66902954D01*
X45224158Y-66900158D01*
X50341612Y-66900158D01*
X50350304Y-66978886D01*
X50356704Y-67036852D01*
X50358996Y-67057615D01*
X50361606Y-67064746D01*
X50361606Y-67064748D01*
X50409436Y-67195449D01*
X50413436Y-67206381D01*
X50417672Y-67212684D01*
X50417672Y-67212685D01*
X50446814Y-67256052D01*
X50501791Y-67337867D01*
X50507410Y-67342980D01*
X50507411Y-67342981D01*
X50582587Y-67411385D01*
X50618959Y-67444481D01*
X50758176Y-67520070D01*
X50911405Y-67560269D01*
X50995360Y-67561588D01*
X51062202Y-67562638D01*
X51062205Y-67562638D01*
X51069799Y-67562757D01*
X51224215Y-67527391D01*
X51340151Y-67469082D01*
X51358955Y-67459625D01*
X51358958Y-67459623D01*
X51365738Y-67456213D01*
X51371509Y-67451284D01*
X51371512Y-67451282D01*
X51480419Y-67358266D01*
X51480419Y-67358265D01*
X51486197Y-67353331D01*
X51573731Y-67231515D01*
X52343224Y-67231515D01*
X52346507Y-67261251D01*
X52359539Y-67379288D01*
X52360608Y-67388972D01*
X52363218Y-67396103D01*
X52363218Y-67396105D01*
X52411882Y-67529086D01*
X52415048Y-67537738D01*
X52419284Y-67544041D01*
X52419284Y-67544042D01*
X52476919Y-67629811D01*
X52503403Y-67669224D01*
X52509022Y-67674337D01*
X52509023Y-67674338D01*
X52612323Y-67768333D01*
X52620571Y-67775838D01*
X52759788Y-67851427D01*
X52913017Y-67891626D01*
X52996972Y-67892945D01*
X53063814Y-67893995D01*
X53063817Y-67893995D01*
X53071411Y-67894114D01*
X53225827Y-67858748D01*
X53296237Y-67823336D01*
X53360567Y-67790982D01*
X53360570Y-67790980D01*
X53367350Y-67787570D01*
X53373121Y-67782641D01*
X53373124Y-67782639D01*
X53482031Y-67689623D01*
X53482031Y-67689622D01*
X53487809Y-67684688D01*
X53488234Y-67684096D01*
X60427729Y-67684096D01*
X60432968Y-67731551D01*
X60438609Y-67782639D01*
X60445113Y-67841553D01*
X60447723Y-67848684D01*
X60447723Y-67848686D01*
X60480973Y-67939545D01*
X60499553Y-67990319D01*
X60503789Y-67996622D01*
X60503789Y-67996623D01*
X60555776Y-68073987D01*
X60587908Y-68121805D01*
X60593527Y-68126918D01*
X60593528Y-68126919D01*
X60697285Y-68221330D01*
X60705076Y-68228419D01*
X60844293Y-68304008D01*
X60997522Y-68344207D01*
X61081477Y-68345526D01*
X61148319Y-68346576D01*
X61148322Y-68346576D01*
X61155916Y-68346695D01*
X61310332Y-68311329D01*
X61380742Y-68275917D01*
X61445072Y-68243563D01*
X61445075Y-68243561D01*
X61451855Y-68240151D01*
X61457626Y-68235222D01*
X61457629Y-68235220D01*
X61566536Y-68142204D01*
X61566536Y-68142203D01*
X61572314Y-68137269D01*
X61664755Y-68008624D01*
X61723842Y-67861641D01*
X61733898Y-67790982D01*
X61745581Y-67708891D01*
X61745581Y-67708888D01*
X61746162Y-67704807D01*
X61746307Y-67691000D01*
X61727276Y-67533733D01*
X61671280Y-67385546D01*
X61647641Y-67351151D01*
X61585855Y-67261251D01*
X61585854Y-67261249D01*
X61581553Y-67254992D01*
X61463275Y-67149611D01*
X61455889Y-67145700D01*
X61348219Y-67088692D01*
X61323274Y-67075484D01*
X61169633Y-67036892D01*
X61162034Y-67036852D01*
X61162033Y-67036852D01*
X61096181Y-67036507D01*
X61011221Y-67036062D01*
X61003841Y-67037834D01*
X61003839Y-67037834D01*
X60864563Y-67071271D01*
X60864560Y-67071272D01*
X60857184Y-67073043D01*
X60716414Y-67145700D01*
X60597039Y-67249838D01*
X60505950Y-67379444D01*
X60480593Y-67444481D01*
X60476103Y-67455999D01*
X60448406Y-67527037D01*
X60447414Y-67534570D01*
X60447414Y-67534571D01*
X60429014Y-67674338D01*
X60427729Y-67684096D01*
X53488234Y-67684096D01*
X53580250Y-67556043D01*
X53639337Y-67409060D01*
X53648280Y-67346220D01*
X53661076Y-67256310D01*
X53661076Y-67256307D01*
X53661657Y-67252226D01*
X53661802Y-67238419D01*
X53642771Y-67081152D01*
X53586775Y-66932965D01*
X53566149Y-66902954D01*
X53501350Y-66808670D01*
X53501349Y-66808668D01*
X53497048Y-66802411D01*
X53476290Y-66783916D01*
X53438933Y-66750633D01*
X53378770Y-66697030D01*
X53371384Y-66693119D01*
X53280886Y-66645203D01*
X53238769Y-66622903D01*
X53085128Y-66584311D01*
X53077529Y-66584271D01*
X53077528Y-66584271D01*
X53011676Y-66583926D01*
X52926716Y-66583481D01*
X52919336Y-66585253D01*
X52919334Y-66585253D01*
X52780058Y-66618690D01*
X52780055Y-66618691D01*
X52772679Y-66620462D01*
X52631909Y-66693119D01*
X52512534Y-66797257D01*
X52421445Y-66926863D01*
X52418685Y-66933943D01*
X52370538Y-67057434D01*
X52363901Y-67074456D01*
X52362909Y-67081989D01*
X52362909Y-67081990D01*
X52345052Y-67217633D01*
X52343224Y-67231515D01*
X51573731Y-67231515D01*
X51578638Y-67224686D01*
X51637725Y-67077703D01*
X51655536Y-66952553D01*
X51659464Y-66924953D01*
X51659464Y-66924950D01*
X51660045Y-66920869D01*
X51660190Y-66907062D01*
X51641159Y-66749795D01*
X51585163Y-66601608D01*
X51517838Y-66503649D01*
X51499738Y-66477313D01*
X51499737Y-66477311D01*
X51495436Y-66471054D01*
X51482115Y-66459185D01*
X51382829Y-66370726D01*
X51377158Y-66365673D01*
X51369772Y-66361762D01*
X51243871Y-66295101D01*
X51243872Y-66295101D01*
X51237157Y-66291546D01*
X51083516Y-66252954D01*
X51075917Y-66252914D01*
X51075916Y-66252914D01*
X51010064Y-66252569D01*
X50925104Y-66252124D01*
X50917724Y-66253896D01*
X50917722Y-66253896D01*
X50778446Y-66287333D01*
X50778443Y-66287334D01*
X50771067Y-66289105D01*
X50630297Y-66361762D01*
X50510922Y-66465900D01*
X50419833Y-66595506D01*
X50406011Y-66630957D01*
X50372796Y-66716151D01*
X50362289Y-66743099D01*
X50361297Y-66750632D01*
X50361297Y-66750633D01*
X50344010Y-66881944D01*
X50341612Y-66900158D01*
X45224158Y-66900158D01*
X45235581Y-66819891D01*
X45235581Y-66819888D01*
X45236162Y-66815807D01*
X45236307Y-66802000D01*
X45217276Y-66644733D01*
X45161280Y-66496546D01*
X45148062Y-66477313D01*
X45075855Y-66372251D01*
X45075854Y-66372249D01*
X45071553Y-66365992D01*
X44953275Y-66260611D01*
X44945889Y-66256700D01*
X44819988Y-66190039D01*
X44819989Y-66190039D01*
X44813274Y-66186484D01*
X44708219Y-66160096D01*
X56617729Y-66160096D01*
X56621035Y-66190039D01*
X56632927Y-66297750D01*
X56635113Y-66317553D01*
X56637723Y-66324684D01*
X56637723Y-66324686D01*
X56653117Y-66366751D01*
X56689553Y-66466319D01*
X56693789Y-66472622D01*
X56693789Y-66472623D01*
X56768814Y-66584271D01*
X56777908Y-66597805D01*
X56783527Y-66602918D01*
X56783528Y-66602919D01*
X56888140Y-66698108D01*
X56895076Y-66704419D01*
X57034293Y-66780008D01*
X57187522Y-66820207D01*
X57271477Y-66821526D01*
X57338319Y-66822576D01*
X57338322Y-66822576D01*
X57345916Y-66822695D01*
X57500332Y-66787329D01*
X57574961Y-66749795D01*
X57635072Y-66719563D01*
X57635075Y-66719561D01*
X57641855Y-66716151D01*
X57647626Y-66711222D01*
X57647629Y-66711220D01*
X57756536Y-66618204D01*
X57756536Y-66618203D01*
X57762314Y-66613269D01*
X57854755Y-66484624D01*
X57913842Y-66337641D01*
X57922920Y-66273851D01*
X57935581Y-66184891D01*
X57935581Y-66184888D01*
X57936162Y-66180807D01*
X57936307Y-66167000D01*
X57917276Y-66009733D01*
X57861280Y-65861546D01*
X57793069Y-65762298D01*
X57775855Y-65737251D01*
X57775854Y-65737249D01*
X57771553Y-65730992D01*
X57653275Y-65625611D01*
X57645889Y-65621700D01*
X57519988Y-65555039D01*
X57519989Y-65555039D01*
X57513274Y-65551484D01*
X57359633Y-65512892D01*
X57352034Y-65512852D01*
X57352033Y-65512852D01*
X57286181Y-65512507D01*
X57201221Y-65512062D01*
X57193841Y-65513834D01*
X57193839Y-65513834D01*
X57054563Y-65547271D01*
X57054560Y-65547272D01*
X57047184Y-65549043D01*
X56906414Y-65621700D01*
X56787039Y-65725838D01*
X56695950Y-65855444D01*
X56693190Y-65862524D01*
X56647471Y-65979787D01*
X56638406Y-66003037D01*
X56637414Y-66010570D01*
X56637414Y-66010571D01*
X56619212Y-66148834D01*
X56617729Y-66160096D01*
X44708219Y-66160096D01*
X44659633Y-66147892D01*
X44652034Y-66147852D01*
X44652033Y-66147852D01*
X44586181Y-66147507D01*
X44501221Y-66147062D01*
X44493841Y-66148834D01*
X44493839Y-66148834D01*
X44354563Y-66182271D01*
X44354560Y-66182272D01*
X44347184Y-66184043D01*
X44206414Y-66256700D01*
X44087039Y-66360838D01*
X43995950Y-66490444D01*
X43993190Y-66497524D01*
X43945028Y-66621053D01*
X43938406Y-66638037D01*
X43937414Y-66645570D01*
X43937414Y-66645571D01*
X43918752Y-66787329D01*
X43917729Y-66795096D01*
X42113852Y-66795096D01*
X42126833Y-66692341D01*
X42127215Y-66665000D01*
X42108566Y-66474803D01*
X42053329Y-66291850D01*
X41995065Y-66182271D01*
X41966503Y-66128553D01*
X41966501Y-66128550D01*
X41963609Y-66123111D01*
X41959719Y-66118341D01*
X41959716Y-66118337D01*
X41846717Y-65979787D01*
X41846714Y-65979784D01*
X41842822Y-65975012D01*
X41695570Y-65853194D01*
X41527461Y-65762298D01*
X41344899Y-65705785D01*
X41338781Y-65705142D01*
X41338776Y-65705141D01*
X41160965Y-65686453D01*
X41160963Y-65686453D01*
X41154836Y-65685809D01*
X41075644Y-65693016D01*
X40970652Y-65702571D01*
X40970649Y-65702572D01*
X40964513Y-65703130D01*
X40958607Y-65704868D01*
X40958603Y-65704869D01*
X40848580Y-65737251D01*
X40781180Y-65757088D01*
X40611818Y-65845628D01*
X40607018Y-65849488D01*
X40607017Y-65849488D01*
X40583186Y-65868649D01*
X40462879Y-65965378D01*
X40340036Y-66111776D01*
X40337068Y-66117174D01*
X40337065Y-66117179D01*
X40262879Y-66252124D01*
X40247969Y-66279246D01*
X40246108Y-66285113D01*
X40246107Y-66285115D01*
X40220451Y-66365992D01*
X40190183Y-66461410D01*
X40168880Y-66651328D01*
X38481500Y-66651328D01*
X38481500Y-64111328D01*
X40168880Y-64111328D01*
X40184872Y-64301767D01*
X40237549Y-64485473D01*
X40240367Y-64490955D01*
X40240368Y-64490959D01*
X40322085Y-64649963D01*
X40322088Y-64649967D01*
X40324905Y-64655449D01*
X40443612Y-64805220D01*
X40448306Y-64809215D01*
X40564175Y-64907827D01*
X40589149Y-64929082D01*
X40594527Y-64932088D01*
X40594529Y-64932089D01*
X40634733Y-64954558D01*
X40755972Y-65022316D01*
X40937728Y-65081372D01*
X41127493Y-65104000D01*
X41133628Y-65103528D01*
X41133630Y-65103528D01*
X41197393Y-65098622D01*
X41318039Y-65089339D01*
X41502108Y-65037945D01*
X41507612Y-65035165D01*
X41667189Y-64954558D01*
X41667191Y-64954557D01*
X41672690Y-64951779D01*
X41823286Y-64834120D01*
X41827312Y-64829456D01*
X41827315Y-64829453D01*
X41935837Y-64703728D01*
X41948161Y-64689451D01*
X42032409Y-64541147D01*
X42039514Y-64528640D01*
X42039515Y-64528639D01*
X42042557Y-64523283D01*
X42102881Y-64341944D01*
X42114800Y-64247597D01*
X42800319Y-64247597D01*
X42805622Y-64295625D01*
X42811337Y-64347389D01*
X42817703Y-64405054D01*
X42820313Y-64412185D01*
X42820313Y-64412187D01*
X42866154Y-64537453D01*
X42872143Y-64553820D01*
X42876379Y-64560123D01*
X42876379Y-64560124D01*
X42931527Y-64642192D01*
X42960498Y-64685306D01*
X42966117Y-64690419D01*
X42966118Y-64690420D01*
X43006036Y-64726742D01*
X43077666Y-64791920D01*
X43216883Y-64867509D01*
X43370112Y-64907708D01*
X43454067Y-64909027D01*
X43520909Y-64910077D01*
X43520912Y-64910077D01*
X43528506Y-64910196D01*
X43682922Y-64874830D01*
X43773145Y-64829453D01*
X43817662Y-64807064D01*
X43817665Y-64807062D01*
X43824445Y-64803652D01*
X43830216Y-64798723D01*
X43830219Y-64798721D01*
X43939126Y-64705705D01*
X43939126Y-64705704D01*
X43944904Y-64700770D01*
X44037345Y-64572125D01*
X44096432Y-64425142D01*
X44113990Y-64301767D01*
X44118171Y-64272392D01*
X44118171Y-64272389D01*
X44118752Y-64268308D01*
X44118897Y-64254501D01*
X44099866Y-64097234D01*
X44043870Y-63949047D01*
X43954143Y-63818493D01*
X43835865Y-63713112D01*
X43828479Y-63709201D01*
X43702578Y-63642540D01*
X43702579Y-63642540D01*
X43695864Y-63638985D01*
X43542223Y-63600393D01*
X43534624Y-63600353D01*
X43534623Y-63600353D01*
X43468771Y-63600008D01*
X43383811Y-63599563D01*
X43376431Y-63601335D01*
X43376429Y-63601335D01*
X43237153Y-63634772D01*
X43237150Y-63634773D01*
X43229774Y-63636544D01*
X43089004Y-63709201D01*
X42969629Y-63813339D01*
X42878540Y-63942945D01*
X42857360Y-63997269D01*
X42823854Y-64083208D01*
X42820996Y-64090538D01*
X42820004Y-64098071D01*
X42820004Y-64098072D01*
X42808385Y-64186332D01*
X42800319Y-64247597D01*
X42114800Y-64247597D01*
X42126833Y-64152341D01*
X42127215Y-64125000D01*
X42108566Y-63934803D01*
X42053329Y-63751850D01*
X41984981Y-63623305D01*
X41966503Y-63588553D01*
X41966501Y-63588550D01*
X41963609Y-63583111D01*
X41959719Y-63578341D01*
X41959716Y-63578337D01*
X41846717Y-63439787D01*
X41846714Y-63439784D01*
X41842822Y-63435012D01*
X41823829Y-63419299D01*
X41700319Y-63317123D01*
X41695570Y-63313194D01*
X41527461Y-63222298D01*
X41344899Y-63165785D01*
X41338781Y-63165142D01*
X41338776Y-63165141D01*
X41160965Y-63146453D01*
X41160963Y-63146453D01*
X41154836Y-63145809D01*
X41075644Y-63153016D01*
X40970652Y-63162571D01*
X40970649Y-63162572D01*
X40964513Y-63163130D01*
X40958607Y-63164868D01*
X40958603Y-63164869D01*
X40848077Y-63197399D01*
X40781180Y-63217088D01*
X40611818Y-63305628D01*
X40607018Y-63309488D01*
X40607017Y-63309488D01*
X40498948Y-63396378D01*
X40462879Y-63425378D01*
X40340036Y-63571776D01*
X40337068Y-63577174D01*
X40337065Y-63577179D01*
X40302516Y-63640025D01*
X40247969Y-63739246D01*
X40246108Y-63745113D01*
X40246107Y-63745115D01*
X40222830Y-63818493D01*
X40190183Y-63921410D01*
X40168880Y-64111328D01*
X38481500Y-64111328D01*
X38481500Y-61571328D01*
X40168880Y-61571328D01*
X40184872Y-61761767D01*
X40237549Y-61945473D01*
X40240367Y-61950955D01*
X40240368Y-61950959D01*
X40322085Y-62109963D01*
X40322088Y-62109967D01*
X40324905Y-62115449D01*
X40443612Y-62265220D01*
X40448306Y-62269215D01*
X40579653Y-62381000D01*
X40589149Y-62389082D01*
X40594527Y-62392088D01*
X40594529Y-62392089D01*
X40634733Y-62414558D01*
X40755972Y-62482316D01*
X40937728Y-62541372D01*
X41127493Y-62564000D01*
X41133628Y-62563528D01*
X41133630Y-62563528D01*
X41197393Y-62558622D01*
X41318039Y-62549339D01*
X41502108Y-62497945D01*
X41529012Y-62484355D01*
X41667189Y-62414558D01*
X41667191Y-62414557D01*
X41672690Y-62411779D01*
X41823286Y-62294120D01*
X41827312Y-62289456D01*
X41827315Y-62289453D01*
X41944134Y-62154116D01*
X41948161Y-62149451D01*
X42021379Y-62020563D01*
X42039514Y-61988640D01*
X42039515Y-61988639D01*
X42042557Y-61983283D01*
X42063874Y-61919204D01*
X42100934Y-61807796D01*
X42102881Y-61801944D01*
X42126833Y-61612341D01*
X42127028Y-61598361D01*
X42127166Y-61588523D01*
X42127166Y-61588519D01*
X42127215Y-61585000D01*
X42115066Y-61461096D01*
X56363729Y-61461096D01*
X56366859Y-61489446D01*
X56377798Y-61588523D01*
X56381113Y-61618553D01*
X56383723Y-61625684D01*
X56383723Y-61625686D01*
X56431274Y-61755625D01*
X56435553Y-61767319D01*
X56523908Y-61898805D01*
X56529527Y-61903918D01*
X56529528Y-61903919D01*
X56540903Y-61914269D01*
X56641076Y-62005419D01*
X56780293Y-62081008D01*
X56933522Y-62121207D01*
X57017477Y-62122526D01*
X57084319Y-62123576D01*
X57084322Y-62123576D01*
X57091916Y-62123695D01*
X57246332Y-62088329D01*
X57316742Y-62052917D01*
X57381072Y-62020563D01*
X57381075Y-62020561D01*
X57387855Y-62017151D01*
X57393626Y-62012222D01*
X57393629Y-62012220D01*
X57502536Y-61919204D01*
X57502536Y-61919203D01*
X57508314Y-61914269D01*
X57600755Y-61785624D01*
X57659842Y-61638641D01*
X57667975Y-61581494D01*
X57681581Y-61485891D01*
X57681581Y-61485888D01*
X57682162Y-61481807D01*
X57682307Y-61468000D01*
X57668629Y-61354966D01*
X61660257Y-61354966D01*
X61690565Y-61489446D01*
X61693645Y-61499275D01*
X61773770Y-61696603D01*
X61778413Y-61705794D01*
X61889694Y-61887388D01*
X61895777Y-61895699D01*
X62035213Y-62056667D01*
X62042580Y-62063883D01*
X62206434Y-62199916D01*
X62214881Y-62205831D01*
X62398756Y-62313279D01*
X62408042Y-62317729D01*
X62557124Y-62374657D01*
X62613627Y-62417644D01*
X62637920Y-62484355D01*
X62622290Y-62553610D01*
X62571699Y-62603421D01*
X62555785Y-62610579D01*
X62514463Y-62625824D01*
X62340010Y-62729612D01*
X62335670Y-62733418D01*
X62335666Y-62733421D01*
X62315723Y-62750911D01*
X62187392Y-62863455D01*
X62061720Y-63022869D01*
X62059031Y-63027980D01*
X62059029Y-63027983D01*
X62046073Y-63052609D01*
X61967203Y-63202515D01*
X61907007Y-63396378D01*
X61883148Y-63597964D01*
X61896424Y-63800522D01*
X61897845Y-63806118D01*
X61897846Y-63806123D01*
X61932085Y-63940936D01*
X61946392Y-63997269D01*
X61948809Y-64002512D01*
X61992476Y-64097234D01*
X62031377Y-64181616D01*
X62148533Y-64347389D01*
X62293938Y-64489035D01*
X62462720Y-64601812D01*
X62468023Y-64604090D01*
X62468026Y-64604092D01*
X62643921Y-64679662D01*
X62649228Y-64681942D01*
X62705151Y-64694596D01*
X62841579Y-64725467D01*
X62841584Y-64725468D01*
X62847216Y-64726742D01*
X62852987Y-64726969D01*
X62852989Y-64726969D01*
X62912756Y-64729317D01*
X63050053Y-64734712D01*
X63150499Y-64720148D01*
X63245231Y-64706413D01*
X63245236Y-64706412D01*
X63250945Y-64705584D01*
X63256409Y-64703729D01*
X63256414Y-64703728D01*
X63437693Y-64642192D01*
X63437698Y-64642190D01*
X63443165Y-64640334D01*
X63620276Y-64541147D01*
X63682934Y-64489035D01*
X63771913Y-64415031D01*
X63776345Y-64411345D01*
X63826181Y-64351424D01*
X63902453Y-64259718D01*
X63902455Y-64259715D01*
X63906147Y-64255276D01*
X64005334Y-64078165D01*
X64007190Y-64072698D01*
X64007192Y-64072693D01*
X64068728Y-63891414D01*
X64068729Y-63891409D01*
X64070584Y-63885945D01*
X64071412Y-63880236D01*
X64071413Y-63880231D01*
X64095487Y-63714190D01*
X64099712Y-63685053D01*
X64101232Y-63627000D01*
X64082658Y-63424859D01*
X64081090Y-63419299D01*
X64029125Y-63235046D01*
X64029124Y-63235044D01*
X64027557Y-63229487D01*
X64016978Y-63208033D01*
X63940331Y-63052609D01*
X63937776Y-63047428D01*
X63816320Y-62884779D01*
X63667258Y-62746987D01*
X63662375Y-62743906D01*
X63662371Y-62743903D01*
X63500464Y-62641748D01*
X63495581Y-62638667D01*
X63423614Y-62609955D01*
X63367755Y-62566134D01*
X63344455Y-62499069D01*
X63361111Y-62430054D01*
X63412436Y-62381000D01*
X63434098Y-62372239D01*
X63484252Y-62357192D01*
X63493842Y-62353433D01*
X63685095Y-62259739D01*
X63693945Y-62254464D01*
X63867328Y-62130792D01*
X63875200Y-62124139D01*
X64026052Y-61973812D01*
X64032730Y-61965965D01*
X64157003Y-61793020D01*
X64162313Y-61784183D01*
X64256670Y-61593267D01*
X64260469Y-61583672D01*
X64322377Y-61379910D01*
X64324555Y-61369837D01*
X64325986Y-61358962D01*
X64323775Y-61344778D01*
X64310617Y-61341000D01*
X61675225Y-61341000D01*
X61661694Y-61344973D01*
X61660257Y-61354966D01*
X57668629Y-61354966D01*
X57663276Y-61310733D01*
X57607280Y-61162546D01*
X57569500Y-61107576D01*
X57521855Y-61038251D01*
X57521854Y-61038249D01*
X57517553Y-61031992D01*
X57399275Y-60926611D01*
X57391889Y-60922700D01*
X57334086Y-60892095D01*
X57259274Y-60852484D01*
X57134660Y-60821183D01*
X61656389Y-60821183D01*
X61657912Y-60829607D01*
X61670292Y-60833000D01*
X64310344Y-60833000D01*
X64323875Y-60829027D01*
X64325180Y-60819947D01*
X64283214Y-60652875D01*
X64279894Y-60643124D01*
X64194972Y-60447814D01*
X64190105Y-60438739D01*
X64074426Y-60259926D01*
X64068136Y-60251757D01*
X63924806Y-60094240D01*
X63917273Y-60087215D01*
X63750139Y-59955222D01*
X63741552Y-59949517D01*
X63629765Y-59887807D01*
X63579795Y-59837375D01*
X63565023Y-59767932D01*
X63590139Y-59701527D01*
X63647170Y-59659242D01*
X63690658Y-59651499D01*
X63867066Y-59651499D01*
X63902818Y-59644388D01*
X63929126Y-59639156D01*
X63929128Y-59639155D01*
X63941301Y-59636734D01*
X63951621Y-59629839D01*
X63951622Y-59629838D01*
X64015168Y-59587377D01*
X64025484Y-59580484D01*
X64081734Y-59496301D01*
X64096500Y-59422067D01*
X64096499Y-57671934D01*
X64087605Y-57627218D01*
X64084156Y-57609874D01*
X64084155Y-57609872D01*
X64081734Y-57597699D01*
X64025484Y-57513516D01*
X63941301Y-57457266D01*
X63867067Y-57442500D01*
X62992142Y-57442500D01*
X62116934Y-57442501D01*
X62081182Y-57449612D01*
X62054874Y-57454844D01*
X62054872Y-57454845D01*
X62042699Y-57457266D01*
X62032379Y-57464161D01*
X62032378Y-57464162D01*
X62000317Y-57485585D01*
X61958516Y-57513516D01*
X61902266Y-57597699D01*
X61887500Y-57671933D01*
X61887501Y-59422066D01*
X61902266Y-59496301D01*
X61909161Y-59506620D01*
X61909162Y-59506622D01*
X61946833Y-59563000D01*
X61958516Y-59580484D01*
X62042699Y-59636734D01*
X62116933Y-59651500D01*
X62293500Y-59651500D01*
X62361621Y-59671502D01*
X62408114Y-59725158D01*
X62418218Y-59795432D01*
X62388724Y-59860012D01*
X62351681Y-59889263D01*
X62270458Y-59931545D01*
X62261738Y-59937036D01*
X62091433Y-60064905D01*
X62083726Y-60071748D01*
X61936590Y-60225717D01*
X61930104Y-60233727D01*
X61810098Y-60409649D01*
X61805000Y-60418623D01*
X61715338Y-60611783D01*
X61711775Y-60621470D01*
X61656389Y-60821183D01*
X57134660Y-60821183D01*
X57105633Y-60813892D01*
X57098034Y-60813852D01*
X57098033Y-60813852D01*
X57032181Y-60813507D01*
X56947221Y-60813062D01*
X56939841Y-60814834D01*
X56939839Y-60814834D01*
X56800563Y-60848271D01*
X56800560Y-60848272D01*
X56793184Y-60850043D01*
X56652414Y-60922700D01*
X56533039Y-61026838D01*
X56441950Y-61156444D01*
X56384406Y-61304037D01*
X56383414Y-61311570D01*
X56383414Y-61311571D01*
X56372457Y-61394803D01*
X56363729Y-61461096D01*
X42115066Y-61461096D01*
X42108566Y-61394803D01*
X42053329Y-61211850D01*
X41980046Y-61074024D01*
X41966503Y-61048553D01*
X41966501Y-61048550D01*
X41963609Y-61043111D01*
X41959719Y-61038341D01*
X41959716Y-61038337D01*
X41846717Y-60899787D01*
X41846714Y-60899784D01*
X41842822Y-60895012D01*
X41828067Y-60882805D01*
X41700319Y-60777123D01*
X41695570Y-60773194D01*
X41527461Y-60682298D01*
X41344899Y-60625785D01*
X41338781Y-60625142D01*
X41338776Y-60625141D01*
X41160965Y-60606453D01*
X41160963Y-60606453D01*
X41154836Y-60605809D01*
X41089194Y-60611783D01*
X40970652Y-60622571D01*
X40970649Y-60622572D01*
X40964513Y-60623130D01*
X40958607Y-60624868D01*
X40958603Y-60624869D01*
X40896579Y-60643124D01*
X40781180Y-60677088D01*
X40611818Y-60765628D01*
X40607018Y-60769488D01*
X40607017Y-60769488D01*
X40532244Y-60829607D01*
X40462879Y-60885378D01*
X40340036Y-61031776D01*
X40337068Y-61037174D01*
X40337065Y-61037179D01*
X40298299Y-61107695D01*
X40247969Y-61199246D01*
X40246108Y-61205113D01*
X40246107Y-61205115D01*
X40197304Y-61358962D01*
X40190183Y-61381410D01*
X40168880Y-61571328D01*
X38481500Y-61571328D01*
X38481500Y-60445096D01*
X45695729Y-60445096D01*
X45713113Y-60602553D01*
X45715723Y-60609684D01*
X45715723Y-60609686D01*
X45741629Y-60680477D01*
X45767553Y-60751319D01*
X45771789Y-60757622D01*
X45771789Y-60757623D01*
X45819771Y-60829027D01*
X45855908Y-60882805D01*
X45861527Y-60887918D01*
X45861528Y-60887919D01*
X45967460Y-60984309D01*
X45973076Y-60989419D01*
X46112293Y-61065008D01*
X46265522Y-61105207D01*
X46349477Y-61106526D01*
X46416319Y-61107576D01*
X46416322Y-61107576D01*
X46423916Y-61107695D01*
X46578332Y-61072329D01*
X46658534Y-61031992D01*
X46713072Y-61004563D01*
X46713075Y-61004561D01*
X46719855Y-61001151D01*
X46725626Y-60996222D01*
X46725629Y-60996220D01*
X46834536Y-60903204D01*
X46834536Y-60903203D01*
X46840314Y-60898269D01*
X46932755Y-60769624D01*
X46991842Y-60622641D01*
X47014162Y-60465807D01*
X47014307Y-60452000D01*
X47013801Y-60447814D01*
X46996188Y-60302273D01*
X46995276Y-60294733D01*
X46939280Y-60146546D01*
X46892832Y-60078963D01*
X46870732Y-60011493D01*
X46888618Y-59942786D01*
X46894350Y-59934070D01*
X46910897Y-59911042D01*
X46932755Y-59880624D01*
X46991842Y-59733641D01*
X47005289Y-59639155D01*
X47013581Y-59580891D01*
X47013581Y-59580888D01*
X47014162Y-59576807D01*
X47014307Y-59563000D01*
X46995276Y-59405733D01*
X46979165Y-59363096D01*
X58080729Y-59363096D01*
X58085529Y-59406571D01*
X58096575Y-59506620D01*
X58098113Y-59520553D01*
X58100723Y-59527684D01*
X58100723Y-59527686D01*
X58145591Y-59650293D01*
X58152553Y-59669319D01*
X58156789Y-59675622D01*
X58156789Y-59675623D01*
X58195776Y-59733641D01*
X58240908Y-59800805D01*
X58246527Y-59805918D01*
X58246528Y-59805919D01*
X58338123Y-59889263D01*
X58358076Y-59907419D01*
X58497293Y-59983008D01*
X58650522Y-60023207D01*
X58734477Y-60024526D01*
X58801319Y-60025576D01*
X58801322Y-60025576D01*
X58808916Y-60025695D01*
X58963332Y-59990329D01*
X59033742Y-59954917D01*
X59098072Y-59922563D01*
X59098075Y-59922561D01*
X59104855Y-59919151D01*
X59110626Y-59914222D01*
X59110629Y-59914220D01*
X59219536Y-59821204D01*
X59219536Y-59821203D01*
X59225314Y-59816269D01*
X59317755Y-59687624D01*
X59376842Y-59540641D01*
X59392853Y-59428137D01*
X59398581Y-59387891D01*
X59398581Y-59387888D01*
X59399162Y-59383807D01*
X59399307Y-59370000D01*
X59380276Y-59212733D01*
X59324280Y-59064546D01*
X59243826Y-58947484D01*
X59238855Y-58940251D01*
X59238854Y-58940249D01*
X59234553Y-58933992D01*
X59205495Y-58908102D01*
X59121946Y-58833664D01*
X59116275Y-58828611D01*
X59108889Y-58824700D01*
X58982988Y-58758039D01*
X58982989Y-58758039D01*
X58976274Y-58754484D01*
X58822633Y-58715892D01*
X58815034Y-58715852D01*
X58815033Y-58715852D01*
X58749181Y-58715507D01*
X58664221Y-58715062D01*
X58656841Y-58716834D01*
X58656839Y-58716834D01*
X58517563Y-58750271D01*
X58517560Y-58750272D01*
X58510184Y-58752043D01*
X58369414Y-58824700D01*
X58250039Y-58928838D01*
X58158950Y-59058444D01*
X58101406Y-59206037D01*
X58100414Y-59213570D01*
X58100414Y-59213571D01*
X58093690Y-59264649D01*
X58080729Y-59363096D01*
X46979165Y-59363096D01*
X46939280Y-59257546D01*
X46849553Y-59126992D01*
X46731275Y-59021611D01*
X46723889Y-59017700D01*
X46597988Y-58951039D01*
X46597989Y-58951039D01*
X46591274Y-58947484D01*
X46437633Y-58908892D01*
X46430034Y-58908852D01*
X46430033Y-58908852D01*
X46364181Y-58908507D01*
X46279221Y-58908062D01*
X46271841Y-58909834D01*
X46271839Y-58909834D01*
X46132563Y-58943271D01*
X46132560Y-58943272D01*
X46125184Y-58945043D01*
X45984414Y-59017700D01*
X45865039Y-59121838D01*
X45773950Y-59251444D01*
X45771190Y-59258524D01*
X45720752Y-59387891D01*
X45716406Y-59399037D01*
X45715414Y-59406570D01*
X45715414Y-59406571D01*
X45697764Y-59540641D01*
X45695729Y-59556096D01*
X45699183Y-59587377D01*
X45709472Y-59680571D01*
X45713113Y-59713553D01*
X45715723Y-59720684D01*
X45715723Y-59720686D01*
X45746914Y-59805919D01*
X45767553Y-59862319D01*
X45771788Y-59868622D01*
X45771792Y-59868629D01*
X45817922Y-59937277D01*
X45839315Y-60004974D01*
X45820711Y-60073490D01*
X45816428Y-60080004D01*
X45773950Y-60140444D01*
X45771190Y-60147524D01*
X45737581Y-60233727D01*
X45716406Y-60288037D01*
X45715414Y-60295570D01*
X45715414Y-60295571D01*
X45700396Y-60409649D01*
X45695729Y-60445096D01*
X38481500Y-60445096D01*
X38481500Y-57905096D01*
X41885729Y-57905096D01*
X41903113Y-58062553D01*
X41957553Y-58211319D01*
X42045908Y-58342805D01*
X42051527Y-58347918D01*
X42051528Y-58347919D01*
X42062903Y-58358269D01*
X42163076Y-58449419D01*
X42302293Y-58525008D01*
X42455522Y-58565207D01*
X42539477Y-58566526D01*
X42606319Y-58567576D01*
X42606322Y-58567576D01*
X42613916Y-58567695D01*
X42768332Y-58532329D01*
X42838742Y-58496917D01*
X42903072Y-58464563D01*
X42903075Y-58464561D01*
X42909855Y-58461151D01*
X42915626Y-58456222D01*
X42915629Y-58456220D01*
X43024536Y-58363204D01*
X43024536Y-58363203D01*
X43030314Y-58358269D01*
X43122755Y-58229624D01*
X43181842Y-58082641D01*
X43196292Y-57981106D01*
X43203581Y-57929891D01*
X43203581Y-57929888D01*
X43204162Y-57925807D01*
X43204307Y-57912000D01*
X43185276Y-57754733D01*
X43129280Y-57606546D01*
X43116106Y-57587378D01*
X43043855Y-57482251D01*
X43043854Y-57482249D01*
X43039553Y-57475992D01*
X42921275Y-57370611D01*
X42913889Y-57366700D01*
X42827567Y-57320995D01*
X47880949Y-57320995D01*
X47885611Y-57363219D01*
X47895727Y-57454845D01*
X47898333Y-57478452D01*
X47900943Y-57485583D01*
X47900943Y-57485585D01*
X47947808Y-57613649D01*
X47952773Y-57627218D01*
X47957009Y-57633521D01*
X47957009Y-57633522D01*
X48029203Y-57740957D01*
X48041128Y-57758704D01*
X48046747Y-57763817D01*
X48046748Y-57763818D01*
X48058123Y-57774168D01*
X48158296Y-57865318D01*
X48297513Y-57940907D01*
X48450742Y-57981106D01*
X48534697Y-57982425D01*
X48601539Y-57983475D01*
X48601542Y-57983475D01*
X48609136Y-57983594D01*
X48763552Y-57948228D01*
X48849311Y-57905096D01*
X48898292Y-57880462D01*
X48898295Y-57880460D01*
X48905075Y-57877050D01*
X48910846Y-57872121D01*
X48910849Y-57872119D01*
X49019756Y-57779103D01*
X49019756Y-57779102D01*
X49025534Y-57774168D01*
X49117975Y-57645523D01*
X49177062Y-57498540D01*
X49195115Y-57371689D01*
X49198801Y-57345790D01*
X49198801Y-57345787D01*
X49199382Y-57341706D01*
X49199527Y-57327899D01*
X49180496Y-57170632D01*
X49124500Y-57022445D01*
X49034773Y-56891891D01*
X48916495Y-56786510D01*
X48909109Y-56782599D01*
X48783208Y-56715938D01*
X48783209Y-56715938D01*
X48776494Y-56712383D01*
X48622853Y-56673791D01*
X48615254Y-56673751D01*
X48615253Y-56673751D01*
X48549401Y-56673406D01*
X48464441Y-56672961D01*
X48457061Y-56674733D01*
X48457059Y-56674733D01*
X48317783Y-56708170D01*
X48317780Y-56708171D01*
X48310404Y-56709942D01*
X48169634Y-56782599D01*
X48050259Y-56886737D01*
X47959170Y-57016343D01*
X47901626Y-57163936D01*
X47900634Y-57171469D01*
X47900634Y-57171470D01*
X47883708Y-57300039D01*
X47880949Y-57320995D01*
X42827567Y-57320995D01*
X42781274Y-57296484D01*
X42627633Y-57257892D01*
X42620034Y-57257852D01*
X42620033Y-57257852D01*
X42554181Y-57257507D01*
X42469221Y-57257062D01*
X42461841Y-57258834D01*
X42461839Y-57258834D01*
X42322563Y-57292271D01*
X42322560Y-57292272D01*
X42315184Y-57294043D01*
X42174414Y-57366700D01*
X42055039Y-57470838D01*
X41963950Y-57600444D01*
X41906406Y-57748037D01*
X41905414Y-57755570D01*
X41905414Y-57755571D01*
X41890489Y-57868941D01*
X41885729Y-57905096D01*
X38481500Y-57905096D01*
X38481500Y-55221259D01*
X41128025Y-55221259D01*
X41136717Y-55299988D01*
X41143999Y-55365944D01*
X41145409Y-55378716D01*
X41199849Y-55527482D01*
X41288204Y-55658968D01*
X41293823Y-55664081D01*
X41293824Y-55664082D01*
X41304599Y-55673886D01*
X41405372Y-55765582D01*
X41544589Y-55841171D01*
X41697818Y-55881370D01*
X41781773Y-55882689D01*
X41848615Y-55883739D01*
X41848618Y-55883739D01*
X41856212Y-55883858D01*
X42010628Y-55848492D01*
X42114288Y-55796357D01*
X42145368Y-55780726D01*
X42145371Y-55780724D01*
X42152151Y-55777314D01*
X42157922Y-55772385D01*
X42157925Y-55772383D01*
X42266832Y-55679367D01*
X42266832Y-55679366D01*
X42272610Y-55674432D01*
X42365051Y-55545787D01*
X42424138Y-55398804D01*
X42431175Y-55349358D01*
X55331991Y-55349358D01*
X55349375Y-55506815D01*
X55351985Y-55513946D01*
X55351985Y-55513948D01*
X55363637Y-55545787D01*
X55403815Y-55655581D01*
X55408051Y-55661884D01*
X55408051Y-55661885D01*
X55477733Y-55765582D01*
X55492170Y-55787067D01*
X55497789Y-55792180D01*
X55497790Y-55792181D01*
X55603722Y-55888571D01*
X55609338Y-55893681D01*
X55748555Y-55969270D01*
X55901784Y-56009469D01*
X55985739Y-56010788D01*
X56052581Y-56011838D01*
X56052584Y-56011838D01*
X56060178Y-56011957D01*
X56214594Y-55976591D01*
X56285004Y-55941179D01*
X56349334Y-55908825D01*
X56349337Y-55908823D01*
X56356117Y-55905413D01*
X56361888Y-55900484D01*
X56361891Y-55900482D01*
X56470798Y-55807466D01*
X56470798Y-55807465D01*
X56476576Y-55802531D01*
X56569017Y-55673886D01*
X56628104Y-55526903D01*
X56648178Y-55385849D01*
X56649843Y-55374153D01*
X56649843Y-55374150D01*
X56650424Y-55370069D01*
X56650569Y-55356262D01*
X56631538Y-55198995D01*
X56575542Y-55050808D01*
X56567076Y-55038490D01*
X56490117Y-54926513D01*
X56490116Y-54926511D01*
X56485815Y-54920254D01*
X56367537Y-54814873D01*
X56360151Y-54810962D01*
X56254848Y-54755207D01*
X56227536Y-54740746D01*
X56073895Y-54702154D01*
X56066296Y-54702114D01*
X56066295Y-54702114D01*
X56000443Y-54701769D01*
X55915483Y-54701324D01*
X55908103Y-54703096D01*
X55908101Y-54703096D01*
X55768825Y-54736533D01*
X55768822Y-54736534D01*
X55761446Y-54738305D01*
X55620676Y-54810962D01*
X55501301Y-54915100D01*
X55410212Y-55044706D01*
X55352668Y-55192299D01*
X55331991Y-55349358D01*
X42431175Y-55349358D01*
X42446458Y-55241970D01*
X42446603Y-55228163D01*
X42427572Y-55070896D01*
X42371576Y-54922709D01*
X42356120Y-54900220D01*
X42286151Y-54798414D01*
X42286150Y-54798412D01*
X42281849Y-54792155D01*
X42274113Y-54785262D01*
X42222072Y-54738896D01*
X42163571Y-54686774D01*
X42156185Y-54682863D01*
X42057766Y-54630753D01*
X42023570Y-54612647D01*
X41869929Y-54574055D01*
X41862330Y-54574015D01*
X41862329Y-54574015D01*
X41796477Y-54573670D01*
X41711517Y-54573225D01*
X41704137Y-54574997D01*
X41704135Y-54574997D01*
X41564859Y-54608434D01*
X41564856Y-54608435D01*
X41557480Y-54610206D01*
X41416710Y-54682863D01*
X41297335Y-54787001D01*
X41206246Y-54916607D01*
X41203486Y-54923687D01*
X41170895Y-55007279D01*
X41148702Y-55064200D01*
X41147710Y-55071733D01*
X41147710Y-55071734D01*
X41130846Y-55199833D01*
X41128025Y-55221259D01*
X38481500Y-55221259D01*
X38481500Y-54349096D01*
X49124729Y-54349096D01*
X49130495Y-54401319D01*
X49137817Y-54467638D01*
X49142113Y-54506553D01*
X49144723Y-54513684D01*
X49144723Y-54513686D01*
X49192899Y-54645333D01*
X49196553Y-54655319D01*
X49200789Y-54661622D01*
X49200789Y-54661623D01*
X49271571Y-54766957D01*
X49284908Y-54786805D01*
X49290527Y-54791918D01*
X49290528Y-54791919D01*
X49316939Y-54815951D01*
X49402076Y-54893419D01*
X49541293Y-54969008D01*
X49694522Y-55009207D01*
X49778477Y-55010526D01*
X49845319Y-55011576D01*
X49845322Y-55011576D01*
X49852916Y-55011695D01*
X50007332Y-54976329D01*
X50112000Y-54923687D01*
X50142072Y-54908563D01*
X50142075Y-54908561D01*
X50148855Y-54905151D01*
X50154626Y-54900222D01*
X50154629Y-54900220D01*
X50263536Y-54807204D01*
X50263536Y-54807203D01*
X50269314Y-54802269D01*
X50361755Y-54673624D01*
X50420842Y-54526641D01*
X50430222Y-54460734D01*
X50877987Y-54460734D01*
X50885944Y-54532805D01*
X50894294Y-54608434D01*
X50895371Y-54618191D01*
X50897981Y-54625322D01*
X50897981Y-54625324D01*
X50946422Y-54757695D01*
X50949811Y-54766957D01*
X50954047Y-54773260D01*
X50954047Y-54773261D01*
X50982734Y-54815951D01*
X51038166Y-54898443D01*
X51043785Y-54903556D01*
X51043786Y-54903557D01*
X51072640Y-54929812D01*
X51155334Y-55005057D01*
X51294551Y-55080646D01*
X51447780Y-55120845D01*
X51531735Y-55122164D01*
X51598577Y-55123214D01*
X51598580Y-55123214D01*
X51606174Y-55123333D01*
X51760590Y-55087967D01*
X51858965Y-55038490D01*
X51895330Y-55020201D01*
X51895333Y-55020199D01*
X51902113Y-55016789D01*
X51907884Y-55011860D01*
X51907887Y-55011858D01*
X52016794Y-54918842D01*
X52016794Y-54918841D01*
X52022572Y-54913907D01*
X52115013Y-54785262D01*
X52174100Y-54638279D01*
X52190191Y-54525217D01*
X52219590Y-54460595D01*
X52279261Y-54422126D01*
X52350258Y-54422024D01*
X52410039Y-54460322D01*
X52419514Y-54472694D01*
X52450709Y-54519115D01*
X52459908Y-54532805D01*
X52465527Y-54537918D01*
X52465528Y-54537919D01*
X52561586Y-54625324D01*
X52577076Y-54639419D01*
X52716293Y-54715008D01*
X52869522Y-54755207D01*
X52953477Y-54756526D01*
X53020319Y-54757576D01*
X53020322Y-54757576D01*
X53027916Y-54757695D01*
X53182332Y-54722329D01*
X53266896Y-54679798D01*
X53317072Y-54654563D01*
X53317075Y-54654561D01*
X53323855Y-54651151D01*
X53329626Y-54646222D01*
X53329629Y-54646220D01*
X53438536Y-54553204D01*
X53438536Y-54553203D01*
X53444314Y-54548269D01*
X53536755Y-54419624D01*
X53595842Y-54272641D01*
X53613641Y-54147574D01*
X53617581Y-54119891D01*
X53617581Y-54119888D01*
X53618162Y-54115807D01*
X53618307Y-54102000D01*
X53599276Y-53944733D01*
X53543280Y-53796546D01*
X53501854Y-53736271D01*
X53457855Y-53672251D01*
X53457854Y-53672249D01*
X53453553Y-53665992D01*
X53445891Y-53659165D01*
X53371262Y-53592674D01*
X53335275Y-53560611D01*
X53327889Y-53556700D01*
X53201988Y-53490039D01*
X53201989Y-53490039D01*
X53195274Y-53486484D01*
X53041633Y-53447892D01*
X53034034Y-53447852D01*
X53034033Y-53447852D01*
X52968181Y-53447507D01*
X52883221Y-53447062D01*
X52875841Y-53448834D01*
X52875839Y-53448834D01*
X52736563Y-53482271D01*
X52736560Y-53482272D01*
X52729184Y-53484043D01*
X52588414Y-53556700D01*
X52469039Y-53660838D01*
X52377950Y-53790444D01*
X52356400Y-53845718D01*
X52324168Y-53928389D01*
X52320406Y-53938037D01*
X52319415Y-53945568D01*
X52319414Y-53945570D01*
X52306514Y-54043556D01*
X52277791Y-54108483D01*
X52218526Y-54147574D01*
X52147535Y-54148419D01*
X52087356Y-54110748D01*
X52077760Y-54098487D01*
X52031811Y-54031630D01*
X51913533Y-53926249D01*
X51906147Y-53922338D01*
X51789767Y-53860718D01*
X51773532Y-53852122D01*
X51619891Y-53813530D01*
X51612292Y-53813490D01*
X51612291Y-53813490D01*
X51546439Y-53813145D01*
X51461479Y-53812700D01*
X51454099Y-53814472D01*
X51454097Y-53814472D01*
X51314821Y-53847909D01*
X51314818Y-53847910D01*
X51307442Y-53849681D01*
X51166672Y-53922338D01*
X51047297Y-54026476D01*
X50956208Y-54156082D01*
X50931868Y-54218510D01*
X50904102Y-54289728D01*
X50898664Y-54303675D01*
X50897672Y-54311208D01*
X50897672Y-54311209D01*
X50883070Y-54422126D01*
X50877987Y-54460734D01*
X50430222Y-54460734D01*
X50443162Y-54369807D01*
X50443307Y-54356000D01*
X50440825Y-54335485D01*
X50437313Y-54306467D01*
X50424276Y-54198733D01*
X50368280Y-54050546D01*
X50278553Y-53919992D01*
X50160275Y-53814611D01*
X50152889Y-53810700D01*
X50026988Y-53744039D01*
X50026989Y-53744039D01*
X50020274Y-53740484D01*
X49866633Y-53701892D01*
X49859034Y-53701852D01*
X49859033Y-53701852D01*
X49793181Y-53701507D01*
X49708221Y-53701062D01*
X49700841Y-53702834D01*
X49700839Y-53702834D01*
X49561563Y-53736271D01*
X49561560Y-53736272D01*
X49554184Y-53738043D01*
X49413414Y-53810700D01*
X49294039Y-53914838D01*
X49202950Y-54044444D01*
X49191721Y-54073245D01*
X49148305Y-54184602D01*
X49145406Y-54192037D01*
X49144414Y-54199570D01*
X49144414Y-54199571D01*
X49126521Y-54335485D01*
X49124729Y-54349096D01*
X38481500Y-54349096D01*
X38481500Y-51562669D01*
X39536001Y-51562669D01*
X39536371Y-51569490D01*
X39541895Y-51620352D01*
X39545521Y-51635604D01*
X39590676Y-51756054D01*
X39599214Y-51771649D01*
X39675715Y-51873724D01*
X39688276Y-51886285D01*
X39790351Y-51962786D01*
X39805946Y-51971324D01*
X39926394Y-52016478D01*
X39941649Y-52020105D01*
X39992514Y-52025631D01*
X39999328Y-52026000D01*
X40262180Y-52026000D01*
X40330301Y-52046002D01*
X40376794Y-52099658D01*
X40386898Y-52169932D01*
X40357404Y-52234512D01*
X40326605Y-52260284D01*
X40242010Y-52310612D01*
X40237670Y-52314418D01*
X40237666Y-52314421D01*
X40095868Y-52438776D01*
X40089392Y-52444455D01*
X39963720Y-52603869D01*
X39961031Y-52608980D01*
X39961029Y-52608983D01*
X39940990Y-52647071D01*
X39869203Y-52783515D01*
X39809007Y-52977378D01*
X39785148Y-53178964D01*
X39798424Y-53381522D01*
X39799845Y-53387118D01*
X39799846Y-53387123D01*
X39820119Y-53466945D01*
X39848392Y-53578269D01*
X39850809Y-53583512D01*
X39894906Y-53679165D01*
X39933377Y-53762616D01*
X39936710Y-53767332D01*
X40046257Y-53922338D01*
X40050533Y-53928389D01*
X40054675Y-53932424D01*
X40067311Y-53944733D01*
X40195938Y-54070035D01*
X40364720Y-54182812D01*
X40370023Y-54185090D01*
X40370026Y-54185092D01*
X40527047Y-54252553D01*
X40551228Y-54262942D01*
X40578960Y-54269217D01*
X40743579Y-54306467D01*
X40743584Y-54306468D01*
X40749216Y-54307742D01*
X40754987Y-54307969D01*
X40754989Y-54307969D01*
X40814756Y-54310317D01*
X40952053Y-54315712D01*
X41052499Y-54301148D01*
X41147231Y-54287413D01*
X41147236Y-54287412D01*
X41152945Y-54286584D01*
X41158409Y-54284729D01*
X41158414Y-54284728D01*
X41339693Y-54223192D01*
X41339698Y-54223190D01*
X41345165Y-54221334D01*
X41372059Y-54206273D01*
X41419683Y-54179602D01*
X41522276Y-54122147D01*
X41538706Y-54108483D01*
X41673913Y-53996031D01*
X41678345Y-53992345D01*
X41723513Y-53938037D01*
X41804453Y-53840718D01*
X41804455Y-53840715D01*
X41808147Y-53836276D01*
X41893309Y-53684208D01*
X41904510Y-53664208D01*
X41904511Y-53664206D01*
X41907334Y-53659165D01*
X41909190Y-53653698D01*
X41909192Y-53653693D01*
X41970728Y-53472414D01*
X41970729Y-53472409D01*
X41972584Y-53466945D01*
X41973412Y-53461236D01*
X41973413Y-53461231D01*
X42001179Y-53269727D01*
X42001712Y-53266053D01*
X42003232Y-53208000D01*
X42002402Y-53198964D01*
X58200148Y-53198964D01*
X58213424Y-53401522D01*
X58214845Y-53407118D01*
X58214846Y-53407123D01*
X58252835Y-53556700D01*
X58263392Y-53598269D01*
X58265809Y-53603512D01*
X58303010Y-53684208D01*
X58348377Y-53782616D01*
X58351710Y-53787332D01*
X58441822Y-53914838D01*
X58465533Y-53948389D01*
X58469675Y-53952424D01*
X58511239Y-53992913D01*
X58610938Y-54090035D01*
X58779720Y-54202812D01*
X58785023Y-54205090D01*
X58785026Y-54205092D01*
X58931314Y-54267942D01*
X58966228Y-54282942D01*
X59026566Y-54296595D01*
X59158579Y-54326467D01*
X59158584Y-54326468D01*
X59164216Y-54327742D01*
X59169987Y-54327969D01*
X59169989Y-54327969D01*
X59229756Y-54330317D01*
X59367053Y-54335712D01*
X59476224Y-54319883D01*
X59562231Y-54307413D01*
X59562236Y-54307412D01*
X59567945Y-54306584D01*
X59573409Y-54304729D01*
X59573414Y-54304728D01*
X59754693Y-54243192D01*
X59754698Y-54243190D01*
X59760165Y-54241334D01*
X59786950Y-54226334D01*
X59834738Y-54199571D01*
X59937276Y-54142147D01*
X59955312Y-54127147D01*
X60088913Y-54016031D01*
X60093345Y-54012345D01*
X60155147Y-53938037D01*
X60219453Y-53860718D01*
X60219455Y-53860715D01*
X60223147Y-53856276D01*
X60322334Y-53679165D01*
X60324190Y-53673698D01*
X60324192Y-53673693D01*
X60385728Y-53492414D01*
X60385729Y-53492409D01*
X60387584Y-53486945D01*
X60388412Y-53481236D01*
X60388413Y-53481231D01*
X60416179Y-53289727D01*
X60416712Y-53286053D01*
X60418232Y-53228000D01*
X60414186Y-53183964D01*
X61883148Y-53183964D01*
X61896424Y-53386522D01*
X61897845Y-53392118D01*
X61897846Y-53392123D01*
X61940911Y-53561689D01*
X61946392Y-53583269D01*
X61948809Y-53588512D01*
X61983705Y-53664208D01*
X62031377Y-53767616D01*
X62034710Y-53772332D01*
X62141664Y-53923669D01*
X62148533Y-53933389D01*
X62152675Y-53937424D01*
X62153304Y-53938037D01*
X62293938Y-54075035D01*
X62462720Y-54187812D01*
X62468023Y-54190090D01*
X62468026Y-54190092D01*
X62613409Y-54252553D01*
X62649228Y-54267942D01*
X62715519Y-54282942D01*
X62841579Y-54311467D01*
X62841584Y-54311468D01*
X62847216Y-54312742D01*
X62852987Y-54312969D01*
X62852989Y-54312969D01*
X62912756Y-54315317D01*
X63050053Y-54320712D01*
X63160293Y-54304728D01*
X63245231Y-54292413D01*
X63245236Y-54292412D01*
X63250945Y-54291584D01*
X63256409Y-54289729D01*
X63256414Y-54289728D01*
X63437693Y-54228192D01*
X63437698Y-54228190D01*
X63443165Y-54226334D01*
X63448776Y-54223192D01*
X63526611Y-54179602D01*
X63620276Y-54127147D01*
X63629001Y-54119891D01*
X63771913Y-54001031D01*
X63776345Y-53997345D01*
X63833463Y-53928669D01*
X63902453Y-53845718D01*
X63902455Y-53845715D01*
X63906147Y-53841276D01*
X63984671Y-53701062D01*
X64002510Y-53669208D01*
X64002511Y-53669206D01*
X64005334Y-53664165D01*
X64007190Y-53658698D01*
X64007192Y-53658693D01*
X64068728Y-53477414D01*
X64068729Y-53477409D01*
X64070584Y-53471945D01*
X64071412Y-53466236D01*
X64071413Y-53466231D01*
X64099179Y-53274727D01*
X64099712Y-53271053D01*
X64101232Y-53213000D01*
X64084565Y-53031613D01*
X64083187Y-53016613D01*
X64083186Y-53016610D01*
X64082658Y-53010859D01*
X64076726Y-52989826D01*
X64029125Y-52821046D01*
X64029124Y-52821044D01*
X64027557Y-52815487D01*
X64024375Y-52809033D01*
X63940331Y-52638609D01*
X63937776Y-52633428D01*
X63927429Y-52619571D01*
X63827521Y-52485779D01*
X63816320Y-52470779D01*
X63680149Y-52344903D01*
X63671503Y-52336911D01*
X63667258Y-52332987D01*
X63662375Y-52329906D01*
X63662371Y-52329903D01*
X63500464Y-52227748D01*
X63495581Y-52224667D01*
X63307039Y-52149446D01*
X63301379Y-52148320D01*
X63301375Y-52148319D01*
X63113613Y-52110971D01*
X63113610Y-52110971D01*
X63107946Y-52109844D01*
X63102171Y-52109768D01*
X63102167Y-52109768D01*
X63000793Y-52108441D01*
X62904971Y-52107187D01*
X62899274Y-52108166D01*
X62899273Y-52108166D01*
X62710607Y-52140585D01*
X62704910Y-52141564D01*
X62514463Y-52211824D01*
X62340010Y-52315612D01*
X62335670Y-52319418D01*
X62335666Y-52319421D01*
X62300448Y-52350307D01*
X62187392Y-52449455D01*
X62061720Y-52608869D01*
X62059031Y-52613980D01*
X62059029Y-52613983D01*
X62047541Y-52635819D01*
X61967203Y-52788515D01*
X61907007Y-52982378D01*
X61883148Y-53183964D01*
X60414186Y-53183964D01*
X60399658Y-53025859D01*
X60394017Y-53005859D01*
X60346125Y-52836046D01*
X60346124Y-52836044D01*
X60344557Y-52830487D01*
X60339902Y-52821046D01*
X60257331Y-52653609D01*
X60254776Y-52648428D01*
X60245361Y-52635819D01*
X60154539Y-52514195D01*
X60133320Y-52485779D01*
X59984258Y-52347987D01*
X59979375Y-52344906D01*
X59979371Y-52344903D01*
X59817464Y-52242748D01*
X59812581Y-52239667D01*
X59624039Y-52164446D01*
X59618379Y-52163320D01*
X59618375Y-52163319D01*
X59430613Y-52125971D01*
X59430610Y-52125971D01*
X59424946Y-52124844D01*
X59419171Y-52124768D01*
X59419167Y-52124768D01*
X59317793Y-52123441D01*
X59221971Y-52122187D01*
X59216274Y-52123166D01*
X59216273Y-52123166D01*
X59063334Y-52149446D01*
X59021910Y-52156564D01*
X58831463Y-52226824D01*
X58657010Y-52330612D01*
X58652670Y-52334418D01*
X58652666Y-52334421D01*
X58525837Y-52445648D01*
X58504392Y-52464455D01*
X58500817Y-52468990D01*
X58500816Y-52468991D01*
X58492529Y-52479503D01*
X58378720Y-52623869D01*
X58376031Y-52628980D01*
X58376029Y-52628983D01*
X58328128Y-52720027D01*
X58284203Y-52803515D01*
X58224007Y-52997378D01*
X58200148Y-53198964D01*
X42002402Y-53198964D01*
X41991797Y-53083551D01*
X41985187Y-53011613D01*
X41985186Y-53011610D01*
X41984658Y-53005859D01*
X41979559Y-52987779D01*
X41931125Y-52816046D01*
X41931124Y-52816044D01*
X41929557Y-52810487D01*
X41918978Y-52789033D01*
X41842331Y-52633609D01*
X41839776Y-52628428D01*
X41828990Y-52613983D01*
X41754474Y-52514195D01*
X41718320Y-52465779D01*
X41570999Y-52329596D01*
X50394729Y-52329596D01*
X50403421Y-52408324D01*
X50410119Y-52468991D01*
X50412113Y-52487053D01*
X50414723Y-52494184D01*
X50414723Y-52494186D01*
X50460520Y-52619332D01*
X50466553Y-52635819D01*
X50470789Y-52642122D01*
X50470789Y-52642123D01*
X50527541Y-52726578D01*
X50554908Y-52767305D01*
X50560527Y-52772418D01*
X50560528Y-52772419D01*
X50640211Y-52844924D01*
X50672076Y-52873919D01*
X50811293Y-52949508D01*
X50964522Y-52989707D01*
X51048477Y-52991026D01*
X51115319Y-52992076D01*
X51115322Y-52992076D01*
X51122916Y-52992195D01*
X51277332Y-52956829D01*
X51354939Y-52917797D01*
X51412072Y-52889063D01*
X51412075Y-52889061D01*
X51418855Y-52885651D01*
X51424626Y-52880722D01*
X51424629Y-52880720D01*
X51533536Y-52787704D01*
X51533536Y-52787703D01*
X51539314Y-52782769D01*
X51631755Y-52654124D01*
X51690842Y-52507141D01*
X51713162Y-52350307D01*
X51713307Y-52336500D01*
X51712595Y-52330612D01*
X51707543Y-52288869D01*
X56081502Y-52288869D01*
X56098886Y-52446326D01*
X56101496Y-52453457D01*
X56101496Y-52453459D01*
X56118387Y-52499615D01*
X56153326Y-52595092D01*
X56157562Y-52601395D01*
X56157562Y-52601396D01*
X56197143Y-52660298D01*
X56241681Y-52726578D01*
X56247300Y-52731691D01*
X56247301Y-52731692D01*
X56350183Y-52825307D01*
X56358849Y-52833192D01*
X56498066Y-52908781D01*
X56651295Y-52948980D01*
X56735250Y-52950299D01*
X56802092Y-52951349D01*
X56802095Y-52951349D01*
X56809689Y-52951468D01*
X56964105Y-52916102D01*
X57040774Y-52877542D01*
X57098845Y-52848336D01*
X57098848Y-52848334D01*
X57105628Y-52844924D01*
X57111399Y-52839995D01*
X57111402Y-52839993D01*
X57220309Y-52746977D01*
X57220309Y-52746976D01*
X57226087Y-52742042D01*
X57318528Y-52613397D01*
X57377615Y-52466414D01*
X57396012Y-52337146D01*
X57399354Y-52313664D01*
X57399354Y-52313661D01*
X57399935Y-52309580D01*
X57400080Y-52295773D01*
X57381049Y-52138506D01*
X57325053Y-51990319D01*
X57306130Y-51962786D01*
X57239628Y-51866024D01*
X57239627Y-51866022D01*
X57235326Y-51859765D01*
X57117048Y-51754384D01*
X57109662Y-51750473D01*
X57046010Y-51716771D01*
X56977047Y-51680257D01*
X56969684Y-51678408D01*
X56969680Y-51678406D01*
X56913198Y-51664219D01*
X56852002Y-51628224D01*
X56819981Y-51564859D01*
X56827301Y-51494241D01*
X56871639Y-51438790D01*
X56915763Y-51419195D01*
X56971657Y-51406394D01*
X56971661Y-51406393D01*
X56979060Y-51404698D01*
X57082720Y-51352563D01*
X57113800Y-51336932D01*
X57113803Y-51336930D01*
X57120583Y-51333520D01*
X57126354Y-51328591D01*
X57126357Y-51328589D01*
X57235264Y-51235573D01*
X57235264Y-51235572D01*
X57241042Y-51230638D01*
X57333483Y-51101993D01*
X57392570Y-50955010D01*
X57406696Y-50855755D01*
X57414309Y-50802260D01*
X57414309Y-50802257D01*
X57414890Y-50798176D01*
X57415035Y-50784369D01*
X57399860Y-50658964D01*
X58200148Y-50658964D01*
X58213424Y-50861522D01*
X58214845Y-50867118D01*
X58214846Y-50867123D01*
X58258161Y-51037674D01*
X58263392Y-51058269D01*
X58265809Y-51063512D01*
X58303010Y-51144208D01*
X58348377Y-51242616D01*
X58351710Y-51247332D01*
X58459112Y-51399303D01*
X58465533Y-51408389D01*
X58469675Y-51412424D01*
X58512353Y-51453999D01*
X58610938Y-51550035D01*
X58615742Y-51553245D01*
X58633124Y-51564859D01*
X58779720Y-51662812D01*
X58785023Y-51665090D01*
X58785026Y-51665092D01*
X58931314Y-51727942D01*
X58966228Y-51742942D01*
X59021559Y-51755462D01*
X59158579Y-51786467D01*
X59158584Y-51786468D01*
X59164216Y-51787742D01*
X59169987Y-51787969D01*
X59169989Y-51787969D01*
X59229756Y-51790317D01*
X59367053Y-51795712D01*
X59476224Y-51779883D01*
X59562231Y-51767413D01*
X59562236Y-51767412D01*
X59567945Y-51766584D01*
X59573409Y-51764729D01*
X59573414Y-51764728D01*
X59754693Y-51703192D01*
X59754698Y-51703190D01*
X59760165Y-51701334D01*
X59786950Y-51686334D01*
X59865913Y-51642112D01*
X59937276Y-51602147D01*
X59955312Y-51587147D01*
X60088913Y-51476031D01*
X60093345Y-51472345D01*
X60158709Y-51393754D01*
X60219453Y-51320718D01*
X60219455Y-51320715D01*
X60223147Y-51316276D01*
X60322334Y-51139165D01*
X60324190Y-51133698D01*
X60324192Y-51133693D01*
X60385728Y-50952414D01*
X60385729Y-50952409D01*
X60387584Y-50946945D01*
X60388412Y-50941236D01*
X60388413Y-50941231D01*
X60408890Y-50800000D01*
X60416712Y-50746053D01*
X60418232Y-50688000D01*
X60414186Y-50643964D01*
X61883148Y-50643964D01*
X61896424Y-50846522D01*
X61897845Y-50852118D01*
X61897846Y-50852123D01*
X61929738Y-50977695D01*
X61946392Y-51043269D01*
X61948809Y-51048512D01*
X61986010Y-51129208D01*
X62031377Y-51227616D01*
X62034710Y-51232332D01*
X62108978Y-51337419D01*
X62148533Y-51393389D01*
X62152675Y-51397424D01*
X62168073Y-51412424D01*
X62293938Y-51535035D01*
X62298742Y-51538245D01*
X62338573Y-51564859D01*
X62462720Y-51647812D01*
X62468023Y-51650090D01*
X62468026Y-51650092D01*
X62623227Y-51716771D01*
X62649228Y-51727942D01*
X62715519Y-51742942D01*
X62841579Y-51771467D01*
X62841584Y-51771468D01*
X62847216Y-51772742D01*
X62852987Y-51772969D01*
X62852989Y-51772969D01*
X62912756Y-51775317D01*
X63050053Y-51780712D01*
X63160293Y-51764728D01*
X63245231Y-51752413D01*
X63245236Y-51752412D01*
X63250945Y-51751584D01*
X63256409Y-51749729D01*
X63256414Y-51749728D01*
X63437693Y-51688192D01*
X63437698Y-51688190D01*
X63443165Y-51686334D01*
X63450276Y-51682352D01*
X63588447Y-51604972D01*
X63620276Y-51587147D01*
X63641507Y-51569490D01*
X63771913Y-51461031D01*
X63776345Y-51457345D01*
X63826220Y-51397377D01*
X63902453Y-51305718D01*
X63902455Y-51305715D01*
X63906147Y-51301276D01*
X63965845Y-51194677D01*
X64002510Y-51129208D01*
X64002511Y-51129206D01*
X64005334Y-51124165D01*
X64007190Y-51118698D01*
X64007192Y-51118693D01*
X64068728Y-50937414D01*
X64068729Y-50937409D01*
X64070584Y-50931945D01*
X64071412Y-50926236D01*
X64071413Y-50926231D01*
X64091888Y-50785015D01*
X64099712Y-50731053D01*
X64101232Y-50673000D01*
X64085487Y-50501649D01*
X64083187Y-50476613D01*
X64083186Y-50476610D01*
X64082658Y-50470859D01*
X64077300Y-50451861D01*
X64029125Y-50281046D01*
X64029124Y-50281044D01*
X64027557Y-50275487D01*
X64024375Y-50269033D01*
X63940331Y-50098609D01*
X63937776Y-50093428D01*
X63816320Y-49930779D01*
X63667258Y-49792987D01*
X63662375Y-49789906D01*
X63662371Y-49789903D01*
X63500464Y-49687748D01*
X63495581Y-49684667D01*
X63307039Y-49609446D01*
X63301379Y-49608320D01*
X63301375Y-49608319D01*
X63113613Y-49570971D01*
X63113610Y-49570971D01*
X63107946Y-49569844D01*
X63102171Y-49569768D01*
X63102167Y-49569768D01*
X63000793Y-49568441D01*
X62904971Y-49567187D01*
X62899274Y-49568166D01*
X62899273Y-49568166D01*
X62715187Y-49599798D01*
X62704910Y-49601564D01*
X62514463Y-49671824D01*
X62340010Y-49775612D01*
X62335670Y-49779418D01*
X62335666Y-49779421D01*
X62279631Y-49828563D01*
X62187392Y-49909455D01*
X62061720Y-50068869D01*
X62059031Y-50073980D01*
X62059029Y-50073983D01*
X62029441Y-50130221D01*
X61967203Y-50248515D01*
X61907007Y-50442378D01*
X61883148Y-50643964D01*
X60414186Y-50643964D01*
X60399658Y-50485859D01*
X60394226Y-50466597D01*
X60346125Y-50296046D01*
X60346124Y-50296044D01*
X60344557Y-50290487D01*
X60339902Y-50281046D01*
X60257331Y-50113609D01*
X60254776Y-50108428D01*
X60133320Y-49945779D01*
X59984258Y-49807987D01*
X59979375Y-49804906D01*
X59979371Y-49804903D01*
X59817464Y-49702748D01*
X59812581Y-49699667D01*
X59624039Y-49624446D01*
X59618379Y-49623320D01*
X59618375Y-49623319D01*
X59430613Y-49585971D01*
X59430610Y-49585971D01*
X59424946Y-49584844D01*
X59419171Y-49584768D01*
X59419167Y-49584768D01*
X59317793Y-49583441D01*
X59221971Y-49582187D01*
X59216274Y-49583166D01*
X59216273Y-49583166D01*
X59063334Y-49609446D01*
X59021910Y-49616564D01*
X58831463Y-49686824D01*
X58657010Y-49790612D01*
X58652670Y-49794418D01*
X58652666Y-49794421D01*
X58525837Y-49905648D01*
X58504392Y-49924455D01*
X58500817Y-49928990D01*
X58500816Y-49928991D01*
X58490675Y-49941855D01*
X58378720Y-50083869D01*
X58376031Y-50088980D01*
X58376029Y-50088983D01*
X58346109Y-50145852D01*
X58284203Y-50263515D01*
X58224007Y-50457378D01*
X58200148Y-50658964D01*
X57399860Y-50658964D01*
X57396004Y-50627102D01*
X57340008Y-50478915D01*
X57292318Y-50409525D01*
X57254583Y-50354620D01*
X57254582Y-50354618D01*
X57250281Y-50348361D01*
X57132003Y-50242980D01*
X57124617Y-50239069D01*
X56998716Y-50172408D01*
X56998717Y-50172408D01*
X56992002Y-50168853D01*
X56838361Y-50130261D01*
X56830762Y-50130221D01*
X56830761Y-50130221D01*
X56764909Y-50129876D01*
X56679949Y-50129431D01*
X56672569Y-50131203D01*
X56672567Y-50131203D01*
X56533291Y-50164640D01*
X56533288Y-50164641D01*
X56525912Y-50166412D01*
X56385142Y-50239069D01*
X56265767Y-50343207D01*
X56174678Y-50472813D01*
X56117134Y-50620406D01*
X56116142Y-50627939D01*
X56116142Y-50627940D01*
X56100109Y-50749727D01*
X56096457Y-50777465D01*
X56100920Y-50817891D01*
X56112732Y-50924876D01*
X56113841Y-50934922D01*
X56116451Y-50942053D01*
X56116451Y-50942055D01*
X56160898Y-51063512D01*
X56168281Y-51083688D01*
X56172517Y-51089991D01*
X56172517Y-51089992D01*
X56178785Y-51099319D01*
X56256636Y-51215174D01*
X56262255Y-51220287D01*
X56262256Y-51220288D01*
X56345717Y-51296231D01*
X56373804Y-51321788D01*
X56513021Y-51397377D01*
X56558793Y-51409385D01*
X56584998Y-51416260D01*
X56645813Y-51452894D01*
X56677168Y-51516591D01*
X56669109Y-51587129D01*
X56624193Y-51642112D01*
X56582438Y-51660655D01*
X56518336Y-51676044D01*
X56518333Y-51676045D01*
X56510957Y-51677816D01*
X56370187Y-51750473D01*
X56250812Y-51854611D01*
X56159723Y-51984217D01*
X56143433Y-52025999D01*
X56105931Y-52122187D01*
X56102179Y-52131810D01*
X56101187Y-52139343D01*
X56101187Y-52139344D01*
X56087980Y-52239667D01*
X56081502Y-52288869D01*
X51707543Y-52288869D01*
X51704084Y-52260286D01*
X51694276Y-52179233D01*
X51638280Y-52031046D01*
X51610289Y-51990319D01*
X51552855Y-51906751D01*
X51552854Y-51906749D01*
X51548553Y-51900492D01*
X51430275Y-51795111D01*
X51422889Y-51791200D01*
X51296988Y-51724539D01*
X51296989Y-51724539D01*
X51290274Y-51720984D01*
X51136633Y-51682392D01*
X51129034Y-51682352D01*
X51129033Y-51682352D01*
X51063181Y-51682007D01*
X50978221Y-51681562D01*
X50970841Y-51683334D01*
X50970839Y-51683334D01*
X50831563Y-51716771D01*
X50831560Y-51716772D01*
X50824184Y-51718543D01*
X50683414Y-51791200D01*
X50564039Y-51895338D01*
X50472950Y-52024944D01*
X50444178Y-52098740D01*
X50418561Y-52164446D01*
X50415406Y-52172537D01*
X50414414Y-52180070D01*
X50414414Y-52180071D01*
X50396069Y-52319421D01*
X50394729Y-52329596D01*
X41570999Y-52329596D01*
X41569258Y-52327987D01*
X41459224Y-52258561D01*
X41412286Y-52205294D01*
X41401597Y-52135107D01*
X41430552Y-52070282D01*
X41489956Y-52031403D01*
X41526460Y-52025999D01*
X41788669Y-52025999D01*
X41795490Y-52025629D01*
X41846352Y-52020105D01*
X41861604Y-52016479D01*
X41982054Y-51971324D01*
X41997649Y-51962786D01*
X42099724Y-51886285D01*
X42112285Y-51873724D01*
X42188786Y-51771649D01*
X42197324Y-51756054D01*
X42242478Y-51635606D01*
X42246105Y-51620351D01*
X42251631Y-51569486D01*
X42252000Y-51562672D01*
X42252000Y-50940115D01*
X42247525Y-50924876D01*
X42246135Y-50923671D01*
X42238452Y-50922000D01*
X39554116Y-50922000D01*
X39538877Y-50926475D01*
X39537672Y-50927865D01*
X39536001Y-50935548D01*
X39536001Y-51562669D01*
X38481500Y-51562669D01*
X38481500Y-50793096D01*
X44171729Y-50793096D01*
X44178246Y-50852123D01*
X44188175Y-50942055D01*
X44189113Y-50950553D01*
X44191723Y-50957684D01*
X44191723Y-50957686D01*
X44240140Y-51089992D01*
X44243553Y-51099319D01*
X44247789Y-51105622D01*
X44247789Y-51105623D01*
X44326241Y-51222371D01*
X44331908Y-51230805D01*
X44337527Y-51235918D01*
X44337528Y-51235919D01*
X44435879Y-51325411D01*
X44449076Y-51337419D01*
X44588293Y-51413008D01*
X44741522Y-51453207D01*
X44825477Y-51454526D01*
X44892319Y-51455576D01*
X44892322Y-51455576D01*
X44899916Y-51455695D01*
X45054332Y-51420329D01*
X45124742Y-51384917D01*
X45189072Y-51352563D01*
X45189075Y-51352561D01*
X45195855Y-51349151D01*
X45201626Y-51344222D01*
X45201629Y-51344220D01*
X45310536Y-51251204D01*
X45310536Y-51251203D01*
X45316314Y-51246269D01*
X45408755Y-51117624D01*
X45467842Y-50970641D01*
X45482574Y-50867123D01*
X45489581Y-50817891D01*
X45489581Y-50817888D01*
X45490162Y-50813807D01*
X45490307Y-50800000D01*
X45488416Y-50784369D01*
X45476754Y-50688000D01*
X45471276Y-50642733D01*
X45415280Y-50494546D01*
X45375634Y-50436861D01*
X45329855Y-50370251D01*
X45329854Y-50370249D01*
X45325553Y-50363992D01*
X45207275Y-50258611D01*
X45199889Y-50254700D01*
X45073988Y-50188039D01*
X45073989Y-50188039D01*
X45067274Y-50184484D01*
X44913633Y-50145892D01*
X44906034Y-50145852D01*
X44906033Y-50145852D01*
X44840181Y-50145507D01*
X44755221Y-50145062D01*
X44747841Y-50146834D01*
X44747839Y-50146834D01*
X44608563Y-50180271D01*
X44608560Y-50180272D01*
X44601184Y-50182043D01*
X44460414Y-50254700D01*
X44341039Y-50358838D01*
X44249950Y-50488444D01*
X44247190Y-50495524D01*
X44195890Y-50627102D01*
X44192406Y-50636037D01*
X44191414Y-50643570D01*
X44191414Y-50643571D01*
X44172793Y-50785015D01*
X44171729Y-50793096D01*
X38481500Y-50793096D01*
X38481500Y-50395885D01*
X39536000Y-50395885D01*
X39540475Y-50411124D01*
X39541865Y-50412329D01*
X39549548Y-50414000D01*
X40621885Y-50414000D01*
X40637124Y-50409525D01*
X40638329Y-50408135D01*
X40640000Y-50400452D01*
X40640000Y-50395885D01*
X41148000Y-50395885D01*
X41152475Y-50411124D01*
X41153865Y-50412329D01*
X41161548Y-50414000D01*
X42233884Y-50414000D01*
X42249123Y-50409525D01*
X42250328Y-50408135D01*
X42251999Y-50400452D01*
X42251999Y-49773331D01*
X42251629Y-49766510D01*
X42246105Y-49715648D01*
X42242479Y-49700396D01*
X42197324Y-49579946D01*
X42188786Y-49564351D01*
X42112285Y-49462276D01*
X42099724Y-49449715D01*
X41997649Y-49373214D01*
X41982054Y-49364676D01*
X41861606Y-49319522D01*
X41846351Y-49315895D01*
X41795486Y-49310369D01*
X41788672Y-49310000D01*
X41166115Y-49310000D01*
X41150876Y-49314475D01*
X41149671Y-49315865D01*
X41148000Y-49323548D01*
X41148000Y-50395885D01*
X40640000Y-50395885D01*
X40640000Y-49328116D01*
X40635525Y-49312877D01*
X40634135Y-49311672D01*
X40626452Y-49310001D01*
X39999331Y-49310001D01*
X39992510Y-49310371D01*
X39941648Y-49315895D01*
X39926396Y-49319521D01*
X39805946Y-49364676D01*
X39790351Y-49373214D01*
X39688276Y-49449715D01*
X39675715Y-49462276D01*
X39599214Y-49564351D01*
X39590676Y-49579946D01*
X39545522Y-49700394D01*
X39541895Y-49715649D01*
X39536369Y-49766514D01*
X39536000Y-49773328D01*
X39536000Y-50395885D01*
X38481500Y-50395885D01*
X38481500Y-48761096D01*
X46457729Y-48761096D01*
X46465319Y-48829846D01*
X46467131Y-48846251D01*
X46475113Y-48918553D01*
X46477723Y-48925684D01*
X46477723Y-48925686D01*
X46515581Y-49029137D01*
X46529553Y-49067319D01*
X46533789Y-49073622D01*
X46533789Y-49073623D01*
X46610901Y-49188377D01*
X46617908Y-49198805D01*
X46623527Y-49203918D01*
X46623528Y-49203919D01*
X46722407Y-49293891D01*
X46735076Y-49305419D01*
X46874293Y-49381008D01*
X47027522Y-49421207D01*
X47111477Y-49422526D01*
X47178319Y-49423576D01*
X47178322Y-49423576D01*
X47185916Y-49423695D01*
X47340332Y-49388329D01*
X47410742Y-49352917D01*
X47475072Y-49320563D01*
X47475075Y-49320561D01*
X47481855Y-49317151D01*
X47487626Y-49312222D01*
X47487629Y-49312220D01*
X47538120Y-49269096D01*
X52934729Y-49269096D01*
X52938175Y-49300309D01*
X52947085Y-49381008D01*
X52952113Y-49426553D01*
X52954723Y-49433684D01*
X52954723Y-49433686D01*
X52965186Y-49462276D01*
X53006553Y-49575319D01*
X53010789Y-49581622D01*
X53010789Y-49581623D01*
X53034269Y-49616564D01*
X53094908Y-49706805D01*
X53100527Y-49711918D01*
X53100528Y-49711919D01*
X53170526Y-49775612D01*
X53212076Y-49813419D01*
X53351293Y-49889008D01*
X53504522Y-49929207D01*
X53588477Y-49930526D01*
X53655319Y-49931576D01*
X53655322Y-49931576D01*
X53662916Y-49931695D01*
X53817332Y-49896329D01*
X53887742Y-49860917D01*
X53952072Y-49828563D01*
X53952075Y-49828561D01*
X53958855Y-49825151D01*
X53964626Y-49820222D01*
X53964629Y-49820220D01*
X54073536Y-49727204D01*
X54073536Y-49727203D01*
X54079314Y-49722269D01*
X54171755Y-49593624D01*
X54230842Y-49446641D01*
X54249454Y-49315865D01*
X54252581Y-49293891D01*
X54252581Y-49293888D01*
X54253162Y-49289807D01*
X54253307Y-49276000D01*
X54234276Y-49118733D01*
X54178280Y-48970546D01*
X54088553Y-48839992D01*
X53970275Y-48734611D01*
X53962889Y-48730700D01*
X53836988Y-48664039D01*
X53836989Y-48664039D01*
X53830274Y-48660484D01*
X53676633Y-48621892D01*
X53669034Y-48621852D01*
X53669033Y-48621852D01*
X53603181Y-48621507D01*
X53518221Y-48621062D01*
X53510841Y-48622834D01*
X53510839Y-48622834D01*
X53371563Y-48656271D01*
X53371560Y-48656272D01*
X53364184Y-48658043D01*
X53223414Y-48730700D01*
X53104039Y-48834838D01*
X53012950Y-48964444D01*
X52995943Y-49008066D01*
X52962976Y-49092622D01*
X52955406Y-49112037D01*
X52954414Y-49119570D01*
X52954414Y-49119571D01*
X52936914Y-49252500D01*
X52934729Y-49269096D01*
X47538120Y-49269096D01*
X47596536Y-49219204D01*
X47596536Y-49219203D01*
X47602314Y-49214269D01*
X47694755Y-49085624D01*
X47753842Y-48938641D01*
X47766991Y-48846251D01*
X47775581Y-48785891D01*
X47775581Y-48785888D01*
X47776162Y-48781807D01*
X47776307Y-48768000D01*
X47757276Y-48610733D01*
X47701280Y-48462546D01*
X47611553Y-48331992D01*
X47605887Y-48326943D01*
X47605880Y-48326936D01*
X47565466Y-48290929D01*
X47527910Y-48230679D01*
X47528890Y-48159689D01*
X47567455Y-48101042D01*
X47596532Y-48076208D01*
X47596535Y-48076205D01*
X47602314Y-48071269D01*
X47694755Y-47942624D01*
X47753842Y-47795641D01*
X47755699Y-47782596D01*
X51808930Y-47782596D01*
X51817622Y-47861325D01*
X51825273Y-47930623D01*
X51826314Y-47940053D01*
X51828924Y-47947184D01*
X51828924Y-47947186D01*
X51874332Y-48071269D01*
X51880754Y-48088819D01*
X51884990Y-48095122D01*
X51884990Y-48095123D01*
X51888968Y-48101042D01*
X51969109Y-48220305D01*
X51974728Y-48225418D01*
X51974729Y-48225419D01*
X51980510Y-48230679D01*
X52086277Y-48326919D01*
X52225494Y-48402508D01*
X52378723Y-48442707D01*
X52462678Y-48444026D01*
X52529520Y-48445076D01*
X52529523Y-48445076D01*
X52537117Y-48445195D01*
X52691533Y-48409829D01*
X52761943Y-48374417D01*
X52826273Y-48342063D01*
X52826276Y-48342061D01*
X52833056Y-48338651D01*
X52838827Y-48333722D01*
X52838830Y-48333720D01*
X52947737Y-48240704D01*
X52947737Y-48240703D01*
X52953515Y-48235769D01*
X53045956Y-48107124D01*
X53105043Y-47960141D01*
X53127363Y-47803307D01*
X53127508Y-47789500D01*
X53126684Y-47782686D01*
X53123303Y-47754754D01*
X53108477Y-47632233D01*
X53052481Y-47484046D01*
X53048182Y-47477791D01*
X53048180Y-47477787D01*
X53011699Y-47424707D01*
X52989599Y-47357237D01*
X53007485Y-47288530D01*
X53020679Y-47272933D01*
X58204500Y-47272933D01*
X58204501Y-49023066D01*
X58211612Y-49058818D01*
X58216283Y-49082301D01*
X58219266Y-49097301D01*
X58226161Y-49107620D01*
X58226162Y-49107622D01*
X58258600Y-49156168D01*
X58275516Y-49181484D01*
X58359699Y-49237734D01*
X58433933Y-49252500D01*
X59308858Y-49252500D01*
X60184066Y-49252499D01*
X60219818Y-49245388D01*
X60246126Y-49240156D01*
X60246128Y-49240155D01*
X60258301Y-49237734D01*
X60268621Y-49230839D01*
X60268622Y-49230838D01*
X60332168Y-49188377D01*
X60342484Y-49181484D01*
X60398734Y-49097301D01*
X60413500Y-49023067D01*
X60413499Y-47272934D01*
X60410515Y-47257933D01*
X61887500Y-47257933D01*
X61887501Y-49008066D01*
X61902266Y-49082301D01*
X61909161Y-49092620D01*
X61909162Y-49092622D01*
X61949516Y-49153015D01*
X61958516Y-49166484D01*
X62042699Y-49222734D01*
X62116933Y-49237500D01*
X62991858Y-49237500D01*
X63867066Y-49237499D01*
X63902818Y-49230388D01*
X63929126Y-49225156D01*
X63929128Y-49225155D01*
X63941301Y-49222734D01*
X63951621Y-49215839D01*
X63951622Y-49215838D01*
X64015168Y-49173377D01*
X64025484Y-49166484D01*
X64081734Y-49082301D01*
X64096500Y-49008067D01*
X64096499Y-47257934D01*
X64087139Y-47210872D01*
X64084156Y-47195874D01*
X64084155Y-47195872D01*
X64081734Y-47183699D01*
X64025484Y-47099516D01*
X63941301Y-47043266D01*
X63867067Y-47028500D01*
X62992142Y-47028500D01*
X62116934Y-47028501D01*
X62081182Y-47035612D01*
X62054874Y-47040844D01*
X62054872Y-47040845D01*
X62042699Y-47043266D01*
X62032379Y-47050161D01*
X62032378Y-47050162D01*
X61993382Y-47076219D01*
X61958516Y-47099516D01*
X61902266Y-47183699D01*
X61887500Y-47257933D01*
X60410515Y-47257933D01*
X60405961Y-47235037D01*
X60401156Y-47210874D01*
X60401155Y-47210872D01*
X60398734Y-47198699D01*
X60388712Y-47183699D01*
X60349377Y-47124832D01*
X60342484Y-47114516D01*
X60258301Y-47058266D01*
X60184067Y-47043500D01*
X59309142Y-47043500D01*
X58433934Y-47043501D01*
X58400449Y-47050161D01*
X58371874Y-47055844D01*
X58371872Y-47055845D01*
X58359699Y-47058266D01*
X58349379Y-47065161D01*
X58349378Y-47065162D01*
X58316506Y-47087127D01*
X58275516Y-47114516D01*
X58219266Y-47198699D01*
X58204500Y-47272933D01*
X53020679Y-47272933D01*
X53033709Y-47257529D01*
X53047032Y-47246150D01*
X53047035Y-47246147D01*
X53052814Y-47241211D01*
X53145255Y-47112566D01*
X53204342Y-46965583D01*
X53226662Y-46808749D01*
X53226807Y-46794942D01*
X53207776Y-46637675D01*
X53151780Y-46489488D01*
X53062053Y-46358934D01*
X52943775Y-46253553D01*
X52936389Y-46249642D01*
X52875702Y-46217510D01*
X52803774Y-46179426D01*
X52650133Y-46140834D01*
X52642534Y-46140794D01*
X52642533Y-46140794D01*
X52576681Y-46140449D01*
X52491721Y-46140004D01*
X52484341Y-46141776D01*
X52484339Y-46141776D01*
X52345063Y-46175213D01*
X52345060Y-46175214D01*
X52337684Y-46176985D01*
X52196914Y-46249642D01*
X52077539Y-46353780D01*
X51986450Y-46483386D01*
X51928906Y-46630979D01*
X51908229Y-46788038D01*
X51925613Y-46945495D01*
X51928223Y-46952626D01*
X51928223Y-46952628D01*
X51976156Y-47083611D01*
X51980053Y-47094261D01*
X51984289Y-47100564D01*
X51984290Y-47100567D01*
X52025062Y-47161241D01*
X52046455Y-47228938D01*
X52027851Y-47297454D01*
X52003311Y-47326467D01*
X51978240Y-47348338D01*
X51887151Y-47477944D01*
X51829607Y-47625537D01*
X51808930Y-47782596D01*
X47755699Y-47782596D01*
X47776162Y-47638807D01*
X47776307Y-47625000D01*
X47757276Y-47467733D01*
X47701280Y-47319546D01*
X47669244Y-47272933D01*
X47615855Y-47195251D01*
X47615854Y-47195249D01*
X47611553Y-47188992D01*
X47493275Y-47083611D01*
X47485889Y-47079700D01*
X47412504Y-47040845D01*
X47353274Y-47009484D01*
X47199633Y-46970892D01*
X47192034Y-46970852D01*
X47192033Y-46970852D01*
X47126181Y-46970507D01*
X47041221Y-46970062D01*
X47033841Y-46971834D01*
X47033839Y-46971834D01*
X46894563Y-47005271D01*
X46894560Y-47005272D01*
X46887184Y-47007043D01*
X46746414Y-47079700D01*
X46627039Y-47183838D01*
X46535950Y-47313444D01*
X46478406Y-47461037D01*
X46477414Y-47468570D01*
X46477414Y-47468571D01*
X46476999Y-47471728D01*
X46457729Y-47618096D01*
X46475113Y-47775553D01*
X46477723Y-47782684D01*
X46477723Y-47782686D01*
X46481730Y-47793634D01*
X46529553Y-47924319D01*
X46533789Y-47930622D01*
X46533789Y-47930623D01*
X46558365Y-47967195D01*
X46617908Y-48055805D01*
X46669849Y-48103067D01*
X46706772Y-48163707D01*
X46705049Y-48234683D01*
X46667879Y-48291210D01*
X46632765Y-48321842D01*
X46632761Y-48321846D01*
X46627039Y-48326838D01*
X46535950Y-48456444D01*
X46478406Y-48604037D01*
X46477414Y-48611570D01*
X46477414Y-48611571D01*
X46460551Y-48739664D01*
X46457729Y-48761096D01*
X38481500Y-48761096D01*
X38481500Y-43561669D01*
X39663001Y-43561669D01*
X39663371Y-43568490D01*
X39668895Y-43619352D01*
X39672521Y-43634604D01*
X39717676Y-43755054D01*
X39726214Y-43770649D01*
X39802715Y-43872724D01*
X39815276Y-43885285D01*
X39917351Y-43961786D01*
X39932946Y-43970324D01*
X40053394Y-44015478D01*
X40068649Y-44019105D01*
X40119514Y-44024631D01*
X40126328Y-44025000D01*
X40389180Y-44025000D01*
X40457301Y-44045002D01*
X40503794Y-44098658D01*
X40513898Y-44168932D01*
X40484404Y-44233512D01*
X40453605Y-44259284D01*
X40369010Y-44309612D01*
X40364670Y-44313418D01*
X40364666Y-44313421D01*
X40242486Y-44420571D01*
X40216392Y-44443455D01*
X40090720Y-44602869D01*
X40088031Y-44607980D01*
X40088029Y-44607983D01*
X40075073Y-44632609D01*
X39996203Y-44782515D01*
X39987828Y-44809487D01*
X39939696Y-44964499D01*
X39936007Y-44976378D01*
X39912148Y-45177964D01*
X39925424Y-45380522D01*
X39926845Y-45386118D01*
X39926846Y-45386123D01*
X39947119Y-45465945D01*
X39975392Y-45577269D01*
X39977809Y-45582512D01*
X40015010Y-45663208D01*
X40060377Y-45761616D01*
X40177533Y-45927389D01*
X40322938Y-46069035D01*
X40491720Y-46181812D01*
X40497023Y-46184090D01*
X40497026Y-46184092D01*
X40649599Y-46249642D01*
X40678228Y-46261942D01*
X40751244Y-46278464D01*
X40870579Y-46305467D01*
X40870584Y-46305468D01*
X40876216Y-46306742D01*
X40881987Y-46306969D01*
X40881989Y-46306969D01*
X40941756Y-46309317D01*
X41079053Y-46314712D01*
X41179499Y-46300148D01*
X41274231Y-46286413D01*
X41274236Y-46286412D01*
X41279945Y-46285584D01*
X41285409Y-46283729D01*
X41285414Y-46283728D01*
X41466693Y-46222192D01*
X41466698Y-46222190D01*
X41472165Y-46220334D01*
X41649276Y-46121147D01*
X41711934Y-46069035D01*
X41800913Y-45995031D01*
X41805345Y-45991345D01*
X41935147Y-45835276D01*
X42034334Y-45658165D01*
X42036190Y-45652698D01*
X42036192Y-45652693D01*
X42097728Y-45471414D01*
X42097729Y-45471409D01*
X42099584Y-45465945D01*
X42100412Y-45460236D01*
X42100413Y-45460231D01*
X42128179Y-45268727D01*
X42128712Y-45265053D01*
X42130232Y-45207000D01*
X42113350Y-45023269D01*
X42112187Y-45010613D01*
X42112186Y-45010610D01*
X42111658Y-45004859D01*
X42110090Y-44999299D01*
X42058125Y-44815046D01*
X42058124Y-44815044D01*
X42056557Y-44809487D01*
X42045978Y-44788033D01*
X41969331Y-44632609D01*
X41966776Y-44627428D01*
X41948300Y-44602685D01*
X41923964Y-44570096D01*
X45187729Y-44570096D01*
X45205113Y-44727553D01*
X45207723Y-44734684D01*
X45207723Y-44734686D01*
X45237131Y-44815046D01*
X45259553Y-44876319D01*
X45263789Y-44882622D01*
X45263789Y-44882623D01*
X45323083Y-44970861D01*
X45347908Y-45007805D01*
X45353527Y-45012918D01*
X45353528Y-45012919D01*
X45364903Y-45023269D01*
X45465076Y-45114419D01*
X45604293Y-45190008D01*
X45757522Y-45230207D01*
X45841477Y-45231526D01*
X45908319Y-45232576D01*
X45908322Y-45232576D01*
X45915916Y-45232695D01*
X46070332Y-45197329D01*
X46140742Y-45161917D01*
X46205072Y-45129563D01*
X46205075Y-45129561D01*
X46211855Y-45126151D01*
X46217626Y-45121222D01*
X46217629Y-45121220D01*
X46326536Y-45028204D01*
X46326536Y-45028203D01*
X46332314Y-45023269D01*
X46424755Y-44894624D01*
X46483842Y-44747641D01*
X46503718Y-44607983D01*
X46505581Y-44594891D01*
X46505581Y-44594888D01*
X46506162Y-44590807D01*
X46506307Y-44577000D01*
X46505472Y-44570096D01*
X49759729Y-44570096D01*
X49777113Y-44727553D01*
X49779723Y-44734684D01*
X49779723Y-44734686D01*
X49809131Y-44815046D01*
X49831553Y-44876319D01*
X49835789Y-44882622D01*
X49835789Y-44882623D01*
X49895083Y-44970861D01*
X49919908Y-45007805D01*
X49925527Y-45012918D01*
X49925528Y-45012919D01*
X49936903Y-45023269D01*
X50037076Y-45114419D01*
X50176293Y-45190008D01*
X50329522Y-45230207D01*
X50413477Y-45231526D01*
X50480319Y-45232576D01*
X50480322Y-45232576D01*
X50487916Y-45232695D01*
X50642332Y-45197329D01*
X50712742Y-45161917D01*
X50777072Y-45129563D01*
X50777075Y-45129561D01*
X50783855Y-45126151D01*
X50789626Y-45121222D01*
X50789629Y-45121220D01*
X50898536Y-45028204D01*
X50898536Y-45028203D01*
X50904314Y-45023269D01*
X50996755Y-44894624D01*
X51055842Y-44747641D01*
X51075718Y-44607983D01*
X51077581Y-44594891D01*
X51077581Y-44594888D01*
X51078162Y-44590807D01*
X51078307Y-44577000D01*
X51059276Y-44419733D01*
X51003280Y-44271546D01*
X50994814Y-44259228D01*
X50917855Y-44147251D01*
X50917854Y-44147249D01*
X50913553Y-44140992D01*
X50905826Y-44134107D01*
X50800946Y-44040664D01*
X50795275Y-44035611D01*
X50787889Y-44031700D01*
X50661988Y-43965039D01*
X50661989Y-43965039D01*
X50655274Y-43961484D01*
X50501633Y-43922892D01*
X50494034Y-43922852D01*
X50494033Y-43922852D01*
X50428181Y-43922507D01*
X50343221Y-43922062D01*
X50335841Y-43923834D01*
X50335839Y-43923834D01*
X50196563Y-43957271D01*
X50196560Y-43957272D01*
X50189184Y-43959043D01*
X50048414Y-44031700D01*
X49929039Y-44135838D01*
X49837950Y-44265444D01*
X49780406Y-44413037D01*
X49779414Y-44420570D01*
X49779414Y-44420571D01*
X49772985Y-44469409D01*
X49759729Y-44570096D01*
X46505472Y-44570096D01*
X46487276Y-44419733D01*
X46431280Y-44271546D01*
X46422814Y-44259228D01*
X46345855Y-44147251D01*
X46345854Y-44147249D01*
X46341553Y-44140992D01*
X46333826Y-44134107D01*
X46228946Y-44040664D01*
X46223275Y-44035611D01*
X46215889Y-44031700D01*
X46089988Y-43965039D01*
X46089989Y-43965039D01*
X46083274Y-43961484D01*
X45929633Y-43922892D01*
X45922034Y-43922852D01*
X45922033Y-43922852D01*
X45856181Y-43922507D01*
X45771221Y-43922062D01*
X45763841Y-43923834D01*
X45763839Y-43923834D01*
X45624563Y-43957271D01*
X45624560Y-43957272D01*
X45617184Y-43959043D01*
X45476414Y-44031700D01*
X45357039Y-44135838D01*
X45265950Y-44265444D01*
X45208406Y-44413037D01*
X45207414Y-44420570D01*
X45207414Y-44420571D01*
X45200985Y-44469409D01*
X45187729Y-44570096D01*
X41923964Y-44570096D01*
X41918340Y-44562565D01*
X41845320Y-44464779D01*
X41696258Y-44326987D01*
X41586224Y-44257561D01*
X41539286Y-44204294D01*
X41528597Y-44134107D01*
X41557552Y-44069282D01*
X41616956Y-44030403D01*
X41653460Y-44024999D01*
X41915669Y-44024999D01*
X41922490Y-44024629D01*
X41973352Y-44019105D01*
X41988604Y-44015479D01*
X42109054Y-43970324D01*
X42124649Y-43961786D01*
X42226724Y-43885285D01*
X42239285Y-43872724D01*
X42315786Y-43770649D01*
X42324324Y-43755054D01*
X42369478Y-43634606D01*
X42373105Y-43619351D01*
X42378631Y-43568486D01*
X42379000Y-43561672D01*
X42379000Y-43300096D01*
X52172729Y-43300096D01*
X52178694Y-43354123D01*
X52188059Y-43438945D01*
X52190113Y-43457553D01*
X52192723Y-43464684D01*
X52192723Y-43464686D01*
X52230710Y-43568490D01*
X52244553Y-43606319D01*
X52248789Y-43612622D01*
X52248789Y-43612623D01*
X52327241Y-43729371D01*
X52332908Y-43737805D01*
X52338527Y-43742918D01*
X52338528Y-43742919D01*
X52363405Y-43765555D01*
X52450076Y-43844419D01*
X52589293Y-43920008D01*
X52742522Y-43960207D01*
X52845047Y-43961817D01*
X52912845Y-43982886D01*
X52958489Y-44037265D01*
X52967489Y-44107689D01*
X52960462Y-44133569D01*
X52955406Y-44146537D01*
X52954414Y-44154070D01*
X52954414Y-44154071D01*
X52937588Y-44281883D01*
X52934729Y-44303596D01*
X52937745Y-44330911D01*
X52950671Y-44447991D01*
X52952113Y-44461053D01*
X52954723Y-44468184D01*
X52954723Y-44468186D01*
X52999596Y-44590807D01*
X53006553Y-44609819D01*
X53010789Y-44616122D01*
X53010789Y-44616123D01*
X53080594Y-44720003D01*
X53094908Y-44741305D01*
X53100527Y-44746418D01*
X53100528Y-44746419D01*
X53175949Y-44815046D01*
X53212076Y-44847919D01*
X53351293Y-44923508D01*
X53504522Y-44963707D01*
X53588477Y-44965026D01*
X53655319Y-44966076D01*
X53655322Y-44966076D01*
X53662916Y-44966195D01*
X53817332Y-44930829D01*
X53913180Y-44882623D01*
X53952072Y-44863063D01*
X53952075Y-44863061D01*
X53958855Y-44859651D01*
X53964626Y-44854722D01*
X53964629Y-44854720D01*
X54073536Y-44761704D01*
X54073536Y-44761703D01*
X54079314Y-44756769D01*
X54171755Y-44628124D01*
X54230842Y-44481141D01*
X54253162Y-44324307D01*
X54253307Y-44310500D01*
X54234276Y-44153233D01*
X54178280Y-44005046D01*
X54124867Y-43927329D01*
X54092855Y-43880751D01*
X54092854Y-43880749D01*
X54088553Y-43874492D01*
X53970275Y-43769111D01*
X53830274Y-43694984D01*
X53676633Y-43656392D01*
X53669034Y-43656352D01*
X53669033Y-43656352D01*
X53582971Y-43655901D01*
X53514957Y-43635542D01*
X53468746Y-43581644D01*
X53459010Y-43511318D01*
X53464235Y-43492078D01*
X53464042Y-43492026D01*
X53466006Y-43484695D01*
X53468842Y-43477641D01*
X53487327Y-43347755D01*
X53490581Y-43324891D01*
X53490581Y-43324888D01*
X53491162Y-43320807D01*
X53491307Y-43307000D01*
X53472276Y-43149733D01*
X53416280Y-43001546D01*
X53376634Y-42943861D01*
X53330855Y-42877251D01*
X53330854Y-42877249D01*
X53326553Y-42870992D01*
X53312233Y-42858233D01*
X53244348Y-42797751D01*
X53208275Y-42765611D01*
X53200889Y-42761700D01*
X53162565Y-42741409D01*
X53068274Y-42691484D01*
X52914633Y-42652892D01*
X52907034Y-42652852D01*
X52907033Y-42652852D01*
X52841181Y-42652507D01*
X52756221Y-42652062D01*
X52748841Y-42653834D01*
X52748839Y-42653834D01*
X52609563Y-42687271D01*
X52609560Y-42687272D01*
X52602184Y-42689043D01*
X52461414Y-42761700D01*
X52342039Y-42865838D01*
X52250950Y-42995444D01*
X52193406Y-43143037D01*
X52192414Y-43150570D01*
X52192414Y-43150571D01*
X52181072Y-43236727D01*
X52172729Y-43300096D01*
X42379000Y-43300096D01*
X42379000Y-42939115D01*
X42374525Y-42923876D01*
X42373135Y-42922671D01*
X42365452Y-42921000D01*
X39681116Y-42921000D01*
X39665877Y-42925475D01*
X39664672Y-42926865D01*
X39663001Y-42934548D01*
X39663001Y-43561669D01*
X38481500Y-43561669D01*
X38481500Y-42394885D01*
X39663000Y-42394885D01*
X39667475Y-42410124D01*
X39668865Y-42411329D01*
X39676548Y-42413000D01*
X40748885Y-42413000D01*
X40764124Y-42408525D01*
X40765329Y-42407135D01*
X40767000Y-42399452D01*
X40767000Y-42394885D01*
X41275000Y-42394885D01*
X41279475Y-42410124D01*
X41280865Y-42411329D01*
X41288548Y-42413000D01*
X42360884Y-42413000D01*
X42376123Y-42408525D01*
X42377328Y-42407135D01*
X42378999Y-42399452D01*
X42378999Y-42366347D01*
X53547708Y-42366347D01*
X53551363Y-42399452D01*
X53560164Y-42479164D01*
X53565092Y-42523804D01*
X53567702Y-42530935D01*
X53567702Y-42530937D01*
X53612676Y-42653834D01*
X53619532Y-42672570D01*
X53623768Y-42678873D01*
X53623768Y-42678874D01*
X53686553Y-42772307D01*
X53707887Y-42804056D01*
X53713506Y-42809169D01*
X53713507Y-42809170D01*
X53775785Y-42865838D01*
X53825055Y-42910670D01*
X53964272Y-42986259D01*
X54117501Y-43026458D01*
X54181865Y-43027469D01*
X54255937Y-43028633D01*
X54323735Y-43049702D01*
X54369380Y-43104082D01*
X54379197Y-43140791D01*
X54381017Y-43157273D01*
X54381986Y-43166053D01*
X54384596Y-43173184D01*
X54384596Y-43173186D01*
X54433565Y-43307000D01*
X54436426Y-43314819D01*
X54440662Y-43321122D01*
X54440662Y-43321123D01*
X54515996Y-43433231D01*
X54524781Y-43446305D01*
X54530400Y-43451418D01*
X54530401Y-43451419D01*
X54547199Y-43466704D01*
X54641949Y-43552919D01*
X54781166Y-43628508D01*
X54934395Y-43668707D01*
X55018350Y-43670026D01*
X55085192Y-43671076D01*
X55085195Y-43671076D01*
X55092789Y-43671195D01*
X55247205Y-43635829D01*
X55354941Y-43581644D01*
X55381945Y-43568063D01*
X55381948Y-43568061D01*
X55388728Y-43564651D01*
X55394499Y-43559722D01*
X55394502Y-43559720D01*
X55503409Y-43466704D01*
X55503409Y-43466703D01*
X55509187Y-43461769D01*
X55601628Y-43333124D01*
X55660715Y-43186141D01*
X55672393Y-43104082D01*
X55682454Y-43033391D01*
X55682454Y-43033388D01*
X55683035Y-43029307D01*
X55683180Y-43015500D01*
X55664149Y-42858233D01*
X55608153Y-42710046D01*
X55582397Y-42672570D01*
X55522728Y-42585751D01*
X55522727Y-42585749D01*
X55518426Y-42579492D01*
X55503656Y-42566332D01*
X55455923Y-42523804D01*
X55400148Y-42474111D01*
X55260147Y-42399984D01*
X55106506Y-42361392D01*
X55098907Y-42361352D01*
X55098906Y-42361352D01*
X54975780Y-42360707D01*
X54907765Y-42340349D01*
X54861554Y-42286450D01*
X54851353Y-42249847D01*
X54849019Y-42230561D01*
X54847255Y-42215984D01*
X54791259Y-42067797D01*
X54753600Y-42013002D01*
X54705834Y-41943502D01*
X54705833Y-41943500D01*
X54701532Y-41937243D01*
X54693163Y-41929786D01*
X54665239Y-41904907D01*
X54583254Y-41831862D01*
X54575868Y-41827951D01*
X54449967Y-41761290D01*
X54449968Y-41761290D01*
X54443253Y-41757735D01*
X54289612Y-41719143D01*
X54282013Y-41719103D01*
X54282012Y-41719103D01*
X54216160Y-41718758D01*
X54131200Y-41718313D01*
X54123820Y-41720085D01*
X54123818Y-41720085D01*
X53984542Y-41753522D01*
X53984539Y-41753523D01*
X53977163Y-41755294D01*
X53836393Y-41827951D01*
X53717018Y-41932089D01*
X53625929Y-42061695D01*
X53623169Y-42068775D01*
X53571417Y-42201512D01*
X53568385Y-42209288D01*
X53567393Y-42216821D01*
X53567393Y-42216822D01*
X53551131Y-42340349D01*
X53547708Y-42366347D01*
X42378999Y-42366347D01*
X42378999Y-41772331D01*
X42378629Y-41765510D01*
X42373105Y-41714648D01*
X42369479Y-41699396D01*
X42324324Y-41578946D01*
X42315786Y-41563351D01*
X42290543Y-41529669D01*
X57951001Y-41529669D01*
X57951371Y-41536490D01*
X57956895Y-41587352D01*
X57960521Y-41602604D01*
X58005676Y-41723054D01*
X58014214Y-41738649D01*
X58090715Y-41840724D01*
X58103276Y-41853285D01*
X58205351Y-41929786D01*
X58220946Y-41938324D01*
X58341394Y-41983478D01*
X58356649Y-41987105D01*
X58407514Y-41992631D01*
X58414328Y-41993000D01*
X58677180Y-41993000D01*
X58745301Y-42013002D01*
X58791794Y-42066658D01*
X58801898Y-42136932D01*
X58772404Y-42201512D01*
X58741605Y-42227284D01*
X58657010Y-42277612D01*
X58652670Y-42281418D01*
X58652666Y-42281421D01*
X58523286Y-42394885D01*
X58504392Y-42411455D01*
X58378720Y-42570869D01*
X58376031Y-42575980D01*
X58376029Y-42575983D01*
X58363168Y-42600428D01*
X58284203Y-42750515D01*
X58236060Y-42905560D01*
X58229877Y-42925475D01*
X58224007Y-42944378D01*
X58200148Y-43145964D01*
X58213424Y-43348522D01*
X58214845Y-43354118D01*
X58214846Y-43354123D01*
X58242185Y-43461769D01*
X58263392Y-43545269D01*
X58265809Y-43550512D01*
X58331559Y-43693134D01*
X58348377Y-43729616D01*
X58351710Y-43734332D01*
X58450765Y-43874492D01*
X58465533Y-43895389D01*
X58610938Y-44037035D01*
X58779720Y-44149812D01*
X58785023Y-44152090D01*
X58785026Y-44152092D01*
X58960921Y-44227662D01*
X58966228Y-44229942D01*
X58993960Y-44236217D01*
X59158579Y-44273467D01*
X59158584Y-44273468D01*
X59164216Y-44274742D01*
X59169987Y-44274969D01*
X59169989Y-44274969D01*
X59229756Y-44277317D01*
X59367053Y-44282712D01*
X59467499Y-44268148D01*
X59562231Y-44254413D01*
X59562236Y-44254412D01*
X59567945Y-44253584D01*
X59573409Y-44251729D01*
X59573414Y-44251728D01*
X59754693Y-44190192D01*
X59754698Y-44190190D01*
X59760165Y-44188334D01*
X59937276Y-44089147D01*
X59990355Y-44045002D01*
X60088913Y-43963031D01*
X60093345Y-43959345D01*
X60139023Y-43904424D01*
X60219453Y-43807718D01*
X60219455Y-43807715D01*
X60223147Y-43803276D01*
X60299589Y-43666779D01*
X60319510Y-43631208D01*
X60319511Y-43631206D01*
X60322334Y-43626165D01*
X60324190Y-43620698D01*
X60324192Y-43620693D01*
X60385728Y-43439414D01*
X60385729Y-43439409D01*
X60387584Y-43433945D01*
X60388412Y-43428236D01*
X60388413Y-43428231D01*
X60416179Y-43236727D01*
X60416712Y-43233053D01*
X60418232Y-43175000D01*
X60401066Y-42988185D01*
X60400187Y-42978613D01*
X60400186Y-42978610D01*
X60399658Y-42972859D01*
X60394654Y-42955115D01*
X60346125Y-42783046D01*
X60346124Y-42783044D01*
X60344557Y-42777487D01*
X60341193Y-42770664D01*
X60257331Y-42600609D01*
X60254776Y-42595428D01*
X60243990Y-42580983D01*
X60164184Y-42474111D01*
X60133320Y-42432779D01*
X59984258Y-42294987D01*
X59874224Y-42225561D01*
X59827286Y-42172294D01*
X59816597Y-42102107D01*
X59845552Y-42037282D01*
X59904956Y-41998403D01*
X59941460Y-41992999D01*
X60203669Y-41992999D01*
X60210490Y-41992629D01*
X60261352Y-41987105D01*
X60276604Y-41983479D01*
X60397054Y-41938324D01*
X60412649Y-41929786D01*
X60514724Y-41853285D01*
X60527285Y-41840724D01*
X60603786Y-41738649D01*
X60612324Y-41723054D01*
X60657478Y-41602606D01*
X60661105Y-41587351D01*
X60666631Y-41536486D01*
X60666729Y-41534669D01*
X61634001Y-41534669D01*
X61634371Y-41541490D01*
X61639895Y-41592352D01*
X61643521Y-41607604D01*
X61688676Y-41728054D01*
X61697214Y-41743649D01*
X61773715Y-41845724D01*
X61786276Y-41858285D01*
X61888351Y-41934786D01*
X61903946Y-41943324D01*
X62024394Y-41988478D01*
X62039649Y-41992105D01*
X62090514Y-41997631D01*
X62097328Y-41998000D01*
X62360180Y-41998000D01*
X62428301Y-42018002D01*
X62474794Y-42071658D01*
X62484898Y-42141932D01*
X62455404Y-42206512D01*
X62424605Y-42232284D01*
X62340010Y-42282612D01*
X62335670Y-42286418D01*
X62335666Y-42286421D01*
X62250179Y-42361392D01*
X62187392Y-42416455D01*
X62061720Y-42575869D01*
X62059031Y-42580980D01*
X62059029Y-42580983D01*
X62046073Y-42605609D01*
X61967203Y-42755515D01*
X61907007Y-42949378D01*
X61883148Y-43150964D01*
X61896424Y-43353522D01*
X61897845Y-43359118D01*
X61897846Y-43359123D01*
X61943701Y-43539674D01*
X61946392Y-43550269D01*
X61948809Y-43555512D01*
X61983705Y-43631208D01*
X62031377Y-43734616D01*
X62056842Y-43770649D01*
X62141664Y-43890669D01*
X62148533Y-43900389D01*
X62152675Y-43904424D01*
X62207959Y-43958279D01*
X62293938Y-44042035D01*
X62462720Y-44154812D01*
X62468023Y-44157090D01*
X62468026Y-44157092D01*
X62611347Y-44218667D01*
X62649228Y-44234942D01*
X62722244Y-44251464D01*
X62841579Y-44278467D01*
X62841584Y-44278468D01*
X62847216Y-44279742D01*
X62852987Y-44279969D01*
X62852989Y-44279969D01*
X62912756Y-44282317D01*
X63050053Y-44287712D01*
X63161548Y-44271546D01*
X63245231Y-44259413D01*
X63245236Y-44259412D01*
X63250945Y-44258584D01*
X63256409Y-44256729D01*
X63256414Y-44256728D01*
X63437693Y-44195192D01*
X63437698Y-44195190D01*
X63443165Y-44193334D01*
X63448776Y-44190192D01*
X63532246Y-44143446D01*
X63620276Y-44094147D01*
X63630730Y-44085453D01*
X63771913Y-43968031D01*
X63776345Y-43964345D01*
X63833463Y-43895669D01*
X63902453Y-43812718D01*
X63902455Y-43812715D01*
X63906147Y-43808276D01*
X63984243Y-43668826D01*
X64002510Y-43636208D01*
X64002511Y-43636206D01*
X64005334Y-43631165D01*
X64007190Y-43625698D01*
X64007192Y-43625693D01*
X64068728Y-43444414D01*
X64068729Y-43444409D01*
X64070584Y-43438945D01*
X64071412Y-43433236D01*
X64071413Y-43433231D01*
X64099179Y-43241727D01*
X64099712Y-43238053D01*
X64101232Y-43180000D01*
X64087352Y-43028946D01*
X64083187Y-42983613D01*
X64083186Y-42983610D01*
X64082658Y-42977859D01*
X64079680Y-42967299D01*
X64029125Y-42788046D01*
X64029124Y-42788044D01*
X64027557Y-42782487D01*
X64019767Y-42766689D01*
X63940331Y-42605609D01*
X63937776Y-42600428D01*
X63816320Y-42437779D01*
X63667258Y-42299987D01*
X63557224Y-42230561D01*
X63510286Y-42177294D01*
X63499597Y-42107107D01*
X63528552Y-42042282D01*
X63587956Y-42003403D01*
X63624460Y-41997999D01*
X63886669Y-41997999D01*
X63893490Y-41997629D01*
X63944352Y-41992105D01*
X63959604Y-41988479D01*
X64080054Y-41943324D01*
X64095649Y-41934786D01*
X64197724Y-41858285D01*
X64210285Y-41845724D01*
X64286786Y-41743649D01*
X64295324Y-41728054D01*
X64340478Y-41607606D01*
X64344105Y-41592351D01*
X64349631Y-41541486D01*
X64350000Y-41534672D01*
X64350000Y-40912115D01*
X64345525Y-40896876D01*
X64344135Y-40895671D01*
X64336452Y-40894000D01*
X61652116Y-40894000D01*
X61636877Y-40898475D01*
X61635672Y-40899865D01*
X61634001Y-40907548D01*
X61634001Y-41534669D01*
X60666729Y-41534669D01*
X60667000Y-41529672D01*
X60667000Y-40907115D01*
X60662525Y-40891876D01*
X60661135Y-40890671D01*
X60653452Y-40889000D01*
X57969116Y-40889000D01*
X57953877Y-40893475D01*
X57952672Y-40894865D01*
X57951001Y-40902548D01*
X57951001Y-41529669D01*
X42290543Y-41529669D01*
X42239285Y-41461276D01*
X42226724Y-41448715D01*
X42124649Y-41372214D01*
X42109054Y-41363676D01*
X41988606Y-41318522D01*
X41973351Y-41314895D01*
X41922486Y-41309369D01*
X41915672Y-41309000D01*
X41293115Y-41309000D01*
X41277876Y-41313475D01*
X41276671Y-41314865D01*
X41275000Y-41322548D01*
X41275000Y-42394885D01*
X40767000Y-42394885D01*
X40767000Y-41327116D01*
X40762525Y-41311877D01*
X40761135Y-41310672D01*
X40753452Y-41309001D01*
X40126331Y-41309001D01*
X40119510Y-41309371D01*
X40068648Y-41314895D01*
X40053396Y-41318521D01*
X39932946Y-41363676D01*
X39917351Y-41372214D01*
X39815276Y-41448715D01*
X39802715Y-41461276D01*
X39726214Y-41563351D01*
X39717676Y-41578946D01*
X39672522Y-41699394D01*
X39668895Y-41714649D01*
X39663369Y-41765514D01*
X39663000Y-41772328D01*
X39663000Y-42394885D01*
X38481500Y-42394885D01*
X38481500Y-40362885D01*
X57951000Y-40362885D01*
X57955475Y-40378124D01*
X57956865Y-40379329D01*
X57964548Y-40381000D01*
X59036885Y-40381000D01*
X59052124Y-40376525D01*
X59053329Y-40375135D01*
X59055000Y-40367452D01*
X59055000Y-40362885D01*
X59563000Y-40362885D01*
X59567475Y-40378124D01*
X59568865Y-40379329D01*
X59576548Y-40381000D01*
X60648884Y-40381000D01*
X60664123Y-40376525D01*
X60665328Y-40375135D01*
X60666905Y-40367885D01*
X61634000Y-40367885D01*
X61638475Y-40383124D01*
X61639865Y-40384329D01*
X61647548Y-40386000D01*
X62719885Y-40386000D01*
X62735124Y-40381525D01*
X62736329Y-40380135D01*
X62738000Y-40372452D01*
X62738000Y-40367885D01*
X63246000Y-40367885D01*
X63250475Y-40383124D01*
X63251865Y-40384329D01*
X63259548Y-40386000D01*
X64331884Y-40386000D01*
X64347123Y-40381525D01*
X64348328Y-40380135D01*
X64349999Y-40372452D01*
X64349999Y-39745331D01*
X64349629Y-39738510D01*
X64344105Y-39687648D01*
X64340479Y-39672396D01*
X64295324Y-39551946D01*
X64286786Y-39536351D01*
X64210285Y-39434276D01*
X64197724Y-39421715D01*
X64095649Y-39345214D01*
X64080054Y-39336676D01*
X63959606Y-39291522D01*
X63944351Y-39287895D01*
X63893486Y-39282369D01*
X63886672Y-39282000D01*
X63264115Y-39282000D01*
X63248876Y-39286475D01*
X63247671Y-39287865D01*
X63246000Y-39295548D01*
X63246000Y-40367885D01*
X62738000Y-40367885D01*
X62738000Y-39300116D01*
X62733525Y-39284877D01*
X62732135Y-39283672D01*
X62724452Y-39282001D01*
X62097331Y-39282001D01*
X62090510Y-39282371D01*
X62039648Y-39287895D01*
X62024396Y-39291521D01*
X61903946Y-39336676D01*
X61888351Y-39345214D01*
X61786276Y-39421715D01*
X61773715Y-39434276D01*
X61697214Y-39536351D01*
X61688676Y-39551946D01*
X61643522Y-39672394D01*
X61639895Y-39687649D01*
X61634369Y-39738514D01*
X61634000Y-39745328D01*
X61634000Y-40367885D01*
X60666905Y-40367885D01*
X60666999Y-40367452D01*
X60666999Y-39740331D01*
X60666629Y-39733510D01*
X60661105Y-39682648D01*
X60657479Y-39667396D01*
X60612324Y-39546946D01*
X60603786Y-39531351D01*
X60527285Y-39429276D01*
X60514724Y-39416715D01*
X60412649Y-39340214D01*
X60397054Y-39331676D01*
X60276606Y-39286522D01*
X60261351Y-39282895D01*
X60210486Y-39277369D01*
X60203672Y-39277000D01*
X59581115Y-39277000D01*
X59565876Y-39281475D01*
X59564671Y-39282865D01*
X59563000Y-39290548D01*
X59563000Y-40362885D01*
X59055000Y-40362885D01*
X59055000Y-39295116D01*
X59050525Y-39279877D01*
X59049135Y-39278672D01*
X59041452Y-39277001D01*
X58414331Y-39277001D01*
X58407510Y-39277371D01*
X58356648Y-39282895D01*
X58341396Y-39286521D01*
X58220946Y-39331676D01*
X58205351Y-39340214D01*
X58103276Y-39416715D01*
X58090715Y-39429276D01*
X58014214Y-39531351D01*
X58005676Y-39546946D01*
X57960522Y-39667394D01*
X57956895Y-39682649D01*
X57951369Y-39733514D01*
X57951000Y-39740328D01*
X57951000Y-40362885D01*
X38481500Y-40362885D01*
X38481500Y-37845500D01*
X38501502Y-37777379D01*
X38555158Y-37730886D01*
X38607500Y-37719500D01*
X46177519Y-37719500D01*
X46245640Y-37739502D01*
G37*
%TD.AperFunction*%
%TD*%
M02*
