%TF.GenerationSoftware,KiCad,Pcbnew,(6.0.8)*%
%TF.CreationDate,2022-10-15T17:18:15+02:00*%
%TF.ProjectId,Digital Delay,44696769-7461-46c2-9044-656c61792e6b,rev?*%
%TF.SameCoordinates,Original*%
%TF.FileFunction,AssemblyDrawing,Top*%
%FSLAX46Y46*%
G04 Gerber Fmt 4.6, Leading zero omitted, Abs format (unit mm)*
G04 Created by KiCad (PCBNEW (6.0.8)) date 2022-10-15 17:18:15*
%MOMM*%
%LPD*%
G01*
G04 APERTURE LIST*
%ADD10C,0.150000*%
%ADD11C,0.080000*%
%ADD12C,0.100000*%
G04 APERTURE END LIST*
D10*
%TO.C,C115*%
X61582142Y-75284380D02*
X61010714Y-75284380D01*
X61296428Y-75284380D02*
X61296428Y-74284380D01*
X61201190Y-74427238D01*
X61105952Y-74522476D01*
X61010714Y-74570095D01*
X62201190Y-74284380D02*
X62296428Y-74284380D01*
X62391666Y-74332000D01*
X62439285Y-74379619D01*
X62486904Y-74474857D01*
X62534523Y-74665333D01*
X62534523Y-74903428D01*
X62486904Y-75093904D01*
X62439285Y-75189142D01*
X62391666Y-75236761D01*
X62296428Y-75284380D01*
X62201190Y-75284380D01*
X62105952Y-75236761D01*
X62058333Y-75189142D01*
X62010714Y-75093904D01*
X61963095Y-74903428D01*
X61963095Y-74665333D01*
X62010714Y-74474857D01*
X62058333Y-74379619D01*
X62105952Y-74332000D01*
X62201190Y-74284380D01*
X63391666Y-74617714D02*
X63391666Y-75284380D01*
X62963095Y-74617714D02*
X62963095Y-75141523D01*
X63010714Y-75236761D01*
X63105952Y-75284380D01*
X63248809Y-75284380D01*
X63344047Y-75236761D01*
X63391666Y-75189142D01*
D11*
X61665476Y-73330571D02*
X61641666Y-73354380D01*
X61570238Y-73378190D01*
X61522619Y-73378190D01*
X61451190Y-73354380D01*
X61403571Y-73306761D01*
X61379761Y-73259142D01*
X61355952Y-73163904D01*
X61355952Y-73092476D01*
X61379761Y-72997238D01*
X61403571Y-72949619D01*
X61451190Y-72902000D01*
X61522619Y-72878190D01*
X61570238Y-72878190D01*
X61641666Y-72902000D01*
X61665476Y-72925809D01*
X62141666Y-73378190D02*
X61855952Y-73378190D01*
X61998809Y-73378190D02*
X61998809Y-72878190D01*
X61951190Y-72949619D01*
X61903571Y-72997238D01*
X61855952Y-73021047D01*
X62617857Y-73378190D02*
X62332142Y-73378190D01*
X62475000Y-73378190D02*
X62475000Y-72878190D01*
X62427380Y-72949619D01*
X62379761Y-72997238D01*
X62332142Y-73021047D01*
X63070238Y-72878190D02*
X62832142Y-72878190D01*
X62808333Y-73116285D01*
X62832142Y-73092476D01*
X62879761Y-73068666D01*
X62998809Y-73068666D01*
X63046428Y-73092476D01*
X63070238Y-73116285D01*
X63094047Y-73163904D01*
X63094047Y-73282952D01*
X63070238Y-73330571D01*
X63046428Y-73354380D01*
X62998809Y-73378190D01*
X62879761Y-73378190D01*
X62832142Y-73354380D01*
X62808333Y-73330571D01*
D10*
%TO.C,C114*%
X62330380Y-64746047D02*
X62330380Y-65317476D01*
X62330380Y-65031761D02*
X61330380Y-65031761D01*
X61473238Y-65127000D01*
X61568476Y-65222238D01*
X61616095Y-65317476D01*
X61330380Y-64127000D02*
X61330380Y-64031761D01*
X61378000Y-63936523D01*
X61425619Y-63888904D01*
X61520857Y-63841285D01*
X61711333Y-63793666D01*
X61949428Y-63793666D01*
X62139904Y-63841285D01*
X62235142Y-63888904D01*
X62282761Y-63936523D01*
X62330380Y-64031761D01*
X62330380Y-64127000D01*
X62282761Y-64222238D01*
X62235142Y-64269857D01*
X62139904Y-64317476D01*
X61949428Y-64365095D01*
X61711333Y-64365095D01*
X61520857Y-64317476D01*
X61425619Y-64269857D01*
X61378000Y-64222238D01*
X61330380Y-64127000D01*
X61330380Y-63174619D02*
X61330380Y-63079380D01*
X61378000Y-62984142D01*
X61425619Y-62936523D01*
X61520857Y-62888904D01*
X61711333Y-62841285D01*
X61949428Y-62841285D01*
X62139904Y-62888904D01*
X62235142Y-62936523D01*
X62282761Y-62984142D01*
X62330380Y-63079380D01*
X62330380Y-63174619D01*
X62282761Y-63269857D01*
X62235142Y-63317476D01*
X62139904Y-63365095D01*
X61949428Y-63412714D01*
X61711333Y-63412714D01*
X61520857Y-63365095D01*
X61425619Y-63317476D01*
X61378000Y-63269857D01*
X61330380Y-63174619D01*
X61663714Y-62412714D02*
X62330380Y-62412714D01*
X61758952Y-62412714D02*
X61711333Y-62365095D01*
X61663714Y-62269857D01*
X61663714Y-62127000D01*
X61711333Y-62031761D01*
X61806571Y-61984142D01*
X62330380Y-61984142D01*
D11*
X60376571Y-64186523D02*
X60400380Y-64210333D01*
X60424190Y-64281761D01*
X60424190Y-64329380D01*
X60400380Y-64400809D01*
X60352761Y-64448428D01*
X60305142Y-64472238D01*
X60209904Y-64496047D01*
X60138476Y-64496047D01*
X60043238Y-64472238D01*
X59995619Y-64448428D01*
X59948000Y-64400809D01*
X59924190Y-64329380D01*
X59924190Y-64281761D01*
X59948000Y-64210333D01*
X59971809Y-64186523D01*
X60424190Y-63710333D02*
X60424190Y-63996047D01*
X60424190Y-63853190D02*
X59924190Y-63853190D01*
X59995619Y-63900809D01*
X60043238Y-63948428D01*
X60067047Y-63996047D01*
X60424190Y-63234142D02*
X60424190Y-63519857D01*
X60424190Y-63377000D02*
X59924190Y-63377000D01*
X59995619Y-63424619D01*
X60043238Y-63472238D01*
X60067047Y-63519857D01*
X60090857Y-62805571D02*
X60424190Y-62805571D01*
X59900380Y-62924619D02*
X60257523Y-63043666D01*
X60257523Y-62734142D01*
D10*
%TO.C,J105*%
X53475666Y-55915142D02*
X53428047Y-55962761D01*
X53285190Y-56010380D01*
X53189952Y-56010380D01*
X53047095Y-55962761D01*
X52951857Y-55867523D01*
X52904238Y-55772285D01*
X52856619Y-55581809D01*
X52856619Y-55438952D01*
X52904238Y-55248476D01*
X52951857Y-55153238D01*
X53047095Y-55058000D01*
X53189952Y-55010380D01*
X53285190Y-55010380D01*
X53428047Y-55058000D01*
X53475666Y-55105619D01*
X54047095Y-56010380D02*
X53951857Y-55962761D01*
X53904238Y-55915142D01*
X53856619Y-55819904D01*
X53856619Y-55534190D01*
X53904238Y-55438952D01*
X53951857Y-55391333D01*
X54047095Y-55343714D01*
X54189952Y-55343714D01*
X54285190Y-55391333D01*
X54332809Y-55438952D01*
X54380428Y-55534190D01*
X54380428Y-55819904D01*
X54332809Y-55915142D01*
X54285190Y-55962761D01*
X54189952Y-56010380D01*
X54047095Y-56010380D01*
X54809000Y-55343714D02*
X54809000Y-56010380D01*
X54809000Y-55438952D02*
X54856619Y-55391333D01*
X54951857Y-55343714D01*
X55094714Y-55343714D01*
X55189952Y-55391333D01*
X55237571Y-55486571D01*
X55237571Y-56010380D01*
X55713761Y-55343714D02*
X55713761Y-56010380D01*
X55713761Y-55438952D02*
X55761380Y-55391333D01*
X55856619Y-55343714D01*
X55999476Y-55343714D01*
X56094714Y-55391333D01*
X56142333Y-55486571D01*
X56142333Y-56010380D01*
X56380428Y-56105619D02*
X57142333Y-56105619D01*
X57570904Y-55010380D02*
X57666142Y-55010380D01*
X57761380Y-55058000D01*
X57809000Y-55105619D01*
X57856619Y-55200857D01*
X57904238Y-55391333D01*
X57904238Y-55629428D01*
X57856619Y-55819904D01*
X57809000Y-55915142D01*
X57761380Y-55962761D01*
X57666142Y-56010380D01*
X57570904Y-56010380D01*
X57475666Y-55962761D01*
X57428047Y-55915142D01*
X57380428Y-55819904D01*
X57332809Y-55629428D01*
X57332809Y-55391333D01*
X57380428Y-55200857D01*
X57428047Y-55105619D01*
X57475666Y-55058000D01*
X57570904Y-55010380D01*
X58856619Y-56010380D02*
X58285190Y-56010380D01*
X58570904Y-56010380D02*
X58570904Y-55010380D01*
X58475666Y-55153238D01*
X58380428Y-55248476D01*
X58285190Y-55296095D01*
X59189952Y-56010380D02*
X59713761Y-55343714D01*
X59189952Y-55343714D02*
X59713761Y-56010380D01*
X60285190Y-55010380D02*
X60380428Y-55010380D01*
X60475666Y-55058000D01*
X60523285Y-55105619D01*
X60570904Y-55200857D01*
X60618523Y-55391333D01*
X60618523Y-55629428D01*
X60570904Y-55819904D01*
X60523285Y-55915142D01*
X60475666Y-55962761D01*
X60380428Y-56010380D01*
X60285190Y-56010380D01*
X60189952Y-55962761D01*
X60142333Y-55915142D01*
X60094714Y-55819904D01*
X60047095Y-55629428D01*
X60047095Y-55391333D01*
X60094714Y-55200857D01*
X60142333Y-55105619D01*
X60189952Y-55058000D01*
X60285190Y-55010380D01*
X60951857Y-55010380D02*
X61570904Y-55010380D01*
X61237571Y-55391333D01*
X61380428Y-55391333D01*
X61475666Y-55438952D01*
X61523285Y-55486571D01*
X61570904Y-55581809D01*
X61570904Y-55819904D01*
X61523285Y-55915142D01*
X61475666Y-55962761D01*
X61380428Y-56010380D01*
X61094714Y-56010380D01*
X60999476Y-55962761D01*
X60951857Y-55915142D01*
X61761380Y-56105619D02*
X62523285Y-56105619D01*
X62761380Y-56010380D02*
X62761380Y-55010380D01*
X63094714Y-55724666D01*
X63428047Y-55010380D01*
X63428047Y-56010380D01*
X64332809Y-56010380D02*
X64332809Y-55486571D01*
X64285190Y-55391333D01*
X64189952Y-55343714D01*
X63999476Y-55343714D01*
X63904238Y-55391333D01*
X64332809Y-55962761D02*
X64237571Y-56010380D01*
X63999476Y-56010380D01*
X63904238Y-55962761D01*
X63856619Y-55867523D01*
X63856619Y-55772285D01*
X63904238Y-55677047D01*
X63999476Y-55629428D01*
X64237571Y-55629428D01*
X64332809Y-55581809D01*
X64951857Y-56010380D02*
X64856619Y-55962761D01*
X64809000Y-55867523D01*
X64809000Y-55010380D01*
X65713761Y-55962761D02*
X65618523Y-56010380D01*
X65428047Y-56010380D01*
X65332809Y-55962761D01*
X65285190Y-55867523D01*
X65285190Y-55486571D01*
X65332809Y-55391333D01*
X65428047Y-55343714D01*
X65618523Y-55343714D01*
X65713761Y-55391333D01*
X65761380Y-55486571D01*
X65761380Y-55581809D01*
X65285190Y-55677047D01*
X58761380Y-51973714D02*
X59475666Y-51973714D01*
X59618523Y-52021333D01*
X59713761Y-52116571D01*
X59761380Y-52259428D01*
X59761380Y-52354666D01*
X59761380Y-50973714D02*
X59761380Y-51545142D01*
X59761380Y-51259428D02*
X58761380Y-51259428D01*
X58904238Y-51354666D01*
X58999476Y-51449904D01*
X59047095Y-51545142D01*
X58761380Y-50354666D02*
X58761380Y-50259428D01*
X58809000Y-50164190D01*
X58856619Y-50116571D01*
X58951857Y-50068952D01*
X59142333Y-50021333D01*
X59380428Y-50021333D01*
X59570904Y-50068952D01*
X59666142Y-50116571D01*
X59713761Y-50164190D01*
X59761380Y-50259428D01*
X59761380Y-50354666D01*
X59713761Y-50449904D01*
X59666142Y-50497523D01*
X59570904Y-50545142D01*
X59380428Y-50592761D01*
X59142333Y-50592761D01*
X58951857Y-50545142D01*
X58856619Y-50497523D01*
X58809000Y-50449904D01*
X58761380Y-50354666D01*
X58761380Y-49116571D02*
X58761380Y-49592761D01*
X59237571Y-49640380D01*
X59189952Y-49592761D01*
X59142333Y-49497523D01*
X59142333Y-49259428D01*
X59189952Y-49164190D01*
X59237571Y-49116571D01*
X59332809Y-49068952D01*
X59570904Y-49068952D01*
X59666142Y-49116571D01*
X59713761Y-49164190D01*
X59761380Y-49259428D01*
X59761380Y-49497523D01*
X59713761Y-49592761D01*
X59666142Y-49640380D01*
%TO.C,C107*%
X46315333Y-63415380D02*
X45743904Y-63415380D01*
X46029619Y-63415380D02*
X46029619Y-62415380D01*
X45934380Y-62558238D01*
X45839142Y-62653476D01*
X45743904Y-62701095D01*
X47172476Y-62748714D02*
X47172476Y-63415380D01*
X46743904Y-62748714D02*
X46743904Y-63272523D01*
X46791523Y-63367761D01*
X46886761Y-63415380D01*
X47029619Y-63415380D01*
X47124857Y-63367761D01*
X47172476Y-63320142D01*
D11*
X45922476Y-64821571D02*
X45898666Y-64845380D01*
X45827238Y-64869190D01*
X45779619Y-64869190D01*
X45708190Y-64845380D01*
X45660571Y-64797761D01*
X45636761Y-64750142D01*
X45612952Y-64654904D01*
X45612952Y-64583476D01*
X45636761Y-64488238D01*
X45660571Y-64440619D01*
X45708190Y-64393000D01*
X45779619Y-64369190D01*
X45827238Y-64369190D01*
X45898666Y-64393000D01*
X45922476Y-64416809D01*
X46398666Y-64869190D02*
X46112952Y-64869190D01*
X46255809Y-64869190D02*
X46255809Y-64369190D01*
X46208190Y-64440619D01*
X46160571Y-64488238D01*
X46112952Y-64512047D01*
X46708190Y-64369190D02*
X46755809Y-64369190D01*
X46803428Y-64393000D01*
X46827238Y-64416809D01*
X46851047Y-64464428D01*
X46874857Y-64559666D01*
X46874857Y-64678714D01*
X46851047Y-64773952D01*
X46827238Y-64821571D01*
X46803428Y-64845380D01*
X46755809Y-64869190D01*
X46708190Y-64869190D01*
X46660571Y-64845380D01*
X46636761Y-64821571D01*
X46612952Y-64773952D01*
X46589142Y-64678714D01*
X46589142Y-64559666D01*
X46612952Y-64464428D01*
X46636761Y-64416809D01*
X46660571Y-64393000D01*
X46708190Y-64369190D01*
X47041523Y-64369190D02*
X47374857Y-64369190D01*
X47160571Y-64869190D01*
D10*
%TO.C,C106*%
X39920380Y-71635857D02*
X39920380Y-72207285D01*
X39920380Y-71921571D02*
X38920380Y-71921571D01*
X39063238Y-72016809D01*
X39158476Y-72112047D01*
X39206095Y-72207285D01*
X38920380Y-71016809D02*
X38920380Y-70921571D01*
X38968000Y-70826333D01*
X39015619Y-70778714D01*
X39110857Y-70731095D01*
X39301333Y-70683476D01*
X39539428Y-70683476D01*
X39729904Y-70731095D01*
X39825142Y-70778714D01*
X39872761Y-70826333D01*
X39920380Y-70921571D01*
X39920380Y-71016809D01*
X39872761Y-71112047D01*
X39825142Y-71159666D01*
X39729904Y-71207285D01*
X39539428Y-71254904D01*
X39301333Y-71254904D01*
X39110857Y-71207285D01*
X39015619Y-71159666D01*
X38968000Y-71112047D01*
X38920380Y-71016809D01*
X39253714Y-69826333D02*
X39920380Y-69826333D01*
X39253714Y-70254904D02*
X39777523Y-70254904D01*
X39872761Y-70207285D01*
X39920380Y-70112047D01*
X39920380Y-69969190D01*
X39872761Y-69873952D01*
X39825142Y-69826333D01*
D11*
X41326571Y-71552523D02*
X41350380Y-71576333D01*
X41374190Y-71647761D01*
X41374190Y-71695380D01*
X41350380Y-71766809D01*
X41302761Y-71814428D01*
X41255142Y-71838238D01*
X41159904Y-71862047D01*
X41088476Y-71862047D01*
X40993238Y-71838238D01*
X40945619Y-71814428D01*
X40898000Y-71766809D01*
X40874190Y-71695380D01*
X40874190Y-71647761D01*
X40898000Y-71576333D01*
X40921809Y-71552523D01*
X41374190Y-71076333D02*
X41374190Y-71362047D01*
X41374190Y-71219190D02*
X40874190Y-71219190D01*
X40945619Y-71266809D01*
X40993238Y-71314428D01*
X41017047Y-71362047D01*
X40874190Y-70766809D02*
X40874190Y-70719190D01*
X40898000Y-70671571D01*
X40921809Y-70647761D01*
X40969428Y-70623952D01*
X41064666Y-70600142D01*
X41183714Y-70600142D01*
X41278952Y-70623952D01*
X41326571Y-70647761D01*
X41350380Y-70671571D01*
X41374190Y-70719190D01*
X41374190Y-70766809D01*
X41350380Y-70814428D01*
X41326571Y-70838238D01*
X41278952Y-70862047D01*
X41183714Y-70885857D01*
X41064666Y-70885857D01*
X40969428Y-70862047D01*
X40921809Y-70838238D01*
X40898000Y-70814428D01*
X40874190Y-70766809D01*
X40874190Y-70171571D02*
X40874190Y-70266809D01*
X40898000Y-70314428D01*
X40921809Y-70338238D01*
X40993238Y-70385857D01*
X41088476Y-70409666D01*
X41278952Y-70409666D01*
X41326571Y-70385857D01*
X41350380Y-70362047D01*
X41374190Y-70314428D01*
X41374190Y-70219190D01*
X41350380Y-70171571D01*
X41326571Y-70147761D01*
X41278952Y-70123952D01*
X41159904Y-70123952D01*
X41112285Y-70147761D01*
X41088476Y-70171571D01*
X41064666Y-70219190D01*
X41064666Y-70314428D01*
X41088476Y-70362047D01*
X41112285Y-70385857D01*
X41159904Y-70409666D01*
D10*
%TO.C,C111*%
X48048380Y-71096047D02*
X48048380Y-71667476D01*
X48048380Y-71381761D02*
X47048380Y-71381761D01*
X47191238Y-71477000D01*
X47286476Y-71572238D01*
X47334095Y-71667476D01*
X47048380Y-70477000D02*
X47048380Y-70381761D01*
X47096000Y-70286523D01*
X47143619Y-70238904D01*
X47238857Y-70191285D01*
X47429333Y-70143666D01*
X47667428Y-70143666D01*
X47857904Y-70191285D01*
X47953142Y-70238904D01*
X48000761Y-70286523D01*
X48048380Y-70381761D01*
X48048380Y-70477000D01*
X48000761Y-70572238D01*
X47953142Y-70619857D01*
X47857904Y-70667476D01*
X47667428Y-70715095D01*
X47429333Y-70715095D01*
X47238857Y-70667476D01*
X47143619Y-70619857D01*
X47096000Y-70572238D01*
X47048380Y-70477000D01*
X47048380Y-69524619D02*
X47048380Y-69429380D01*
X47096000Y-69334142D01*
X47143619Y-69286523D01*
X47238857Y-69238904D01*
X47429333Y-69191285D01*
X47667428Y-69191285D01*
X47857904Y-69238904D01*
X47953142Y-69286523D01*
X48000761Y-69334142D01*
X48048380Y-69429380D01*
X48048380Y-69524619D01*
X48000761Y-69619857D01*
X47953142Y-69667476D01*
X47857904Y-69715095D01*
X47667428Y-69762714D01*
X47429333Y-69762714D01*
X47238857Y-69715095D01*
X47143619Y-69667476D01*
X47096000Y-69619857D01*
X47048380Y-69524619D01*
X47381714Y-68762714D02*
X48048380Y-68762714D01*
X47476952Y-68762714D02*
X47429333Y-68715095D01*
X47381714Y-68619857D01*
X47381714Y-68477000D01*
X47429333Y-68381761D01*
X47524571Y-68334142D01*
X48048380Y-68334142D01*
D11*
X49454571Y-70536523D02*
X49478380Y-70560333D01*
X49502190Y-70631761D01*
X49502190Y-70679380D01*
X49478380Y-70750809D01*
X49430761Y-70798428D01*
X49383142Y-70822238D01*
X49287904Y-70846047D01*
X49216476Y-70846047D01*
X49121238Y-70822238D01*
X49073619Y-70798428D01*
X49026000Y-70750809D01*
X49002190Y-70679380D01*
X49002190Y-70631761D01*
X49026000Y-70560333D01*
X49049809Y-70536523D01*
X49502190Y-70060333D02*
X49502190Y-70346047D01*
X49502190Y-70203190D02*
X49002190Y-70203190D01*
X49073619Y-70250809D01*
X49121238Y-70298428D01*
X49145047Y-70346047D01*
X49502190Y-69584142D02*
X49502190Y-69869857D01*
X49502190Y-69727000D02*
X49002190Y-69727000D01*
X49073619Y-69774619D01*
X49121238Y-69822238D01*
X49145047Y-69869857D01*
X49502190Y-69107952D02*
X49502190Y-69393666D01*
X49502190Y-69250809D02*
X49002190Y-69250809D01*
X49073619Y-69298428D01*
X49121238Y-69346047D01*
X49145047Y-69393666D01*
D10*
%TO.C,J101*%
X57158666Y-67032142D02*
X57111047Y-67079761D01*
X56968190Y-67127380D01*
X56872952Y-67127380D01*
X56730095Y-67079761D01*
X56634857Y-66984523D01*
X56587238Y-66889285D01*
X56539619Y-66698809D01*
X56539619Y-66555952D01*
X56587238Y-66365476D01*
X56634857Y-66270238D01*
X56730095Y-66175000D01*
X56872952Y-66127380D01*
X56968190Y-66127380D01*
X57111047Y-66175000D01*
X57158666Y-66222619D01*
X57730095Y-67127380D02*
X57634857Y-67079761D01*
X57587238Y-67032142D01*
X57539619Y-66936904D01*
X57539619Y-66651190D01*
X57587238Y-66555952D01*
X57634857Y-66508333D01*
X57730095Y-66460714D01*
X57872952Y-66460714D01*
X57968190Y-66508333D01*
X58015809Y-66555952D01*
X58063428Y-66651190D01*
X58063428Y-66936904D01*
X58015809Y-67032142D01*
X57968190Y-67079761D01*
X57872952Y-67127380D01*
X57730095Y-67127380D01*
X58492000Y-66460714D02*
X58492000Y-67127380D01*
X58492000Y-66555952D02*
X58539619Y-66508333D01*
X58634857Y-66460714D01*
X58777714Y-66460714D01*
X58872952Y-66508333D01*
X58920571Y-66603571D01*
X58920571Y-67127380D01*
X59396761Y-66460714D02*
X59396761Y-67127380D01*
X59396761Y-66555952D02*
X59444380Y-66508333D01*
X59539619Y-66460714D01*
X59682476Y-66460714D01*
X59777714Y-66508333D01*
X59825333Y-66603571D01*
X59825333Y-67127380D01*
X60063428Y-67222619D02*
X60825333Y-67222619D01*
X61253904Y-66127380D02*
X61349142Y-66127380D01*
X61444380Y-66175000D01*
X61492000Y-66222619D01*
X61539619Y-66317857D01*
X61587238Y-66508333D01*
X61587238Y-66746428D01*
X61539619Y-66936904D01*
X61492000Y-67032142D01*
X61444380Y-67079761D01*
X61349142Y-67127380D01*
X61253904Y-67127380D01*
X61158666Y-67079761D01*
X61111047Y-67032142D01*
X61063428Y-66936904D01*
X61015809Y-66746428D01*
X61015809Y-66508333D01*
X61063428Y-66317857D01*
X61111047Y-66222619D01*
X61158666Y-66175000D01*
X61253904Y-66127380D01*
X62539619Y-67127380D02*
X61968190Y-67127380D01*
X62253904Y-67127380D02*
X62253904Y-66127380D01*
X62158666Y-66270238D01*
X62063428Y-66365476D01*
X61968190Y-66413095D01*
X62872952Y-67127380D02*
X63396761Y-66460714D01*
X62872952Y-66460714D02*
X63396761Y-67127380D01*
X63968190Y-66127380D02*
X64063428Y-66127380D01*
X64158666Y-66175000D01*
X64206285Y-66222619D01*
X64253904Y-66317857D01*
X64301523Y-66508333D01*
X64301523Y-66746428D01*
X64253904Y-66936904D01*
X64206285Y-67032142D01*
X64158666Y-67079761D01*
X64063428Y-67127380D01*
X63968190Y-67127380D01*
X63872952Y-67079761D01*
X63825333Y-67032142D01*
X63777714Y-66936904D01*
X63730095Y-66746428D01*
X63730095Y-66508333D01*
X63777714Y-66317857D01*
X63825333Y-66222619D01*
X63872952Y-66175000D01*
X63968190Y-66127380D01*
X64634857Y-66127380D02*
X65253904Y-66127380D01*
X64920571Y-66508333D01*
X65063428Y-66508333D01*
X65158666Y-66555952D01*
X65206285Y-66603571D01*
X65253904Y-66698809D01*
X65253904Y-66936904D01*
X65206285Y-67032142D01*
X65158666Y-67079761D01*
X65063428Y-67127380D01*
X64777714Y-67127380D01*
X64682476Y-67079761D01*
X64634857Y-67032142D01*
X65444380Y-67222619D02*
X66206285Y-67222619D01*
X66444380Y-67127380D02*
X66444380Y-66127380D01*
X66777714Y-66841666D01*
X67111047Y-66127380D01*
X67111047Y-67127380D01*
X68015809Y-67127380D02*
X68015809Y-66603571D01*
X67968190Y-66508333D01*
X67872952Y-66460714D01*
X67682476Y-66460714D01*
X67587238Y-66508333D01*
X68015809Y-67079761D02*
X67920571Y-67127380D01*
X67682476Y-67127380D01*
X67587238Y-67079761D01*
X67539619Y-66984523D01*
X67539619Y-66889285D01*
X67587238Y-66794047D01*
X67682476Y-66746428D01*
X67920571Y-66746428D01*
X68015809Y-66698809D01*
X68634857Y-67127380D02*
X68539619Y-67079761D01*
X68492000Y-66984523D01*
X68492000Y-66127380D01*
X69396761Y-67079761D02*
X69301523Y-67127380D01*
X69111047Y-67127380D01*
X69015809Y-67079761D01*
X68968190Y-66984523D01*
X68968190Y-66603571D01*
X69015809Y-66508333D01*
X69111047Y-66460714D01*
X69301523Y-66460714D01*
X69396761Y-66508333D01*
X69444380Y-66603571D01*
X69444380Y-66698809D01*
X68968190Y-66794047D01*
X62444380Y-62372714D02*
X63158666Y-62372714D01*
X63301523Y-62420333D01*
X63396761Y-62515571D01*
X63444380Y-62658428D01*
X63444380Y-62753666D01*
X63444380Y-61372714D02*
X63444380Y-61944142D01*
X63444380Y-61658428D02*
X62444380Y-61658428D01*
X62587238Y-61753666D01*
X62682476Y-61848904D01*
X62730095Y-61944142D01*
X62444380Y-60753666D02*
X62444380Y-60658428D01*
X62492000Y-60563190D01*
X62539619Y-60515571D01*
X62634857Y-60467952D01*
X62825333Y-60420333D01*
X63063428Y-60420333D01*
X63253904Y-60467952D01*
X63349142Y-60515571D01*
X63396761Y-60563190D01*
X63444380Y-60658428D01*
X63444380Y-60753666D01*
X63396761Y-60848904D01*
X63349142Y-60896523D01*
X63253904Y-60944142D01*
X63063428Y-60991761D01*
X62825333Y-60991761D01*
X62634857Y-60944142D01*
X62539619Y-60896523D01*
X62492000Y-60848904D01*
X62444380Y-60753666D01*
X63444380Y-59467952D02*
X63444380Y-60039380D01*
X63444380Y-59753666D02*
X62444380Y-59753666D01*
X62587238Y-59848904D01*
X62682476Y-59944142D01*
X62730095Y-60039380D01*
%TO.C,C101*%
X47217380Y-60047047D02*
X47217380Y-60618476D01*
X47217380Y-60332761D02*
X46217380Y-60332761D01*
X46360238Y-60428000D01*
X46455476Y-60523238D01*
X46503095Y-60618476D01*
X46217380Y-59428000D02*
X46217380Y-59332761D01*
X46265000Y-59237523D01*
X46312619Y-59189904D01*
X46407857Y-59142285D01*
X46598333Y-59094666D01*
X46836428Y-59094666D01*
X47026904Y-59142285D01*
X47122142Y-59189904D01*
X47169761Y-59237523D01*
X47217380Y-59332761D01*
X47217380Y-59428000D01*
X47169761Y-59523238D01*
X47122142Y-59570857D01*
X47026904Y-59618476D01*
X46836428Y-59666095D01*
X46598333Y-59666095D01*
X46407857Y-59618476D01*
X46312619Y-59570857D01*
X46265000Y-59523238D01*
X46217380Y-59428000D01*
X46217380Y-58475619D02*
X46217380Y-58380380D01*
X46265000Y-58285142D01*
X46312619Y-58237523D01*
X46407857Y-58189904D01*
X46598333Y-58142285D01*
X46836428Y-58142285D01*
X47026904Y-58189904D01*
X47122142Y-58237523D01*
X47169761Y-58285142D01*
X47217380Y-58380380D01*
X47217380Y-58475619D01*
X47169761Y-58570857D01*
X47122142Y-58618476D01*
X47026904Y-58666095D01*
X46836428Y-58713714D01*
X46598333Y-58713714D01*
X46407857Y-58666095D01*
X46312619Y-58618476D01*
X46265000Y-58570857D01*
X46217380Y-58475619D01*
X46550714Y-57713714D02*
X47217380Y-57713714D01*
X46645952Y-57713714D02*
X46598333Y-57666095D01*
X46550714Y-57570857D01*
X46550714Y-57428000D01*
X46598333Y-57332761D01*
X46693571Y-57285142D01*
X47217380Y-57285142D01*
D11*
X45263571Y-59487523D02*
X45287380Y-59511333D01*
X45311190Y-59582761D01*
X45311190Y-59630380D01*
X45287380Y-59701809D01*
X45239761Y-59749428D01*
X45192142Y-59773238D01*
X45096904Y-59797047D01*
X45025476Y-59797047D01*
X44930238Y-59773238D01*
X44882619Y-59749428D01*
X44835000Y-59701809D01*
X44811190Y-59630380D01*
X44811190Y-59582761D01*
X44835000Y-59511333D01*
X44858809Y-59487523D01*
X45311190Y-59011333D02*
X45311190Y-59297047D01*
X45311190Y-59154190D02*
X44811190Y-59154190D01*
X44882619Y-59201809D01*
X44930238Y-59249428D01*
X44954047Y-59297047D01*
X44811190Y-58701809D02*
X44811190Y-58654190D01*
X44835000Y-58606571D01*
X44858809Y-58582761D01*
X44906428Y-58558952D01*
X45001666Y-58535142D01*
X45120714Y-58535142D01*
X45215952Y-58558952D01*
X45263571Y-58582761D01*
X45287380Y-58606571D01*
X45311190Y-58654190D01*
X45311190Y-58701809D01*
X45287380Y-58749428D01*
X45263571Y-58773238D01*
X45215952Y-58797047D01*
X45120714Y-58820857D01*
X45001666Y-58820857D01*
X44906428Y-58797047D01*
X44858809Y-58773238D01*
X44835000Y-58749428D01*
X44811190Y-58701809D01*
X45311190Y-58058952D02*
X45311190Y-58344666D01*
X45311190Y-58201809D02*
X44811190Y-58201809D01*
X44882619Y-58249428D01*
X44930238Y-58297047D01*
X44954047Y-58344666D01*
D10*
%TO.C,C116*%
X47871142Y-71543380D02*
X47299714Y-71543380D01*
X47585428Y-71543380D02*
X47585428Y-70543380D01*
X47490190Y-70686238D01*
X47394952Y-70781476D01*
X47299714Y-70829095D01*
X48490190Y-70543380D02*
X48585428Y-70543380D01*
X48680666Y-70591000D01*
X48728285Y-70638619D01*
X48775904Y-70733857D01*
X48823523Y-70924333D01*
X48823523Y-71162428D01*
X48775904Y-71352904D01*
X48728285Y-71448142D01*
X48680666Y-71495761D01*
X48585428Y-71543380D01*
X48490190Y-71543380D01*
X48394952Y-71495761D01*
X48347333Y-71448142D01*
X48299714Y-71352904D01*
X48252095Y-71162428D01*
X48252095Y-70924333D01*
X48299714Y-70733857D01*
X48347333Y-70638619D01*
X48394952Y-70591000D01*
X48490190Y-70543380D01*
X49680666Y-70876714D02*
X49680666Y-71543380D01*
X49252095Y-70876714D02*
X49252095Y-71400523D01*
X49299714Y-71495761D01*
X49394952Y-71543380D01*
X49537809Y-71543380D01*
X49633047Y-71495761D01*
X49680666Y-71448142D01*
D11*
X47954476Y-72949571D02*
X47930666Y-72973380D01*
X47859238Y-72997190D01*
X47811619Y-72997190D01*
X47740190Y-72973380D01*
X47692571Y-72925761D01*
X47668761Y-72878142D01*
X47644952Y-72782904D01*
X47644952Y-72711476D01*
X47668761Y-72616238D01*
X47692571Y-72568619D01*
X47740190Y-72521000D01*
X47811619Y-72497190D01*
X47859238Y-72497190D01*
X47930666Y-72521000D01*
X47954476Y-72544809D01*
X48430666Y-72997190D02*
X48144952Y-72997190D01*
X48287809Y-72997190D02*
X48287809Y-72497190D01*
X48240190Y-72568619D01*
X48192571Y-72616238D01*
X48144952Y-72640047D01*
X48906857Y-72997190D02*
X48621142Y-72997190D01*
X48764000Y-72997190D02*
X48764000Y-72497190D01*
X48716380Y-72568619D01*
X48668761Y-72616238D01*
X48621142Y-72640047D01*
X49335428Y-72497190D02*
X49240190Y-72497190D01*
X49192571Y-72521000D01*
X49168761Y-72544809D01*
X49121142Y-72616238D01*
X49097333Y-72711476D01*
X49097333Y-72901952D01*
X49121142Y-72949571D01*
X49144952Y-72973380D01*
X49192571Y-72997190D01*
X49287809Y-72997190D01*
X49335428Y-72973380D01*
X49359238Y-72949571D01*
X49383047Y-72901952D01*
X49383047Y-72782904D01*
X49359238Y-72735285D01*
X49335428Y-72711476D01*
X49287809Y-72687666D01*
X49192571Y-72687666D01*
X49144952Y-72711476D01*
X49121142Y-72735285D01*
X49097333Y-72782904D01*
D10*
%TO.C,R104*%
X56332571Y-67410380D02*
X55761142Y-67410380D01*
X56046857Y-67410380D02*
X56046857Y-66410380D01*
X55951619Y-66553238D01*
X55856380Y-66648476D01*
X55761142Y-66696095D01*
X56951619Y-66410380D02*
X57046857Y-66410380D01*
X57142095Y-66458000D01*
X57189714Y-66505619D01*
X57237333Y-66600857D01*
X57284952Y-66791333D01*
X57284952Y-67029428D01*
X57237333Y-67219904D01*
X57189714Y-67315142D01*
X57142095Y-67362761D01*
X57046857Y-67410380D01*
X56951619Y-67410380D01*
X56856380Y-67362761D01*
X56808761Y-67315142D01*
X56761142Y-67219904D01*
X56713523Y-67029428D01*
X56713523Y-66791333D01*
X56761142Y-66600857D01*
X56808761Y-66505619D01*
X56856380Y-66458000D01*
X56951619Y-66410380D01*
X57904000Y-66410380D02*
X57999238Y-66410380D01*
X58094476Y-66458000D01*
X58142095Y-66505619D01*
X58189714Y-66600857D01*
X58237333Y-66791333D01*
X58237333Y-67029428D01*
X58189714Y-67219904D01*
X58142095Y-67315142D01*
X58094476Y-67362761D01*
X57999238Y-67410380D01*
X57904000Y-67410380D01*
X57808761Y-67362761D01*
X57761142Y-67315142D01*
X57713523Y-67219904D01*
X57665904Y-67029428D01*
X57665904Y-66791333D01*
X57713523Y-66600857D01*
X57761142Y-66505619D01*
X57808761Y-66458000D01*
X57904000Y-66410380D01*
X58665904Y-67410380D02*
X58665904Y-66410380D01*
X58761142Y-67029428D02*
X59046857Y-67410380D01*
X59046857Y-66743714D02*
X58665904Y-67124666D01*
D11*
X56844476Y-65504190D02*
X56677809Y-65266095D01*
X56558761Y-65504190D02*
X56558761Y-65004190D01*
X56749238Y-65004190D01*
X56796857Y-65028000D01*
X56820666Y-65051809D01*
X56844476Y-65099428D01*
X56844476Y-65170857D01*
X56820666Y-65218476D01*
X56796857Y-65242285D01*
X56749238Y-65266095D01*
X56558761Y-65266095D01*
X57320666Y-65504190D02*
X57034952Y-65504190D01*
X57177809Y-65504190D02*
X57177809Y-65004190D01*
X57130190Y-65075619D01*
X57082571Y-65123238D01*
X57034952Y-65147047D01*
X57630190Y-65004190D02*
X57677809Y-65004190D01*
X57725428Y-65028000D01*
X57749238Y-65051809D01*
X57773047Y-65099428D01*
X57796857Y-65194666D01*
X57796857Y-65313714D01*
X57773047Y-65408952D01*
X57749238Y-65456571D01*
X57725428Y-65480380D01*
X57677809Y-65504190D01*
X57630190Y-65504190D01*
X57582571Y-65480380D01*
X57558761Y-65456571D01*
X57534952Y-65408952D01*
X57511142Y-65313714D01*
X57511142Y-65194666D01*
X57534952Y-65099428D01*
X57558761Y-65051809D01*
X57582571Y-65028000D01*
X57630190Y-65004190D01*
X58225428Y-65170857D02*
X58225428Y-65504190D01*
X58106380Y-64980380D02*
X57987333Y-65337523D01*
X58296857Y-65337523D01*
D10*
%TO.C,J106*%
X53399142Y-83557333D02*
X53446761Y-83604952D01*
X53494380Y-83747809D01*
X53494380Y-83843047D01*
X53446761Y-83985904D01*
X53351523Y-84081142D01*
X53256285Y-84128761D01*
X53065809Y-84176380D01*
X52922952Y-84176380D01*
X52732476Y-84128761D01*
X52637238Y-84081142D01*
X52542000Y-83985904D01*
X52494380Y-83843047D01*
X52494380Y-83747809D01*
X52542000Y-83604952D01*
X52589619Y-83557333D01*
X53494380Y-82985904D02*
X53446761Y-83081142D01*
X53399142Y-83128761D01*
X53303904Y-83176380D01*
X53018190Y-83176380D01*
X52922952Y-83128761D01*
X52875333Y-83081142D01*
X52827714Y-82985904D01*
X52827714Y-82843047D01*
X52875333Y-82747809D01*
X52922952Y-82700190D01*
X53018190Y-82652571D01*
X53303904Y-82652571D01*
X53399142Y-82700190D01*
X53446761Y-82747809D01*
X53494380Y-82843047D01*
X53494380Y-82985904D01*
X52827714Y-82224000D02*
X53494380Y-82224000D01*
X52922952Y-82224000D02*
X52875333Y-82176380D01*
X52827714Y-82081142D01*
X52827714Y-81938285D01*
X52875333Y-81843047D01*
X52970571Y-81795428D01*
X53494380Y-81795428D01*
X52827714Y-81319238D02*
X53494380Y-81319238D01*
X52922952Y-81319238D02*
X52875333Y-81271619D01*
X52827714Y-81176380D01*
X52827714Y-81033523D01*
X52875333Y-80938285D01*
X52970571Y-80890666D01*
X53494380Y-80890666D01*
X53589619Y-80652571D02*
X53589619Y-79890666D01*
X52494380Y-79462095D02*
X52494380Y-79366857D01*
X52542000Y-79271619D01*
X52589619Y-79224000D01*
X52684857Y-79176380D01*
X52875333Y-79128761D01*
X53113428Y-79128761D01*
X53303904Y-79176380D01*
X53399142Y-79224000D01*
X53446761Y-79271619D01*
X53494380Y-79366857D01*
X53494380Y-79462095D01*
X53446761Y-79557333D01*
X53399142Y-79604952D01*
X53303904Y-79652571D01*
X53113428Y-79700190D01*
X52875333Y-79700190D01*
X52684857Y-79652571D01*
X52589619Y-79604952D01*
X52542000Y-79557333D01*
X52494380Y-79462095D01*
X53494380Y-78176380D02*
X53494380Y-78747809D01*
X53494380Y-78462095D02*
X52494380Y-78462095D01*
X52637238Y-78557333D01*
X52732476Y-78652571D01*
X52780095Y-78747809D01*
X53494380Y-77843047D02*
X52827714Y-77319238D01*
X52827714Y-77843047D02*
X53494380Y-77319238D01*
X52494380Y-76747809D02*
X52494380Y-76652571D01*
X52542000Y-76557333D01*
X52589619Y-76509714D01*
X52684857Y-76462095D01*
X52875333Y-76414476D01*
X53113428Y-76414476D01*
X53303904Y-76462095D01*
X53399142Y-76509714D01*
X53446761Y-76557333D01*
X53494380Y-76652571D01*
X53494380Y-76747809D01*
X53446761Y-76843047D01*
X53399142Y-76890666D01*
X53303904Y-76938285D01*
X53113428Y-76985904D01*
X52875333Y-76985904D01*
X52684857Y-76938285D01*
X52589619Y-76890666D01*
X52542000Y-76843047D01*
X52494380Y-76747809D01*
X52589619Y-76033523D02*
X52542000Y-75985904D01*
X52494380Y-75890666D01*
X52494380Y-75652571D01*
X52542000Y-75557333D01*
X52589619Y-75509714D01*
X52684857Y-75462095D01*
X52780095Y-75462095D01*
X52922952Y-75509714D01*
X53494380Y-76081142D01*
X53494380Y-75462095D01*
X53589619Y-75271619D02*
X53589619Y-74509714D01*
X53494380Y-74271619D02*
X52494380Y-74271619D01*
X53208666Y-73938285D01*
X52494380Y-73604952D01*
X53494380Y-73604952D01*
X53494380Y-72700190D02*
X52970571Y-72700190D01*
X52875333Y-72747809D01*
X52827714Y-72843047D01*
X52827714Y-73033523D01*
X52875333Y-73128761D01*
X53446761Y-72700190D02*
X53494380Y-72795428D01*
X53494380Y-73033523D01*
X53446761Y-73128761D01*
X53351523Y-73176380D01*
X53256285Y-73176380D01*
X53161047Y-73128761D01*
X53113428Y-73033523D01*
X53113428Y-72795428D01*
X53065809Y-72700190D01*
X53494380Y-72081142D02*
X53446761Y-72176380D01*
X53351523Y-72224000D01*
X52494380Y-72224000D01*
X53446761Y-71319238D02*
X53494380Y-71414476D01*
X53494380Y-71604952D01*
X53446761Y-71700190D01*
X53351523Y-71747809D01*
X52970571Y-71747809D01*
X52875333Y-71700190D01*
X52827714Y-71604952D01*
X52827714Y-71414476D01*
X52875333Y-71319238D01*
X52970571Y-71271619D01*
X53065809Y-71271619D01*
X53161047Y-71747809D01*
X55356285Y-77176380D02*
X55356285Y-77890666D01*
X55308666Y-78033523D01*
X55213428Y-78128761D01*
X55070571Y-78176380D01*
X54975333Y-78176380D01*
X56356285Y-78176380D02*
X55784857Y-78176380D01*
X56070571Y-78176380D02*
X56070571Y-77176380D01*
X55975333Y-77319238D01*
X55880095Y-77414476D01*
X55784857Y-77462095D01*
X56975333Y-77176380D02*
X57070571Y-77176380D01*
X57165809Y-77224000D01*
X57213428Y-77271619D01*
X57261047Y-77366857D01*
X57308666Y-77557333D01*
X57308666Y-77795428D01*
X57261047Y-77985904D01*
X57213428Y-78081142D01*
X57165809Y-78128761D01*
X57070571Y-78176380D01*
X56975333Y-78176380D01*
X56880095Y-78128761D01*
X56832476Y-78081142D01*
X56784857Y-77985904D01*
X56737238Y-77795428D01*
X56737238Y-77557333D01*
X56784857Y-77366857D01*
X56832476Y-77271619D01*
X56880095Y-77224000D01*
X56975333Y-77176380D01*
X58165809Y-77176380D02*
X57975333Y-77176380D01*
X57880095Y-77224000D01*
X57832476Y-77271619D01*
X57737238Y-77414476D01*
X57689619Y-77604952D01*
X57689619Y-77985904D01*
X57737238Y-78081142D01*
X57784857Y-78128761D01*
X57880095Y-78176380D01*
X58070571Y-78176380D01*
X58165809Y-78128761D01*
X58213428Y-78081142D01*
X58261047Y-77985904D01*
X58261047Y-77747809D01*
X58213428Y-77652571D01*
X58165809Y-77604952D01*
X58070571Y-77557333D01*
X57880095Y-77557333D01*
X57784857Y-77604952D01*
X57737238Y-77652571D01*
X57689619Y-77747809D01*
%TO.C,J103*%
X35060666Y-55895142D02*
X35013047Y-55942761D01*
X34870190Y-55990380D01*
X34774952Y-55990380D01*
X34632095Y-55942761D01*
X34536857Y-55847523D01*
X34489238Y-55752285D01*
X34441619Y-55561809D01*
X34441619Y-55418952D01*
X34489238Y-55228476D01*
X34536857Y-55133238D01*
X34632095Y-55038000D01*
X34774952Y-54990380D01*
X34870190Y-54990380D01*
X35013047Y-55038000D01*
X35060666Y-55085619D01*
X35632095Y-55990380D02*
X35536857Y-55942761D01*
X35489238Y-55895142D01*
X35441619Y-55799904D01*
X35441619Y-55514190D01*
X35489238Y-55418952D01*
X35536857Y-55371333D01*
X35632095Y-55323714D01*
X35774952Y-55323714D01*
X35870190Y-55371333D01*
X35917809Y-55418952D01*
X35965428Y-55514190D01*
X35965428Y-55799904D01*
X35917809Y-55895142D01*
X35870190Y-55942761D01*
X35774952Y-55990380D01*
X35632095Y-55990380D01*
X36394000Y-55323714D02*
X36394000Y-55990380D01*
X36394000Y-55418952D02*
X36441619Y-55371333D01*
X36536857Y-55323714D01*
X36679714Y-55323714D01*
X36774952Y-55371333D01*
X36822571Y-55466571D01*
X36822571Y-55990380D01*
X37298761Y-55323714D02*
X37298761Y-55990380D01*
X37298761Y-55418952D02*
X37346380Y-55371333D01*
X37441619Y-55323714D01*
X37584476Y-55323714D01*
X37679714Y-55371333D01*
X37727333Y-55466571D01*
X37727333Y-55990380D01*
X37965428Y-56085619D02*
X38727333Y-56085619D01*
X39155904Y-54990380D02*
X39251142Y-54990380D01*
X39346380Y-55038000D01*
X39394000Y-55085619D01*
X39441619Y-55180857D01*
X39489238Y-55371333D01*
X39489238Y-55609428D01*
X39441619Y-55799904D01*
X39394000Y-55895142D01*
X39346380Y-55942761D01*
X39251142Y-55990380D01*
X39155904Y-55990380D01*
X39060666Y-55942761D01*
X39013047Y-55895142D01*
X38965428Y-55799904D01*
X38917809Y-55609428D01*
X38917809Y-55371333D01*
X38965428Y-55180857D01*
X39013047Y-55085619D01*
X39060666Y-55038000D01*
X39155904Y-54990380D01*
X40441619Y-55990380D02*
X39870190Y-55990380D01*
X40155904Y-55990380D02*
X40155904Y-54990380D01*
X40060666Y-55133238D01*
X39965428Y-55228476D01*
X39870190Y-55276095D01*
X40774952Y-55990380D02*
X41298761Y-55323714D01*
X40774952Y-55323714D02*
X41298761Y-55990380D01*
X41870190Y-54990380D02*
X41965428Y-54990380D01*
X42060666Y-55038000D01*
X42108285Y-55085619D01*
X42155904Y-55180857D01*
X42203523Y-55371333D01*
X42203523Y-55609428D01*
X42155904Y-55799904D01*
X42108285Y-55895142D01*
X42060666Y-55942761D01*
X41965428Y-55990380D01*
X41870190Y-55990380D01*
X41774952Y-55942761D01*
X41727333Y-55895142D01*
X41679714Y-55799904D01*
X41632095Y-55609428D01*
X41632095Y-55371333D01*
X41679714Y-55180857D01*
X41727333Y-55085619D01*
X41774952Y-55038000D01*
X41870190Y-54990380D01*
X42584476Y-55085619D02*
X42632095Y-55038000D01*
X42727333Y-54990380D01*
X42965428Y-54990380D01*
X43060666Y-55038000D01*
X43108285Y-55085619D01*
X43155904Y-55180857D01*
X43155904Y-55276095D01*
X43108285Y-55418952D01*
X42536857Y-55990380D01*
X43155904Y-55990380D01*
X43346380Y-56085619D02*
X44108285Y-56085619D01*
X44346380Y-55990380D02*
X44346380Y-54990380D01*
X44679714Y-55704666D01*
X45013047Y-54990380D01*
X45013047Y-55990380D01*
X45917809Y-55990380D02*
X45917809Y-55466571D01*
X45870190Y-55371333D01*
X45774952Y-55323714D01*
X45584476Y-55323714D01*
X45489238Y-55371333D01*
X45917809Y-55942761D02*
X45822571Y-55990380D01*
X45584476Y-55990380D01*
X45489238Y-55942761D01*
X45441619Y-55847523D01*
X45441619Y-55752285D01*
X45489238Y-55657047D01*
X45584476Y-55609428D01*
X45822571Y-55609428D01*
X45917809Y-55561809D01*
X46536857Y-55990380D02*
X46441619Y-55942761D01*
X46394000Y-55847523D01*
X46394000Y-54990380D01*
X47298761Y-55942761D02*
X47203523Y-55990380D01*
X47013047Y-55990380D01*
X46917809Y-55942761D01*
X46870190Y-55847523D01*
X46870190Y-55466571D01*
X46917809Y-55371333D01*
X47013047Y-55323714D01*
X47203523Y-55323714D01*
X47298761Y-55371333D01*
X47346380Y-55466571D01*
X47346380Y-55561809D01*
X46870190Y-55657047D01*
X40346380Y-53223714D02*
X41060666Y-53223714D01*
X41203523Y-53271333D01*
X41298761Y-53366571D01*
X41346380Y-53509428D01*
X41346380Y-53604666D01*
X41346380Y-52223714D02*
X41346380Y-52795142D01*
X41346380Y-52509428D02*
X40346380Y-52509428D01*
X40489238Y-52604666D01*
X40584476Y-52699904D01*
X40632095Y-52795142D01*
X40346380Y-51604666D02*
X40346380Y-51509428D01*
X40394000Y-51414190D01*
X40441619Y-51366571D01*
X40536857Y-51318952D01*
X40727333Y-51271333D01*
X40965428Y-51271333D01*
X41155904Y-51318952D01*
X41251142Y-51366571D01*
X41298761Y-51414190D01*
X41346380Y-51509428D01*
X41346380Y-51604666D01*
X41298761Y-51699904D01*
X41251142Y-51747523D01*
X41155904Y-51795142D01*
X40965428Y-51842761D01*
X40727333Y-51842761D01*
X40536857Y-51795142D01*
X40441619Y-51747523D01*
X40394000Y-51699904D01*
X40346380Y-51604666D01*
X40346380Y-50938000D02*
X40346380Y-50318952D01*
X40727333Y-50652285D01*
X40727333Y-50509428D01*
X40774952Y-50414190D01*
X40822571Y-50366571D01*
X40917809Y-50318952D01*
X41155904Y-50318952D01*
X41251142Y-50366571D01*
X41298761Y-50414190D01*
X41346380Y-50509428D01*
X41346380Y-50795142D01*
X41298761Y-50890380D01*
X41251142Y-50938000D01*
%TO.C,U102*%
X54516380Y-55855857D02*
X54516380Y-55189190D01*
X55516380Y-55617761D01*
X54849714Y-54379666D02*
X55516380Y-54379666D01*
X54468761Y-54617761D02*
X55183047Y-54855857D01*
X55183047Y-54236809D01*
X55516380Y-53379666D02*
X55516380Y-53855857D01*
X54516380Y-53855857D01*
X55468761Y-53093952D02*
X55516380Y-52951095D01*
X55516380Y-52713000D01*
X55468761Y-52617761D01*
X55421142Y-52570142D01*
X55325904Y-52522523D01*
X55230666Y-52522523D01*
X55135428Y-52570142D01*
X55087809Y-52617761D01*
X55040190Y-52713000D01*
X54992571Y-52903476D01*
X54944952Y-52998714D01*
X54897333Y-53046333D01*
X54802095Y-53093952D01*
X54706857Y-53093952D01*
X54611619Y-53046333D01*
X54564000Y-52998714D01*
X54516380Y-52903476D01*
X54516380Y-52665380D01*
X54564000Y-52522523D01*
X55516380Y-51570142D02*
X55516380Y-52141571D01*
X55516380Y-51855857D02*
X54516380Y-51855857D01*
X54659238Y-51951095D01*
X54754476Y-52046333D01*
X54802095Y-52141571D01*
X55516380Y-50617761D02*
X55516380Y-51189190D01*
X55516380Y-50903476D02*
X54516380Y-50903476D01*
X54659238Y-50998714D01*
X54754476Y-51093952D01*
X54802095Y-51189190D01*
X49247333Y-54893000D02*
X50040666Y-54893000D01*
X50134000Y-54846333D01*
X50180666Y-54799666D01*
X50227333Y-54706333D01*
X50227333Y-54519666D01*
X50180666Y-54426333D01*
X50134000Y-54379666D01*
X50040666Y-54333000D01*
X49247333Y-54333000D01*
X50227333Y-53353000D02*
X50227333Y-53913000D01*
X50227333Y-53633000D02*
X49247333Y-53633000D01*
X49387333Y-53726333D01*
X49480666Y-53819666D01*
X49527333Y-53913000D01*
X49247333Y-52746333D02*
X49247333Y-52653000D01*
X49294000Y-52559666D01*
X49340666Y-52513000D01*
X49434000Y-52466333D01*
X49620666Y-52419666D01*
X49854000Y-52419666D01*
X50040666Y-52466333D01*
X50134000Y-52513000D01*
X50180666Y-52559666D01*
X50227333Y-52653000D01*
X50227333Y-52746333D01*
X50180666Y-52839666D01*
X50134000Y-52886333D01*
X50040666Y-52933000D01*
X49854000Y-52979666D01*
X49620666Y-52979666D01*
X49434000Y-52933000D01*
X49340666Y-52886333D01*
X49294000Y-52839666D01*
X49247333Y-52746333D01*
X49340666Y-52046333D02*
X49294000Y-51999666D01*
X49247333Y-51906333D01*
X49247333Y-51673000D01*
X49294000Y-51579666D01*
X49340666Y-51533000D01*
X49434000Y-51486333D01*
X49527333Y-51486333D01*
X49667333Y-51533000D01*
X50227333Y-52093000D01*
X50227333Y-51486333D01*
%TO.C,C108*%
X46016380Y-69762666D02*
X46016380Y-70334095D01*
X46016380Y-70048380D02*
X45016380Y-70048380D01*
X45159238Y-70143619D01*
X45254476Y-70238857D01*
X45302095Y-70334095D01*
X45349714Y-69334095D02*
X46016380Y-69334095D01*
X45444952Y-69334095D02*
X45397333Y-69286476D01*
X45349714Y-69191238D01*
X45349714Y-69048380D01*
X45397333Y-68953142D01*
X45492571Y-68905523D01*
X46016380Y-68905523D01*
D11*
X47422571Y-70155523D02*
X47446380Y-70179333D01*
X47470190Y-70250761D01*
X47470190Y-70298380D01*
X47446380Y-70369809D01*
X47398761Y-70417428D01*
X47351142Y-70441238D01*
X47255904Y-70465047D01*
X47184476Y-70465047D01*
X47089238Y-70441238D01*
X47041619Y-70417428D01*
X46994000Y-70369809D01*
X46970190Y-70298380D01*
X46970190Y-70250761D01*
X46994000Y-70179333D01*
X47017809Y-70155523D01*
X47470190Y-69679333D02*
X47470190Y-69965047D01*
X47470190Y-69822190D02*
X46970190Y-69822190D01*
X47041619Y-69869809D01*
X47089238Y-69917428D01*
X47113047Y-69965047D01*
X46970190Y-69369809D02*
X46970190Y-69322190D01*
X46994000Y-69274571D01*
X47017809Y-69250761D01*
X47065428Y-69226952D01*
X47160666Y-69203142D01*
X47279714Y-69203142D01*
X47374952Y-69226952D01*
X47422571Y-69250761D01*
X47446380Y-69274571D01*
X47470190Y-69322190D01*
X47470190Y-69369809D01*
X47446380Y-69417428D01*
X47422571Y-69441238D01*
X47374952Y-69465047D01*
X47279714Y-69488857D01*
X47160666Y-69488857D01*
X47065428Y-69465047D01*
X47017809Y-69441238D01*
X46994000Y-69417428D01*
X46970190Y-69369809D01*
X47184476Y-68917428D02*
X47160666Y-68965047D01*
X47136857Y-68988857D01*
X47089238Y-69012666D01*
X47065428Y-69012666D01*
X47017809Y-68988857D01*
X46994000Y-68965047D01*
X46970190Y-68917428D01*
X46970190Y-68822190D01*
X46994000Y-68774571D01*
X47017809Y-68750761D01*
X47065428Y-68726952D01*
X47089238Y-68726952D01*
X47136857Y-68750761D01*
X47160666Y-68774571D01*
X47184476Y-68822190D01*
X47184476Y-68917428D01*
X47208285Y-68965047D01*
X47232095Y-68988857D01*
X47279714Y-69012666D01*
X47374952Y-69012666D01*
X47422571Y-68988857D01*
X47446380Y-68965047D01*
X47470190Y-68917428D01*
X47470190Y-68822190D01*
X47446380Y-68774571D01*
X47422571Y-68750761D01*
X47374952Y-68726952D01*
X47279714Y-68726952D01*
X47232095Y-68750761D01*
X47208285Y-68774571D01*
X47184476Y-68822190D01*
D10*
%TO.C,C103*%
X62399380Y-67825857D02*
X62399380Y-68397285D01*
X62399380Y-68111571D02*
X61399380Y-68111571D01*
X61542238Y-68206809D01*
X61637476Y-68302047D01*
X61685095Y-68397285D01*
X61399380Y-67206809D02*
X61399380Y-67111571D01*
X61447000Y-67016333D01*
X61494619Y-66968714D01*
X61589857Y-66921095D01*
X61780333Y-66873476D01*
X62018428Y-66873476D01*
X62208904Y-66921095D01*
X62304142Y-66968714D01*
X62351761Y-67016333D01*
X62399380Y-67111571D01*
X62399380Y-67206809D01*
X62351761Y-67302047D01*
X62304142Y-67349666D01*
X62208904Y-67397285D01*
X62018428Y-67444904D01*
X61780333Y-67444904D01*
X61589857Y-67397285D01*
X61494619Y-67349666D01*
X61447000Y-67302047D01*
X61399380Y-67206809D01*
X61732714Y-66016333D02*
X62399380Y-66016333D01*
X61732714Y-66444904D02*
X62256523Y-66444904D01*
X62351761Y-66397285D01*
X62399380Y-66302047D01*
X62399380Y-66159190D01*
X62351761Y-66063952D01*
X62304142Y-66016333D01*
D11*
X63805571Y-67742523D02*
X63829380Y-67766333D01*
X63853190Y-67837761D01*
X63853190Y-67885380D01*
X63829380Y-67956809D01*
X63781761Y-68004428D01*
X63734142Y-68028238D01*
X63638904Y-68052047D01*
X63567476Y-68052047D01*
X63472238Y-68028238D01*
X63424619Y-68004428D01*
X63377000Y-67956809D01*
X63353190Y-67885380D01*
X63353190Y-67837761D01*
X63377000Y-67766333D01*
X63400809Y-67742523D01*
X63853190Y-67266333D02*
X63853190Y-67552047D01*
X63853190Y-67409190D02*
X63353190Y-67409190D01*
X63424619Y-67456809D01*
X63472238Y-67504428D01*
X63496047Y-67552047D01*
X63353190Y-66956809D02*
X63353190Y-66909190D01*
X63377000Y-66861571D01*
X63400809Y-66837761D01*
X63448428Y-66813952D01*
X63543666Y-66790142D01*
X63662714Y-66790142D01*
X63757952Y-66813952D01*
X63805571Y-66837761D01*
X63829380Y-66861571D01*
X63853190Y-66909190D01*
X63853190Y-66956809D01*
X63829380Y-67004428D01*
X63805571Y-67028238D01*
X63757952Y-67052047D01*
X63662714Y-67075857D01*
X63543666Y-67075857D01*
X63448428Y-67052047D01*
X63400809Y-67028238D01*
X63377000Y-67004428D01*
X63353190Y-66956809D01*
X63353190Y-66623476D02*
X63353190Y-66313952D01*
X63543666Y-66480619D01*
X63543666Y-66409190D01*
X63567476Y-66361571D01*
X63591285Y-66337761D01*
X63638904Y-66313952D01*
X63757952Y-66313952D01*
X63805571Y-66337761D01*
X63829380Y-66361571D01*
X63853190Y-66409190D01*
X63853190Y-66552047D01*
X63829380Y-66599666D01*
X63805571Y-66623476D01*
D10*
%TO.C,R106*%
X52871761Y-71474380D02*
X52300333Y-71474380D01*
X52586047Y-71474380D02*
X52586047Y-70474380D01*
X52490809Y-70617238D01*
X52395571Y-70712476D01*
X52300333Y-70760095D01*
X53490809Y-70474380D02*
X53586047Y-70474380D01*
X53681285Y-70522000D01*
X53728904Y-70569619D01*
X53776523Y-70664857D01*
X53824142Y-70855333D01*
X53824142Y-71093428D01*
X53776523Y-71283904D01*
X53728904Y-71379142D01*
X53681285Y-71426761D01*
X53586047Y-71474380D01*
X53490809Y-71474380D01*
X53395571Y-71426761D01*
X53347952Y-71379142D01*
X53300333Y-71283904D01*
X53252714Y-71093428D01*
X53252714Y-70855333D01*
X53300333Y-70664857D01*
X53347952Y-70569619D01*
X53395571Y-70522000D01*
X53490809Y-70474380D01*
X54252714Y-71474380D02*
X54252714Y-70474380D01*
X54347952Y-71093428D02*
X54633666Y-71474380D01*
X54633666Y-70807714D02*
X54252714Y-71188666D01*
D11*
X52907476Y-69568190D02*
X52740809Y-69330095D01*
X52621761Y-69568190D02*
X52621761Y-69068190D01*
X52812238Y-69068190D01*
X52859857Y-69092000D01*
X52883666Y-69115809D01*
X52907476Y-69163428D01*
X52907476Y-69234857D01*
X52883666Y-69282476D01*
X52859857Y-69306285D01*
X52812238Y-69330095D01*
X52621761Y-69330095D01*
X53383666Y-69568190D02*
X53097952Y-69568190D01*
X53240809Y-69568190D02*
X53240809Y-69068190D01*
X53193190Y-69139619D01*
X53145571Y-69187238D01*
X53097952Y-69211047D01*
X53693190Y-69068190D02*
X53740809Y-69068190D01*
X53788428Y-69092000D01*
X53812238Y-69115809D01*
X53836047Y-69163428D01*
X53859857Y-69258666D01*
X53859857Y-69377714D01*
X53836047Y-69472952D01*
X53812238Y-69520571D01*
X53788428Y-69544380D01*
X53740809Y-69568190D01*
X53693190Y-69568190D01*
X53645571Y-69544380D01*
X53621761Y-69520571D01*
X53597952Y-69472952D01*
X53574142Y-69377714D01*
X53574142Y-69258666D01*
X53597952Y-69163428D01*
X53621761Y-69115809D01*
X53645571Y-69092000D01*
X53693190Y-69068190D01*
X54288428Y-69068190D02*
X54193190Y-69068190D01*
X54145571Y-69092000D01*
X54121761Y-69115809D01*
X54074142Y-69187238D01*
X54050333Y-69282476D01*
X54050333Y-69472952D01*
X54074142Y-69520571D01*
X54097952Y-69544380D01*
X54145571Y-69568190D01*
X54240809Y-69568190D01*
X54288428Y-69544380D01*
X54312238Y-69520571D01*
X54336047Y-69472952D01*
X54336047Y-69353904D01*
X54312238Y-69306285D01*
X54288428Y-69282476D01*
X54240809Y-69258666D01*
X54145571Y-69258666D01*
X54097952Y-69282476D01*
X54074142Y-69306285D01*
X54050333Y-69353904D01*
D10*
%TO.C,J107*%
X35187666Y-47894142D02*
X35140047Y-47941761D01*
X34997190Y-47989380D01*
X34901952Y-47989380D01*
X34759095Y-47941761D01*
X34663857Y-47846523D01*
X34616238Y-47751285D01*
X34568619Y-47560809D01*
X34568619Y-47417952D01*
X34616238Y-47227476D01*
X34663857Y-47132238D01*
X34759095Y-47037000D01*
X34901952Y-46989380D01*
X34997190Y-46989380D01*
X35140047Y-47037000D01*
X35187666Y-47084619D01*
X35759095Y-47989380D02*
X35663857Y-47941761D01*
X35616238Y-47894142D01*
X35568619Y-47798904D01*
X35568619Y-47513190D01*
X35616238Y-47417952D01*
X35663857Y-47370333D01*
X35759095Y-47322714D01*
X35901952Y-47322714D01*
X35997190Y-47370333D01*
X36044809Y-47417952D01*
X36092428Y-47513190D01*
X36092428Y-47798904D01*
X36044809Y-47894142D01*
X35997190Y-47941761D01*
X35901952Y-47989380D01*
X35759095Y-47989380D01*
X36521000Y-47322714D02*
X36521000Y-47989380D01*
X36521000Y-47417952D02*
X36568619Y-47370333D01*
X36663857Y-47322714D01*
X36806714Y-47322714D01*
X36901952Y-47370333D01*
X36949571Y-47465571D01*
X36949571Y-47989380D01*
X37425761Y-47322714D02*
X37425761Y-47989380D01*
X37425761Y-47417952D02*
X37473380Y-47370333D01*
X37568619Y-47322714D01*
X37711476Y-47322714D01*
X37806714Y-47370333D01*
X37854333Y-47465571D01*
X37854333Y-47989380D01*
X38092428Y-48084619D02*
X38854333Y-48084619D01*
X39282904Y-46989380D02*
X39378142Y-46989380D01*
X39473380Y-47037000D01*
X39521000Y-47084619D01*
X39568619Y-47179857D01*
X39616238Y-47370333D01*
X39616238Y-47608428D01*
X39568619Y-47798904D01*
X39521000Y-47894142D01*
X39473380Y-47941761D01*
X39378142Y-47989380D01*
X39282904Y-47989380D01*
X39187666Y-47941761D01*
X39140047Y-47894142D01*
X39092428Y-47798904D01*
X39044809Y-47608428D01*
X39044809Y-47370333D01*
X39092428Y-47179857D01*
X39140047Y-47084619D01*
X39187666Y-47037000D01*
X39282904Y-46989380D01*
X40568619Y-47989380D02*
X39997190Y-47989380D01*
X40282904Y-47989380D02*
X40282904Y-46989380D01*
X40187666Y-47132238D01*
X40092428Y-47227476D01*
X39997190Y-47275095D01*
X40901952Y-47989380D02*
X41425761Y-47322714D01*
X40901952Y-47322714D02*
X41425761Y-47989380D01*
X41997190Y-46989380D02*
X42092428Y-46989380D01*
X42187666Y-47037000D01*
X42235285Y-47084619D01*
X42282904Y-47179857D01*
X42330523Y-47370333D01*
X42330523Y-47608428D01*
X42282904Y-47798904D01*
X42235285Y-47894142D01*
X42187666Y-47941761D01*
X42092428Y-47989380D01*
X41997190Y-47989380D01*
X41901952Y-47941761D01*
X41854333Y-47894142D01*
X41806714Y-47798904D01*
X41759095Y-47608428D01*
X41759095Y-47370333D01*
X41806714Y-47179857D01*
X41854333Y-47084619D01*
X41901952Y-47037000D01*
X41997190Y-46989380D01*
X42711476Y-47084619D02*
X42759095Y-47037000D01*
X42854333Y-46989380D01*
X43092428Y-46989380D01*
X43187666Y-47037000D01*
X43235285Y-47084619D01*
X43282904Y-47179857D01*
X43282904Y-47275095D01*
X43235285Y-47417952D01*
X42663857Y-47989380D01*
X43282904Y-47989380D01*
X43473380Y-48084619D02*
X44235285Y-48084619D01*
X44473380Y-47989380D02*
X44473380Y-46989380D01*
X44806714Y-47703666D01*
X45140047Y-46989380D01*
X45140047Y-47989380D01*
X46044809Y-47989380D02*
X46044809Y-47465571D01*
X45997190Y-47370333D01*
X45901952Y-47322714D01*
X45711476Y-47322714D01*
X45616238Y-47370333D01*
X46044809Y-47941761D02*
X45949571Y-47989380D01*
X45711476Y-47989380D01*
X45616238Y-47941761D01*
X45568619Y-47846523D01*
X45568619Y-47751285D01*
X45616238Y-47656047D01*
X45711476Y-47608428D01*
X45949571Y-47608428D01*
X46044809Y-47560809D01*
X46663857Y-47989380D02*
X46568619Y-47941761D01*
X46521000Y-47846523D01*
X46521000Y-46989380D01*
X47425761Y-47941761D02*
X47330523Y-47989380D01*
X47140047Y-47989380D01*
X47044809Y-47941761D01*
X46997190Y-47846523D01*
X46997190Y-47465571D01*
X47044809Y-47370333D01*
X47140047Y-47322714D01*
X47330523Y-47322714D01*
X47425761Y-47370333D01*
X47473380Y-47465571D01*
X47473380Y-47560809D01*
X46997190Y-47656047D01*
X40473380Y-45222714D02*
X41187666Y-45222714D01*
X41330523Y-45270333D01*
X41425761Y-45365571D01*
X41473380Y-45508428D01*
X41473380Y-45603666D01*
X41473380Y-44222714D02*
X41473380Y-44794142D01*
X41473380Y-44508428D02*
X40473380Y-44508428D01*
X40616238Y-44603666D01*
X40711476Y-44698904D01*
X40759095Y-44794142D01*
X40473380Y-43603666D02*
X40473380Y-43508428D01*
X40521000Y-43413190D01*
X40568619Y-43365571D01*
X40663857Y-43317952D01*
X40854333Y-43270333D01*
X41092428Y-43270333D01*
X41282904Y-43317952D01*
X41378142Y-43365571D01*
X41425761Y-43413190D01*
X41473380Y-43508428D01*
X41473380Y-43603666D01*
X41425761Y-43698904D01*
X41378142Y-43746523D01*
X41282904Y-43794142D01*
X41092428Y-43841761D01*
X40854333Y-43841761D01*
X40663857Y-43794142D01*
X40568619Y-43746523D01*
X40521000Y-43698904D01*
X40473380Y-43603666D01*
X40473380Y-42937000D02*
X40473380Y-42270333D01*
X41473380Y-42698904D01*
%TO.C,J109*%
X38489666Y-76342142D02*
X38442047Y-76389761D01*
X38299190Y-76437380D01*
X38203952Y-76437380D01*
X38061095Y-76389761D01*
X37965857Y-76294523D01*
X37918238Y-76199285D01*
X37870619Y-76008809D01*
X37870619Y-75865952D01*
X37918238Y-75675476D01*
X37965857Y-75580238D01*
X38061095Y-75485000D01*
X38203952Y-75437380D01*
X38299190Y-75437380D01*
X38442047Y-75485000D01*
X38489666Y-75532619D01*
X39061095Y-76437380D02*
X38965857Y-76389761D01*
X38918238Y-76342142D01*
X38870619Y-76246904D01*
X38870619Y-75961190D01*
X38918238Y-75865952D01*
X38965857Y-75818333D01*
X39061095Y-75770714D01*
X39203952Y-75770714D01*
X39299190Y-75818333D01*
X39346809Y-75865952D01*
X39394428Y-75961190D01*
X39394428Y-76246904D01*
X39346809Y-76342142D01*
X39299190Y-76389761D01*
X39203952Y-76437380D01*
X39061095Y-76437380D01*
X39823000Y-75770714D02*
X39823000Y-76437380D01*
X39823000Y-75865952D02*
X39870619Y-75818333D01*
X39965857Y-75770714D01*
X40108714Y-75770714D01*
X40203952Y-75818333D01*
X40251571Y-75913571D01*
X40251571Y-76437380D01*
X40727761Y-75770714D02*
X40727761Y-76437380D01*
X40727761Y-75865952D02*
X40775380Y-75818333D01*
X40870619Y-75770714D01*
X41013476Y-75770714D01*
X41108714Y-75818333D01*
X41156333Y-75913571D01*
X41156333Y-76437380D01*
X41394428Y-76532619D02*
X42156333Y-76532619D01*
X42584904Y-75437380D02*
X42680142Y-75437380D01*
X42775380Y-75485000D01*
X42823000Y-75532619D01*
X42870619Y-75627857D01*
X42918238Y-75818333D01*
X42918238Y-76056428D01*
X42870619Y-76246904D01*
X42823000Y-76342142D01*
X42775380Y-76389761D01*
X42680142Y-76437380D01*
X42584904Y-76437380D01*
X42489666Y-76389761D01*
X42442047Y-76342142D01*
X42394428Y-76246904D01*
X42346809Y-76056428D01*
X42346809Y-75818333D01*
X42394428Y-75627857D01*
X42442047Y-75532619D01*
X42489666Y-75485000D01*
X42584904Y-75437380D01*
X43870619Y-76437380D02*
X43299190Y-76437380D01*
X43584904Y-76437380D02*
X43584904Y-75437380D01*
X43489666Y-75580238D01*
X43394428Y-75675476D01*
X43299190Y-75723095D01*
X44203952Y-76437380D02*
X44727761Y-75770714D01*
X44203952Y-75770714D02*
X44727761Y-76437380D01*
X45299190Y-75437380D02*
X45394428Y-75437380D01*
X45489666Y-75485000D01*
X45537285Y-75532619D01*
X45584904Y-75627857D01*
X45632523Y-75818333D01*
X45632523Y-76056428D01*
X45584904Y-76246904D01*
X45537285Y-76342142D01*
X45489666Y-76389761D01*
X45394428Y-76437380D01*
X45299190Y-76437380D01*
X45203952Y-76389761D01*
X45156333Y-76342142D01*
X45108714Y-76246904D01*
X45061095Y-76056428D01*
X45061095Y-75818333D01*
X45108714Y-75627857D01*
X45156333Y-75532619D01*
X45203952Y-75485000D01*
X45299190Y-75437380D01*
X46013476Y-75532619D02*
X46061095Y-75485000D01*
X46156333Y-75437380D01*
X46394428Y-75437380D01*
X46489666Y-75485000D01*
X46537285Y-75532619D01*
X46584904Y-75627857D01*
X46584904Y-75723095D01*
X46537285Y-75865952D01*
X45965857Y-76437380D01*
X46584904Y-76437380D01*
X46775380Y-76532619D02*
X47537285Y-76532619D01*
X47775380Y-76437380D02*
X47775380Y-75437380D01*
X48108714Y-76151666D01*
X48442047Y-75437380D01*
X48442047Y-76437380D01*
X49346809Y-76437380D02*
X49346809Y-75913571D01*
X49299190Y-75818333D01*
X49203952Y-75770714D01*
X49013476Y-75770714D01*
X48918238Y-75818333D01*
X49346809Y-76389761D02*
X49251571Y-76437380D01*
X49013476Y-76437380D01*
X48918238Y-76389761D01*
X48870619Y-76294523D01*
X48870619Y-76199285D01*
X48918238Y-76104047D01*
X49013476Y-76056428D01*
X49251571Y-76056428D01*
X49346809Y-76008809D01*
X49965857Y-76437380D02*
X49870619Y-76389761D01*
X49823000Y-76294523D01*
X49823000Y-75437380D01*
X50727761Y-76389761D02*
X50632523Y-76437380D01*
X50442047Y-76437380D01*
X50346809Y-76389761D01*
X50299190Y-76294523D01*
X50299190Y-75913571D01*
X50346809Y-75818333D01*
X50442047Y-75770714D01*
X50632523Y-75770714D01*
X50727761Y-75818333D01*
X50775380Y-75913571D01*
X50775380Y-76008809D01*
X50299190Y-76104047D01*
X43775380Y-73670714D02*
X44489666Y-73670714D01*
X44632523Y-73718333D01*
X44727761Y-73813571D01*
X44775380Y-73956428D01*
X44775380Y-74051666D01*
X44775380Y-72670714D02*
X44775380Y-73242142D01*
X44775380Y-72956428D02*
X43775380Y-72956428D01*
X43918238Y-73051666D01*
X44013476Y-73146904D01*
X44061095Y-73242142D01*
X43775380Y-72051666D02*
X43775380Y-71956428D01*
X43823000Y-71861190D01*
X43870619Y-71813571D01*
X43965857Y-71765952D01*
X44156333Y-71718333D01*
X44394428Y-71718333D01*
X44584904Y-71765952D01*
X44680142Y-71813571D01*
X44727761Y-71861190D01*
X44775380Y-71956428D01*
X44775380Y-72051666D01*
X44727761Y-72146904D01*
X44680142Y-72194523D01*
X44584904Y-72242142D01*
X44394428Y-72289761D01*
X44156333Y-72289761D01*
X43965857Y-72242142D01*
X43870619Y-72194523D01*
X43823000Y-72146904D01*
X43775380Y-72051666D01*
X44775380Y-71242142D02*
X44775380Y-71051666D01*
X44727761Y-70956428D01*
X44680142Y-70908809D01*
X44537285Y-70813571D01*
X44346809Y-70765952D01*
X43965857Y-70765952D01*
X43870619Y-70813571D01*
X43823000Y-70861190D01*
X43775380Y-70956428D01*
X43775380Y-71146904D01*
X43823000Y-71242142D01*
X43870619Y-71289761D01*
X43965857Y-71337380D01*
X44203952Y-71337380D01*
X44299190Y-71289761D01*
X44346809Y-71242142D01*
X44394428Y-71146904D01*
X44394428Y-70956428D01*
X44346809Y-70861190D01*
X44299190Y-70813571D01*
X44203952Y-70765952D01*
%TO.C,J104*%
X57158666Y-45867142D02*
X57111047Y-45914761D01*
X56968190Y-45962380D01*
X56872952Y-45962380D01*
X56730095Y-45914761D01*
X56634857Y-45819523D01*
X56587238Y-45724285D01*
X56539619Y-45533809D01*
X56539619Y-45390952D01*
X56587238Y-45200476D01*
X56634857Y-45105238D01*
X56730095Y-45010000D01*
X56872952Y-44962380D01*
X56968190Y-44962380D01*
X57111047Y-45010000D01*
X57158666Y-45057619D01*
X57730095Y-45962380D02*
X57634857Y-45914761D01*
X57587238Y-45867142D01*
X57539619Y-45771904D01*
X57539619Y-45486190D01*
X57587238Y-45390952D01*
X57634857Y-45343333D01*
X57730095Y-45295714D01*
X57872952Y-45295714D01*
X57968190Y-45343333D01*
X58015809Y-45390952D01*
X58063428Y-45486190D01*
X58063428Y-45771904D01*
X58015809Y-45867142D01*
X57968190Y-45914761D01*
X57872952Y-45962380D01*
X57730095Y-45962380D01*
X58492000Y-45295714D02*
X58492000Y-45962380D01*
X58492000Y-45390952D02*
X58539619Y-45343333D01*
X58634857Y-45295714D01*
X58777714Y-45295714D01*
X58872952Y-45343333D01*
X58920571Y-45438571D01*
X58920571Y-45962380D01*
X59396761Y-45295714D02*
X59396761Y-45962380D01*
X59396761Y-45390952D02*
X59444380Y-45343333D01*
X59539619Y-45295714D01*
X59682476Y-45295714D01*
X59777714Y-45343333D01*
X59825333Y-45438571D01*
X59825333Y-45962380D01*
X60063428Y-46057619D02*
X60825333Y-46057619D01*
X61253904Y-44962380D02*
X61349142Y-44962380D01*
X61444380Y-45010000D01*
X61492000Y-45057619D01*
X61539619Y-45152857D01*
X61587238Y-45343333D01*
X61587238Y-45581428D01*
X61539619Y-45771904D01*
X61492000Y-45867142D01*
X61444380Y-45914761D01*
X61349142Y-45962380D01*
X61253904Y-45962380D01*
X61158666Y-45914761D01*
X61111047Y-45867142D01*
X61063428Y-45771904D01*
X61015809Y-45581428D01*
X61015809Y-45343333D01*
X61063428Y-45152857D01*
X61111047Y-45057619D01*
X61158666Y-45010000D01*
X61253904Y-44962380D01*
X62539619Y-45962380D02*
X61968190Y-45962380D01*
X62253904Y-45962380D02*
X62253904Y-44962380D01*
X62158666Y-45105238D01*
X62063428Y-45200476D01*
X61968190Y-45248095D01*
X62872952Y-45962380D02*
X63396761Y-45295714D01*
X62872952Y-45295714D02*
X63396761Y-45962380D01*
X63968190Y-44962380D02*
X64063428Y-44962380D01*
X64158666Y-45010000D01*
X64206285Y-45057619D01*
X64253904Y-45152857D01*
X64301523Y-45343333D01*
X64301523Y-45581428D01*
X64253904Y-45771904D01*
X64206285Y-45867142D01*
X64158666Y-45914761D01*
X64063428Y-45962380D01*
X63968190Y-45962380D01*
X63872952Y-45914761D01*
X63825333Y-45867142D01*
X63777714Y-45771904D01*
X63730095Y-45581428D01*
X63730095Y-45343333D01*
X63777714Y-45152857D01*
X63825333Y-45057619D01*
X63872952Y-45010000D01*
X63968190Y-44962380D01*
X64682476Y-45057619D02*
X64730095Y-45010000D01*
X64825333Y-44962380D01*
X65063428Y-44962380D01*
X65158666Y-45010000D01*
X65206285Y-45057619D01*
X65253904Y-45152857D01*
X65253904Y-45248095D01*
X65206285Y-45390952D01*
X64634857Y-45962380D01*
X65253904Y-45962380D01*
X65444380Y-46057619D02*
X66206285Y-46057619D01*
X66444380Y-45962380D02*
X66444380Y-44962380D01*
X66777714Y-45676666D01*
X67111047Y-44962380D01*
X67111047Y-45962380D01*
X68015809Y-45962380D02*
X68015809Y-45438571D01*
X67968190Y-45343333D01*
X67872952Y-45295714D01*
X67682476Y-45295714D01*
X67587238Y-45343333D01*
X68015809Y-45914761D02*
X67920571Y-45962380D01*
X67682476Y-45962380D01*
X67587238Y-45914761D01*
X67539619Y-45819523D01*
X67539619Y-45724285D01*
X67587238Y-45629047D01*
X67682476Y-45581428D01*
X67920571Y-45581428D01*
X68015809Y-45533809D01*
X68634857Y-45962380D02*
X68539619Y-45914761D01*
X68492000Y-45819523D01*
X68492000Y-44962380D01*
X69396761Y-45914761D02*
X69301523Y-45962380D01*
X69111047Y-45962380D01*
X69015809Y-45914761D01*
X68968190Y-45819523D01*
X68968190Y-45438571D01*
X69015809Y-45343333D01*
X69111047Y-45295714D01*
X69301523Y-45295714D01*
X69396761Y-45343333D01*
X69444380Y-45438571D01*
X69444380Y-45533809D01*
X68968190Y-45629047D01*
X62444380Y-43195714D02*
X63158666Y-43195714D01*
X63301523Y-43243333D01*
X63396761Y-43338571D01*
X63444380Y-43481428D01*
X63444380Y-43576666D01*
X63444380Y-42195714D02*
X63444380Y-42767142D01*
X63444380Y-42481428D02*
X62444380Y-42481428D01*
X62587238Y-42576666D01*
X62682476Y-42671904D01*
X62730095Y-42767142D01*
X62444380Y-41576666D02*
X62444380Y-41481428D01*
X62492000Y-41386190D01*
X62539619Y-41338571D01*
X62634857Y-41290952D01*
X62825333Y-41243333D01*
X63063428Y-41243333D01*
X63253904Y-41290952D01*
X63349142Y-41338571D01*
X63396761Y-41386190D01*
X63444380Y-41481428D01*
X63444380Y-41576666D01*
X63396761Y-41671904D01*
X63349142Y-41719523D01*
X63253904Y-41767142D01*
X63063428Y-41814761D01*
X62825333Y-41814761D01*
X62634857Y-41767142D01*
X62539619Y-41719523D01*
X62492000Y-41671904D01*
X62444380Y-41576666D01*
X62777714Y-40386190D02*
X63444380Y-40386190D01*
X62396761Y-40624285D02*
X63111047Y-40862380D01*
X63111047Y-40243333D01*
%TO.C,RV101*%
X45270380Y-71386904D02*
X44794190Y-71720238D01*
X45270380Y-71958333D02*
X44270380Y-71958333D01*
X44270380Y-71577380D01*
X44318000Y-71482142D01*
X44365619Y-71434523D01*
X44460857Y-71386904D01*
X44603714Y-71386904D01*
X44698952Y-71434523D01*
X44746571Y-71482142D01*
X44794190Y-71577380D01*
X44794190Y-71958333D01*
X45365619Y-71196428D02*
X45365619Y-70434523D01*
X45270380Y-70196428D02*
X44270380Y-70196428D01*
X44270380Y-69815476D01*
X44318000Y-69720238D01*
X44365619Y-69672619D01*
X44460857Y-69625000D01*
X44603714Y-69625000D01*
X44698952Y-69672619D01*
X44746571Y-69720238D01*
X44794190Y-69815476D01*
X44794190Y-70196428D01*
X45270380Y-69053571D02*
X45222761Y-69148809D01*
X45175142Y-69196428D01*
X45079904Y-69244047D01*
X44794190Y-69244047D01*
X44698952Y-69196428D01*
X44651333Y-69148809D01*
X44603714Y-69053571D01*
X44603714Y-68910714D01*
X44651333Y-68815476D01*
X44698952Y-68767857D01*
X44794190Y-68720238D01*
X45079904Y-68720238D01*
X45175142Y-68767857D01*
X45222761Y-68815476D01*
X45270380Y-68910714D01*
X45270380Y-69053571D01*
X44603714Y-68434523D02*
X44603714Y-68053571D01*
X44270380Y-68291666D02*
X45127523Y-68291666D01*
X45222761Y-68244047D01*
X45270380Y-68148809D01*
X45270380Y-68053571D01*
X45222761Y-67339285D02*
X45270380Y-67434523D01*
X45270380Y-67625000D01*
X45222761Y-67720238D01*
X45127523Y-67767857D01*
X44746571Y-67767857D01*
X44651333Y-67720238D01*
X44603714Y-67625000D01*
X44603714Y-67434523D01*
X44651333Y-67339285D01*
X44746571Y-67291666D01*
X44841809Y-67291666D01*
X44937047Y-67767857D01*
X44603714Y-66863095D02*
X45270380Y-66863095D01*
X44698952Y-66863095D02*
X44651333Y-66815476D01*
X44603714Y-66720238D01*
X44603714Y-66577380D01*
X44651333Y-66482142D01*
X44746571Y-66434523D01*
X45270380Y-66434523D01*
X44603714Y-66101190D02*
X44603714Y-65720238D01*
X44270380Y-65958333D02*
X45127523Y-65958333D01*
X45222761Y-65910714D01*
X45270380Y-65815476D01*
X45270380Y-65720238D01*
X45270380Y-65386904D02*
X44603714Y-65386904D01*
X44270380Y-65386904D02*
X44318000Y-65434523D01*
X44365619Y-65386904D01*
X44318000Y-65339285D01*
X44270380Y-65386904D01*
X44365619Y-65386904D01*
X45270380Y-64767857D02*
X45222761Y-64863095D01*
X45175142Y-64910714D01*
X45079904Y-64958333D01*
X44794190Y-64958333D01*
X44698952Y-64910714D01*
X44651333Y-64863095D01*
X44603714Y-64767857D01*
X44603714Y-64625000D01*
X44651333Y-64529761D01*
X44698952Y-64482142D01*
X44794190Y-64434523D01*
X45079904Y-64434523D01*
X45175142Y-64482142D01*
X45222761Y-64529761D01*
X45270380Y-64625000D01*
X45270380Y-64767857D01*
X45270380Y-64005952D02*
X44603714Y-64005952D01*
X44698952Y-64005952D02*
X44651333Y-63958333D01*
X44603714Y-63863095D01*
X44603714Y-63720238D01*
X44651333Y-63625000D01*
X44746571Y-63577380D01*
X45270380Y-63577380D01*
X44746571Y-63577380D02*
X44651333Y-63529761D01*
X44603714Y-63434523D01*
X44603714Y-63291666D01*
X44651333Y-63196428D01*
X44746571Y-63148809D01*
X45270380Y-63148809D01*
X45222761Y-62291666D02*
X45270380Y-62386904D01*
X45270380Y-62577380D01*
X45222761Y-62672619D01*
X45127523Y-62720238D01*
X44746571Y-62720238D01*
X44651333Y-62672619D01*
X44603714Y-62577380D01*
X44603714Y-62386904D01*
X44651333Y-62291666D01*
X44746571Y-62244047D01*
X44841809Y-62244047D01*
X44937047Y-62720238D01*
X44603714Y-61958333D02*
X44603714Y-61577380D01*
X44270380Y-61815476D02*
X45127523Y-61815476D01*
X45222761Y-61767857D01*
X45270380Y-61672619D01*
X45270380Y-61577380D01*
X45222761Y-60863095D02*
X45270380Y-60958333D01*
X45270380Y-61148809D01*
X45222761Y-61244047D01*
X45127523Y-61291666D01*
X44746571Y-61291666D01*
X44651333Y-61244047D01*
X44603714Y-61148809D01*
X44603714Y-60958333D01*
X44651333Y-60863095D01*
X44746571Y-60815476D01*
X44841809Y-60815476D01*
X44937047Y-61291666D01*
X45270380Y-60386904D02*
X44603714Y-60386904D01*
X44794190Y-60386904D02*
X44698952Y-60339285D01*
X44651333Y-60291666D01*
X44603714Y-60196428D01*
X44603714Y-60101190D01*
X45365619Y-60005952D02*
X45365619Y-59244047D01*
X44270380Y-59148809D02*
X44270380Y-58577380D01*
X45270380Y-58863095D02*
X44270380Y-58863095D01*
X45270380Y-58244047D02*
X44603714Y-58244047D01*
X44794190Y-58244047D02*
X44698952Y-58196428D01*
X44651333Y-58148809D01*
X44603714Y-58053571D01*
X44603714Y-57958333D01*
X45270380Y-57625000D02*
X44603714Y-57625000D01*
X44270380Y-57625000D02*
X44318000Y-57672619D01*
X44365619Y-57625000D01*
X44318000Y-57577380D01*
X44270380Y-57625000D01*
X44365619Y-57625000D01*
X45270380Y-57148809D02*
X44603714Y-57148809D01*
X44698952Y-57148809D02*
X44651333Y-57101190D01*
X44603714Y-57005952D01*
X44603714Y-56863095D01*
X44651333Y-56767857D01*
X44746571Y-56720238D01*
X45270380Y-56720238D01*
X44746571Y-56720238D02*
X44651333Y-56672619D01*
X44603714Y-56577380D01*
X44603714Y-56434523D01*
X44651333Y-56339285D01*
X44746571Y-56291666D01*
X45270380Y-56291666D01*
X41605380Y-66307619D02*
X41129190Y-66640952D01*
X41605380Y-66879047D02*
X40605380Y-66879047D01*
X40605380Y-66498095D01*
X40653000Y-66402857D01*
X40700619Y-66355238D01*
X40795857Y-66307619D01*
X40938714Y-66307619D01*
X41033952Y-66355238D01*
X41081571Y-66402857D01*
X41129190Y-66498095D01*
X41129190Y-66879047D01*
X40605380Y-66021904D02*
X41605380Y-65688571D01*
X40605380Y-65355238D01*
X41605380Y-64498095D02*
X41605380Y-65069523D01*
X41605380Y-64783809D02*
X40605380Y-64783809D01*
X40748238Y-64879047D01*
X40843476Y-64974285D01*
X40891095Y-65069523D01*
X40605380Y-63879047D02*
X40605380Y-63783809D01*
X40653000Y-63688571D01*
X40700619Y-63640952D01*
X40795857Y-63593333D01*
X40986333Y-63545714D01*
X41224428Y-63545714D01*
X41414904Y-63593333D01*
X41510142Y-63640952D01*
X41557761Y-63688571D01*
X41605380Y-63783809D01*
X41605380Y-63879047D01*
X41557761Y-63974285D01*
X41510142Y-64021904D01*
X41414904Y-64069523D01*
X41224428Y-64117142D01*
X40986333Y-64117142D01*
X40795857Y-64069523D01*
X40700619Y-64021904D01*
X40653000Y-63974285D01*
X40605380Y-63879047D01*
X41605380Y-62593333D02*
X41605380Y-63164761D01*
X41605380Y-62879047D02*
X40605380Y-62879047D01*
X40748238Y-62974285D01*
X40843476Y-63069523D01*
X40891095Y-63164761D01*
%TO.C,J108*%
X53475666Y-45862142D02*
X53428047Y-45909761D01*
X53285190Y-45957380D01*
X53189952Y-45957380D01*
X53047095Y-45909761D01*
X52951857Y-45814523D01*
X52904238Y-45719285D01*
X52856619Y-45528809D01*
X52856619Y-45385952D01*
X52904238Y-45195476D01*
X52951857Y-45100238D01*
X53047095Y-45005000D01*
X53189952Y-44957380D01*
X53285190Y-44957380D01*
X53428047Y-45005000D01*
X53475666Y-45052619D01*
X54047095Y-45957380D02*
X53951857Y-45909761D01*
X53904238Y-45862142D01*
X53856619Y-45766904D01*
X53856619Y-45481190D01*
X53904238Y-45385952D01*
X53951857Y-45338333D01*
X54047095Y-45290714D01*
X54189952Y-45290714D01*
X54285190Y-45338333D01*
X54332809Y-45385952D01*
X54380428Y-45481190D01*
X54380428Y-45766904D01*
X54332809Y-45862142D01*
X54285190Y-45909761D01*
X54189952Y-45957380D01*
X54047095Y-45957380D01*
X54809000Y-45290714D02*
X54809000Y-45957380D01*
X54809000Y-45385952D02*
X54856619Y-45338333D01*
X54951857Y-45290714D01*
X55094714Y-45290714D01*
X55189952Y-45338333D01*
X55237571Y-45433571D01*
X55237571Y-45957380D01*
X55713761Y-45290714D02*
X55713761Y-45957380D01*
X55713761Y-45385952D02*
X55761380Y-45338333D01*
X55856619Y-45290714D01*
X55999476Y-45290714D01*
X56094714Y-45338333D01*
X56142333Y-45433571D01*
X56142333Y-45957380D01*
X56380428Y-46052619D02*
X57142333Y-46052619D01*
X57570904Y-44957380D02*
X57666142Y-44957380D01*
X57761380Y-45005000D01*
X57809000Y-45052619D01*
X57856619Y-45147857D01*
X57904238Y-45338333D01*
X57904238Y-45576428D01*
X57856619Y-45766904D01*
X57809000Y-45862142D01*
X57761380Y-45909761D01*
X57666142Y-45957380D01*
X57570904Y-45957380D01*
X57475666Y-45909761D01*
X57428047Y-45862142D01*
X57380428Y-45766904D01*
X57332809Y-45576428D01*
X57332809Y-45338333D01*
X57380428Y-45147857D01*
X57428047Y-45052619D01*
X57475666Y-45005000D01*
X57570904Y-44957380D01*
X58856619Y-45957380D02*
X58285190Y-45957380D01*
X58570904Y-45957380D02*
X58570904Y-44957380D01*
X58475666Y-45100238D01*
X58380428Y-45195476D01*
X58285190Y-45243095D01*
X59189952Y-45957380D02*
X59713761Y-45290714D01*
X59189952Y-45290714D02*
X59713761Y-45957380D01*
X60285190Y-44957380D02*
X60380428Y-44957380D01*
X60475666Y-45005000D01*
X60523285Y-45052619D01*
X60570904Y-45147857D01*
X60618523Y-45338333D01*
X60618523Y-45576428D01*
X60570904Y-45766904D01*
X60523285Y-45862142D01*
X60475666Y-45909761D01*
X60380428Y-45957380D01*
X60285190Y-45957380D01*
X60189952Y-45909761D01*
X60142333Y-45862142D01*
X60094714Y-45766904D01*
X60047095Y-45576428D01*
X60047095Y-45338333D01*
X60094714Y-45147857D01*
X60142333Y-45052619D01*
X60189952Y-45005000D01*
X60285190Y-44957380D01*
X60999476Y-45052619D02*
X61047095Y-45005000D01*
X61142333Y-44957380D01*
X61380428Y-44957380D01*
X61475666Y-45005000D01*
X61523285Y-45052619D01*
X61570904Y-45147857D01*
X61570904Y-45243095D01*
X61523285Y-45385952D01*
X60951857Y-45957380D01*
X61570904Y-45957380D01*
X61761380Y-46052619D02*
X62523285Y-46052619D01*
X62761380Y-45957380D02*
X62761380Y-44957380D01*
X63094714Y-45671666D01*
X63428047Y-44957380D01*
X63428047Y-45957380D01*
X64332809Y-45957380D02*
X64332809Y-45433571D01*
X64285190Y-45338333D01*
X64189952Y-45290714D01*
X63999476Y-45290714D01*
X63904238Y-45338333D01*
X64332809Y-45909761D02*
X64237571Y-45957380D01*
X63999476Y-45957380D01*
X63904238Y-45909761D01*
X63856619Y-45814523D01*
X63856619Y-45719285D01*
X63904238Y-45624047D01*
X63999476Y-45576428D01*
X64237571Y-45576428D01*
X64332809Y-45528809D01*
X64951857Y-45957380D02*
X64856619Y-45909761D01*
X64809000Y-45814523D01*
X64809000Y-44957380D01*
X65713761Y-45909761D02*
X65618523Y-45957380D01*
X65428047Y-45957380D01*
X65332809Y-45909761D01*
X65285190Y-45814523D01*
X65285190Y-45433571D01*
X65332809Y-45338333D01*
X65428047Y-45290714D01*
X65618523Y-45290714D01*
X65713761Y-45338333D01*
X65761380Y-45433571D01*
X65761380Y-45528809D01*
X65285190Y-45624047D01*
X58761380Y-43190714D02*
X59475666Y-43190714D01*
X59618523Y-43238333D01*
X59713761Y-43333571D01*
X59761380Y-43476428D01*
X59761380Y-43571666D01*
X59761380Y-42190714D02*
X59761380Y-42762142D01*
X59761380Y-42476428D02*
X58761380Y-42476428D01*
X58904238Y-42571666D01*
X58999476Y-42666904D01*
X59047095Y-42762142D01*
X58761380Y-41571666D02*
X58761380Y-41476428D01*
X58809000Y-41381190D01*
X58856619Y-41333571D01*
X58951857Y-41285952D01*
X59142333Y-41238333D01*
X59380428Y-41238333D01*
X59570904Y-41285952D01*
X59666142Y-41333571D01*
X59713761Y-41381190D01*
X59761380Y-41476428D01*
X59761380Y-41571666D01*
X59713761Y-41666904D01*
X59666142Y-41714523D01*
X59570904Y-41762142D01*
X59380428Y-41809761D01*
X59142333Y-41809761D01*
X58951857Y-41762142D01*
X58856619Y-41714523D01*
X58809000Y-41666904D01*
X58761380Y-41571666D01*
X59189952Y-40666904D02*
X59142333Y-40762142D01*
X59094714Y-40809761D01*
X58999476Y-40857380D01*
X58951857Y-40857380D01*
X58856619Y-40809761D01*
X58809000Y-40762142D01*
X58761380Y-40666904D01*
X58761380Y-40476428D01*
X58809000Y-40381190D01*
X58856619Y-40333571D01*
X58951857Y-40285952D01*
X58999476Y-40285952D01*
X59094714Y-40333571D01*
X59142333Y-40381190D01*
X59189952Y-40476428D01*
X59189952Y-40666904D01*
X59237571Y-40762142D01*
X59285190Y-40809761D01*
X59380428Y-40857380D01*
X59570904Y-40857380D01*
X59666142Y-40809761D01*
X59713761Y-40762142D01*
X59761380Y-40666904D01*
X59761380Y-40476428D01*
X59713761Y-40381190D01*
X59666142Y-40333571D01*
X59570904Y-40285952D01*
X59380428Y-40285952D01*
X59285190Y-40333571D01*
X59237571Y-40381190D01*
X59189952Y-40476428D01*
%TO.C,R105*%
X59666333Y-64288619D02*
X59713952Y-64241000D01*
X59809190Y-64193380D01*
X60047285Y-64193380D01*
X60142523Y-64241000D01*
X60190142Y-64288619D01*
X60237761Y-64383857D01*
X60237761Y-64479095D01*
X60190142Y-64621952D01*
X59618714Y-65193380D01*
X60237761Y-65193380D01*
X60618714Y-64288619D02*
X60666333Y-64241000D01*
X60761571Y-64193380D01*
X60999666Y-64193380D01*
X61094904Y-64241000D01*
X61142523Y-64288619D01*
X61190142Y-64383857D01*
X61190142Y-64479095D01*
X61142523Y-64621952D01*
X60571095Y-65193380D01*
X61190142Y-65193380D01*
X61618714Y-65193380D02*
X61618714Y-64193380D01*
X61713952Y-64812428D02*
X61999666Y-65193380D01*
X61999666Y-64526714D02*
X61618714Y-64907666D01*
D11*
X60273476Y-66647190D02*
X60106809Y-66409095D01*
X59987761Y-66647190D02*
X59987761Y-66147190D01*
X60178238Y-66147190D01*
X60225857Y-66171000D01*
X60249666Y-66194809D01*
X60273476Y-66242428D01*
X60273476Y-66313857D01*
X60249666Y-66361476D01*
X60225857Y-66385285D01*
X60178238Y-66409095D01*
X59987761Y-66409095D01*
X60749666Y-66647190D02*
X60463952Y-66647190D01*
X60606809Y-66647190D02*
X60606809Y-66147190D01*
X60559190Y-66218619D01*
X60511571Y-66266238D01*
X60463952Y-66290047D01*
X61059190Y-66147190D02*
X61106809Y-66147190D01*
X61154428Y-66171000D01*
X61178238Y-66194809D01*
X61202047Y-66242428D01*
X61225857Y-66337666D01*
X61225857Y-66456714D01*
X61202047Y-66551952D01*
X61178238Y-66599571D01*
X61154428Y-66623380D01*
X61106809Y-66647190D01*
X61059190Y-66647190D01*
X61011571Y-66623380D01*
X60987761Y-66599571D01*
X60963952Y-66551952D01*
X60940142Y-66456714D01*
X60940142Y-66337666D01*
X60963952Y-66242428D01*
X60987761Y-66194809D01*
X61011571Y-66171000D01*
X61059190Y-66147190D01*
X61678238Y-66147190D02*
X61440142Y-66147190D01*
X61416333Y-66385285D01*
X61440142Y-66361476D01*
X61487761Y-66337666D01*
X61606809Y-66337666D01*
X61654428Y-66361476D01*
X61678238Y-66385285D01*
X61702047Y-66432904D01*
X61702047Y-66551952D01*
X61678238Y-66599571D01*
X61654428Y-66623380D01*
X61606809Y-66647190D01*
X61487761Y-66647190D01*
X61440142Y-66623380D01*
X61416333Y-66599571D01*
D10*
%TO.C,C117*%
X57237333Y-69442380D02*
X56665904Y-69442380D01*
X56951619Y-69442380D02*
X56951619Y-68442380D01*
X56856380Y-68585238D01*
X56761142Y-68680476D01*
X56665904Y-68728095D01*
X58094476Y-68775714D02*
X58094476Y-69442380D01*
X57665904Y-68775714D02*
X57665904Y-69299523D01*
X57713523Y-69394761D01*
X57808761Y-69442380D01*
X57951619Y-69442380D01*
X58046857Y-69394761D01*
X58094476Y-69347142D01*
D11*
X56844476Y-67488571D02*
X56820666Y-67512380D01*
X56749238Y-67536190D01*
X56701619Y-67536190D01*
X56630190Y-67512380D01*
X56582571Y-67464761D01*
X56558761Y-67417142D01*
X56534952Y-67321904D01*
X56534952Y-67250476D01*
X56558761Y-67155238D01*
X56582571Y-67107619D01*
X56630190Y-67060000D01*
X56701619Y-67036190D01*
X56749238Y-67036190D01*
X56820666Y-67060000D01*
X56844476Y-67083809D01*
X57320666Y-67536190D02*
X57034952Y-67536190D01*
X57177809Y-67536190D02*
X57177809Y-67036190D01*
X57130190Y-67107619D01*
X57082571Y-67155238D01*
X57034952Y-67179047D01*
X57796857Y-67536190D02*
X57511142Y-67536190D01*
X57654000Y-67536190D02*
X57654000Y-67036190D01*
X57606380Y-67107619D01*
X57558761Y-67155238D01*
X57511142Y-67179047D01*
X57963523Y-67036190D02*
X58296857Y-67036190D01*
X58082571Y-67536190D01*
D10*
%TO.C,U103*%
X54389380Y-46203857D02*
X54389380Y-45537190D01*
X55389380Y-45965761D01*
X54722714Y-44727666D02*
X55389380Y-44727666D01*
X54341761Y-44965761D02*
X55056047Y-45203857D01*
X55056047Y-44584809D01*
X55389380Y-43727666D02*
X55389380Y-44203857D01*
X54389380Y-44203857D01*
X55341761Y-43441952D02*
X55389380Y-43299095D01*
X55389380Y-43061000D01*
X55341761Y-42965761D01*
X55294142Y-42918142D01*
X55198904Y-42870523D01*
X55103666Y-42870523D01*
X55008428Y-42918142D01*
X54960809Y-42965761D01*
X54913190Y-43061000D01*
X54865571Y-43251476D01*
X54817952Y-43346714D01*
X54770333Y-43394333D01*
X54675095Y-43441952D01*
X54579857Y-43441952D01*
X54484619Y-43394333D01*
X54437000Y-43346714D01*
X54389380Y-43251476D01*
X54389380Y-43013380D01*
X54437000Y-42870523D01*
X54389380Y-42537190D02*
X54389380Y-41918142D01*
X54770333Y-42251476D01*
X54770333Y-42108619D01*
X54817952Y-42013380D01*
X54865571Y-41965761D01*
X54960809Y-41918142D01*
X55198904Y-41918142D01*
X55294142Y-41965761D01*
X55341761Y-42013380D01*
X55389380Y-42108619D01*
X55389380Y-42394333D01*
X55341761Y-42489571D01*
X55294142Y-42537190D01*
X54484619Y-41537190D02*
X54437000Y-41489571D01*
X54389380Y-41394333D01*
X54389380Y-41156238D01*
X54437000Y-41061000D01*
X54484619Y-41013380D01*
X54579857Y-40965761D01*
X54675095Y-40965761D01*
X54817952Y-41013380D01*
X55389380Y-41584809D01*
X55389380Y-40965761D01*
X49120333Y-45241000D02*
X49913666Y-45241000D01*
X50007000Y-45194333D01*
X50053666Y-45147666D01*
X50100333Y-45054333D01*
X50100333Y-44867666D01*
X50053666Y-44774333D01*
X50007000Y-44727666D01*
X49913666Y-44681000D01*
X49120333Y-44681000D01*
X50100333Y-43701000D02*
X50100333Y-44261000D01*
X50100333Y-43981000D02*
X49120333Y-43981000D01*
X49260333Y-44074333D01*
X49353666Y-44167666D01*
X49400333Y-44261000D01*
X49120333Y-43094333D02*
X49120333Y-43001000D01*
X49167000Y-42907666D01*
X49213666Y-42861000D01*
X49307000Y-42814333D01*
X49493666Y-42767666D01*
X49727000Y-42767666D01*
X49913666Y-42814333D01*
X50007000Y-42861000D01*
X50053666Y-42907666D01*
X50100333Y-43001000D01*
X50100333Y-43094333D01*
X50053666Y-43187666D01*
X50007000Y-43234333D01*
X49913666Y-43281000D01*
X49727000Y-43327666D01*
X49493666Y-43327666D01*
X49307000Y-43281000D01*
X49213666Y-43234333D01*
X49167000Y-43187666D01*
X49120333Y-43094333D01*
X49120333Y-42441000D02*
X49120333Y-41834333D01*
X49493666Y-42161000D01*
X49493666Y-42021000D01*
X49540333Y-41927666D01*
X49587000Y-41881000D01*
X49680333Y-41834333D01*
X49913666Y-41834333D01*
X50007000Y-41881000D01*
X50053666Y-41927666D01*
X50100333Y-42021000D01*
X50100333Y-42301000D01*
X50053666Y-42394333D01*
X50007000Y-42441000D01*
%TO.C,C105*%
X43280380Y-57919857D02*
X43280380Y-58491285D01*
X43280380Y-58205571D02*
X42280380Y-58205571D01*
X42423238Y-58300809D01*
X42518476Y-58396047D01*
X42566095Y-58491285D01*
X42280380Y-57300809D02*
X42280380Y-57205571D01*
X42328000Y-57110333D01*
X42375619Y-57062714D01*
X42470857Y-57015095D01*
X42661333Y-56967476D01*
X42899428Y-56967476D01*
X43089904Y-57015095D01*
X43185142Y-57062714D01*
X43232761Y-57110333D01*
X43280380Y-57205571D01*
X43280380Y-57300809D01*
X43232761Y-57396047D01*
X43185142Y-57443666D01*
X43089904Y-57491285D01*
X42899428Y-57538904D01*
X42661333Y-57538904D01*
X42470857Y-57491285D01*
X42375619Y-57443666D01*
X42328000Y-57396047D01*
X42280380Y-57300809D01*
X42613714Y-56110333D02*
X43280380Y-56110333D01*
X42613714Y-56538904D02*
X43137523Y-56538904D01*
X43232761Y-56491285D01*
X43280380Y-56396047D01*
X43280380Y-56253190D01*
X43232761Y-56157952D01*
X43185142Y-56110333D01*
D11*
X41326571Y-57836523D02*
X41350380Y-57860333D01*
X41374190Y-57931761D01*
X41374190Y-57979380D01*
X41350380Y-58050809D01*
X41302761Y-58098428D01*
X41255142Y-58122238D01*
X41159904Y-58146047D01*
X41088476Y-58146047D01*
X40993238Y-58122238D01*
X40945619Y-58098428D01*
X40898000Y-58050809D01*
X40874190Y-57979380D01*
X40874190Y-57931761D01*
X40898000Y-57860333D01*
X40921809Y-57836523D01*
X41374190Y-57360333D02*
X41374190Y-57646047D01*
X41374190Y-57503190D02*
X40874190Y-57503190D01*
X40945619Y-57550809D01*
X40993238Y-57598428D01*
X41017047Y-57646047D01*
X40874190Y-57050809D02*
X40874190Y-57003190D01*
X40898000Y-56955571D01*
X40921809Y-56931761D01*
X40969428Y-56907952D01*
X41064666Y-56884142D01*
X41183714Y-56884142D01*
X41278952Y-56907952D01*
X41326571Y-56931761D01*
X41350380Y-56955571D01*
X41374190Y-57003190D01*
X41374190Y-57050809D01*
X41350380Y-57098428D01*
X41326571Y-57122238D01*
X41278952Y-57146047D01*
X41183714Y-57169857D01*
X41064666Y-57169857D01*
X40969428Y-57146047D01*
X40921809Y-57122238D01*
X40898000Y-57098428D01*
X40874190Y-57050809D01*
X40874190Y-56431761D02*
X40874190Y-56669857D01*
X41112285Y-56693666D01*
X41088476Y-56669857D01*
X41064666Y-56622238D01*
X41064666Y-56503190D01*
X41088476Y-56455571D01*
X41112285Y-56431761D01*
X41159904Y-56407952D01*
X41278952Y-56407952D01*
X41326571Y-56431761D01*
X41350380Y-56455571D01*
X41374190Y-56503190D01*
X41374190Y-56622238D01*
X41350380Y-56669857D01*
X41326571Y-56693666D01*
D10*
%TO.C,C104*%
X56284952Y-64997380D02*
X55713523Y-64997380D01*
X55999238Y-64997380D02*
X55999238Y-63997380D01*
X55904000Y-64140238D01*
X55808761Y-64235476D01*
X55713523Y-64283095D01*
X56904000Y-63997380D02*
X56999238Y-63997380D01*
X57094476Y-64045000D01*
X57142095Y-64092619D01*
X57189714Y-64187857D01*
X57237333Y-64378333D01*
X57237333Y-64616428D01*
X57189714Y-64806904D01*
X57142095Y-64902142D01*
X57094476Y-64949761D01*
X56999238Y-64997380D01*
X56904000Y-64997380D01*
X56808761Y-64949761D01*
X56761142Y-64902142D01*
X56713523Y-64806904D01*
X56665904Y-64616428D01*
X56665904Y-64378333D01*
X56713523Y-64187857D01*
X56761142Y-64092619D01*
X56808761Y-64045000D01*
X56904000Y-63997380D01*
X57856380Y-63997380D02*
X57951619Y-63997380D01*
X58046857Y-64045000D01*
X58094476Y-64092619D01*
X58142095Y-64187857D01*
X58189714Y-64378333D01*
X58189714Y-64616428D01*
X58142095Y-64806904D01*
X58094476Y-64902142D01*
X58046857Y-64949761D01*
X57951619Y-64997380D01*
X57856380Y-64997380D01*
X57761142Y-64949761D01*
X57713523Y-64902142D01*
X57665904Y-64806904D01*
X57618285Y-64616428D01*
X57618285Y-64378333D01*
X57665904Y-64187857D01*
X57713523Y-64092619D01*
X57761142Y-64045000D01*
X57856380Y-63997380D01*
X58618285Y-64330714D02*
X58618285Y-64997380D01*
X58618285Y-64425952D02*
X58665904Y-64378333D01*
X58761142Y-64330714D01*
X58904000Y-64330714D01*
X58999238Y-64378333D01*
X59046857Y-64473571D01*
X59046857Y-64997380D01*
D11*
X56844476Y-63043571D02*
X56820666Y-63067380D01*
X56749238Y-63091190D01*
X56701619Y-63091190D01*
X56630190Y-63067380D01*
X56582571Y-63019761D01*
X56558761Y-62972142D01*
X56534952Y-62876904D01*
X56534952Y-62805476D01*
X56558761Y-62710238D01*
X56582571Y-62662619D01*
X56630190Y-62615000D01*
X56701619Y-62591190D01*
X56749238Y-62591190D01*
X56820666Y-62615000D01*
X56844476Y-62638809D01*
X57320666Y-63091190D02*
X57034952Y-63091190D01*
X57177809Y-63091190D02*
X57177809Y-62591190D01*
X57130190Y-62662619D01*
X57082571Y-62710238D01*
X57034952Y-62734047D01*
X57630190Y-62591190D02*
X57677809Y-62591190D01*
X57725428Y-62615000D01*
X57749238Y-62638809D01*
X57773047Y-62686428D01*
X57796857Y-62781666D01*
X57796857Y-62900714D01*
X57773047Y-62995952D01*
X57749238Y-63043571D01*
X57725428Y-63067380D01*
X57677809Y-63091190D01*
X57630190Y-63091190D01*
X57582571Y-63067380D01*
X57558761Y-63043571D01*
X57534952Y-62995952D01*
X57511142Y-62900714D01*
X57511142Y-62781666D01*
X57534952Y-62686428D01*
X57558761Y-62638809D01*
X57582571Y-62615000D01*
X57630190Y-62591190D01*
X58225428Y-62757857D02*
X58225428Y-63091190D01*
X58106380Y-62567380D02*
X57987333Y-62924523D01*
X58296857Y-62924523D01*
D10*
%TO.C,C112*%
X43711952Y-37507380D02*
X43140523Y-37507380D01*
X43426238Y-37507380D02*
X43426238Y-36507380D01*
X43331000Y-36650238D01*
X43235761Y-36745476D01*
X43140523Y-36793095D01*
X44331000Y-36507380D02*
X44426238Y-36507380D01*
X44521476Y-36555000D01*
X44569095Y-36602619D01*
X44616714Y-36697857D01*
X44664333Y-36888333D01*
X44664333Y-37126428D01*
X44616714Y-37316904D01*
X44569095Y-37412142D01*
X44521476Y-37459761D01*
X44426238Y-37507380D01*
X44331000Y-37507380D01*
X44235761Y-37459761D01*
X44188142Y-37412142D01*
X44140523Y-37316904D01*
X44092904Y-37126428D01*
X44092904Y-36888333D01*
X44140523Y-36697857D01*
X44188142Y-36602619D01*
X44235761Y-36555000D01*
X44331000Y-36507380D01*
X45283380Y-36507380D02*
X45378619Y-36507380D01*
X45473857Y-36555000D01*
X45521476Y-36602619D01*
X45569095Y-36697857D01*
X45616714Y-36888333D01*
X45616714Y-37126428D01*
X45569095Y-37316904D01*
X45521476Y-37412142D01*
X45473857Y-37459761D01*
X45378619Y-37507380D01*
X45283380Y-37507380D01*
X45188142Y-37459761D01*
X45140523Y-37412142D01*
X45092904Y-37316904D01*
X45045285Y-37126428D01*
X45045285Y-36888333D01*
X45092904Y-36697857D01*
X45140523Y-36602619D01*
X45188142Y-36555000D01*
X45283380Y-36507380D01*
X46045285Y-36840714D02*
X46045285Y-37507380D01*
X46045285Y-36935952D02*
X46092904Y-36888333D01*
X46188142Y-36840714D01*
X46331000Y-36840714D01*
X46426238Y-36888333D01*
X46473857Y-36983571D01*
X46473857Y-37507380D01*
D11*
X44271476Y-38913571D02*
X44247666Y-38937380D01*
X44176238Y-38961190D01*
X44128619Y-38961190D01*
X44057190Y-38937380D01*
X44009571Y-38889761D01*
X43985761Y-38842142D01*
X43961952Y-38746904D01*
X43961952Y-38675476D01*
X43985761Y-38580238D01*
X44009571Y-38532619D01*
X44057190Y-38485000D01*
X44128619Y-38461190D01*
X44176238Y-38461190D01*
X44247666Y-38485000D01*
X44271476Y-38508809D01*
X44747666Y-38961190D02*
X44461952Y-38961190D01*
X44604809Y-38961190D02*
X44604809Y-38461190D01*
X44557190Y-38532619D01*
X44509571Y-38580238D01*
X44461952Y-38604047D01*
X45223857Y-38961190D02*
X44938142Y-38961190D01*
X45081000Y-38961190D02*
X45081000Y-38461190D01*
X45033380Y-38532619D01*
X44985761Y-38580238D01*
X44938142Y-38604047D01*
X45414333Y-38508809D02*
X45438142Y-38485000D01*
X45485761Y-38461190D01*
X45604809Y-38461190D01*
X45652428Y-38485000D01*
X45676238Y-38508809D01*
X45700047Y-38556428D01*
X45700047Y-38604047D01*
X45676238Y-38675476D01*
X45390523Y-38961190D01*
X45700047Y-38961190D01*
D10*
%TO.C,U101*%
X50252523Y-69384380D02*
X49776333Y-69384380D01*
X49776333Y-68384380D01*
X50585857Y-69384380D02*
X50585857Y-68384380D01*
X50919190Y-69098666D01*
X51252523Y-68384380D01*
X51252523Y-69384380D01*
X51633476Y-68384380D02*
X52252523Y-68384380D01*
X51919190Y-68765333D01*
X52062047Y-68765333D01*
X52157285Y-68812952D01*
X52204904Y-68860571D01*
X52252523Y-68955809D01*
X52252523Y-69193904D01*
X52204904Y-69289142D01*
X52157285Y-69336761D01*
X52062047Y-69384380D01*
X51776333Y-69384380D01*
X51681095Y-69336761D01*
X51633476Y-69289142D01*
X52728714Y-69384380D02*
X52919190Y-69384380D01*
X53014428Y-69336761D01*
X53062047Y-69289142D01*
X53157285Y-69146285D01*
X53204904Y-68955809D01*
X53204904Y-68574857D01*
X53157285Y-68479619D01*
X53109666Y-68432000D01*
X53014428Y-68384380D01*
X52823952Y-68384380D01*
X52728714Y-68432000D01*
X52681095Y-68479619D01*
X52633476Y-68574857D01*
X52633476Y-68812952D01*
X52681095Y-68908190D01*
X52728714Y-68955809D01*
X52823952Y-69003428D01*
X53014428Y-69003428D01*
X53109666Y-68955809D01*
X53157285Y-68908190D01*
X53204904Y-68812952D01*
X53538238Y-68384380D02*
X54157285Y-68384380D01*
X53823952Y-68765333D01*
X53966809Y-68765333D01*
X54062047Y-68812952D01*
X54109666Y-68860571D01*
X54157285Y-68955809D01*
X54157285Y-69193904D01*
X54109666Y-69289142D01*
X54062047Y-69336761D01*
X53966809Y-69384380D01*
X53681095Y-69384380D01*
X53585857Y-69336761D01*
X53538238Y-69289142D01*
X50263000Y-64995333D02*
X50263000Y-65788666D01*
X50309666Y-65882000D01*
X50356333Y-65928666D01*
X50449666Y-65975333D01*
X50636333Y-65975333D01*
X50729666Y-65928666D01*
X50776333Y-65882000D01*
X50823000Y-65788666D01*
X50823000Y-64995333D01*
X51803000Y-65975333D02*
X51243000Y-65975333D01*
X51523000Y-65975333D02*
X51523000Y-64995333D01*
X51429666Y-65135333D01*
X51336333Y-65228666D01*
X51243000Y-65275333D01*
X52409666Y-64995333D02*
X52503000Y-64995333D01*
X52596333Y-65042000D01*
X52643000Y-65088666D01*
X52689666Y-65182000D01*
X52736333Y-65368666D01*
X52736333Y-65602000D01*
X52689666Y-65788666D01*
X52643000Y-65882000D01*
X52596333Y-65928666D01*
X52503000Y-65975333D01*
X52409666Y-65975333D01*
X52316333Y-65928666D01*
X52269666Y-65882000D01*
X52223000Y-65788666D01*
X52176333Y-65602000D01*
X52176333Y-65368666D01*
X52223000Y-65182000D01*
X52269666Y-65088666D01*
X52316333Y-65042000D01*
X52409666Y-64995333D01*
X53669666Y-65975333D02*
X53109666Y-65975333D01*
X53389666Y-65975333D02*
X53389666Y-64995333D01*
X53296333Y-65135333D01*
X53203000Y-65228666D01*
X53109666Y-65275333D01*
%TO.C,R102*%
X45950333Y-62949619D02*
X45997952Y-62902000D01*
X46093190Y-62854380D01*
X46331285Y-62854380D01*
X46426523Y-62902000D01*
X46474142Y-62949619D01*
X46521761Y-63044857D01*
X46521761Y-63140095D01*
X46474142Y-63282952D01*
X45902714Y-63854380D01*
X46521761Y-63854380D01*
X46902714Y-62949619D02*
X46950333Y-62902000D01*
X47045571Y-62854380D01*
X47283666Y-62854380D01*
X47378904Y-62902000D01*
X47426523Y-62949619D01*
X47474142Y-63044857D01*
X47474142Y-63140095D01*
X47426523Y-63282952D01*
X46855095Y-63854380D01*
X47474142Y-63854380D01*
X47902714Y-63854380D02*
X47902714Y-62854380D01*
X47997952Y-63473428D02*
X48283666Y-63854380D01*
X48283666Y-63187714D02*
X47902714Y-63568666D01*
D11*
X46557476Y-61948190D02*
X46390809Y-61710095D01*
X46271761Y-61948190D02*
X46271761Y-61448190D01*
X46462238Y-61448190D01*
X46509857Y-61472000D01*
X46533666Y-61495809D01*
X46557476Y-61543428D01*
X46557476Y-61614857D01*
X46533666Y-61662476D01*
X46509857Y-61686285D01*
X46462238Y-61710095D01*
X46271761Y-61710095D01*
X47033666Y-61948190D02*
X46747952Y-61948190D01*
X46890809Y-61948190D02*
X46890809Y-61448190D01*
X46843190Y-61519619D01*
X46795571Y-61567238D01*
X46747952Y-61591047D01*
X47343190Y-61448190D02*
X47390809Y-61448190D01*
X47438428Y-61472000D01*
X47462238Y-61495809D01*
X47486047Y-61543428D01*
X47509857Y-61638666D01*
X47509857Y-61757714D01*
X47486047Y-61852952D01*
X47462238Y-61900571D01*
X47438428Y-61924380D01*
X47390809Y-61948190D01*
X47343190Y-61948190D01*
X47295571Y-61924380D01*
X47271761Y-61900571D01*
X47247952Y-61852952D01*
X47224142Y-61757714D01*
X47224142Y-61638666D01*
X47247952Y-61543428D01*
X47271761Y-61495809D01*
X47295571Y-61472000D01*
X47343190Y-61448190D01*
X47700333Y-61495809D02*
X47724142Y-61472000D01*
X47771761Y-61448190D01*
X47890809Y-61448190D01*
X47938428Y-61472000D01*
X47962238Y-61495809D01*
X47986047Y-61543428D01*
X47986047Y-61591047D01*
X47962238Y-61662476D01*
X47676523Y-61948190D01*
X47986047Y-61948190D01*
D10*
%TO.C,J102*%
X57158666Y-55900142D02*
X57111047Y-55947761D01*
X56968190Y-55995380D01*
X56872952Y-55995380D01*
X56730095Y-55947761D01*
X56634857Y-55852523D01*
X56587238Y-55757285D01*
X56539619Y-55566809D01*
X56539619Y-55423952D01*
X56587238Y-55233476D01*
X56634857Y-55138238D01*
X56730095Y-55043000D01*
X56872952Y-54995380D01*
X56968190Y-54995380D01*
X57111047Y-55043000D01*
X57158666Y-55090619D01*
X57730095Y-55995380D02*
X57634857Y-55947761D01*
X57587238Y-55900142D01*
X57539619Y-55804904D01*
X57539619Y-55519190D01*
X57587238Y-55423952D01*
X57634857Y-55376333D01*
X57730095Y-55328714D01*
X57872952Y-55328714D01*
X57968190Y-55376333D01*
X58015809Y-55423952D01*
X58063428Y-55519190D01*
X58063428Y-55804904D01*
X58015809Y-55900142D01*
X57968190Y-55947761D01*
X57872952Y-55995380D01*
X57730095Y-55995380D01*
X58492000Y-55328714D02*
X58492000Y-55995380D01*
X58492000Y-55423952D02*
X58539619Y-55376333D01*
X58634857Y-55328714D01*
X58777714Y-55328714D01*
X58872952Y-55376333D01*
X58920571Y-55471571D01*
X58920571Y-55995380D01*
X59396761Y-55328714D02*
X59396761Y-55995380D01*
X59396761Y-55423952D02*
X59444380Y-55376333D01*
X59539619Y-55328714D01*
X59682476Y-55328714D01*
X59777714Y-55376333D01*
X59825333Y-55471571D01*
X59825333Y-55995380D01*
X60063428Y-56090619D02*
X60825333Y-56090619D01*
X61253904Y-54995380D02*
X61349142Y-54995380D01*
X61444380Y-55043000D01*
X61492000Y-55090619D01*
X61539619Y-55185857D01*
X61587238Y-55376333D01*
X61587238Y-55614428D01*
X61539619Y-55804904D01*
X61492000Y-55900142D01*
X61444380Y-55947761D01*
X61349142Y-55995380D01*
X61253904Y-55995380D01*
X61158666Y-55947761D01*
X61111047Y-55900142D01*
X61063428Y-55804904D01*
X61015809Y-55614428D01*
X61015809Y-55376333D01*
X61063428Y-55185857D01*
X61111047Y-55090619D01*
X61158666Y-55043000D01*
X61253904Y-54995380D01*
X62539619Y-55995380D02*
X61968190Y-55995380D01*
X62253904Y-55995380D02*
X62253904Y-54995380D01*
X62158666Y-55138238D01*
X62063428Y-55233476D01*
X61968190Y-55281095D01*
X62872952Y-55995380D02*
X63396761Y-55328714D01*
X62872952Y-55328714D02*
X63396761Y-55995380D01*
X63968190Y-54995380D02*
X64063428Y-54995380D01*
X64158666Y-55043000D01*
X64206285Y-55090619D01*
X64253904Y-55185857D01*
X64301523Y-55376333D01*
X64301523Y-55614428D01*
X64253904Y-55804904D01*
X64206285Y-55900142D01*
X64158666Y-55947761D01*
X64063428Y-55995380D01*
X63968190Y-55995380D01*
X63872952Y-55947761D01*
X63825333Y-55900142D01*
X63777714Y-55804904D01*
X63730095Y-55614428D01*
X63730095Y-55376333D01*
X63777714Y-55185857D01*
X63825333Y-55090619D01*
X63872952Y-55043000D01*
X63968190Y-54995380D01*
X64634857Y-54995380D02*
X65253904Y-54995380D01*
X64920571Y-55376333D01*
X65063428Y-55376333D01*
X65158666Y-55423952D01*
X65206285Y-55471571D01*
X65253904Y-55566809D01*
X65253904Y-55804904D01*
X65206285Y-55900142D01*
X65158666Y-55947761D01*
X65063428Y-55995380D01*
X64777714Y-55995380D01*
X64682476Y-55947761D01*
X64634857Y-55900142D01*
X65444380Y-56090619D02*
X66206285Y-56090619D01*
X66444380Y-55995380D02*
X66444380Y-54995380D01*
X66777714Y-55709666D01*
X67111047Y-54995380D01*
X67111047Y-55995380D01*
X68015809Y-55995380D02*
X68015809Y-55471571D01*
X67968190Y-55376333D01*
X67872952Y-55328714D01*
X67682476Y-55328714D01*
X67587238Y-55376333D01*
X68015809Y-55947761D02*
X67920571Y-55995380D01*
X67682476Y-55995380D01*
X67587238Y-55947761D01*
X67539619Y-55852523D01*
X67539619Y-55757285D01*
X67587238Y-55662047D01*
X67682476Y-55614428D01*
X67920571Y-55614428D01*
X68015809Y-55566809D01*
X68634857Y-55995380D02*
X68539619Y-55947761D01*
X68492000Y-55852523D01*
X68492000Y-54995380D01*
X69396761Y-55947761D02*
X69301523Y-55995380D01*
X69111047Y-55995380D01*
X69015809Y-55947761D01*
X68968190Y-55852523D01*
X68968190Y-55471571D01*
X69015809Y-55376333D01*
X69111047Y-55328714D01*
X69301523Y-55328714D01*
X69396761Y-55376333D01*
X69444380Y-55471571D01*
X69444380Y-55566809D01*
X68968190Y-55662047D01*
X62444380Y-51958714D02*
X63158666Y-51958714D01*
X63301523Y-52006333D01*
X63396761Y-52101571D01*
X63444380Y-52244428D01*
X63444380Y-52339666D01*
X63444380Y-50958714D02*
X63444380Y-51530142D01*
X63444380Y-51244428D02*
X62444380Y-51244428D01*
X62587238Y-51339666D01*
X62682476Y-51434904D01*
X62730095Y-51530142D01*
X62444380Y-50339666D02*
X62444380Y-50244428D01*
X62492000Y-50149190D01*
X62539619Y-50101571D01*
X62634857Y-50053952D01*
X62825333Y-50006333D01*
X63063428Y-50006333D01*
X63253904Y-50053952D01*
X63349142Y-50101571D01*
X63396761Y-50149190D01*
X63444380Y-50244428D01*
X63444380Y-50339666D01*
X63396761Y-50434904D01*
X63349142Y-50482523D01*
X63253904Y-50530142D01*
X63063428Y-50577761D01*
X62825333Y-50577761D01*
X62634857Y-50530142D01*
X62539619Y-50482523D01*
X62492000Y-50434904D01*
X62444380Y-50339666D01*
X62539619Y-49625380D02*
X62492000Y-49577761D01*
X62444380Y-49482523D01*
X62444380Y-49244428D01*
X62492000Y-49149190D01*
X62539619Y-49101571D01*
X62634857Y-49053952D01*
X62730095Y-49053952D01*
X62872952Y-49101571D01*
X63444380Y-49673000D01*
X63444380Y-49053952D01*
%TO.C,RV102*%
X48110095Y-77274380D02*
X47776761Y-76798190D01*
X47538666Y-77274380D02*
X47538666Y-76274380D01*
X47919619Y-76274380D01*
X48014857Y-76322000D01*
X48062476Y-76369619D01*
X48110095Y-76464857D01*
X48110095Y-76607714D01*
X48062476Y-76702952D01*
X48014857Y-76750571D01*
X47919619Y-76798190D01*
X47538666Y-76798190D01*
X48300571Y-77369619D02*
X49062476Y-77369619D01*
X49300571Y-77274380D02*
X49300571Y-76274380D01*
X49681523Y-76274380D01*
X49776761Y-76322000D01*
X49824380Y-76369619D01*
X49872000Y-76464857D01*
X49872000Y-76607714D01*
X49824380Y-76702952D01*
X49776761Y-76750571D01*
X49681523Y-76798190D01*
X49300571Y-76798190D01*
X50443428Y-77274380D02*
X50348190Y-77226761D01*
X50300571Y-77179142D01*
X50252952Y-77083904D01*
X50252952Y-76798190D01*
X50300571Y-76702952D01*
X50348190Y-76655333D01*
X50443428Y-76607714D01*
X50586285Y-76607714D01*
X50681523Y-76655333D01*
X50729142Y-76702952D01*
X50776761Y-76798190D01*
X50776761Y-77083904D01*
X50729142Y-77179142D01*
X50681523Y-77226761D01*
X50586285Y-77274380D01*
X50443428Y-77274380D01*
X51062476Y-76607714D02*
X51443428Y-76607714D01*
X51205333Y-76274380D02*
X51205333Y-77131523D01*
X51252952Y-77226761D01*
X51348190Y-77274380D01*
X51443428Y-77274380D01*
X52157714Y-77226761D02*
X52062476Y-77274380D01*
X51872000Y-77274380D01*
X51776761Y-77226761D01*
X51729142Y-77131523D01*
X51729142Y-76750571D01*
X51776761Y-76655333D01*
X51872000Y-76607714D01*
X52062476Y-76607714D01*
X52157714Y-76655333D01*
X52205333Y-76750571D01*
X52205333Y-76845809D01*
X51729142Y-76941047D01*
X52633904Y-76607714D02*
X52633904Y-77274380D01*
X52633904Y-76702952D02*
X52681523Y-76655333D01*
X52776761Y-76607714D01*
X52919619Y-76607714D01*
X53014857Y-76655333D01*
X53062476Y-76750571D01*
X53062476Y-77274380D01*
X53395809Y-76607714D02*
X53776761Y-76607714D01*
X53538666Y-76274380D02*
X53538666Y-77131523D01*
X53586285Y-77226761D01*
X53681523Y-77274380D01*
X53776761Y-77274380D01*
X54110095Y-77274380D02*
X54110095Y-76607714D01*
X54110095Y-76274380D02*
X54062476Y-76322000D01*
X54110095Y-76369619D01*
X54157714Y-76322000D01*
X54110095Y-76274380D01*
X54110095Y-76369619D01*
X54729142Y-77274380D02*
X54633904Y-77226761D01*
X54586285Y-77179142D01*
X54538666Y-77083904D01*
X54538666Y-76798190D01*
X54586285Y-76702952D01*
X54633904Y-76655333D01*
X54729142Y-76607714D01*
X54872000Y-76607714D01*
X54967238Y-76655333D01*
X55014857Y-76702952D01*
X55062476Y-76798190D01*
X55062476Y-77083904D01*
X55014857Y-77179142D01*
X54967238Y-77226761D01*
X54872000Y-77274380D01*
X54729142Y-77274380D01*
X55491047Y-77274380D02*
X55491047Y-76607714D01*
X55491047Y-76702952D02*
X55538666Y-76655333D01*
X55633904Y-76607714D01*
X55776761Y-76607714D01*
X55872000Y-76655333D01*
X55919619Y-76750571D01*
X55919619Y-77274380D01*
X55919619Y-76750571D02*
X55967238Y-76655333D01*
X56062476Y-76607714D01*
X56205333Y-76607714D01*
X56300571Y-76655333D01*
X56348190Y-76750571D01*
X56348190Y-77274380D01*
X57205333Y-77226761D02*
X57110095Y-77274380D01*
X56919619Y-77274380D01*
X56824380Y-77226761D01*
X56776761Y-77131523D01*
X56776761Y-76750571D01*
X56824380Y-76655333D01*
X56919619Y-76607714D01*
X57110095Y-76607714D01*
X57205333Y-76655333D01*
X57252952Y-76750571D01*
X57252952Y-76845809D01*
X56776761Y-76941047D01*
X57538666Y-76607714D02*
X57919619Y-76607714D01*
X57681523Y-76274380D02*
X57681523Y-77131523D01*
X57729142Y-77226761D01*
X57824380Y-77274380D01*
X57919619Y-77274380D01*
X58633904Y-77226761D02*
X58538666Y-77274380D01*
X58348190Y-77274380D01*
X58252952Y-77226761D01*
X58205333Y-77131523D01*
X58205333Y-76750571D01*
X58252952Y-76655333D01*
X58348190Y-76607714D01*
X58538666Y-76607714D01*
X58633904Y-76655333D01*
X58681523Y-76750571D01*
X58681523Y-76845809D01*
X58205333Y-76941047D01*
X59110095Y-77274380D02*
X59110095Y-76607714D01*
X59110095Y-76798190D02*
X59157714Y-76702952D01*
X59205333Y-76655333D01*
X59300571Y-76607714D01*
X59395809Y-76607714D01*
X59491047Y-77369619D02*
X60252952Y-77369619D01*
X60348190Y-76274380D02*
X60919619Y-76274380D01*
X60633904Y-77274380D02*
X60633904Y-76274380D01*
X61252952Y-77274380D02*
X61252952Y-76607714D01*
X61252952Y-76798190D02*
X61300571Y-76702952D01*
X61348190Y-76655333D01*
X61443428Y-76607714D01*
X61538666Y-76607714D01*
X61872000Y-77274380D02*
X61872000Y-76607714D01*
X61872000Y-76274380D02*
X61824380Y-76322000D01*
X61872000Y-76369619D01*
X61919619Y-76322000D01*
X61872000Y-76274380D01*
X61872000Y-76369619D01*
X62348190Y-77274380D02*
X62348190Y-76607714D01*
X62348190Y-76702952D02*
X62395809Y-76655333D01*
X62491047Y-76607714D01*
X62633904Y-76607714D01*
X62729142Y-76655333D01*
X62776761Y-76750571D01*
X62776761Y-77274380D01*
X62776761Y-76750571D02*
X62824380Y-76655333D01*
X62919619Y-76607714D01*
X63062476Y-76607714D01*
X63157714Y-76655333D01*
X63205333Y-76750571D01*
X63205333Y-77274380D01*
X53189380Y-73609380D02*
X52856047Y-73133190D01*
X52617952Y-73609380D02*
X52617952Y-72609380D01*
X52998904Y-72609380D01*
X53094142Y-72657000D01*
X53141761Y-72704619D01*
X53189380Y-72799857D01*
X53189380Y-72942714D01*
X53141761Y-73037952D01*
X53094142Y-73085571D01*
X52998904Y-73133190D01*
X52617952Y-73133190D01*
X53475095Y-72609380D02*
X53808428Y-73609380D01*
X54141761Y-72609380D01*
X54998904Y-73609380D02*
X54427476Y-73609380D01*
X54713190Y-73609380D02*
X54713190Y-72609380D01*
X54617952Y-72752238D01*
X54522714Y-72847476D01*
X54427476Y-72895095D01*
X55617952Y-72609380D02*
X55713190Y-72609380D01*
X55808428Y-72657000D01*
X55856047Y-72704619D01*
X55903666Y-72799857D01*
X55951285Y-72990333D01*
X55951285Y-73228428D01*
X55903666Y-73418904D01*
X55856047Y-73514142D01*
X55808428Y-73561761D01*
X55713190Y-73609380D01*
X55617952Y-73609380D01*
X55522714Y-73561761D01*
X55475095Y-73514142D01*
X55427476Y-73418904D01*
X55379857Y-73228428D01*
X55379857Y-72990333D01*
X55427476Y-72799857D01*
X55475095Y-72704619D01*
X55522714Y-72657000D01*
X55617952Y-72609380D01*
X56332238Y-72704619D02*
X56379857Y-72657000D01*
X56475095Y-72609380D01*
X56713190Y-72609380D01*
X56808428Y-72657000D01*
X56856047Y-72704619D01*
X56903666Y-72799857D01*
X56903666Y-72895095D01*
X56856047Y-73037952D01*
X56284619Y-73609380D01*
X56903666Y-73609380D01*
%TO.C,R103*%
X45886761Y-68934380D02*
X45315333Y-68934380D01*
X45601047Y-68934380D02*
X45601047Y-67934380D01*
X45505809Y-68077238D01*
X45410571Y-68172476D01*
X45315333Y-68220095D01*
X46505809Y-67934380D02*
X46601047Y-67934380D01*
X46696285Y-67982000D01*
X46743904Y-68029619D01*
X46791523Y-68124857D01*
X46839142Y-68315333D01*
X46839142Y-68553428D01*
X46791523Y-68743904D01*
X46743904Y-68839142D01*
X46696285Y-68886761D01*
X46601047Y-68934380D01*
X46505809Y-68934380D01*
X46410571Y-68886761D01*
X46362952Y-68839142D01*
X46315333Y-68743904D01*
X46267714Y-68553428D01*
X46267714Y-68315333D01*
X46315333Y-68124857D01*
X46362952Y-68029619D01*
X46410571Y-67982000D01*
X46505809Y-67934380D01*
X47267714Y-68934380D02*
X47267714Y-67934380D01*
X47362952Y-68553428D02*
X47648666Y-68934380D01*
X47648666Y-68267714D02*
X47267714Y-68648666D01*
D11*
X45922476Y-67028190D02*
X45755809Y-66790095D01*
X45636761Y-67028190D02*
X45636761Y-66528190D01*
X45827238Y-66528190D01*
X45874857Y-66552000D01*
X45898666Y-66575809D01*
X45922476Y-66623428D01*
X45922476Y-66694857D01*
X45898666Y-66742476D01*
X45874857Y-66766285D01*
X45827238Y-66790095D01*
X45636761Y-66790095D01*
X46398666Y-67028190D02*
X46112952Y-67028190D01*
X46255809Y-67028190D02*
X46255809Y-66528190D01*
X46208190Y-66599619D01*
X46160571Y-66647238D01*
X46112952Y-66671047D01*
X46708190Y-66528190D02*
X46755809Y-66528190D01*
X46803428Y-66552000D01*
X46827238Y-66575809D01*
X46851047Y-66623428D01*
X46874857Y-66718666D01*
X46874857Y-66837714D01*
X46851047Y-66932952D01*
X46827238Y-66980571D01*
X46803428Y-67004380D01*
X46755809Y-67028190D01*
X46708190Y-67028190D01*
X46660571Y-67004380D01*
X46636761Y-66980571D01*
X46612952Y-66932952D01*
X46589142Y-66837714D01*
X46589142Y-66718666D01*
X46612952Y-66623428D01*
X46636761Y-66575809D01*
X46660571Y-66552000D01*
X46708190Y-66528190D01*
X47041523Y-66528190D02*
X47351047Y-66528190D01*
X47184380Y-66718666D01*
X47255809Y-66718666D01*
X47303428Y-66742476D01*
X47327238Y-66766285D01*
X47351047Y-66813904D01*
X47351047Y-66932952D01*
X47327238Y-66980571D01*
X47303428Y-67004380D01*
X47255809Y-67028190D01*
X47112952Y-67028190D01*
X47065333Y-67004380D01*
X47041523Y-66980571D01*
D10*
%TO.C,C110*%
X62203380Y-59062857D02*
X62203380Y-59634285D01*
X62203380Y-59348571D02*
X61203380Y-59348571D01*
X61346238Y-59443809D01*
X61441476Y-59539047D01*
X61489095Y-59634285D01*
X61203380Y-58443809D02*
X61203380Y-58348571D01*
X61251000Y-58253333D01*
X61298619Y-58205714D01*
X61393857Y-58158095D01*
X61584333Y-58110476D01*
X61822428Y-58110476D01*
X62012904Y-58158095D01*
X62108142Y-58205714D01*
X62155761Y-58253333D01*
X62203380Y-58348571D01*
X62203380Y-58443809D01*
X62155761Y-58539047D01*
X62108142Y-58586666D01*
X62012904Y-58634285D01*
X61822428Y-58681904D01*
X61584333Y-58681904D01*
X61393857Y-58634285D01*
X61298619Y-58586666D01*
X61251000Y-58539047D01*
X61203380Y-58443809D01*
X61536714Y-57253333D02*
X62203380Y-57253333D01*
X61536714Y-57681904D02*
X62060523Y-57681904D01*
X62155761Y-57634285D01*
X62203380Y-57539047D01*
X62203380Y-57396190D01*
X62155761Y-57300952D01*
X62108142Y-57253333D01*
D11*
X60249571Y-58979523D02*
X60273380Y-59003333D01*
X60297190Y-59074761D01*
X60297190Y-59122380D01*
X60273380Y-59193809D01*
X60225761Y-59241428D01*
X60178142Y-59265238D01*
X60082904Y-59289047D01*
X60011476Y-59289047D01*
X59916238Y-59265238D01*
X59868619Y-59241428D01*
X59821000Y-59193809D01*
X59797190Y-59122380D01*
X59797190Y-59074761D01*
X59821000Y-59003333D01*
X59844809Y-58979523D01*
X60297190Y-58503333D02*
X60297190Y-58789047D01*
X60297190Y-58646190D02*
X59797190Y-58646190D01*
X59868619Y-58693809D01*
X59916238Y-58741428D01*
X59940047Y-58789047D01*
X60297190Y-58027142D02*
X60297190Y-58312857D01*
X60297190Y-58170000D02*
X59797190Y-58170000D01*
X59868619Y-58217619D01*
X59916238Y-58265238D01*
X59940047Y-58312857D01*
X59797190Y-57717619D02*
X59797190Y-57670000D01*
X59821000Y-57622380D01*
X59844809Y-57598571D01*
X59892428Y-57574761D01*
X59987666Y-57550952D01*
X60106714Y-57550952D01*
X60201952Y-57574761D01*
X60249571Y-57598571D01*
X60273380Y-57622380D01*
X60297190Y-57670000D01*
X60297190Y-57717619D01*
X60273380Y-57765238D01*
X60249571Y-57789047D01*
X60201952Y-57812857D01*
X60106714Y-57836666D01*
X59987666Y-57836666D01*
X59892428Y-57812857D01*
X59844809Y-57789047D01*
X59821000Y-57765238D01*
X59797190Y-57717619D01*
D10*
%TO.C,C118*%
X56729333Y-71474380D02*
X56157904Y-71474380D01*
X56443619Y-71474380D02*
X56443619Y-70474380D01*
X56348380Y-70617238D01*
X56253142Y-70712476D01*
X56157904Y-70760095D01*
X57157904Y-70807714D02*
X57157904Y-71474380D01*
X57157904Y-70902952D02*
X57205523Y-70855333D01*
X57300761Y-70807714D01*
X57443619Y-70807714D01*
X57538857Y-70855333D01*
X57586476Y-70950571D01*
X57586476Y-71474380D01*
D11*
X56336476Y-69520571D02*
X56312666Y-69544380D01*
X56241238Y-69568190D01*
X56193619Y-69568190D01*
X56122190Y-69544380D01*
X56074571Y-69496761D01*
X56050761Y-69449142D01*
X56026952Y-69353904D01*
X56026952Y-69282476D01*
X56050761Y-69187238D01*
X56074571Y-69139619D01*
X56122190Y-69092000D01*
X56193619Y-69068190D01*
X56241238Y-69068190D01*
X56312666Y-69092000D01*
X56336476Y-69115809D01*
X56812666Y-69568190D02*
X56526952Y-69568190D01*
X56669809Y-69568190D02*
X56669809Y-69068190D01*
X56622190Y-69139619D01*
X56574571Y-69187238D01*
X56526952Y-69211047D01*
X57288857Y-69568190D02*
X57003142Y-69568190D01*
X57146000Y-69568190D02*
X57146000Y-69068190D01*
X57098380Y-69139619D01*
X57050761Y-69187238D01*
X57003142Y-69211047D01*
X57574571Y-69282476D02*
X57526952Y-69258666D01*
X57503142Y-69234857D01*
X57479333Y-69187238D01*
X57479333Y-69163428D01*
X57503142Y-69115809D01*
X57526952Y-69092000D01*
X57574571Y-69068190D01*
X57669809Y-69068190D01*
X57717428Y-69092000D01*
X57741238Y-69115809D01*
X57765047Y-69163428D01*
X57765047Y-69187238D01*
X57741238Y-69234857D01*
X57717428Y-69258666D01*
X57669809Y-69282476D01*
X57574571Y-69282476D01*
X57526952Y-69306285D01*
X57503142Y-69330095D01*
X57479333Y-69377714D01*
X57479333Y-69472952D01*
X57503142Y-69520571D01*
X57526952Y-69544380D01*
X57574571Y-69568190D01*
X57669809Y-69568190D01*
X57717428Y-69544380D01*
X57741238Y-69520571D01*
X57765047Y-69472952D01*
X57765047Y-69377714D01*
X57741238Y-69330095D01*
X57717428Y-69306285D01*
X57669809Y-69282476D01*
D10*
%TO.C,C113*%
X43838952Y-47159380D02*
X43267523Y-47159380D01*
X43553238Y-47159380D02*
X43553238Y-46159380D01*
X43458000Y-46302238D01*
X43362761Y-46397476D01*
X43267523Y-46445095D01*
X44458000Y-46159380D02*
X44553238Y-46159380D01*
X44648476Y-46207000D01*
X44696095Y-46254619D01*
X44743714Y-46349857D01*
X44791333Y-46540333D01*
X44791333Y-46778428D01*
X44743714Y-46968904D01*
X44696095Y-47064142D01*
X44648476Y-47111761D01*
X44553238Y-47159380D01*
X44458000Y-47159380D01*
X44362761Y-47111761D01*
X44315142Y-47064142D01*
X44267523Y-46968904D01*
X44219904Y-46778428D01*
X44219904Y-46540333D01*
X44267523Y-46349857D01*
X44315142Y-46254619D01*
X44362761Y-46207000D01*
X44458000Y-46159380D01*
X45410380Y-46159380D02*
X45505619Y-46159380D01*
X45600857Y-46207000D01*
X45648476Y-46254619D01*
X45696095Y-46349857D01*
X45743714Y-46540333D01*
X45743714Y-46778428D01*
X45696095Y-46968904D01*
X45648476Y-47064142D01*
X45600857Y-47111761D01*
X45505619Y-47159380D01*
X45410380Y-47159380D01*
X45315142Y-47111761D01*
X45267523Y-47064142D01*
X45219904Y-46968904D01*
X45172285Y-46778428D01*
X45172285Y-46540333D01*
X45219904Y-46349857D01*
X45267523Y-46254619D01*
X45315142Y-46207000D01*
X45410380Y-46159380D01*
X46172285Y-46492714D02*
X46172285Y-47159380D01*
X46172285Y-46587952D02*
X46219904Y-46540333D01*
X46315142Y-46492714D01*
X46458000Y-46492714D01*
X46553238Y-46540333D01*
X46600857Y-46635571D01*
X46600857Y-47159380D01*
D11*
X44398476Y-48565571D02*
X44374666Y-48589380D01*
X44303238Y-48613190D01*
X44255619Y-48613190D01*
X44184190Y-48589380D01*
X44136571Y-48541761D01*
X44112761Y-48494142D01*
X44088952Y-48398904D01*
X44088952Y-48327476D01*
X44112761Y-48232238D01*
X44136571Y-48184619D01*
X44184190Y-48137000D01*
X44255619Y-48113190D01*
X44303238Y-48113190D01*
X44374666Y-48137000D01*
X44398476Y-48160809D01*
X44874666Y-48613190D02*
X44588952Y-48613190D01*
X44731809Y-48613190D02*
X44731809Y-48113190D01*
X44684190Y-48184619D01*
X44636571Y-48232238D01*
X44588952Y-48256047D01*
X45350857Y-48613190D02*
X45065142Y-48613190D01*
X45208000Y-48613190D02*
X45208000Y-48113190D01*
X45160380Y-48184619D01*
X45112761Y-48232238D01*
X45065142Y-48256047D01*
X45517523Y-48113190D02*
X45827047Y-48113190D01*
X45660380Y-48303666D01*
X45731809Y-48303666D01*
X45779428Y-48327476D01*
X45803238Y-48351285D01*
X45827047Y-48398904D01*
X45827047Y-48517952D01*
X45803238Y-48565571D01*
X45779428Y-48589380D01*
X45731809Y-48613190D01*
X45588952Y-48613190D01*
X45541333Y-48589380D01*
X45517523Y-48565571D01*
D10*
%TO.C,R101*%
X49474571Y-60494380D02*
X48903142Y-60494380D01*
X49188857Y-60494380D02*
X49188857Y-59494380D01*
X49093619Y-59637238D01*
X48998380Y-59732476D01*
X48903142Y-59780095D01*
X50093619Y-59494380D02*
X50188857Y-59494380D01*
X50284095Y-59542000D01*
X50331714Y-59589619D01*
X50379333Y-59684857D01*
X50426952Y-59875333D01*
X50426952Y-60113428D01*
X50379333Y-60303904D01*
X50331714Y-60399142D01*
X50284095Y-60446761D01*
X50188857Y-60494380D01*
X50093619Y-60494380D01*
X49998380Y-60446761D01*
X49950761Y-60399142D01*
X49903142Y-60303904D01*
X49855523Y-60113428D01*
X49855523Y-59875333D01*
X49903142Y-59684857D01*
X49950761Y-59589619D01*
X49998380Y-59542000D01*
X50093619Y-59494380D01*
X51046000Y-59494380D02*
X51141238Y-59494380D01*
X51236476Y-59542000D01*
X51284095Y-59589619D01*
X51331714Y-59684857D01*
X51379333Y-59875333D01*
X51379333Y-60113428D01*
X51331714Y-60303904D01*
X51284095Y-60399142D01*
X51236476Y-60446761D01*
X51141238Y-60494380D01*
X51046000Y-60494380D01*
X50950761Y-60446761D01*
X50903142Y-60399142D01*
X50855523Y-60303904D01*
X50807904Y-60113428D01*
X50807904Y-59875333D01*
X50855523Y-59684857D01*
X50903142Y-59589619D01*
X50950761Y-59542000D01*
X51046000Y-59494380D01*
X51807904Y-60494380D02*
X51807904Y-59494380D01*
X51903142Y-60113428D02*
X52188857Y-60494380D01*
X52188857Y-59827714D02*
X51807904Y-60208666D01*
D11*
X49986476Y-61948190D02*
X49819809Y-61710095D01*
X49700761Y-61948190D02*
X49700761Y-61448190D01*
X49891238Y-61448190D01*
X49938857Y-61472000D01*
X49962666Y-61495809D01*
X49986476Y-61543428D01*
X49986476Y-61614857D01*
X49962666Y-61662476D01*
X49938857Y-61686285D01*
X49891238Y-61710095D01*
X49700761Y-61710095D01*
X50462666Y-61948190D02*
X50176952Y-61948190D01*
X50319809Y-61948190D02*
X50319809Y-61448190D01*
X50272190Y-61519619D01*
X50224571Y-61567238D01*
X50176952Y-61591047D01*
X50772190Y-61448190D02*
X50819809Y-61448190D01*
X50867428Y-61472000D01*
X50891238Y-61495809D01*
X50915047Y-61543428D01*
X50938857Y-61638666D01*
X50938857Y-61757714D01*
X50915047Y-61852952D01*
X50891238Y-61900571D01*
X50867428Y-61924380D01*
X50819809Y-61948190D01*
X50772190Y-61948190D01*
X50724571Y-61924380D01*
X50700761Y-61900571D01*
X50676952Y-61852952D01*
X50653142Y-61757714D01*
X50653142Y-61638666D01*
X50676952Y-61543428D01*
X50700761Y-61495809D01*
X50724571Y-61472000D01*
X50772190Y-61448190D01*
X51415047Y-61948190D02*
X51129333Y-61948190D01*
X51272190Y-61948190D02*
X51272190Y-61448190D01*
X51224571Y-61519619D01*
X51176952Y-61567238D01*
X51129333Y-61591047D01*
D12*
%TO.C,C115*%
X63225000Y-72527000D02*
X63225000Y-73777000D01*
X61225000Y-72527000D02*
X63225000Y-72527000D01*
X61225000Y-73777000D02*
X61225000Y-72527000D01*
X63225000Y-73777000D02*
X61225000Y-73777000D01*
%TO.C,C114*%
X60823000Y-62627000D02*
X60823000Y-64627000D01*
X59573000Y-62627000D02*
X60823000Y-62627000D01*
X60823000Y-64627000D02*
X59573000Y-64627000D01*
X59573000Y-64627000D02*
X59573000Y-62627000D01*
%TO.C,J105*%
X58039000Y-47513000D02*
X58674000Y-46878000D01*
X60579000Y-54498000D02*
X58039000Y-54498000D01*
X58674000Y-46878000D02*
X60579000Y-46878000D01*
X60579000Y-46878000D02*
X60579000Y-54498000D01*
X58039000Y-54498000D02*
X58039000Y-47513000D01*
%TO.C,C107*%
X47482000Y-64018000D02*
X47482000Y-65268000D01*
X45482000Y-64018000D02*
X47482000Y-64018000D01*
X45482000Y-65268000D02*
X45482000Y-64018000D01*
X47482000Y-65268000D02*
X45482000Y-65268000D01*
%TO.C,C106*%
X40523000Y-71993000D02*
X40523000Y-69993000D01*
X41773000Y-69993000D02*
X41773000Y-71993000D01*
X41773000Y-71993000D02*
X40523000Y-71993000D01*
X40523000Y-69993000D02*
X41773000Y-69993000D01*
%TO.C,C111*%
X48651000Y-68977000D02*
X49901000Y-68977000D01*
X49901000Y-68977000D02*
X49901000Y-70977000D01*
X48651000Y-70977000D02*
X48651000Y-68977000D01*
X49901000Y-70977000D02*
X48651000Y-70977000D01*
%TO.C,J101*%
X61722000Y-64897000D02*
X61722000Y-57912000D01*
X64262000Y-64897000D02*
X61722000Y-64897000D01*
X64262000Y-57277000D02*
X64262000Y-64897000D01*
X61722000Y-57912000D02*
X62357000Y-57277000D01*
X62357000Y-57277000D02*
X64262000Y-57277000D01*
%TO.C,C101*%
X44460000Y-59928000D02*
X44460000Y-57928000D01*
X44460000Y-57928000D02*
X45710000Y-57928000D01*
X45710000Y-59928000D02*
X44460000Y-59928000D01*
X45710000Y-57928000D02*
X45710000Y-59928000D01*
%TO.C,C116*%
X49514000Y-73396000D02*
X47514000Y-73396000D01*
X47514000Y-72146000D02*
X49514000Y-72146000D01*
X49514000Y-72146000D02*
X49514000Y-73396000D01*
X47514000Y-73396000D02*
X47514000Y-72146000D01*
%TO.C,R104*%
X58404000Y-65903000D02*
X56404000Y-65903000D01*
X56404000Y-64653000D02*
X58404000Y-64653000D01*
X58404000Y-64653000D02*
X58404000Y-65903000D01*
X56404000Y-65903000D02*
X56404000Y-64653000D01*
%TO.C,J106*%
X59182000Y-77089000D02*
X59182000Y-78994000D01*
X54102000Y-76454000D02*
X58547000Y-76454000D01*
X58547000Y-76454000D02*
X59182000Y-77089000D01*
X59182000Y-78994000D02*
X54102000Y-78994000D01*
X54102000Y-78994000D02*
X54102000Y-76454000D01*
%TO.C,J103*%
X42164000Y-49398000D02*
X42164000Y-54478000D01*
X40259000Y-49398000D02*
X42164000Y-49398000D01*
X39624000Y-50033000D02*
X40259000Y-49398000D01*
X42164000Y-54478000D02*
X39624000Y-54478000D01*
X39624000Y-54478000D02*
X39624000Y-50033000D01*
%TO.C,U102*%
X54109000Y-55163000D02*
X46434000Y-55163000D01*
X45459000Y-51263000D02*
X54109000Y-51263000D01*
X46434000Y-55163000D02*
X45459000Y-54188000D01*
X45459000Y-54188000D02*
X45459000Y-51263000D01*
X54109000Y-51263000D02*
X54109000Y-55163000D01*
%TO.C,C108*%
X46619000Y-68596000D02*
X47869000Y-68596000D01*
X47869000Y-68596000D02*
X47869000Y-70596000D01*
X46619000Y-70596000D02*
X46619000Y-68596000D01*
X47869000Y-70596000D02*
X46619000Y-70596000D01*
%TO.C,C103*%
X64252000Y-66183000D02*
X64252000Y-68183000D01*
X63002000Y-68183000D02*
X63002000Y-66183000D01*
X63002000Y-66183000D02*
X64252000Y-66183000D01*
X64252000Y-68183000D02*
X63002000Y-68183000D01*
%TO.C,R106*%
X54467000Y-68717000D02*
X54467000Y-69967000D01*
X52467000Y-68717000D02*
X54467000Y-68717000D01*
X52467000Y-69967000D02*
X52467000Y-68717000D01*
X54467000Y-69967000D02*
X52467000Y-69967000D01*
%TO.C,J107*%
X40386000Y-41397000D02*
X42291000Y-41397000D01*
X39751000Y-46477000D02*
X39751000Y-42032000D01*
X39751000Y-42032000D02*
X40386000Y-41397000D01*
X42291000Y-41397000D02*
X42291000Y-46477000D01*
X42291000Y-46477000D02*
X39751000Y-46477000D01*
%TO.C,J109*%
X43053000Y-74925000D02*
X43053000Y-70480000D01*
X45593000Y-69845000D02*
X45593000Y-74925000D01*
X43053000Y-70480000D02*
X43688000Y-69845000D01*
X45593000Y-74925000D02*
X43053000Y-74925000D01*
X43688000Y-69845000D02*
X45593000Y-69845000D01*
%TO.C,J104*%
X64262000Y-39370000D02*
X64262000Y-44450000D01*
X61722000Y-40005000D02*
X62357000Y-39370000D01*
X62357000Y-39370000D02*
X64262000Y-39370000D01*
X61722000Y-44450000D02*
X61722000Y-40005000D01*
X64262000Y-44450000D02*
X61722000Y-44450000D01*
%TO.C,RV101*%
X43568000Y-59360000D02*
X38738000Y-59360000D01*
X43383000Y-60630000D02*
X41214000Y-60629000D01*
X43383000Y-60630000D02*
X41214000Y-60629000D01*
X38738000Y-68890000D02*
X43568000Y-68890000D01*
X38738000Y-59360000D02*
X38738000Y-68890000D01*
X43568000Y-68890000D02*
X43568000Y-59360000D01*
X43393000Y-60630000D02*
G75*
G03*
X43393000Y-60630000I-1095000J0D01*
G01*
%TO.C,J108*%
X58039000Y-40000000D02*
X58674000Y-39365000D01*
X58039000Y-44445000D02*
X58039000Y-40000000D01*
X60579000Y-39365000D02*
X60579000Y-44445000D01*
X60579000Y-44445000D02*
X58039000Y-44445000D01*
X58674000Y-39365000D02*
X60579000Y-39365000D01*
%TO.C,R105*%
X59833000Y-65796000D02*
X61833000Y-65796000D01*
X59833000Y-67046000D02*
X59833000Y-65796000D01*
X61833000Y-65796000D02*
X61833000Y-67046000D01*
X61833000Y-67046000D02*
X59833000Y-67046000D01*
%TO.C,C117*%
X56404000Y-67935000D02*
X56404000Y-66685000D01*
X58404000Y-66685000D02*
X58404000Y-67935000D01*
X58404000Y-67935000D02*
X56404000Y-67935000D01*
X56404000Y-66685000D02*
X58404000Y-66685000D01*
%TO.C,U103*%
X45332000Y-44536000D02*
X45332000Y-41611000D01*
X45332000Y-41611000D02*
X53982000Y-41611000D01*
X53982000Y-41611000D02*
X53982000Y-45511000D01*
X53982000Y-45511000D02*
X46307000Y-45511000D01*
X46307000Y-45511000D02*
X45332000Y-44536000D01*
%TO.C,C105*%
X40523000Y-58277000D02*
X40523000Y-56277000D01*
X40523000Y-56277000D02*
X41773000Y-56277000D01*
X41773000Y-56277000D02*
X41773000Y-58277000D01*
X41773000Y-58277000D02*
X40523000Y-58277000D01*
%TO.C,C104*%
X58404000Y-63490000D02*
X56404000Y-63490000D01*
X58404000Y-62240000D02*
X58404000Y-63490000D01*
X56404000Y-63490000D02*
X56404000Y-62240000D01*
X56404000Y-62240000D02*
X58404000Y-62240000D01*
%TO.C,C112*%
X43831000Y-38110000D02*
X45831000Y-38110000D01*
X43831000Y-39360000D02*
X43831000Y-38110000D01*
X45831000Y-38110000D02*
X45831000Y-39360000D01*
X45831000Y-39360000D02*
X43831000Y-39360000D01*
%TO.C,U101*%
X53893000Y-67982000D02*
X49993000Y-67982000D01*
X53893000Y-63082000D02*
X53893000Y-67982000D01*
X49993000Y-67982000D02*
X49993000Y-64057000D01*
X49993000Y-64057000D02*
X50968000Y-63082000D01*
X50968000Y-63082000D02*
X53893000Y-63082000D01*
%TO.C,R102*%
X46117000Y-62347000D02*
X46117000Y-61097000D01*
X46117000Y-61097000D02*
X48117000Y-61097000D01*
X48117000Y-61097000D02*
X48117000Y-62347000D01*
X48117000Y-62347000D02*
X46117000Y-62347000D01*
%TO.C,J102*%
X61722000Y-47498000D02*
X62357000Y-46863000D01*
X61722000Y-54483000D02*
X61722000Y-47498000D01*
X62357000Y-46863000D02*
X64262000Y-46863000D01*
X64262000Y-54483000D02*
X61722000Y-54483000D01*
X64262000Y-46863000D02*
X64262000Y-54483000D01*
%TO.C,RV102*%
X60137000Y-75572000D02*
X60137000Y-70742000D01*
X58867000Y-75387000D02*
X58868000Y-73218000D01*
X60137000Y-70742000D02*
X50607000Y-70742000D01*
X58867000Y-75387000D02*
X58868000Y-73218000D01*
X50607000Y-70742000D02*
X50607000Y-75572000D01*
X50607000Y-75572000D02*
X60137000Y-75572000D01*
X59962000Y-74302000D02*
G75*
G03*
X59962000Y-74302000I-1095000J0D01*
G01*
%TO.C,R103*%
X45482000Y-67427000D02*
X45482000Y-66177000D01*
X47482000Y-67427000D02*
X45482000Y-67427000D01*
X47482000Y-66177000D02*
X47482000Y-67427000D01*
X45482000Y-66177000D02*
X47482000Y-66177000D01*
%TO.C,C110*%
X60696000Y-57420000D02*
X60696000Y-59420000D01*
X60696000Y-59420000D02*
X59446000Y-59420000D01*
X59446000Y-59420000D02*
X59446000Y-57420000D01*
X59446000Y-57420000D02*
X60696000Y-57420000D01*
%TO.C,C118*%
X55896000Y-69967000D02*
X55896000Y-68717000D01*
X55896000Y-68717000D02*
X57896000Y-68717000D01*
X57896000Y-68717000D02*
X57896000Y-69967000D01*
X57896000Y-69967000D02*
X55896000Y-69967000D01*
%TO.C,C113*%
X45958000Y-49012000D02*
X43958000Y-49012000D01*
X43958000Y-47762000D02*
X45958000Y-47762000D01*
X45958000Y-47762000D02*
X45958000Y-49012000D01*
X43958000Y-49012000D02*
X43958000Y-47762000D01*
%TO.C,R101*%
X49546000Y-62347000D02*
X49546000Y-61097000D01*
X51546000Y-62347000D02*
X49546000Y-62347000D01*
X49546000Y-61097000D02*
X51546000Y-61097000D01*
X51546000Y-61097000D02*
X51546000Y-62347000D01*
%TD*%
M02*
