%TF.GenerationSoftware,KiCad,Pcbnew,(6.0.8)*%
%TF.CreationDate,2022-10-15T16:47:31+02:00*%
%TF.ProjectId,Digital Delay,44696769-7461-46c2-9044-656c61792e6b,rev?*%
%TF.SameCoordinates,Original*%
%TF.FileFunction,Copper,L4,Bot*%
%TF.FilePolarity,Positive*%
%FSLAX46Y46*%
G04 Gerber Fmt 4.6, Leading zero omitted, Abs format (unit mm)*
G04 Created by KiCad (PCBNEW (6.0.8)) date 2022-10-15 16:47:31*
%MOMM*%
%LPD*%
G01*
G04 APERTURE LIST*
%TA.AperFunction,ComponentPad*%
%ADD10R,1.700000X1.700000*%
%TD*%
%TA.AperFunction,ComponentPad*%
%ADD11O,1.700000X1.700000*%
%TD*%
%TA.AperFunction,ComponentPad*%
%ADD12C,1.440000*%
%TD*%
%TA.AperFunction,ViaPad*%
%ADD13C,0.800000*%
%TD*%
%TA.AperFunction,Conductor*%
%ADD14C,0.500000*%
%TD*%
%TA.AperFunction,Conductor*%
%ADD15C,0.300000*%
%TD*%
%TA.AperFunction,Conductor*%
%ADD16C,0.250000*%
%TD*%
G04 APERTURE END LIST*
D10*
%TO.P,J105,1,Pin_1*%
%TO.N,/Signal_Out_Falling*%
X59309000Y-48148000D03*
D11*
%TO.P,J105,2,Pin_2*%
%TO.N,/Falling_Edge_Out*%
X59309000Y-50688000D03*
%TO.P,J105,3,Pin_3*%
%TO.N,Signal_Falling*%
X59309000Y-53228000D03*
%TD*%
D10*
%TO.P,J101,1,Pin_1*%
%TO.N,-5V*%
X62992000Y-58547000D03*
D11*
%TO.P,J101,2,Pin_2*%
%TO.N,GND*%
X62992000Y-61087000D03*
%TO.P,J101,3,Pin_3*%
%TO.N,+5V*%
X62992000Y-63627000D03*
%TD*%
D10*
%TO.P,J106,1,Pin_1*%
%TO.N,GND*%
X57912000Y-77724000D03*
D11*
%TO.P,J106,2,Pin_2*%
%TO.N,/Ref_Comp_B*%
X55372000Y-77724000D03*
%TD*%
D10*
%TO.P,J103,1,Pin_1*%
%TO.N,GND*%
X40894000Y-50668000D03*
D11*
%TO.P,J103,2,Pin_2*%
%TO.N,/Ref_Comp_A*%
X40894000Y-53208000D03*
%TD*%
D10*
%TO.P,J107,1,Pin_1*%
%TO.N,GND*%
X41021000Y-42667000D03*
D11*
%TO.P,J107,2,Pin_2*%
%TO.N,/Falling_Edge_Out*%
X41021000Y-45207000D03*
%TD*%
D10*
%TO.P,J109,1,Pin_1*%
%TO.N,Signal_In*%
X44323000Y-71115000D03*
D11*
%TO.P,J109,2,Pin_2*%
%TO.N,GND*%
X44323000Y-73655000D03*
%TD*%
D10*
%TO.P,J104,1,Pin_1*%
%TO.N,GND*%
X62992000Y-40640000D03*
D11*
%TO.P,J104,2,Pin_2*%
%TO.N,/Rising_Edge_Out*%
X62992000Y-43180000D03*
%TD*%
D12*
%TO.P,RV101,1,1*%
%TO.N,+5V*%
X41148000Y-61585000D03*
%TO.P,RV101,2,2*%
%TO.N,/Ref_Comp_A*%
X41148000Y-64125000D03*
%TO.P,RV101,3,3*%
%TO.N,-5V*%
X41148000Y-66665000D03*
%TD*%
D10*
%TO.P,J108,1,Pin_1*%
%TO.N,GND*%
X59309000Y-40635000D03*
D11*
%TO.P,J108,2,Pin_2*%
%TO.N,/Both_Edges_Out*%
X59309000Y-43175000D03*
%TD*%
D10*
%TO.P,J102,1,Pin_1*%
%TO.N,/Signal_Out_Rising*%
X62992000Y-48133000D03*
D11*
%TO.P,J102,2,Pin_2*%
%TO.N,/Rising_Edge_Out*%
X62992000Y-50673000D03*
%TO.P,J102,3,Pin_3*%
%TO.N,Signal_Rising*%
X62992000Y-53213000D03*
%TD*%
D12*
%TO.P,RV102,1,1*%
%TO.N,+5V*%
X57912000Y-73152000D03*
%TO.P,RV102,2,2*%
%TO.N,/Ref_Comp_B*%
X55372000Y-73152000D03*
%TO.P,RV102,3,3*%
%TO.N,-5V*%
X52832000Y-73152000D03*
%TD*%
D13*
%TO.N,+5V*%
X61380489Y-71715511D03*
X47117000Y-48768000D03*
X46863000Y-38227000D03*
X61087000Y-67691000D03*
X57023000Y-61468000D03*
X42545000Y-57912000D03*
X46863000Y-39116000D03*
X46355000Y-60452000D03*
X48540220Y-57327899D03*
X46355000Y-59563000D03*
%TO.N,GND*%
X58420000Y-61976000D03*
X63627000Y-69342000D03*
X54610000Y-56642000D03*
X47498000Y-74168000D03*
X42799000Y-48895000D03*
X60579000Y-56388000D03*
X53467000Y-47752000D03*
X42545000Y-71628000D03*
X59690000Y-56388000D03*
X59055000Y-68707000D03*
X44450000Y-64389000D03*
X62992000Y-71755000D03*
X62230000Y-67818000D03*
X52819374Y-66255835D03*
X48821734Y-54085724D03*
X59436000Y-61595000D03*
X56822438Y-54797297D03*
X54483000Y-45339000D03*
X43577826Y-66776378D03*
X54610000Y-54864000D03*
X56740762Y-49784980D03*
X57789502Y-53366952D03*
X54380718Y-41388965D03*
X39751000Y-55880000D03*
X43434000Y-46990000D03*
X42672000Y-38227000D03*
X42672000Y-39116000D03*
X63881000Y-74549000D03*
X59563000Y-67945000D03*
X44196000Y-40132000D03*
X43831497Y-50800000D03*
X46482000Y-73152000D03*
X39751000Y-56769000D03*
X43307000Y-40132000D03*
X47498000Y-71501000D03*
X62992000Y-74549000D03*
X54483000Y-46482000D03*
X42545000Y-55880000D03*
X43561000Y-49784000D03*
X60325000Y-61595000D03*
X40788034Y-55250119D03*
X42545000Y-72517000D03*
X51435000Y-44323000D03*
X65024000Y-67818000D03*
X39751000Y-71628000D03*
X50673000Y-71501000D03*
X44450000Y-65405000D03*
X50016023Y-52314523D03*
X44450000Y-49784000D03*
X44323000Y-46990000D03*
X45974000Y-71120000D03*
X56022672Y-43053010D03*
X52675563Y-42298698D03*
X44848201Y-44539500D03*
X43269117Y-60297681D03*
X50971168Y-67906122D03*
X59055000Y-69850000D03*
X59436000Y-60706000D03*
X41148000Y-73152000D03*
X42799000Y-48006000D03*
X44704000Y-56769000D03*
X43688000Y-57465000D03*
X43688000Y-58354000D03*
X54610000Y-55753000D03*
X48102904Y-47789317D03*
X52521830Y-44310500D03*
X58674000Y-57531000D03*
X57553500Y-67147286D03*
X65024000Y-68707000D03*
X46482000Y-72263000D03*
X48553500Y-42418000D03*
X47371000Y-42418000D03*
X57402648Y-51546273D03*
X64389000Y-73152000D03*
X50690932Y-53935907D03*
X50673000Y-70612000D03*
X46482000Y-58354000D03*
X51562000Y-42291000D03*
X62230000Y-68707000D03*
X45974000Y-70231000D03*
X39751000Y-72517000D03*
X63881000Y-71755000D03*
X57912000Y-70739000D03*
%TO.N,-5V*%
X58740000Y-59370000D03*
X49022000Y-74168000D03*
X42545000Y-70358000D03*
X39751000Y-70358000D03*
X50673000Y-69469000D03*
%TO.N,/Ref_Comp_B*%
X56896000Y-68385699D03*
%TO.N,/Signal_Comp_B*%
X53002495Y-67238419D03*
X57277000Y-66167000D03*
%TO.N,Signal_Rising*%
X56755728Y-50784369D03*
%TO.N,Signal_Falling*%
X49784000Y-54356000D03*
X51054000Y-52336500D03*
X56740773Y-52295773D03*
%TO.N,/Both_Edges_Out*%
X54206979Y-42373251D03*
X52567500Y-46794942D03*
X51537258Y-54467638D03*
X53594000Y-44310500D03*
%TO.N,Signal_In*%
X51000883Y-66907062D03*
X44831000Y-50800000D03*
X41787296Y-55228163D03*
X47117000Y-47625000D03*
X43459590Y-64254501D03*
X44577000Y-66802000D03*
%TO.N,/Comp_Out_B*%
X55023873Y-43015500D03*
X55991262Y-55356262D03*
X45847000Y-44577000D03*
X52832000Y-43307000D03*
%TO.N,Net-(U102-Pad6)*%
X50419000Y-44577000D03*
X52959000Y-54102000D03*
%TO.N,Net-(U102-Pad8)*%
X53594000Y-49276000D03*
X52468201Y-47789500D03*
%TD*%
D14*
%TO.N,/Ref_Comp_B*%
X56896000Y-71628000D02*
X55372000Y-73152000D01*
X56896000Y-68385699D02*
X56896000Y-71628000D01*
D15*
%TO.N,/Signal_Comp_B*%
X54073914Y-66167000D02*
X57277000Y-66167000D01*
X53002495Y-67238419D02*
X54073914Y-66167000D01*
%TO.N,Signal_Rising*%
X58867634Y-51943000D02*
X61722000Y-51943000D01*
X56755728Y-50784369D02*
X57709003Y-50784369D01*
X57709003Y-50784369D02*
X58867634Y-51943000D01*
X61722000Y-51943000D02*
X62992000Y-53213000D01*
%TO.N,Signal_Falling*%
X58376773Y-52295773D02*
X59309000Y-53228000D01*
X56740773Y-52295773D02*
X58376773Y-52295773D01*
X49784000Y-53606500D02*
X51054000Y-52336500D01*
X49784000Y-54356000D02*
X49784000Y-53606500D01*
%TO.N,/Both_Edges_Out*%
X52322453Y-47039989D02*
X52157742Y-47039989D01*
X52157742Y-47039989D02*
X51562000Y-47635731D01*
X51562000Y-47635731D02*
X51562000Y-47960470D01*
X51562000Y-47960470D02*
X52116446Y-48514916D01*
D16*
X54206979Y-42373251D02*
X53594000Y-42986230D01*
D15*
X52567500Y-46794942D02*
X52322453Y-47039989D01*
X52116446Y-48514916D02*
X52116446Y-53888450D01*
D16*
X53594000Y-42986230D02*
X53594000Y-44310500D01*
D15*
X52116446Y-53888450D02*
X51537258Y-54467638D01*
%TO.N,Signal_In*%
X41783000Y-55499000D02*
X41783000Y-59334383D01*
X50895821Y-66802000D02*
X44577000Y-66802000D01*
X51000883Y-66907062D02*
X50895821Y-66802000D01*
X42217511Y-63012422D02*
X43459590Y-64254501D01*
X45212000Y-50419000D02*
X45212000Y-48514000D01*
X44831000Y-50800000D02*
X45212000Y-50419000D01*
X41783000Y-59334383D02*
X42217511Y-59768894D01*
X46101000Y-47625000D02*
X47117000Y-47625000D01*
X42217511Y-59768894D02*
X42217511Y-63012422D01*
X45212000Y-48514000D02*
X46101000Y-47625000D01*
X41787296Y-55228163D02*
X41787296Y-55494704D01*
X41787296Y-55494704D02*
X41783000Y-55499000D01*
%TO.N,/Comp_Out_B*%
X56007000Y-55372000D02*
X55991262Y-55356262D01*
X55023873Y-43015500D02*
X55023873Y-44355873D01*
X55023873Y-44355873D02*
X55991262Y-45323262D01*
X52705000Y-43180000D02*
X52832000Y-43307000D01*
X45847000Y-44577000D02*
X47244000Y-43180000D01*
X47244000Y-43180000D02*
X52705000Y-43180000D01*
X55991262Y-45323262D02*
X55991262Y-55356262D01*
%TO.N,Net-(U102-Pad6)*%
X52959000Y-54105866D02*
X51819866Y-55245000D01*
X50927000Y-45085000D02*
X50419000Y-44577000D01*
X48072223Y-54396183D02*
X48072223Y-51876777D01*
X48921040Y-55245000D02*
X48072223Y-54396183D01*
X51819866Y-55245000D02*
X48921040Y-55245000D01*
X48072223Y-51876777D02*
X50927000Y-49022000D01*
X52959000Y-54102000D02*
X52959000Y-54105866D01*
X50927000Y-49022000D02*
X50927000Y-45085000D01*
%TO.N,Net-(U102-Pad8)*%
X52468201Y-47789500D02*
X52468201Y-48150201D01*
X52468201Y-48150201D02*
X53594000Y-49276000D01*
%TD*%
M02*
