%TF.GenerationSoftware,KiCad,Pcbnew,(6.0.8)*%
%TF.CreationDate,2022-10-15T17:18:15+02:00*%
%TF.ProjectId,Digital Delay,44696769-7461-46c2-9044-656c61792e6b,rev?*%
%TF.SameCoordinates,Original*%
%TF.FileFunction,Other,User*%
%FSLAX46Y46*%
G04 Gerber Fmt 4.6, Leading zero omitted, Abs format (unit mm)*
G04 Created by KiCad (PCBNEW (6.0.8)) date 2022-10-15 17:18:15*
%MOMM*%
%LPD*%
G01*
G04 APERTURE LIST*
%ADD10C,0.050000*%
G04 APERTURE END LIST*
D10*
%TO.C,C115*%
X60525000Y-72172000D02*
X63925000Y-72172000D01*
X63925000Y-72172000D02*
X63925000Y-74132000D01*
X60525000Y-74132000D02*
X60525000Y-72172000D01*
X63925000Y-74132000D02*
X60525000Y-74132000D01*
%TO.C,C114*%
X59218000Y-65327000D02*
X59218000Y-61927000D01*
X61178000Y-65327000D02*
X59218000Y-65327000D01*
X61178000Y-61927000D02*
X61178000Y-65327000D01*
X59218000Y-61927000D02*
X61178000Y-61927000D01*
%TO.C,J105*%
X61109000Y-54998000D02*
X61109000Y-46348000D01*
X57509000Y-46348000D02*
X57509000Y-54998000D01*
X57509000Y-54998000D02*
X61109000Y-54998000D01*
X61109000Y-46348000D02*
X57509000Y-46348000D01*
%TO.C,C107*%
X44782000Y-65623000D02*
X44782000Y-63663000D01*
X44782000Y-63663000D02*
X48182000Y-63663000D01*
X48182000Y-63663000D02*
X48182000Y-65623000D01*
X48182000Y-65623000D02*
X44782000Y-65623000D01*
%TO.C,C106*%
X40168000Y-69293000D02*
X42128000Y-69293000D01*
X40168000Y-72693000D02*
X40168000Y-69293000D01*
X42128000Y-69293000D02*
X42128000Y-72693000D01*
X42128000Y-72693000D02*
X40168000Y-72693000D01*
%TO.C,C111*%
X48296000Y-71677000D02*
X48296000Y-68277000D01*
X50256000Y-68277000D02*
X50256000Y-71677000D01*
X50256000Y-71677000D02*
X48296000Y-71677000D01*
X48296000Y-68277000D02*
X50256000Y-68277000D01*
%TO.C,J101*%
X61192000Y-56747000D02*
X61192000Y-65397000D01*
X61192000Y-65397000D02*
X64792000Y-65397000D01*
X64792000Y-56747000D02*
X61192000Y-56747000D01*
X64792000Y-65397000D02*
X64792000Y-56747000D01*
%TO.C,C101*%
X44105000Y-57228000D02*
X46065000Y-57228000D01*
X44105000Y-60628000D02*
X44105000Y-57228000D01*
X46065000Y-60628000D02*
X44105000Y-60628000D01*
X46065000Y-57228000D02*
X46065000Y-60628000D01*
%TO.C,C116*%
X50214000Y-71791000D02*
X50214000Y-73751000D01*
X46814000Y-73751000D02*
X46814000Y-71791000D01*
X50214000Y-73751000D02*
X46814000Y-73751000D01*
X46814000Y-71791000D02*
X50214000Y-71791000D01*
%TO.C,R104*%
X59104000Y-66258000D02*
X55704000Y-66258000D01*
X55704000Y-66258000D02*
X55704000Y-64298000D01*
X55704000Y-64298000D02*
X59104000Y-64298000D01*
X59104000Y-64298000D02*
X59104000Y-66258000D01*
%TO.C,J106*%
X59712000Y-79524000D02*
X59712000Y-75924000D01*
X53562000Y-75924000D02*
X53562000Y-79524000D01*
X59712000Y-75924000D02*
X53562000Y-75924000D01*
X53562000Y-79524000D02*
X59712000Y-79524000D01*
%TO.C,J103*%
X39094000Y-48868000D02*
X39094000Y-55018000D01*
X42694000Y-48868000D02*
X39094000Y-48868000D01*
X39094000Y-55018000D02*
X42694000Y-55018000D01*
X42694000Y-55018000D02*
X42694000Y-48868000D01*
%TO.C,U102*%
X45204000Y-56913000D02*
X54364000Y-56913000D01*
X54364000Y-49513000D02*
X45204000Y-49513000D01*
X45204000Y-49513000D02*
X45204000Y-56913000D01*
X54364000Y-56913000D02*
X54364000Y-49513000D01*
%TO.C,C108*%
X48224000Y-71296000D02*
X46264000Y-71296000D01*
X48224000Y-67896000D02*
X48224000Y-71296000D01*
X46264000Y-71296000D02*
X46264000Y-67896000D01*
X46264000Y-67896000D02*
X48224000Y-67896000D01*
%TO.C,C103*%
X62647000Y-65483000D02*
X64607000Y-65483000D01*
X64607000Y-68883000D02*
X62647000Y-68883000D01*
X62647000Y-68883000D02*
X62647000Y-65483000D01*
X64607000Y-65483000D02*
X64607000Y-68883000D01*
%TO.C,R106*%
X51767000Y-68362000D02*
X55167000Y-68362000D01*
X51767000Y-70322000D02*
X51767000Y-68362000D01*
X55167000Y-68362000D02*
X55167000Y-70322000D01*
X55167000Y-70322000D02*
X51767000Y-70322000D01*
%TO.C,J107*%
X42821000Y-47017000D02*
X42821000Y-40867000D01*
X39221000Y-40867000D02*
X39221000Y-47017000D01*
X39221000Y-47017000D02*
X42821000Y-47017000D01*
X42821000Y-40867000D02*
X39221000Y-40867000D01*
%TO.C,J109*%
X46123000Y-75465000D02*
X46123000Y-69315000D01*
X42523000Y-75465000D02*
X46123000Y-75465000D01*
X46123000Y-69315000D02*
X42523000Y-69315000D01*
X42523000Y-69315000D02*
X42523000Y-75465000D01*
%TO.C,J104*%
X61192000Y-38840000D02*
X61192000Y-44990000D01*
X64792000Y-44990000D02*
X64792000Y-38840000D01*
X64792000Y-38840000D02*
X61192000Y-38840000D01*
X61192000Y-44990000D02*
X64792000Y-44990000D01*
%TO.C,RV101*%
X38448000Y-69185000D02*
X43848000Y-69185000D01*
X38448000Y-59085000D02*
X38448000Y-69185000D01*
X43848000Y-59085000D02*
X38448000Y-59085000D01*
X43848000Y-69185000D02*
X43848000Y-59085000D01*
%TO.C,J108*%
X57509000Y-44985000D02*
X61109000Y-44985000D01*
X57509000Y-38835000D02*
X57509000Y-44985000D01*
X61109000Y-38835000D02*
X57509000Y-38835000D01*
X61109000Y-44985000D02*
X61109000Y-38835000D01*
%TO.C,R105*%
X59133000Y-65441000D02*
X62533000Y-65441000D01*
X59133000Y-67401000D02*
X59133000Y-65441000D01*
X62533000Y-67401000D02*
X59133000Y-67401000D01*
X62533000Y-65441000D02*
X62533000Y-67401000D01*
%TO.C,C117*%
X59104000Y-68290000D02*
X55704000Y-68290000D01*
X55704000Y-68290000D02*
X55704000Y-66330000D01*
X59104000Y-66330000D02*
X59104000Y-68290000D01*
X55704000Y-66330000D02*
X59104000Y-66330000D01*
%TO.C,U103*%
X54237000Y-39861000D02*
X45077000Y-39861000D01*
X45077000Y-39861000D02*
X45077000Y-47261000D01*
X45077000Y-47261000D02*
X54237000Y-47261000D01*
X54237000Y-47261000D02*
X54237000Y-39861000D01*
%TO.C,C105*%
X42128000Y-58977000D02*
X40168000Y-58977000D01*
X40168000Y-58977000D02*
X40168000Y-55577000D01*
X42128000Y-55577000D02*
X42128000Y-58977000D01*
X40168000Y-55577000D02*
X42128000Y-55577000D01*
%TO.C,C104*%
X55704000Y-61885000D02*
X59104000Y-61885000D01*
X55704000Y-63845000D02*
X55704000Y-61885000D01*
X59104000Y-61885000D02*
X59104000Y-63845000D01*
X59104000Y-63845000D02*
X55704000Y-63845000D01*
%TO.C,C112*%
X46531000Y-37755000D02*
X46531000Y-39715000D01*
X46531000Y-39715000D02*
X43131000Y-39715000D01*
X43131000Y-39715000D02*
X43131000Y-37755000D01*
X43131000Y-37755000D02*
X46531000Y-37755000D01*
%TO.C,U101*%
X48243000Y-62832000D02*
X48243000Y-68232000D01*
X55643000Y-68232000D02*
X55643000Y-62832000D01*
X48243000Y-68232000D02*
X55643000Y-68232000D01*
X55643000Y-62832000D02*
X48243000Y-62832000D01*
%TO.C,R102*%
X45417000Y-62702000D02*
X45417000Y-60742000D01*
X48817000Y-60742000D02*
X48817000Y-62702000D01*
X48817000Y-62702000D02*
X45417000Y-62702000D01*
X45417000Y-60742000D02*
X48817000Y-60742000D01*
%TO.C,J102*%
X64792000Y-46333000D02*
X61192000Y-46333000D01*
X64792000Y-54983000D02*
X64792000Y-46333000D01*
X61192000Y-46333000D02*
X61192000Y-54983000D01*
X61192000Y-54983000D02*
X64792000Y-54983000D01*
%TO.C,RV102*%
X60412000Y-75852000D02*
X60412000Y-70452000D01*
X50312000Y-70452000D02*
X50312000Y-75852000D01*
X60412000Y-70452000D02*
X50312000Y-70452000D01*
X50312000Y-75852000D02*
X60412000Y-75852000D01*
%TO.C,R103*%
X44782000Y-65822000D02*
X48182000Y-65822000D01*
X48182000Y-67782000D02*
X44782000Y-67782000D01*
X44782000Y-67782000D02*
X44782000Y-65822000D01*
X48182000Y-65822000D02*
X48182000Y-67782000D01*
%TO.C,C110*%
X59091000Y-56720000D02*
X61051000Y-56720000D01*
X59091000Y-60120000D02*
X59091000Y-56720000D01*
X61051000Y-56720000D02*
X61051000Y-60120000D01*
X61051000Y-60120000D02*
X59091000Y-60120000D01*
%TO.C,C118*%
X55196000Y-70322000D02*
X55196000Y-68362000D01*
X55196000Y-68362000D02*
X58596000Y-68362000D01*
X58596000Y-68362000D02*
X58596000Y-70322000D01*
X58596000Y-70322000D02*
X55196000Y-70322000D01*
%TO.C,C113*%
X43258000Y-47407000D02*
X46658000Y-47407000D01*
X43258000Y-49367000D02*
X43258000Y-47407000D01*
X46658000Y-47407000D02*
X46658000Y-49367000D01*
X46658000Y-49367000D02*
X43258000Y-49367000D01*
%TO.C,R101*%
X48846000Y-60742000D02*
X52246000Y-60742000D01*
X48846000Y-62702000D02*
X48846000Y-60742000D01*
X52246000Y-62702000D02*
X48846000Y-62702000D01*
X52246000Y-60742000D02*
X52246000Y-62702000D01*
%TD*%
M02*
