%TF.GenerationSoftware,KiCad,Pcbnew,(6.0.8)*%
%TF.CreationDate,2022-10-15T17:18:15+02:00*%
%TF.ProjectId,Digital Delay,44696769-7461-46c2-9044-656c61792e6b,rev?*%
%TF.SameCoordinates,Original*%
%TF.FileFunction,Copper,L1,Top*%
%TF.FilePolarity,Positive*%
%FSLAX46Y46*%
G04 Gerber Fmt 4.6, Leading zero omitted, Abs format (unit mm)*
G04 Created by KiCad (PCBNEW (6.0.8)) date 2022-10-15 17:18:15*
%MOMM*%
%LPD*%
G01*
G04 APERTURE LIST*
G04 Aperture macros list*
%AMRoundRect*
0 Rectangle with rounded corners*
0 $1 Rounding radius*
0 $2 $3 $4 $5 $6 $7 $8 $9 X,Y pos of 4 corners*
0 Add a 4 corners polygon primitive as box body*
4,1,4,$2,$3,$4,$5,$6,$7,$8,$9,$2,$3,0*
0 Add four circle primitives for the rounded corners*
1,1,$1+$1,$2,$3*
1,1,$1+$1,$4,$5*
1,1,$1+$1,$6,$7*
1,1,$1+$1,$8,$9*
0 Add four rect primitives between the rounded corners*
20,1,$1+$1,$2,$3,$4,$5,0*
20,1,$1+$1,$4,$5,$6,$7,0*
20,1,$1+$1,$6,$7,$8,$9,0*
20,1,$1+$1,$8,$9,$2,$3,0*%
G04 Aperture macros list end*
%TA.AperFunction,SMDPad,CuDef*%
%ADD10RoundRect,0.250000X-0.250000X-0.475000X0.250000X-0.475000X0.250000X0.475000X-0.250000X0.475000X0*%
%TD*%
%TA.AperFunction,SMDPad,CuDef*%
%ADD11RoundRect,0.250000X0.475000X-0.250000X0.475000X0.250000X-0.475000X0.250000X-0.475000X-0.250000X0*%
%TD*%
%TA.AperFunction,ComponentPad*%
%ADD12R,1.700000X1.700000*%
%TD*%
%TA.AperFunction,ComponentPad*%
%ADD13O,1.700000X1.700000*%
%TD*%
%TA.AperFunction,SMDPad,CuDef*%
%ADD14RoundRect,0.250000X0.250000X0.475000X-0.250000X0.475000X-0.250000X-0.475000X0.250000X-0.475000X0*%
%TD*%
%TA.AperFunction,SMDPad,CuDef*%
%ADD15RoundRect,0.250000X-0.475000X0.250000X-0.475000X-0.250000X0.475000X-0.250000X0.475000X0.250000X0*%
%TD*%
%TA.AperFunction,SMDPad,CuDef*%
%ADD16RoundRect,0.150000X0.150000X-0.825000X0.150000X0.825000X-0.150000X0.825000X-0.150000X-0.825000X0*%
%TD*%
%TA.AperFunction,ComponentPad*%
%ADD17C,1.440000*%
%TD*%
%TA.AperFunction,SMDPad,CuDef*%
%ADD18RoundRect,0.150000X-0.825000X-0.150000X0.825000X-0.150000X0.825000X0.150000X-0.825000X0.150000X0*%
%TD*%
%TA.AperFunction,ViaPad*%
%ADD19C,0.800000*%
%TD*%
%TA.AperFunction,Conductor*%
%ADD20C,0.300000*%
%TD*%
%TA.AperFunction,Conductor*%
%ADD21C,0.500000*%
%TD*%
%TA.AperFunction,Conductor*%
%ADD22C,0.250000*%
%TD*%
G04 APERTURE END LIST*
D10*
%TO.P,C115,1*%
%TO.N,+5V*%
X61275000Y-73152000D03*
%TO.P,C115,2*%
%TO.N,GND*%
X63175000Y-73152000D03*
%TD*%
D11*
%TO.P,C114,1*%
%TO.N,+5V*%
X60198000Y-64577000D03*
%TO.P,C114,2*%
%TO.N,GND*%
X60198000Y-62677000D03*
%TD*%
D12*
%TO.P,J105,1,Pin_1*%
%TO.N,/Signal_Out_Falling*%
X59309000Y-48148000D03*
D13*
%TO.P,J105,2,Pin_2*%
%TO.N,/Falling_Edge_Out*%
X59309000Y-50688000D03*
%TO.P,J105,3,Pin_3*%
%TO.N,Signal_Falling*%
X59309000Y-53228000D03*
%TD*%
D14*
%TO.P,C107,1*%
%TO.N,/Ref_Comp_A*%
X47432000Y-64643000D03*
%TO.P,C107,2*%
%TO.N,GND*%
X45532000Y-64643000D03*
%TD*%
D15*
%TO.P,C106,1*%
%TO.N,-5V*%
X41148000Y-70043000D03*
%TO.P,C106,2*%
%TO.N,GND*%
X41148000Y-71943000D03*
%TD*%
%TO.P,C111,1*%
%TO.N,-5V*%
X49276000Y-69027000D03*
%TO.P,C111,2*%
%TO.N,GND*%
X49276000Y-70927000D03*
%TD*%
D12*
%TO.P,J101,1,Pin_1*%
%TO.N,-5V*%
X62992000Y-58547000D03*
D13*
%TO.P,J101,2,Pin_2*%
%TO.N,GND*%
X62992000Y-61087000D03*
%TO.P,J101,3,Pin_3*%
%TO.N,+5V*%
X62992000Y-63627000D03*
%TD*%
D11*
%TO.P,C101,1*%
%TO.N,+5V*%
X45085000Y-59878000D03*
%TO.P,C101,2*%
%TO.N,GND*%
X45085000Y-57978000D03*
%TD*%
D14*
%TO.P,C116,1*%
%TO.N,-5V*%
X49464000Y-72771000D03*
%TO.P,C116,2*%
%TO.N,GND*%
X47564000Y-72771000D03*
%TD*%
D10*
%TO.P,R104,1*%
%TO.N,/Signal_Comp_B*%
X56454000Y-65278000D03*
%TO.P,R104,2*%
%TO.N,/Comp_Out_B*%
X58354000Y-65278000D03*
%TD*%
D12*
%TO.P,J106,1,Pin_1*%
%TO.N,GND*%
X57912000Y-77724000D03*
D13*
%TO.P,J106,2,Pin_2*%
%TO.N,/Ref_Comp_B*%
X55372000Y-77724000D03*
%TD*%
D12*
%TO.P,J103,1,Pin_1*%
%TO.N,GND*%
X40894000Y-50668000D03*
D13*
%TO.P,J103,2,Pin_2*%
%TO.N,/Ref_Comp_A*%
X40894000Y-53208000D03*
%TD*%
D16*
%TO.P,U102,1*%
%TO.N,/Comp_Out_A*%
X45974000Y-55688000D03*
%TO.P,U102,2*%
%TO.N,Signal_In*%
X47244000Y-55688000D03*
%TO.P,U102,3*%
%TO.N,+5V*%
X48514000Y-55688000D03*
%TO.P,U102,4*%
%TO.N,Signal_Falling*%
X49784000Y-55688000D03*
%TO.P,U102,5*%
%TO.N,/Both_Edges_Out*%
X51054000Y-55688000D03*
%TO.P,U102,6*%
%TO.N,Net-(U102-Pad6)*%
X52324000Y-55688000D03*
%TO.P,U102,7,GND*%
%TO.N,GND*%
X53594000Y-55688000D03*
%TO.P,U102,8*%
%TO.N,Net-(U102-Pad8)*%
X53594000Y-50738000D03*
%TO.P,U102,9*%
%TO.N,Signal_Rising*%
X52324000Y-50738000D03*
%TO.P,U102,10*%
%TO.N,Signal_Falling*%
X51054000Y-50738000D03*
%TO.P,U102,11*%
%TO.N,+5V*%
X49784000Y-50738000D03*
%TO.P,U102,12*%
%TO.N,/Rising_Edge_Out*%
X48514000Y-50738000D03*
%TO.P,U102,13*%
%TO.N,+5V*%
X47244000Y-50738000D03*
%TO.P,U102,14,VCC*%
X45974000Y-50738000D03*
%TD*%
D15*
%TO.P,C108,1*%
%TO.N,/Signal_Comp_A*%
X47244000Y-68646000D03*
%TO.P,C108,2*%
%TO.N,GND*%
X47244000Y-70546000D03*
%TD*%
%TO.P,C103,1*%
%TO.N,+5V*%
X63627000Y-66233000D03*
%TO.P,C103,2*%
%TO.N,GND*%
X63627000Y-68133000D03*
%TD*%
D10*
%TO.P,R106,1*%
%TO.N,Signal_In*%
X52517000Y-69342000D03*
%TO.P,R106,2*%
%TO.N,/Signal_Comp_B*%
X54417000Y-69342000D03*
%TD*%
D12*
%TO.P,J107,1,Pin_1*%
%TO.N,GND*%
X41021000Y-42667000D03*
D13*
%TO.P,J107,2,Pin_2*%
%TO.N,/Falling_Edge_Out*%
X41021000Y-45207000D03*
%TD*%
D12*
%TO.P,J109,1,Pin_1*%
%TO.N,Signal_In*%
X44323000Y-71115000D03*
D13*
%TO.P,J109,2,Pin_2*%
%TO.N,GND*%
X44323000Y-73655000D03*
%TD*%
D12*
%TO.P,J104,1,Pin_1*%
%TO.N,GND*%
X62992000Y-40640000D03*
D13*
%TO.P,J104,2,Pin_2*%
%TO.N,/Rising_Edge_Out*%
X62992000Y-43180000D03*
%TD*%
D17*
%TO.P,RV101,1,1*%
%TO.N,+5V*%
X41148000Y-61585000D03*
%TO.P,RV101,2,2*%
%TO.N,/Ref_Comp_A*%
X41148000Y-64125000D03*
%TO.P,RV101,3,3*%
%TO.N,-5V*%
X41148000Y-66665000D03*
%TD*%
D12*
%TO.P,J108,1,Pin_1*%
%TO.N,GND*%
X59309000Y-40635000D03*
D13*
%TO.P,J108,2,Pin_2*%
%TO.N,/Both_Edges_Out*%
X59309000Y-43175000D03*
%TD*%
D14*
%TO.P,R105,1*%
%TO.N,+5V*%
X61783000Y-66421000D03*
%TO.P,R105,2*%
%TO.N,/Comp_Out_B*%
X59883000Y-66421000D03*
%TD*%
D10*
%TO.P,C117,1*%
%TO.N,/Ref_Comp_B*%
X56454000Y-67310000D03*
%TO.P,C117,2*%
%TO.N,GND*%
X58354000Y-67310000D03*
%TD*%
D16*
%TO.P,U103,1*%
%TO.N,/Comp_Out_B*%
X45847000Y-46036000D03*
%TO.P,U103,2*%
%TO.N,Signal_In*%
X47117000Y-46036000D03*
%TO.P,U103,3*%
%TO.N,/Falling_Edge_Out*%
X48387000Y-46036000D03*
%TO.P,U103,4*%
%TO.N,Net-(U102-Pad8)*%
X49657000Y-46036000D03*
%TO.P,U103,5*%
%TO.N,Net-(U102-Pad6)*%
X50927000Y-46036000D03*
%TO.P,U103,6*%
%TO.N,/Both_Edges_Out*%
X52197000Y-46036000D03*
%TO.P,U103,7,GND*%
%TO.N,GND*%
X53467000Y-46036000D03*
%TO.P,U103,8*%
%TO.N,unconnected-(U103-Pad8)*%
X53467000Y-41086000D03*
%TO.P,U103,9*%
%TO.N,GND*%
X52197000Y-41086000D03*
%TO.P,U103,10*%
X50927000Y-41086000D03*
%TO.P,U103,11*%
%TO.N,unconnected-(U103-Pad11)*%
X49657000Y-41086000D03*
%TO.P,U103,12*%
%TO.N,GND*%
X48387000Y-41086000D03*
%TO.P,U103,13*%
X47117000Y-41086000D03*
%TO.P,U103,14,VCC*%
%TO.N,+5V*%
X45847000Y-41086000D03*
%TD*%
D11*
%TO.P,C105,1*%
%TO.N,+5V*%
X41148000Y-58227000D03*
%TO.P,C105,2*%
%TO.N,GND*%
X41148000Y-56327000D03*
%TD*%
D10*
%TO.P,C104,1*%
%TO.N,+5V*%
X56454000Y-62865000D03*
%TO.P,C104,2*%
%TO.N,GND*%
X58354000Y-62865000D03*
%TD*%
D14*
%TO.P,C112,1*%
%TO.N,+5V*%
X45781000Y-38735000D03*
%TO.P,C112,2*%
%TO.N,GND*%
X43881000Y-38735000D03*
%TD*%
D18*
%TO.P,U101,1*%
%TO.N,/Comp_Out_A*%
X49468000Y-63627000D03*
%TO.P,U101,2,-*%
%TO.N,/Ref_Comp_A*%
X49468000Y-64897000D03*
%TO.P,U101,3,+*%
%TO.N,/Signal_Comp_A*%
X49468000Y-66167000D03*
%TO.P,U101,4,V-*%
%TO.N,-5V*%
X49468000Y-67437000D03*
%TO.P,U101,5,+*%
%TO.N,/Signal_Comp_B*%
X54418000Y-67437000D03*
%TO.P,U101,6,_*%
%TO.N,/Ref_Comp_B*%
X54418000Y-66167000D03*
%TO.P,U101,7*%
%TO.N,/Comp_Out_B*%
X54418000Y-64897000D03*
%TO.P,U101,8,V+*%
%TO.N,+5V*%
X54418000Y-63627000D03*
%TD*%
D10*
%TO.P,R102,1*%
%TO.N,+5V*%
X46167000Y-61722000D03*
%TO.P,R102,2*%
%TO.N,/Comp_Out_A*%
X48067000Y-61722000D03*
%TD*%
D12*
%TO.P,J102,1,Pin_1*%
%TO.N,/Signal_Out_Rising*%
X62992000Y-48133000D03*
D13*
%TO.P,J102,2,Pin_2*%
%TO.N,/Rising_Edge_Out*%
X62992000Y-50673000D03*
%TO.P,J102,3,Pin_3*%
%TO.N,Signal_Rising*%
X62992000Y-53213000D03*
%TD*%
D17*
%TO.P,RV102,1,1*%
%TO.N,+5V*%
X57912000Y-73152000D03*
%TO.P,RV102,2,2*%
%TO.N,/Ref_Comp_B*%
X55372000Y-73152000D03*
%TO.P,RV102,3,3*%
%TO.N,-5V*%
X52832000Y-73152000D03*
%TD*%
D10*
%TO.P,R103,1*%
%TO.N,Signal_In*%
X45532000Y-66802000D03*
%TO.P,R103,2*%
%TO.N,/Signal_Comp_A*%
X47432000Y-66802000D03*
%TD*%
D11*
%TO.P,C110,1*%
%TO.N,-5V*%
X60071000Y-59370000D03*
%TO.P,C110,2*%
%TO.N,GND*%
X60071000Y-57470000D03*
%TD*%
D10*
%TO.P,C118,1*%
%TO.N,/Signal_Comp_B*%
X55946000Y-69342000D03*
%TO.P,C118,2*%
%TO.N,GND*%
X57846000Y-69342000D03*
%TD*%
D14*
%TO.P,C113,1*%
%TO.N,+5V*%
X45908000Y-48387000D03*
%TO.P,C113,2*%
%TO.N,GND*%
X44008000Y-48387000D03*
%TD*%
%TO.P,R101,1*%
%TO.N,/Signal_Comp_A*%
X51496000Y-61722000D03*
%TO.P,R101,2*%
%TO.N,/Comp_Out_A*%
X49596000Y-61722000D03*
%TD*%
D19*
%TO.N,+5V*%
X61380489Y-71715511D03*
X47117000Y-48768000D03*
X46863000Y-38227000D03*
X61087000Y-67691000D03*
X57023000Y-61468000D03*
X42545000Y-57912000D03*
X46863000Y-39116000D03*
X46355000Y-60452000D03*
X48540220Y-57327899D03*
X46355000Y-59563000D03*
%TO.N,GND*%
X58420000Y-61976000D03*
X63627000Y-69342000D03*
X54610000Y-56642000D03*
X47498000Y-74168000D03*
X42799000Y-48895000D03*
X60579000Y-56388000D03*
X53467000Y-47752000D03*
X42545000Y-71628000D03*
X59690000Y-56388000D03*
X59055000Y-68707000D03*
X44450000Y-64389000D03*
X62992000Y-71755000D03*
X62230000Y-67818000D03*
X52819374Y-66255835D03*
X48821734Y-54085724D03*
X59436000Y-61595000D03*
X56822438Y-54797297D03*
X54483000Y-45339000D03*
X43577826Y-66776378D03*
X54610000Y-54864000D03*
X56740762Y-49784980D03*
X57789502Y-53366952D03*
X54380718Y-41388965D03*
X39751000Y-55880000D03*
X43434000Y-46990000D03*
X42672000Y-38227000D03*
X42672000Y-39116000D03*
X63881000Y-74549000D03*
X59563000Y-67945000D03*
X44196000Y-40132000D03*
X43831497Y-50800000D03*
X46482000Y-73152000D03*
X39751000Y-56769000D03*
X43307000Y-40132000D03*
X47498000Y-71501000D03*
X62992000Y-74549000D03*
X54483000Y-46482000D03*
X42545000Y-55880000D03*
X43561000Y-49784000D03*
X60325000Y-61595000D03*
X40788034Y-55250119D03*
X42545000Y-72517000D03*
X51435000Y-44323000D03*
X65024000Y-67818000D03*
X39751000Y-71628000D03*
X50673000Y-71501000D03*
X44450000Y-65405000D03*
X50016023Y-52314523D03*
X44450000Y-49784000D03*
X44323000Y-46990000D03*
X45974000Y-71120000D03*
X56022672Y-43053010D03*
X52675563Y-42298698D03*
X44848201Y-44539500D03*
X43269117Y-60297681D03*
X50971168Y-67906122D03*
X59055000Y-69850000D03*
X59436000Y-60706000D03*
X41148000Y-73152000D03*
X42799000Y-48006000D03*
X44704000Y-56769000D03*
X43688000Y-57465000D03*
X43688000Y-58354000D03*
X54610000Y-55753000D03*
X48102904Y-47789317D03*
X52521830Y-44310500D03*
X58674000Y-57531000D03*
X57553500Y-67147286D03*
X65024000Y-68707000D03*
X46482000Y-72263000D03*
X48553500Y-42418000D03*
X47371000Y-42418000D03*
X57402648Y-51546273D03*
X64389000Y-73152000D03*
X50690932Y-53935907D03*
X50673000Y-70612000D03*
X46482000Y-58354000D03*
X51562000Y-42291000D03*
X62230000Y-68707000D03*
X45974000Y-70231000D03*
X39751000Y-72517000D03*
X63881000Y-71755000D03*
X57912000Y-70739000D03*
%TO.N,-5V*%
X58740000Y-59370000D03*
X49022000Y-74168000D03*
X42545000Y-70358000D03*
X39751000Y-70358000D03*
X50673000Y-69469000D03*
%TO.N,/Ref_Comp_B*%
X56896000Y-68385699D03*
%TO.N,/Signal_Comp_B*%
X53002495Y-67238419D03*
X57277000Y-66167000D03*
%TO.N,Signal_Rising*%
X56755728Y-50784369D03*
%TO.N,Signal_Falling*%
X49784000Y-54356000D03*
X51054000Y-52336500D03*
X56740773Y-52295773D03*
%TO.N,/Both_Edges_Out*%
X54206979Y-42373251D03*
X52567500Y-46794942D03*
X51537258Y-54467638D03*
X53594000Y-44310500D03*
%TO.N,Signal_In*%
X51000883Y-66907062D03*
X44831000Y-50800000D03*
X41787296Y-55228163D03*
X47117000Y-47625000D03*
X43459590Y-64254501D03*
X44577000Y-66802000D03*
%TO.N,/Comp_Out_B*%
X55023873Y-43015500D03*
X55991262Y-55356262D03*
X45847000Y-44577000D03*
X52832000Y-43307000D03*
%TO.N,Net-(U102-Pad6)*%
X50419000Y-44577000D03*
X52959000Y-54102000D03*
%TO.N,Net-(U102-Pad8)*%
X53594000Y-49276000D03*
X52468201Y-47789500D03*
%TD*%
D20*
%TO.N,+5V*%
X60198000Y-64577000D02*
X60198000Y-64836000D01*
D21*
X61380489Y-71715511D02*
X61380489Y-73046511D01*
X54418000Y-63627000D02*
X54418000Y-63565000D01*
X45085000Y-59878000D02*
X46040000Y-59878000D01*
X45781000Y-59878000D02*
X46355000Y-60452000D01*
X62992000Y-65598000D02*
X63627000Y-66233000D01*
X45781000Y-38735000D02*
X45781000Y-41020000D01*
X47117000Y-48768000D02*
X49022000Y-48768000D01*
D22*
X61971000Y-66233000D02*
X61783000Y-66421000D01*
D21*
X62992000Y-63627000D02*
X62992000Y-65212000D01*
X62992000Y-65212000D02*
X62992000Y-65598000D01*
X45974000Y-50738000D02*
X47244000Y-50738000D01*
X41148000Y-61585000D02*
X44968000Y-61585000D01*
X46040000Y-59878000D02*
X46355000Y-59563000D01*
X45085000Y-59878000D02*
X45085000Y-61468000D01*
X57023000Y-61468000D02*
X57023000Y-62296000D01*
X61087000Y-67117000D02*
X61783000Y-66421000D01*
X45085000Y-61468000D02*
X44968000Y-61585000D01*
X61380489Y-73046511D02*
X61275000Y-73152000D01*
X45085000Y-59878000D02*
X45781000Y-59878000D01*
X48540220Y-55714220D02*
X48514000Y-55688000D01*
X45781000Y-41020000D02*
X45847000Y-41086000D01*
X48540220Y-57327899D02*
X48540220Y-55714220D01*
X46289000Y-48768000D02*
X45908000Y-48387000D01*
X49784000Y-49530000D02*
X49784000Y-50738000D01*
X47117000Y-48768000D02*
X46289000Y-48768000D01*
X61087000Y-67691000D02*
X61087000Y-67117000D01*
X45908000Y-50672000D02*
X45974000Y-50738000D01*
X57023000Y-62296000D02*
X56454000Y-62865000D01*
X54418000Y-63565000D02*
X55118000Y-62865000D01*
X62992000Y-63627000D02*
X61021000Y-63627000D01*
X55118000Y-62865000D02*
X56454000Y-62865000D01*
X44968000Y-61585000D02*
X46030000Y-61585000D01*
X41148000Y-61585000D02*
X41148000Y-58227000D01*
X62992000Y-65212000D02*
X61783000Y-66421000D01*
X56454000Y-62865000D02*
X56454000Y-63053000D01*
X61021000Y-63627000D02*
X60071000Y-64577000D01*
X57912000Y-73152000D02*
X61275000Y-73152000D01*
X45908000Y-48387000D02*
X45908000Y-50672000D01*
X41148000Y-58227000D02*
X42230000Y-58227000D01*
X49022000Y-48768000D02*
X49784000Y-49530000D01*
X42230000Y-58227000D02*
X42545000Y-57912000D01*
X46030000Y-61585000D02*
X46167000Y-61722000D01*
D22*
%TO.N,GND*%
X47371000Y-42418000D02*
X47117000Y-42164000D01*
X52675563Y-42298698D02*
X52197000Y-41820135D01*
X52197000Y-41820135D02*
X52197000Y-41086000D01*
X50927000Y-41656000D02*
X50927000Y-41086000D01*
X47117000Y-42164000D02*
X47117000Y-41086000D01*
X51562000Y-42291000D02*
X50927000Y-41656000D01*
X48387000Y-42251500D02*
X48387000Y-41086000D01*
X48553500Y-42418000D02*
X48387000Y-42251500D01*
D21*
%TO.N,-5V*%
X60071000Y-59370000D02*
X58740000Y-59370000D01*
X62169000Y-59370000D02*
X62992000Y-58547000D01*
X49276000Y-67629000D02*
X49468000Y-67437000D01*
X49022000Y-74168000D02*
X49022000Y-73213000D01*
X49022000Y-73213000D02*
X49464000Y-72771000D01*
X50673000Y-69469000D02*
X49718000Y-69469000D01*
X49845000Y-73152000D02*
X49464000Y-72771000D01*
X49718000Y-69469000D02*
X49276000Y-69027000D01*
X58674000Y-59436000D02*
X58740000Y-59370000D01*
X41148000Y-66665000D02*
X41148000Y-70043000D01*
X60071000Y-59370000D02*
X62169000Y-59370000D01*
X52832000Y-73152000D02*
X49845000Y-73152000D01*
X49276000Y-69027000D02*
X49276000Y-67629000D01*
D20*
%TO.N,/Ref_Comp_A*%
X39001489Y-61978489D02*
X41148000Y-64125000D01*
D21*
X47879000Y-64897000D02*
X49468000Y-64897000D01*
D20*
X39001489Y-55100511D02*
X39001489Y-61978489D01*
X40894000Y-53208000D02*
X39001489Y-55100511D01*
D21*
X42154000Y-63119000D02*
X46101000Y-63119000D01*
X46101000Y-63119000D02*
X47879000Y-64897000D01*
X41148000Y-64125000D02*
X42154000Y-63119000D01*
D20*
%TO.N,/Signal_Comp_A*%
X51496000Y-65090000D02*
X51496000Y-61722000D01*
X47432000Y-66802000D02*
X47432000Y-68331000D01*
X47432000Y-66802000D02*
X48067000Y-66167000D01*
X49468000Y-66167000D02*
X50419000Y-66167000D01*
X50419000Y-66167000D02*
X51496000Y-65090000D01*
X48067000Y-66167000D02*
X49468000Y-66167000D01*
X47432000Y-68331000D02*
X47244000Y-68519000D01*
D21*
%TO.N,/Ref_Comp_B*%
X56896000Y-68385699D02*
X56896000Y-67752000D01*
X55372000Y-77724000D02*
X55372000Y-73152000D01*
D20*
X54418000Y-66167000D02*
X55311000Y-66167000D01*
D21*
X56896000Y-67752000D02*
X56454000Y-67310000D01*
D20*
X55311000Y-66167000D02*
X56454000Y-67310000D01*
%TO.N,/Signal_Comp_B*%
X53014419Y-67238419D02*
X53213000Y-67437000D01*
X54417000Y-67438000D02*
X54418000Y-67437000D01*
X57277000Y-66167000D02*
X57277000Y-66101000D01*
X53213000Y-67437000D02*
X54418000Y-67437000D01*
X57277000Y-66101000D02*
X56454000Y-65278000D01*
X55946000Y-69342000D02*
X54417000Y-69342000D01*
X53002495Y-67238419D02*
X53014419Y-67238419D01*
X54417000Y-69342000D02*
X54417000Y-67438000D01*
%TO.N,/Rising_Edge_Out*%
X58068011Y-52028489D02*
X61636511Y-52028489D01*
X64191511Y-49473489D02*
X64191511Y-44379511D01*
X48514000Y-50738000D02*
X48514000Y-52578000D01*
X49022000Y-53086000D02*
X57010500Y-53086000D01*
X62992000Y-50673000D02*
X64191511Y-49473489D01*
X61636511Y-52028489D02*
X62992000Y-50673000D01*
X64191511Y-44379511D02*
X62992000Y-43180000D01*
X57010500Y-53086000D02*
X58068011Y-52028489D01*
X48514000Y-52578000D02*
X49022000Y-53086000D01*
%TO.N,Signal_Rising*%
X52324000Y-50738000D02*
X52324000Y-51149427D01*
X52324000Y-51054000D02*
X52197000Y-51181000D01*
X56769000Y-50800000D02*
X56755728Y-50786728D01*
X52324000Y-51149427D02*
X53237093Y-52062520D01*
X56755728Y-50786728D02*
X56755728Y-50784369D01*
X55506480Y-52062520D02*
X56769000Y-50800000D01*
X53237093Y-52062520D02*
X55506480Y-52062520D01*
D22*
%TO.N,/Falling_Edge_Out*%
X46600386Y-43561000D02*
X42667000Y-43561000D01*
X48387000Y-45347614D02*
X46600386Y-43561000D01*
X48387000Y-46036000D02*
X48387000Y-46412072D01*
X42667000Y-43561000D02*
X41021000Y-45207000D01*
X50488928Y-48514000D02*
X57135000Y-48514000D01*
X48387000Y-46036000D02*
X48387000Y-45347614D01*
X48387000Y-46412072D02*
X50488928Y-48514000D01*
X41491520Y-44736480D02*
X41021000Y-45207000D01*
X57135000Y-48514000D02*
X59309000Y-50688000D01*
D20*
%TO.N,Signal_Falling*%
X49784000Y-54356000D02*
X49784000Y-55688000D01*
X56740773Y-52352227D02*
X56740773Y-52295773D01*
X51054000Y-52336500D02*
X51054000Y-50738000D01*
X51054000Y-52336500D02*
X51295500Y-52578000D01*
X51295500Y-52578000D02*
X56515000Y-52578000D01*
X56515000Y-52578000D02*
X56740773Y-52352227D01*
D22*
%TO.N,/Both_Edges_Out*%
X58425000Y-42291000D02*
X59309000Y-43175000D01*
D20*
X51537258Y-54467638D02*
X51054000Y-54950896D01*
D22*
X54289230Y-42291000D02*
X58425000Y-42291000D01*
D20*
X51054000Y-54950896D02*
X51054000Y-55688000D01*
X52197000Y-46424442D02*
X52197000Y-46036000D01*
D22*
X52197000Y-46036000D02*
X52197000Y-45659928D01*
X54206979Y-42373251D02*
X54289230Y-42291000D01*
X52197000Y-45659928D02*
X53594000Y-44262928D01*
D20*
X52567500Y-46794942D02*
X52197000Y-46424442D01*
D22*
X53594000Y-44262928D02*
X53594000Y-44069000D01*
X53594000Y-44069000D02*
X53594000Y-44310500D01*
D20*
%TO.N,Signal_In*%
X44323000Y-67056000D02*
X44577000Y-66802000D01*
X46863000Y-53975000D02*
X47244000Y-54356000D01*
X41787296Y-55228163D02*
X43040459Y-53975000D01*
X43561000Y-64135000D02*
X43459590Y-64236410D01*
X43040459Y-53975000D02*
X43180000Y-53975000D01*
X44577000Y-66802000D02*
X45532000Y-66802000D01*
X43040459Y-53975000D02*
X43053000Y-53975000D01*
X43053000Y-53975000D02*
X44831000Y-52197000D01*
X52517000Y-68391984D02*
X52517000Y-69342000D01*
X43561000Y-65575970D02*
X43561000Y-64135000D01*
X47117000Y-47625000D02*
X47117000Y-46036000D01*
X51281627Y-67156611D02*
X52517000Y-68391984D01*
X45532000Y-66802000D02*
X44787030Y-66802000D01*
X44787030Y-66802000D02*
X43561000Y-65575970D01*
X51000883Y-66907062D02*
X51250432Y-67156611D01*
X47244000Y-54356000D02*
X47244000Y-55688000D01*
X44831000Y-52197000D02*
X44831000Y-50800000D01*
X44323000Y-71115000D02*
X44323000Y-67056000D01*
X43459590Y-64236410D02*
X43459590Y-64254501D01*
X43180000Y-53975000D02*
X46863000Y-53975000D01*
X51250432Y-67156611D02*
X51281627Y-67156611D01*
%TO.N,/Comp_Out_A*%
X45974000Y-55688000D02*
X45974000Y-56396515D01*
X49468000Y-61850000D02*
X49596000Y-61722000D01*
X45974000Y-56396515D02*
X48067000Y-58489515D01*
X48067000Y-58489515D02*
X48067000Y-61722000D01*
X49596000Y-61722000D02*
X48067000Y-61722000D01*
X49468000Y-63627000D02*
X49468000Y-61850000D01*
%TO.N,/Comp_Out_B*%
X56007000Y-57404000D02*
X53093480Y-60317520D01*
X45847000Y-46036000D02*
X45847000Y-44577000D01*
X54418000Y-64897000D02*
X55262151Y-64897000D01*
X58354000Y-65278000D02*
X58740000Y-65278000D01*
X55955671Y-64203480D02*
X57279480Y-64203480D01*
X53093480Y-63983907D02*
X54006573Y-64897000D01*
X53093480Y-60317520D02*
X53093480Y-63983907D01*
X55262151Y-64897000D02*
X55955671Y-64203480D01*
X55991262Y-55356262D02*
X56007000Y-55372000D01*
X54732373Y-43307000D02*
X55023873Y-43015500D01*
X58740000Y-65278000D02*
X59883000Y-66421000D01*
X57279480Y-64203480D02*
X58354000Y-65278000D01*
X56007000Y-55372000D02*
X56007000Y-57404000D01*
X54006573Y-64897000D02*
X54418000Y-64897000D01*
X52832000Y-43307000D02*
X54732373Y-43307000D01*
%TO.N,Net-(U102-Pad6)*%
X52705000Y-54356000D02*
X52959000Y-54102000D01*
X50419000Y-44577000D02*
X50927000Y-45085000D01*
X50927000Y-45085000D02*
X50927000Y-46036000D01*
X52324000Y-55688000D02*
X52705000Y-55307000D01*
X52324000Y-55688000D02*
X52324000Y-55626000D01*
X52705000Y-55307000D02*
X52705000Y-54356000D01*
%TO.N,Net-(U102-Pad8)*%
X49657000Y-46447427D02*
X49657000Y-46036000D01*
D22*
X49657000Y-46036000D02*
X49657000Y-45659928D01*
D20*
X52468201Y-47789500D02*
X50999073Y-47789500D01*
X53594000Y-49276000D02*
X53594000Y-50738000D01*
X50999073Y-47789500D02*
X49657000Y-46447427D01*
%TD*%
%TA.AperFunction,Conductor*%
%TO.N,+5V*%
G36*
X47313121Y-37993502D02*
G01*
X47359614Y-38047158D01*
X47371000Y-38099500D01*
X47371000Y-39476500D01*
X47350998Y-39544621D01*
X47297342Y-39591114D01*
X47245000Y-39602500D01*
X46900498Y-39602500D01*
X46898042Y-39602693D01*
X46898024Y-39602694D01*
X46883303Y-39603853D01*
X46813823Y-39589260D01*
X46763262Y-39539419D01*
X46747674Y-39470154D01*
X46753821Y-39438575D01*
X46776137Y-39371293D01*
X46779005Y-39357914D01*
X46788672Y-39263562D01*
X46789000Y-39257146D01*
X46789000Y-39007115D01*
X46784525Y-38991876D01*
X46783135Y-38990671D01*
X46775452Y-38989000D01*
X46053115Y-38989000D01*
X46037876Y-38993475D01*
X46036671Y-38994865D01*
X46035000Y-39002548D01*
X46035000Y-39544885D01*
X46039475Y-39560124D01*
X46057512Y-39575753D01*
X46088519Y-39624000D01*
X45527000Y-39624000D01*
X45527000Y-38607000D01*
X45547002Y-38538879D01*
X45600658Y-38492386D01*
X45653000Y-38481000D01*
X46770884Y-38481000D01*
X46786123Y-38476525D01*
X46787328Y-38475135D01*
X46788999Y-38467452D01*
X46788999Y-38212905D01*
X46788662Y-38206386D01*
X46778921Y-38112503D01*
X46791786Y-38042682D01*
X46840357Y-37990900D01*
X46904248Y-37973500D01*
X47245000Y-37973500D01*
X47313121Y-37993502D01*
G37*
%TD.AperFunction*%
%TD*%
%TA.AperFunction,Conductor*%
%TO.N,GND*%
G36*
X59155556Y-60239560D02*
G01*
X59215393Y-60276444D01*
X59240836Y-60292127D01*
X59273262Y-60312115D01*
X59353005Y-60338564D01*
X59434611Y-60365632D01*
X59434613Y-60365632D01*
X59441139Y-60367797D01*
X59447975Y-60368497D01*
X59447978Y-60368498D01*
X59491031Y-60372909D01*
X59545600Y-60378500D01*
X59818000Y-60378500D01*
X59886121Y-60398502D01*
X59932614Y-60452158D01*
X59944000Y-60504500D01*
X59944000Y-61087000D01*
X60707000Y-61087000D01*
X60775121Y-61107002D01*
X60821614Y-61160658D01*
X60833000Y-61213000D01*
X60833000Y-61543000D01*
X60812998Y-61611121D01*
X60759342Y-61657614D01*
X60707000Y-61669000D01*
X60470115Y-61669000D01*
X60454876Y-61673475D01*
X60453671Y-61674865D01*
X60452000Y-61682548D01*
X60452000Y-62805000D01*
X60431998Y-62873121D01*
X60378342Y-62919614D01*
X60326000Y-62931000D01*
X59420115Y-62931000D01*
X59404876Y-62935475D01*
X59403671Y-62936865D01*
X59402000Y-62944548D01*
X59402000Y-62993000D01*
X59381998Y-63061121D01*
X59328342Y-63107614D01*
X59276000Y-63119000D01*
X58226000Y-63119000D01*
X58157879Y-63098998D01*
X58111386Y-63045342D01*
X58100000Y-62993000D01*
X58100000Y-62737000D01*
X58120002Y-62668879D01*
X58173658Y-62622386D01*
X58226000Y-62611000D01*
X58906885Y-62611000D01*
X58922124Y-62606525D01*
X58923329Y-62605135D01*
X58925000Y-62597452D01*
X58925000Y-62549000D01*
X58945002Y-62480879D01*
X58998658Y-62434386D01*
X59051000Y-62423000D01*
X59925885Y-62423000D01*
X59941124Y-62418525D01*
X59942329Y-62417135D01*
X59944000Y-62409452D01*
X59944000Y-61687116D01*
X59939525Y-61671877D01*
X59938135Y-61670672D01*
X59930452Y-61669001D01*
X59675905Y-61669001D01*
X59669386Y-61669338D01*
X59573794Y-61679257D01*
X59560400Y-61682149D01*
X59406216Y-61733588D01*
X59393038Y-61739761D01*
X59250964Y-61827680D01*
X59182512Y-61846518D01*
X59114743Y-61825357D01*
X59095644Y-61809710D01*
X59082172Y-61796262D01*
X59070760Y-61787249D01*
X58932757Y-61702184D01*
X58918255Y-61695421D01*
X58864970Y-61648503D01*
X58845509Y-61580226D01*
X58866051Y-61512266D01*
X58917963Y-61468000D01*
X58928000Y-61468000D01*
X58928000Y-60360248D01*
X58948002Y-60292127D01*
X59001658Y-60245634D01*
X59015069Y-60240413D01*
X59015822Y-60240168D01*
X59022288Y-60238794D01*
X59028318Y-60236109D01*
X59028322Y-60236108D01*
X59038192Y-60231713D01*
X59108559Y-60222279D01*
X59155556Y-60239560D01*
G37*
%TD.AperFunction*%
%TD*%
%TA.AperFunction,Conductor*%
%TO.N,GND*%
G36*
X44072885Y-56977002D02*
G01*
X44119378Y-57030658D01*
X44129482Y-57100932D01*
X44099988Y-57165512D01*
X44093937Y-57172018D01*
X44016261Y-57249829D01*
X44007249Y-57261240D01*
X43922184Y-57399243D01*
X43916037Y-57412424D01*
X43864862Y-57566710D01*
X43861995Y-57580086D01*
X43852328Y-57674438D01*
X43852000Y-57680855D01*
X43852000Y-57705885D01*
X43856475Y-57721124D01*
X43857865Y-57722329D01*
X43865548Y-57724000D01*
X45974000Y-57724000D01*
X45974000Y-57912000D01*
X46506035Y-57912000D01*
X46574156Y-57932002D01*
X46595130Y-57948905D01*
X46953095Y-58306870D01*
X46987121Y-58369182D01*
X46990000Y-58395965D01*
X46990000Y-58657352D01*
X46969998Y-58725473D01*
X46916342Y-58771966D01*
X46846068Y-58782070D01*
X46812405Y-58770415D01*
X46811752Y-58771882D01*
X46643319Y-58696891D01*
X46643318Y-58696891D01*
X46637288Y-58694206D01*
X46521983Y-58669697D01*
X46456944Y-58655872D01*
X46456939Y-58655872D01*
X46450487Y-58654500D01*
X46391714Y-58654500D01*
X46323593Y-58634498D01*
X46277100Y-58580842D01*
X46266996Y-58510568D01*
X46272121Y-58488833D01*
X46305137Y-58389293D01*
X46308005Y-58375914D01*
X46317672Y-58281562D01*
X46318000Y-58275146D01*
X46318000Y-58250115D01*
X46313525Y-58234876D01*
X46312135Y-58233671D01*
X46304452Y-58232000D01*
X43870116Y-58232000D01*
X43854877Y-58236475D01*
X43853672Y-58237865D01*
X43852001Y-58245548D01*
X43852001Y-58275095D01*
X43852338Y-58281614D01*
X43862257Y-58377206D01*
X43865149Y-58390600D01*
X43916588Y-58544784D01*
X43922762Y-58557963D01*
X43991905Y-58669697D01*
X44010743Y-58738149D01*
X43989582Y-58805919D01*
X43935141Y-58851490D01*
X43884761Y-58862000D01*
X43306000Y-58862000D01*
X43237879Y-58841998D01*
X43191386Y-58788342D01*
X43180000Y-58736000D01*
X43180000Y-58612859D01*
X43200002Y-58544738D01*
X43212364Y-58528548D01*
X43228554Y-58510568D01*
X43284040Y-58448944D01*
X43379527Y-58283556D01*
X43438542Y-58101928D01*
X43458504Y-57912000D01*
X43438542Y-57722072D01*
X43379527Y-57540444D01*
X43284040Y-57375056D01*
X43212364Y-57295451D01*
X43181647Y-57231444D01*
X43180000Y-57211141D01*
X43180000Y-57083000D01*
X43200002Y-57014879D01*
X43253658Y-56968386D01*
X43306000Y-56957000D01*
X44004764Y-56957000D01*
X44072885Y-56977002D01*
G37*
%TD.AperFunction*%
%TD*%
%TA.AperFunction,Conductor*%
%TO.N,GND*%
G36*
X44497978Y-64382623D02*
G01*
X44498441Y-64380493D01*
X44537548Y-64389000D01*
X45660000Y-64389000D01*
X45728121Y-64409002D01*
X45774614Y-64462658D01*
X45786000Y-64515000D01*
X45786000Y-64771000D01*
X45765998Y-64839121D01*
X45712342Y-64885614D01*
X45660000Y-64897000D01*
X44542116Y-64897000D01*
X44526877Y-64901475D01*
X44525672Y-64902865D01*
X44524001Y-64910548D01*
X44524001Y-65165095D01*
X44524338Y-65171614D01*
X44534257Y-65267206D01*
X44537150Y-65280603D01*
X44538485Y-65284606D01*
X44538581Y-65287230D01*
X44538605Y-65287343D01*
X44538585Y-65287347D01*
X44541069Y-65355555D01*
X44504885Y-65416639D01*
X44441420Y-65448463D01*
X44370825Y-65440924D01*
X44329866Y-65413576D01*
X44256405Y-65340115D01*
X44222379Y-65277803D01*
X44219500Y-65251020D01*
X44219500Y-64789058D01*
X44236381Y-64726058D01*
X44290813Y-64631780D01*
X44290814Y-64631779D01*
X44294117Y-64626057D01*
X44347711Y-64461113D01*
X44387785Y-64402507D01*
X44453181Y-64374870D01*
X44497978Y-64382623D01*
G37*
%TD.AperFunction*%
%TD*%
%TA.AperFunction,Conductor*%
%TO.N,GND*%
G36*
X42825745Y-37993502D02*
G01*
X42872238Y-38047158D01*
X42882968Y-38112342D01*
X42873328Y-38206437D01*
X42873000Y-38212855D01*
X42873000Y-38462885D01*
X42877475Y-38478124D01*
X42878865Y-38479329D01*
X42886548Y-38481000D01*
X44009000Y-38481000D01*
X44077121Y-38501002D01*
X44123614Y-38554658D01*
X44135000Y-38607000D01*
X44135000Y-39949884D01*
X44139475Y-39965123D01*
X44140865Y-39966328D01*
X44148548Y-39967999D01*
X44178095Y-39967999D01*
X44184614Y-39967662D01*
X44280206Y-39957743D01*
X44293600Y-39954851D01*
X44447784Y-39903412D01*
X44460963Y-39897238D01*
X44511697Y-39865843D01*
X44580149Y-39847005D01*
X44647919Y-39868166D01*
X44693490Y-39922607D01*
X44704000Y-39972987D01*
X44704000Y-40514000D01*
X44683998Y-40582121D01*
X44630342Y-40628614D01*
X44578000Y-40640000D01*
X42925000Y-40640000D01*
X42856879Y-40619998D01*
X42810386Y-40566342D01*
X42799000Y-40514000D01*
X42799000Y-39751000D01*
X42290000Y-39751000D01*
X42221879Y-39730998D01*
X42175386Y-39677342D01*
X42164000Y-39625000D01*
X42164000Y-39257095D01*
X42873001Y-39257095D01*
X42873338Y-39263614D01*
X42883257Y-39359206D01*
X42886149Y-39372600D01*
X42937588Y-39526784D01*
X42943761Y-39539962D01*
X42966927Y-39577397D01*
X42984046Y-39639601D01*
X43022605Y-39673593D01*
X43024520Y-39672075D01*
X43038099Y-39689208D01*
X43152829Y-39803739D01*
X43164240Y-39812751D01*
X43302243Y-39897816D01*
X43315424Y-39903963D01*
X43469710Y-39955138D01*
X43483086Y-39958005D01*
X43577438Y-39967672D01*
X43583854Y-39968000D01*
X43608885Y-39968000D01*
X43624124Y-39963525D01*
X43625329Y-39962135D01*
X43627000Y-39954452D01*
X43627000Y-39007115D01*
X43622525Y-38991876D01*
X43621135Y-38990671D01*
X43613452Y-38989000D01*
X42891116Y-38989000D01*
X42875877Y-38993475D01*
X42874672Y-38994865D01*
X42873001Y-39002548D01*
X42873001Y-39257095D01*
X42164000Y-39257095D01*
X42164000Y-38099500D01*
X42184002Y-38031379D01*
X42237658Y-37984886D01*
X42290000Y-37973500D01*
X42757624Y-37973500D01*
X42825745Y-37993502D01*
G37*
%TD.AperFunction*%
%TD*%
%TA.AperFunction,Conductor*%
%TO.N,GND*%
G36*
X59582600Y-67654500D02*
G01*
X59945000Y-67654500D01*
X60013121Y-67674502D01*
X60059614Y-67728158D01*
X60071000Y-67780500D01*
X60071000Y-68327000D01*
X60050998Y-68395121D01*
X59997342Y-68441614D01*
X59945000Y-68453000D01*
X59563000Y-68453000D01*
X59563000Y-70232000D01*
X59542998Y-70300121D01*
X59489342Y-70346614D01*
X59437000Y-70358000D01*
X58878670Y-70358000D01*
X58810549Y-70337998D01*
X58764056Y-70284342D01*
X58753952Y-70214068D01*
X58771410Y-70165884D01*
X58783816Y-70145757D01*
X58789963Y-70132576D01*
X58841138Y-69978290D01*
X58844005Y-69964914D01*
X58853672Y-69870562D01*
X58854000Y-69864146D01*
X58854000Y-69614115D01*
X58849525Y-69598876D01*
X58848135Y-69597671D01*
X58840452Y-69596000D01*
X58118115Y-69596000D01*
X58102876Y-69600475D01*
X58101671Y-69601865D01*
X58100000Y-69609548D01*
X58100000Y-70556884D01*
X58104475Y-70572123D01*
X58105865Y-70573328D01*
X58113548Y-70574999D01*
X58143095Y-70574999D01*
X58149614Y-70574662D01*
X58245206Y-70564743D01*
X58265343Y-70560395D01*
X58265888Y-70562920D01*
X58325052Y-70560754D01*
X58386142Y-70596927D01*
X58417978Y-70660386D01*
X58420000Y-70682868D01*
X58420000Y-71121000D01*
X58399998Y-71189121D01*
X58346342Y-71235614D01*
X58294000Y-71247000D01*
X57403000Y-71247000D01*
X57334879Y-71226998D01*
X57288386Y-71173342D01*
X57277000Y-71121000D01*
X57277000Y-70684203D01*
X57297002Y-70616082D01*
X57350658Y-70569589D01*
X57420932Y-70559485D01*
X57429412Y-70561002D01*
X57448086Y-70565005D01*
X57542438Y-70574672D01*
X57548854Y-70575000D01*
X57573885Y-70575000D01*
X57589124Y-70570525D01*
X57590329Y-70569135D01*
X57592000Y-70561452D01*
X57592000Y-69214000D01*
X57612002Y-69145879D01*
X57665658Y-69099386D01*
X57718000Y-69088000D01*
X58835884Y-69088000D01*
X58851123Y-69083525D01*
X58852328Y-69082135D01*
X58853999Y-69074452D01*
X58853999Y-68819905D01*
X58853662Y-68813386D01*
X58843743Y-68717794D01*
X58840850Y-68704395D01*
X58820890Y-68644568D01*
X58818305Y-68573618D01*
X58854488Y-68512534D01*
X58900537Y-68485167D01*
X58920784Y-68478412D01*
X58933962Y-68472239D01*
X59071807Y-68386937D01*
X59083208Y-68377901D01*
X59197739Y-68263171D01*
X59206751Y-68251760D01*
X59291816Y-68113757D01*
X59297963Y-68100576D01*
X59349138Y-67946290D01*
X59352005Y-67932914D01*
X59361672Y-67838562D01*
X59362000Y-67832146D01*
X59362000Y-67771467D01*
X59382002Y-67703346D01*
X59435658Y-67656853D01*
X59500842Y-67646123D01*
X59582600Y-67654500D01*
G37*
%TD.AperFunction*%
%TD*%
%TA.AperFunction,Conductor*%
%TO.N,GND*%
G36*
X51138415Y-70336890D02*
G01*
X51176229Y-70396978D01*
X51181000Y-70431324D01*
X51181000Y-71756000D01*
X51160998Y-71824121D01*
X51107342Y-71870614D01*
X51055000Y-71882000D01*
X50422122Y-71882000D01*
X50354001Y-71861998D01*
X50307508Y-71808342D01*
X50297404Y-71738068D01*
X50326898Y-71673488D01*
X50332948Y-71666983D01*
X50344738Y-71655172D01*
X50353751Y-71643760D01*
X50438816Y-71505757D01*
X50444963Y-71492576D01*
X50496138Y-71338290D01*
X50499005Y-71324914D01*
X50508672Y-71230562D01*
X50509000Y-71224146D01*
X50509000Y-71199115D01*
X50504525Y-71183876D01*
X50503135Y-71182671D01*
X50495452Y-71181000D01*
X49148000Y-71181000D01*
X49079879Y-71160998D01*
X49033386Y-71107342D01*
X49022000Y-71055000D01*
X49022000Y-70799000D01*
X49042002Y-70730879D01*
X49095658Y-70684386D01*
X49148000Y-70673000D01*
X50490884Y-70673000D01*
X50506123Y-70668525D01*
X50507328Y-70667135D01*
X50508999Y-70659452D01*
X50508999Y-70629905D01*
X50508662Y-70623386D01*
X50498032Y-70520937D01*
X50499921Y-70520741D01*
X50504418Y-70459275D01*
X50547057Y-70402509D01*
X50613618Y-70377807D01*
X50622402Y-70377500D01*
X50768487Y-70377500D01*
X50774939Y-70376128D01*
X50774944Y-70376128D01*
X50861888Y-70357647D01*
X50955288Y-70337794D01*
X51003751Y-70316217D01*
X51074118Y-70306783D01*
X51138415Y-70336890D01*
G37*
%TD.AperFunction*%
%TD*%
%TA.AperFunction,Conductor*%
%TO.N,GND*%
G36*
X61029121Y-55900002D02*
G01*
X61075614Y-55953658D01*
X61087000Y-56006000D01*
X61087000Y-56437330D01*
X61066998Y-56505451D01*
X61013342Y-56551944D01*
X60943068Y-56562048D01*
X60894884Y-56544590D01*
X60874757Y-56532184D01*
X60861576Y-56526037D01*
X60707290Y-56474862D01*
X60693914Y-56471995D01*
X60599562Y-56462328D01*
X60593145Y-56462000D01*
X60343115Y-56462000D01*
X60327876Y-56466475D01*
X60326671Y-56467865D01*
X60325000Y-56475548D01*
X60325000Y-57598000D01*
X60304998Y-57666121D01*
X60251342Y-57712614D01*
X60199000Y-57724000D01*
X58856116Y-57724000D01*
X58840877Y-57728475D01*
X58839672Y-57729865D01*
X58838001Y-57737548D01*
X58838001Y-57767095D01*
X58838338Y-57773614D01*
X58848257Y-57869206D01*
X58851150Y-57882603D01*
X58890357Y-58000125D01*
X58892941Y-58071074D01*
X58856757Y-58132158D01*
X58793292Y-58163982D01*
X58770833Y-58166000D01*
X58292000Y-58166000D01*
X58223879Y-58145998D01*
X58177386Y-58092342D01*
X58166000Y-58040000D01*
X58166000Y-56895000D01*
X58186002Y-56826879D01*
X58239658Y-56780386D01*
X58292000Y-56769000D01*
X58772413Y-56769000D01*
X58840534Y-56789002D01*
X58887027Y-56842658D01*
X58897131Y-56912932D01*
X58892006Y-56934668D01*
X58850862Y-57058710D01*
X58847995Y-57072086D01*
X58838328Y-57166438D01*
X58838000Y-57172855D01*
X58838000Y-57197885D01*
X58842475Y-57213124D01*
X58843865Y-57214329D01*
X58851548Y-57216000D01*
X59798885Y-57216000D01*
X59814124Y-57211525D01*
X59815329Y-57210135D01*
X59817000Y-57202452D01*
X59817000Y-56480116D01*
X59812525Y-56464877D01*
X59811135Y-56463672D01*
X59803452Y-56462001D01*
X59548905Y-56462001D01*
X59542386Y-56462338D01*
X59446794Y-56472257D01*
X59433400Y-56475149D01*
X59279216Y-56526588D01*
X59266042Y-56532760D01*
X59247304Y-56544355D01*
X59178852Y-56563193D01*
X59111082Y-56542032D01*
X59065511Y-56487591D01*
X59055000Y-56437211D01*
X59055000Y-56006000D01*
X59075002Y-55937879D01*
X59128658Y-55891386D01*
X59181000Y-55880000D01*
X60961000Y-55880000D01*
X61029121Y-55900002D01*
G37*
%TD.AperFunction*%
%TD*%
%TA.AperFunction,Conductor*%
%TO.N,GND*%
G36*
X65460447Y-67339102D02*
G01*
X65513236Y-67386577D01*
X65532000Y-67452731D01*
X65532000Y-69089000D01*
X65511998Y-69157121D01*
X65458342Y-69203614D01*
X65406000Y-69215000D01*
X64641089Y-69215000D01*
X64572968Y-69194998D01*
X64526475Y-69141342D01*
X64516371Y-69071068D01*
X64545865Y-69006488D01*
X64564783Y-68990374D01*
X64564075Y-68989480D01*
X64581208Y-68975901D01*
X64695739Y-68861171D01*
X64704751Y-68849760D01*
X64789816Y-68711757D01*
X64795963Y-68698576D01*
X64847138Y-68544290D01*
X64850005Y-68530914D01*
X64859672Y-68436562D01*
X64860000Y-68430146D01*
X64860000Y-68405115D01*
X64855525Y-68389876D01*
X64854135Y-68388671D01*
X64846452Y-68387000D01*
X63899115Y-68387000D01*
X63883876Y-68391475D01*
X63882671Y-68392865D01*
X63881000Y-68400548D01*
X63881000Y-69122884D01*
X63885475Y-69138123D01*
X63886865Y-69139328D01*
X63894548Y-69140999D01*
X64136000Y-69140999D01*
X64204121Y-69161001D01*
X64250614Y-69214657D01*
X64262000Y-69266999D01*
X64262000Y-69724000D01*
X64241998Y-69792121D01*
X64188342Y-69838614D01*
X64136000Y-69850000D01*
X63118000Y-69850000D01*
X63049879Y-69829998D01*
X63003386Y-69776342D01*
X62992000Y-69724000D01*
X62992000Y-69267000D01*
X63012002Y-69198879D01*
X63065658Y-69152386D01*
X63118000Y-69141000D01*
X63354885Y-69141000D01*
X63370124Y-69136525D01*
X63371329Y-69135135D01*
X63373000Y-69127452D01*
X63373000Y-68405115D01*
X63368525Y-68389876D01*
X63367135Y-68388671D01*
X63359452Y-68387000D01*
X62412116Y-68387000D01*
X62396877Y-68391475D01*
X62395672Y-68392865D01*
X62394001Y-68400548D01*
X62394001Y-68430095D01*
X62394338Y-68436614D01*
X62404257Y-68532206D01*
X62407149Y-68545600D01*
X62458588Y-68699784D01*
X62464761Y-68712962D01*
X62550063Y-68850807D01*
X62559099Y-68862208D01*
X62673829Y-68976739D01*
X62690770Y-68990118D01*
X62731833Y-69048035D01*
X62735065Y-69118958D01*
X62699440Y-69180369D01*
X62636269Y-69212772D01*
X62612678Y-69215000D01*
X61975000Y-69215000D01*
X61906879Y-69194998D01*
X61860386Y-69141342D01*
X61849000Y-69089000D01*
X61849000Y-68221937D01*
X61865881Y-68158937D01*
X61918223Y-68068279D01*
X61918224Y-68068278D01*
X61921527Y-68062556D01*
X61980542Y-67880928D01*
X61985280Y-67835855D01*
X61992789Y-67764405D01*
X62019802Y-67698749D01*
X62078024Y-67658119D01*
X62105095Y-67652249D01*
X62182308Y-67644238D01*
X62182312Y-67644237D01*
X62189166Y-67643526D01*
X62195703Y-67641345D01*
X62195708Y-67641344D01*
X62236203Y-67627834D01*
X62307152Y-67625250D01*
X62368236Y-67661434D01*
X62400060Y-67724899D01*
X62401422Y-67760201D01*
X62394328Y-67829440D01*
X62394000Y-67835855D01*
X62394000Y-67860885D01*
X62398475Y-67876124D01*
X62399865Y-67877329D01*
X62407548Y-67879000D01*
X64841884Y-67879000D01*
X64857123Y-67874525D01*
X64858328Y-67873135D01*
X64859999Y-67865452D01*
X64859999Y-67835905D01*
X64859662Y-67829386D01*
X64849743Y-67733794D01*
X64846851Y-67720400D01*
X64793094Y-67559268D01*
X64794858Y-67558680D01*
X64785524Y-67497961D01*
X64814388Y-67433097D01*
X64873738Y-67394134D01*
X64894779Y-67389653D01*
X65059979Y-67369003D01*
X65390372Y-67327704D01*
X65460447Y-67339102D01*
G37*
%TD.AperFunction*%
%TD*%
%TA.AperFunction,Conductor*%
%TO.N,GND*%
G36*
X39576725Y-71249753D02*
G01*
X39649056Y-71265128D01*
X39649061Y-71265128D01*
X39655513Y-71266500D01*
X39841286Y-71266500D01*
X39909407Y-71286502D01*
X39955900Y-71340158D01*
X39966004Y-71410432D01*
X39960879Y-71432167D01*
X39927863Y-71531707D01*
X39924995Y-71545086D01*
X39915328Y-71639438D01*
X39915000Y-71645855D01*
X39915000Y-71670885D01*
X39919475Y-71686124D01*
X39920865Y-71687329D01*
X39928548Y-71689000D01*
X42362884Y-71689000D01*
X42378123Y-71684525D01*
X42379328Y-71683135D01*
X42380999Y-71675452D01*
X42380999Y-71645905D01*
X42380662Y-71639386D01*
X42370743Y-71543794D01*
X42367851Y-71530400D01*
X42335148Y-71432376D01*
X42332564Y-71361426D01*
X42368748Y-71300342D01*
X42432212Y-71268518D01*
X42454672Y-71266500D01*
X42640487Y-71266500D01*
X42646939Y-71265128D01*
X42646944Y-71265128D01*
X42719275Y-71249753D01*
X42745472Y-71247000D01*
X42838500Y-71247000D01*
X42906621Y-71267002D01*
X42953114Y-71320658D01*
X42964500Y-71373000D01*
X42964500Y-72013134D01*
X42971255Y-72075316D01*
X43022385Y-72211705D01*
X43027765Y-72218884D01*
X43027767Y-72218887D01*
X43027827Y-72218967D01*
X43027862Y-72219060D01*
X43032079Y-72226763D01*
X43030967Y-72227372D01*
X43052674Y-72285473D01*
X43053000Y-72294531D01*
X43053000Y-72899000D01*
X43032998Y-72967121D01*
X42979342Y-73013614D01*
X42927000Y-73025000D01*
X42162089Y-73025000D01*
X42093968Y-73004998D01*
X42047475Y-72951342D01*
X42037371Y-72881068D01*
X42066865Y-72816488D01*
X42085783Y-72800374D01*
X42085075Y-72799480D01*
X42102208Y-72785901D01*
X42216739Y-72671171D01*
X42225751Y-72659760D01*
X42310816Y-72521757D01*
X42316963Y-72508576D01*
X42368138Y-72354290D01*
X42371005Y-72340914D01*
X42380672Y-72246562D01*
X42381000Y-72240146D01*
X42381000Y-72215115D01*
X42376525Y-72199876D01*
X42375135Y-72198671D01*
X42367452Y-72197000D01*
X41420115Y-72197000D01*
X41404876Y-72201475D01*
X41403671Y-72202865D01*
X41402000Y-72210548D01*
X41402000Y-72932884D01*
X41406475Y-72948123D01*
X41407865Y-72949328D01*
X41415548Y-72950999D01*
X41657000Y-72950999D01*
X41725121Y-72971001D01*
X41771614Y-73024657D01*
X41783000Y-73076999D01*
X41783000Y-73534000D01*
X41762998Y-73602121D01*
X41709342Y-73648614D01*
X41657000Y-73660000D01*
X40639000Y-73660000D01*
X40570879Y-73639998D01*
X40524386Y-73586342D01*
X40513000Y-73534000D01*
X40513000Y-73077000D01*
X40533002Y-73008879D01*
X40586658Y-72962386D01*
X40639000Y-72951000D01*
X40875885Y-72951000D01*
X40891124Y-72946525D01*
X40892329Y-72945135D01*
X40894000Y-72937452D01*
X40894000Y-72215115D01*
X40889525Y-72199876D01*
X40888135Y-72198671D01*
X40880452Y-72197000D01*
X39933116Y-72197000D01*
X39917877Y-72201475D01*
X39916672Y-72202865D01*
X39915001Y-72210548D01*
X39915001Y-72240095D01*
X39915338Y-72246614D01*
X39925257Y-72342206D01*
X39928149Y-72355600D01*
X39979588Y-72509784D01*
X39985761Y-72522962D01*
X40071063Y-72660807D01*
X40080099Y-72672208D01*
X40194829Y-72786739D01*
X40211770Y-72800118D01*
X40252833Y-72858035D01*
X40256065Y-72928958D01*
X40220440Y-72990369D01*
X40157269Y-73022772D01*
X40133678Y-73025000D01*
X39369000Y-73025000D01*
X39300879Y-73004998D01*
X39254386Y-72951342D01*
X39243000Y-72899000D01*
X39243000Y-71373000D01*
X39263002Y-71304879D01*
X39316658Y-71258386D01*
X39369000Y-71247000D01*
X39550528Y-71247000D01*
X39576725Y-71249753D01*
G37*
%TD.AperFunction*%
%TD*%
%TA.AperFunction,Conductor*%
%TO.N,-5V*%
G36*
X41974863Y-67675055D02*
G01*
X42023448Y-67726824D01*
X42037000Y-67783671D01*
X42037000Y-68957140D01*
X42016998Y-69025261D01*
X41963342Y-69071754D01*
X41893068Y-69081858D01*
X41871332Y-69076733D01*
X41784290Y-69047862D01*
X41770914Y-69044995D01*
X41676562Y-69035328D01*
X41670145Y-69035000D01*
X41420115Y-69035000D01*
X41404876Y-69039475D01*
X41403671Y-69040865D01*
X41402000Y-69048548D01*
X41402000Y-69770885D01*
X41406475Y-69786124D01*
X41407865Y-69787329D01*
X41415548Y-69789000D01*
X42037000Y-69789000D01*
X42037000Y-69850000D01*
X42903678Y-69850000D01*
X42971799Y-69870002D01*
X43018292Y-69923658D01*
X43028396Y-69993932D01*
X43021661Y-70020227D01*
X42971255Y-70154684D01*
X42964500Y-70216866D01*
X42964500Y-70613000D01*
X42944498Y-70681121D01*
X42890842Y-70727614D01*
X42838500Y-70739000D01*
X42745472Y-70739000D01*
X42719275Y-70736247D01*
X42646944Y-70720872D01*
X42646939Y-70720872D01*
X42640487Y-70719500D01*
X42454714Y-70719500D01*
X42386593Y-70699498D01*
X42340100Y-70645842D01*
X42329996Y-70575568D01*
X42335121Y-70553833D01*
X42368137Y-70454293D01*
X42371005Y-70440914D01*
X42380672Y-70346562D01*
X42381000Y-70340146D01*
X42381000Y-70315115D01*
X42376525Y-70299876D01*
X42375135Y-70298671D01*
X42367452Y-70297000D01*
X39933116Y-70297000D01*
X39917877Y-70301475D01*
X39916672Y-70302865D01*
X39915001Y-70310548D01*
X39915001Y-70340095D01*
X39915338Y-70346614D01*
X39925257Y-70442206D01*
X39928149Y-70455600D01*
X39960852Y-70553624D01*
X39963436Y-70624574D01*
X39927252Y-70685658D01*
X39863788Y-70717482D01*
X39841328Y-70719500D01*
X39655513Y-70719500D01*
X39649061Y-70720872D01*
X39649056Y-70720872D01*
X39576725Y-70736247D01*
X39550528Y-70739000D01*
X39369000Y-70739000D01*
X39300879Y-70718998D01*
X39254386Y-70665342D01*
X39243000Y-70613000D01*
X39243000Y-69976000D01*
X39263002Y-69907879D01*
X39316658Y-69861386D01*
X39369000Y-69850000D01*
X40259000Y-69850000D01*
X40259000Y-69789000D01*
X40875885Y-69789000D01*
X40891124Y-69784525D01*
X40892329Y-69783135D01*
X40894000Y-69775452D01*
X40894000Y-69053116D01*
X40889525Y-69037877D01*
X40888135Y-69036672D01*
X40880452Y-69035001D01*
X40625905Y-69035001D01*
X40619386Y-69035338D01*
X40523794Y-69045257D01*
X40510400Y-69048149D01*
X40424876Y-69076682D01*
X40353927Y-69079266D01*
X40292843Y-69043083D01*
X40261018Y-68979618D01*
X40259000Y-68957158D01*
X40259000Y-67783671D01*
X40279002Y-67715550D01*
X40332658Y-67669057D01*
X40402932Y-67658953D01*
X40457271Y-67680458D01*
X40527146Y-67729385D01*
X40536641Y-67734868D01*
X40721413Y-67821028D01*
X40731705Y-67824774D01*
X40928632Y-67877540D01*
X40939425Y-67879443D01*
X41142525Y-67897212D01*
X41153475Y-67897212D01*
X41356575Y-67879443D01*
X41367368Y-67877540D01*
X41564295Y-67824774D01*
X41574587Y-67821028D01*
X41759359Y-67734868D01*
X41768854Y-67729385D01*
X41838729Y-67680458D01*
X41906003Y-67657770D01*
X41974863Y-67675055D01*
G37*
%TD.AperFunction*%
%TD*%
%TA.AperFunction,Conductor*%
%TO.N,GND*%
G36*
X40070000Y-55392002D02*
G01*
X40116493Y-55445658D01*
X40126597Y-55515932D01*
X40097103Y-55580512D01*
X40091051Y-55587019D01*
X40079261Y-55598829D01*
X40070249Y-55610240D01*
X39985184Y-55748243D01*
X39979037Y-55761424D01*
X39927862Y-55915710D01*
X39924995Y-55929086D01*
X39915328Y-56023438D01*
X39915000Y-56029855D01*
X39915000Y-56054885D01*
X39919475Y-56070124D01*
X39920865Y-56071329D01*
X39928548Y-56073000D01*
X41424417Y-56073000D01*
X41475665Y-56083893D01*
X41498972Y-56094270D01*
X41498975Y-56094271D01*
X41505008Y-56096957D01*
X41546636Y-56105805D01*
X41685352Y-56135291D01*
X41685357Y-56135291D01*
X41691809Y-56136663D01*
X41882783Y-56136663D01*
X41889235Y-56135291D01*
X41889240Y-56135291D01*
X42027956Y-56105805D01*
X42069584Y-56096957D01*
X42075617Y-56094271D01*
X42075620Y-56094270D01*
X42098927Y-56083893D01*
X42150175Y-56073000D01*
X42362884Y-56073000D01*
X42378123Y-56068525D01*
X42379328Y-56067135D01*
X42380999Y-56059452D01*
X42380999Y-56029905D01*
X42380661Y-56023383D01*
X42377464Y-55992562D01*
X42390330Y-55922741D01*
X42409155Y-55895250D01*
X42521917Y-55770015D01*
X42521918Y-55770014D01*
X42526336Y-55765107D01*
X42621823Y-55599719D01*
X42667525Y-55459064D01*
X42707599Y-55400458D01*
X42772995Y-55372821D01*
X42787358Y-55372000D01*
X42927000Y-55372000D01*
X42995121Y-55392002D01*
X43041614Y-55445658D01*
X43053000Y-55498000D01*
X43053000Y-56770000D01*
X43032998Y-56838121D01*
X42979342Y-56884614D01*
X42927000Y-56896000D01*
X42490203Y-56896000D01*
X42422082Y-56875998D01*
X42375589Y-56822342D01*
X42365485Y-56752068D01*
X42367002Y-56743588D01*
X42371005Y-56724914D01*
X42380672Y-56630562D01*
X42381000Y-56624146D01*
X42381000Y-56599115D01*
X42376525Y-56583876D01*
X42375135Y-56582671D01*
X42367452Y-56581000D01*
X39933116Y-56581000D01*
X39917877Y-56585475D01*
X39916672Y-56586865D01*
X39915001Y-56594548D01*
X39915001Y-56624095D01*
X39915338Y-56630614D01*
X39925257Y-56726206D01*
X39928149Y-56739600D01*
X39979588Y-56893784D01*
X39985761Y-56906962D01*
X40071063Y-57044807D01*
X40080099Y-57056208D01*
X40085727Y-57061826D01*
X40119807Y-57124108D01*
X40114804Y-57194929D01*
X40072308Y-57251802D01*
X40005809Y-57276671D01*
X39996710Y-57277000D01*
X39785989Y-57277000D01*
X39717868Y-57256998D01*
X39671375Y-57203342D01*
X39659989Y-57151000D01*
X39659989Y-55498000D01*
X39679991Y-55429879D01*
X39733647Y-55383386D01*
X39785989Y-55372000D01*
X40001879Y-55372000D01*
X40070000Y-55392002D01*
G37*
%TD.AperFunction*%
%TD*%
%TA.AperFunction,Conductor*%
%TO.N,GND*%
G36*
X55060121Y-54376002D02*
G01*
X55106614Y-54429658D01*
X55118000Y-54482000D01*
X55118000Y-55083963D01*
X55111833Y-55122899D01*
X55097720Y-55166334D01*
X55077758Y-55356262D01*
X55078448Y-55362827D01*
X55084505Y-55420452D01*
X55097720Y-55546190D01*
X55099760Y-55552468D01*
X55111833Y-55589625D01*
X55118000Y-55628561D01*
X55118000Y-57278000D01*
X55097998Y-57346121D01*
X55044342Y-57392614D01*
X54992000Y-57404000D01*
X53920981Y-57404000D01*
X53852860Y-57383998D01*
X53806367Y-57330342D01*
X53796263Y-57260068D01*
X53825757Y-57195488D01*
X53885827Y-57157003D01*
X53999790Y-57123893D01*
X54014221Y-57117648D01*
X54143678Y-57041089D01*
X54156104Y-57031449D01*
X54262449Y-56925104D01*
X54272089Y-56912678D01*
X54348648Y-56783221D01*
X54354893Y-56768790D01*
X54397269Y-56622935D01*
X54399570Y-56610333D01*
X54401807Y-56581916D01*
X54402000Y-56576986D01*
X54402000Y-55960115D01*
X54397525Y-55944876D01*
X54396135Y-55943671D01*
X54388452Y-55942000D01*
X53466000Y-55942000D01*
X53397879Y-55921998D01*
X53351386Y-55868342D01*
X53340000Y-55816000D01*
X53340000Y-55560000D01*
X53360002Y-55491879D01*
X53413658Y-55445386D01*
X53466000Y-55434000D01*
X54383884Y-55434000D01*
X54399123Y-55429525D01*
X54400328Y-55428135D01*
X54401999Y-55420452D01*
X54401999Y-54799017D01*
X54401805Y-54794080D01*
X54399570Y-54765664D01*
X54397270Y-54753069D01*
X54354893Y-54607210D01*
X54348646Y-54592775D01*
X54321066Y-54546138D01*
X54303607Y-54477322D01*
X54326124Y-54409991D01*
X54381469Y-54365522D01*
X54429520Y-54356000D01*
X54992000Y-54356000D01*
X55060121Y-54376002D01*
G37*
%TD.AperFunction*%
%TD*%
%TA.AperFunction,Conductor*%
%TO.N,GND*%
G36*
X46074176Y-69743002D02*
G01*
X46120669Y-69796658D01*
X46130773Y-69866932D01*
X46113315Y-69915116D01*
X46081184Y-69967243D01*
X46075037Y-69980424D01*
X46023862Y-70134710D01*
X46020995Y-70148086D01*
X46011328Y-70242438D01*
X46011000Y-70248855D01*
X46011000Y-70273885D01*
X46015475Y-70289124D01*
X46016865Y-70290329D01*
X46024548Y-70292000D01*
X47372000Y-70292000D01*
X47440121Y-70312002D01*
X47486614Y-70365658D01*
X47498000Y-70418000D01*
X47498000Y-70674000D01*
X47477998Y-70742121D01*
X47424342Y-70788614D01*
X47372000Y-70800000D01*
X46029116Y-70800000D01*
X46013877Y-70804475D01*
X46012672Y-70805865D01*
X46011001Y-70813548D01*
X46011001Y-70843095D01*
X46011338Y-70849614D01*
X46021257Y-70945206D01*
X46024149Y-70958600D01*
X46075588Y-71112784D01*
X46081761Y-71125962D01*
X46167063Y-71263807D01*
X46176099Y-71275208D01*
X46290829Y-71389739D01*
X46302240Y-71398751D01*
X46440243Y-71483816D01*
X46453424Y-71489963D01*
X46607710Y-71541138D01*
X46621086Y-71544005D01*
X46695661Y-71551646D01*
X46761389Y-71578487D01*
X46802171Y-71636602D01*
X46805059Y-71707540D01*
X46771992Y-71766008D01*
X46720261Y-71817829D01*
X46711249Y-71829240D01*
X46626184Y-71967243D01*
X46620037Y-71980424D01*
X46568862Y-72134710D01*
X46565995Y-72148086D01*
X46556328Y-72242438D01*
X46556000Y-72248855D01*
X46556000Y-72498885D01*
X46560475Y-72514124D01*
X46561865Y-72515329D01*
X46569548Y-72517000D01*
X47692000Y-72517000D01*
X47760121Y-72537002D01*
X47806614Y-72590658D01*
X47818000Y-72643000D01*
X47818000Y-73985884D01*
X47822475Y-74001123D01*
X47823865Y-74002328D01*
X47831548Y-74003999D01*
X47861095Y-74003999D01*
X47867614Y-74003662D01*
X47970063Y-73993032D01*
X47970271Y-73995035D01*
X48031337Y-73999503D01*
X48088103Y-74042142D01*
X48112805Y-74108703D01*
X48112421Y-74130655D01*
X48108496Y-74168000D01*
X48128458Y-74357928D01*
X48130310Y-74363627D01*
X48133000Y-74389219D01*
X48133000Y-74550000D01*
X48112998Y-74618121D01*
X48059342Y-74664614D01*
X48007000Y-74676000D01*
X47116000Y-74676000D01*
X47047879Y-74655998D01*
X47001386Y-74602342D01*
X46990000Y-74550000D01*
X46990000Y-74111712D01*
X47010002Y-74043591D01*
X47063658Y-73997098D01*
X47133932Y-73986994D01*
X47145956Y-73989829D01*
X47145985Y-73989696D01*
X47166086Y-73994005D01*
X47260438Y-74003672D01*
X47266854Y-74004000D01*
X47291885Y-74004000D01*
X47307124Y-73999525D01*
X47308329Y-73998135D01*
X47310000Y-73990452D01*
X47310000Y-73043115D01*
X47305525Y-73027876D01*
X47304135Y-73026671D01*
X47296452Y-73025000D01*
X46574116Y-73025000D01*
X46558877Y-73029475D01*
X46557672Y-73030865D01*
X46556001Y-73038548D01*
X46556001Y-73293095D01*
X46556338Y-73299614D01*
X46566257Y-73395206D01*
X46569149Y-73408600D01*
X46620588Y-73562784D01*
X46626760Y-73575958D01*
X46638355Y-73594696D01*
X46657193Y-73663148D01*
X46636032Y-73730918D01*
X46581591Y-73776489D01*
X46531211Y-73787000D01*
X46100000Y-73787000D01*
X46031879Y-73766998D01*
X45985386Y-73713342D01*
X45974000Y-73661000D01*
X45974000Y-71628000D01*
X45807500Y-71628000D01*
X45739379Y-71607998D01*
X45692886Y-71554342D01*
X45681500Y-71502000D01*
X45681500Y-70216866D01*
X45674745Y-70154684D01*
X45623615Y-70018295D01*
X45553368Y-69924565D01*
X45528520Y-69858059D01*
X45543573Y-69788676D01*
X45593747Y-69738446D01*
X45654194Y-69723000D01*
X46006055Y-69723000D01*
X46074176Y-69743002D01*
G37*
%TD.AperFunction*%
%TD*%
%TA.AperFunction,Conductor*%
%TO.N,GND*%
G36*
X64331121Y-71267002D02*
G01*
X64377614Y-71320658D01*
X64389000Y-71373000D01*
X64389000Y-72395467D01*
X64368998Y-72463588D01*
X64339127Y-72489471D01*
X64379823Y-72503185D01*
X64389000Y-72510341D01*
X64389000Y-72517000D01*
X64771000Y-72517000D01*
X64839121Y-72537002D01*
X64885614Y-72590658D01*
X64897000Y-72643000D01*
X64897000Y-73661000D01*
X64876998Y-73729121D01*
X64823342Y-73775614D01*
X64771000Y-73787000D01*
X64389000Y-73787000D01*
X64389000Y-73792319D01*
X64375640Y-73796242D01*
X64343229Y-73817071D01*
X64342159Y-73817071D01*
X64371296Y-73844142D01*
X64389000Y-73908548D01*
X64389000Y-74931000D01*
X64368998Y-74999121D01*
X64315342Y-75045614D01*
X64263000Y-75057000D01*
X62610000Y-75057000D01*
X62541879Y-75036998D01*
X62495386Y-74983342D01*
X62484000Y-74931000D01*
X62484000Y-74453904D01*
X62504002Y-74385783D01*
X62557658Y-74339290D01*
X62627932Y-74329186D01*
X62649668Y-74334311D01*
X62763710Y-74372138D01*
X62777086Y-74375005D01*
X62871438Y-74384672D01*
X62877854Y-74385000D01*
X62902885Y-74385000D01*
X62918124Y-74380525D01*
X62919329Y-74379135D01*
X62921000Y-74371452D01*
X62921000Y-74366884D01*
X63429000Y-74366884D01*
X63433475Y-74382123D01*
X63434865Y-74383328D01*
X63442548Y-74384999D01*
X63472095Y-74384999D01*
X63478614Y-74384662D01*
X63574206Y-74374743D01*
X63587600Y-74371851D01*
X63741784Y-74320412D01*
X63754962Y-74314239D01*
X63892807Y-74228937D01*
X63904208Y-74219901D01*
X64018739Y-74105171D01*
X64027751Y-74093760D01*
X64112816Y-73955757D01*
X64118963Y-73942576D01*
X64143407Y-73868880D01*
X64183838Y-73810521D01*
X64231338Y-73790788D01*
X64212506Y-73778685D01*
X64183014Y-73714104D01*
X64182389Y-73683323D01*
X64182672Y-73680559D01*
X64183000Y-73674146D01*
X64183000Y-73424115D01*
X64178525Y-73408876D01*
X64177135Y-73407671D01*
X64169452Y-73406000D01*
X63447115Y-73406000D01*
X63431876Y-73410475D01*
X63430671Y-73411865D01*
X63429000Y-73419548D01*
X63429000Y-74366884D01*
X62921000Y-74366884D01*
X62921000Y-72879885D01*
X63429000Y-72879885D01*
X63433475Y-72895124D01*
X63434865Y-72896329D01*
X63442548Y-72898000D01*
X64164884Y-72898000D01*
X64180123Y-72893525D01*
X64181328Y-72892135D01*
X64182999Y-72884452D01*
X64182999Y-72629905D01*
X64182661Y-72623381D01*
X64182250Y-72619416D01*
X64195116Y-72549595D01*
X64229411Y-72513034D01*
X64180488Y-72490691D01*
X64143476Y-72435343D01*
X64118412Y-72360216D01*
X64112239Y-72347038D01*
X64026937Y-72209193D01*
X64017901Y-72197792D01*
X63903171Y-72083261D01*
X63891760Y-72074249D01*
X63753757Y-71989184D01*
X63740576Y-71983037D01*
X63586290Y-71931862D01*
X63572914Y-71928995D01*
X63478562Y-71919328D01*
X63472145Y-71919000D01*
X63447115Y-71919000D01*
X63431876Y-71923475D01*
X63430671Y-71924865D01*
X63429000Y-71932548D01*
X63429000Y-72879885D01*
X62921000Y-72879885D01*
X62921000Y-71937116D01*
X62916525Y-71921877D01*
X62915135Y-71920672D01*
X62907452Y-71919001D01*
X62877905Y-71919001D01*
X62871386Y-71919338D01*
X62775794Y-71929257D01*
X62762397Y-71932150D01*
X62649875Y-71969689D01*
X62578926Y-71972273D01*
X62517842Y-71936089D01*
X62486018Y-71872625D01*
X62484000Y-71850165D01*
X62484000Y-71373000D01*
X62504002Y-71304879D01*
X62557658Y-71258386D01*
X62610000Y-71247000D01*
X64263000Y-71247000D01*
X64331121Y-71267002D01*
G37*
%TD.AperFunction*%
%TD*%
%TA.AperFunction,Conductor*%
%TO.N,GND*%
G36*
X44773121Y-46502002D02*
G01*
X44819614Y-46555658D01*
X44831000Y-46608000D01*
X44831000Y-47149055D01*
X44810998Y-47217176D01*
X44757342Y-47263669D01*
X44687068Y-47273773D01*
X44638884Y-47256315D01*
X44586757Y-47224184D01*
X44573576Y-47218037D01*
X44419290Y-47166862D01*
X44405914Y-47163995D01*
X44311562Y-47154328D01*
X44305145Y-47154000D01*
X44280115Y-47154000D01*
X44264876Y-47158475D01*
X44263671Y-47159865D01*
X44262000Y-47167548D01*
X44262000Y-49601884D01*
X44266475Y-49617123D01*
X44267865Y-49618328D01*
X44275548Y-49619999D01*
X44305095Y-49619999D01*
X44311614Y-49619662D01*
X44407206Y-49609743D01*
X44420600Y-49606851D01*
X44574784Y-49555412D01*
X44587962Y-49549239D01*
X44725807Y-49463937D01*
X44737208Y-49454901D01*
X44742826Y-49449273D01*
X44805108Y-49415193D01*
X44875929Y-49420196D01*
X44932802Y-49462692D01*
X44957671Y-49529191D01*
X44958000Y-49538290D01*
X44958000Y-49765500D01*
X44937998Y-49833621D01*
X44884342Y-49880114D01*
X44832000Y-49891500D01*
X44735513Y-49891500D01*
X44729061Y-49892872D01*
X44729056Y-49892872D01*
X44642112Y-49911353D01*
X44548712Y-49931206D01*
X44542682Y-49933891D01*
X44542681Y-49933891D01*
X44380278Y-50006197D01*
X44380276Y-50006198D01*
X44374248Y-50008882D01*
X44219747Y-50121134D01*
X44215326Y-50126044D01*
X44215325Y-50126045D01*
X44103437Y-50250310D01*
X44042991Y-50287550D01*
X44009801Y-50292000D01*
X43179000Y-50292000D01*
X43110879Y-50271998D01*
X43064386Y-50218342D01*
X43053000Y-50166000D01*
X43053000Y-49533121D01*
X43073002Y-49465000D01*
X43126658Y-49418507D01*
X43196932Y-49408403D01*
X43261512Y-49437897D01*
X43268019Y-49443949D01*
X43279829Y-49455739D01*
X43291240Y-49464751D01*
X43429243Y-49549816D01*
X43442424Y-49555963D01*
X43596710Y-49607138D01*
X43610086Y-49610005D01*
X43704438Y-49619672D01*
X43710854Y-49620000D01*
X43735885Y-49620000D01*
X43751124Y-49615525D01*
X43752329Y-49614135D01*
X43754000Y-49606452D01*
X43754000Y-48659115D01*
X43749525Y-48643876D01*
X43748135Y-48642671D01*
X43740452Y-48641000D01*
X43018116Y-48641000D01*
X43002877Y-48645475D01*
X43001672Y-48646865D01*
X43000001Y-48654548D01*
X43000001Y-48909095D01*
X43000338Y-48915614D01*
X43010257Y-49011206D01*
X43013149Y-49024600D01*
X43064588Y-49178784D01*
X43070760Y-49191958D01*
X43082355Y-49210696D01*
X43101193Y-49279148D01*
X43080032Y-49346918D01*
X43025591Y-49392489D01*
X42975211Y-49403000D01*
X42417000Y-49403000D01*
X42348879Y-49382998D01*
X42302386Y-49329342D01*
X42291000Y-49277000D01*
X42291000Y-47624000D01*
X42311002Y-47555879D01*
X42364658Y-47509386D01*
X42417000Y-47498000D01*
X42922140Y-47498000D01*
X42990261Y-47518002D01*
X43036754Y-47571658D01*
X43046858Y-47641932D01*
X43041733Y-47663668D01*
X43012862Y-47750710D01*
X43009995Y-47764086D01*
X43000328Y-47858438D01*
X43000000Y-47864855D01*
X43000000Y-48114885D01*
X43004475Y-48130124D01*
X43005865Y-48131329D01*
X43013548Y-48133000D01*
X43735885Y-48133000D01*
X43751124Y-48128525D01*
X43752329Y-48127135D01*
X43754000Y-48119452D01*
X43754000Y-47172116D01*
X43749525Y-47156877D01*
X43748135Y-47155672D01*
X43740452Y-47154001D01*
X43710905Y-47154001D01*
X43704386Y-47154338D01*
X43608794Y-47164257D01*
X43595400Y-47167149D01*
X43441216Y-47218588D01*
X43428038Y-47224761D01*
X43290193Y-47310063D01*
X43278792Y-47319099D01*
X43164261Y-47433829D01*
X43150882Y-47450770D01*
X43092965Y-47491833D01*
X43022042Y-47495065D01*
X42960631Y-47459440D01*
X42928228Y-47396269D01*
X42926000Y-47372678D01*
X42926000Y-46608000D01*
X42946002Y-46539879D01*
X42999658Y-46493386D01*
X43052000Y-46482000D01*
X44705000Y-46482000D01*
X44773121Y-46502002D01*
G37*
%TD.AperFunction*%
%TD*%
%TA.AperFunction,Conductor*%
%TO.N,+5V*%
G36*
X60257261Y-72283002D02*
G01*
X60303754Y-72336658D01*
X60313858Y-72406932D01*
X60308733Y-72428668D01*
X60279862Y-72515710D01*
X60276995Y-72529086D01*
X60267328Y-72623438D01*
X60267000Y-72629855D01*
X60267000Y-72879885D01*
X60271475Y-72895124D01*
X60272865Y-72896329D01*
X60280548Y-72898000D01*
X61403000Y-72898000D01*
X61471121Y-72918002D01*
X61517614Y-72971658D01*
X61529000Y-73024000D01*
X61529000Y-73280000D01*
X61508998Y-73348121D01*
X61455342Y-73394614D01*
X61403000Y-73406000D01*
X60285116Y-73406000D01*
X60269877Y-73410475D01*
X60268672Y-73411865D01*
X60267001Y-73419548D01*
X60267001Y-73674095D01*
X60267338Y-73680614D01*
X60277257Y-73776206D01*
X60280149Y-73789600D01*
X60308682Y-73875124D01*
X60311266Y-73946073D01*
X60275083Y-74007157D01*
X60211618Y-74038982D01*
X60189158Y-74041000D01*
X59030671Y-74041000D01*
X58962550Y-74020998D01*
X58916057Y-73967342D01*
X58905953Y-73897068D01*
X58927458Y-73842730D01*
X58976382Y-73772859D01*
X58981868Y-73763358D01*
X59068028Y-73578587D01*
X59071774Y-73568295D01*
X59124540Y-73371368D01*
X59126443Y-73360575D01*
X59144212Y-73157475D01*
X59144212Y-73146525D01*
X59126443Y-72943425D01*
X59124540Y-72932632D01*
X59071774Y-72735705D01*
X59068028Y-72725413D01*
X58981868Y-72540642D01*
X58976382Y-72531141D01*
X58927458Y-72461270D01*
X58904770Y-72393996D01*
X58922055Y-72325136D01*
X58973825Y-72276552D01*
X59030671Y-72263000D01*
X60189140Y-72263000D01*
X60257261Y-72283002D01*
G37*
%TD.AperFunction*%
%TD*%
%TA.AperFunction,Conductor*%
%TO.N,GND*%
G36*
X45107621Y-56281002D02*
G01*
X45154114Y-56334658D01*
X45165500Y-56387000D01*
X45165500Y-56579502D01*
X45168438Y-56616831D01*
X45170233Y-56623008D01*
X45206997Y-56749553D01*
X45212000Y-56784706D01*
X45212000Y-57531000D01*
X44831000Y-57531000D01*
X44831000Y-56988116D01*
X44826525Y-56972877D01*
X44825135Y-56971672D01*
X44817452Y-56970001D01*
X44562905Y-56970001D01*
X44556386Y-56970338D01*
X44460794Y-56980257D01*
X44447400Y-56983149D01*
X44361876Y-57011682D01*
X44290927Y-57014266D01*
X44229843Y-56978083D01*
X44198018Y-56914618D01*
X44196000Y-56892158D01*
X44196000Y-56387000D01*
X44216002Y-56318879D01*
X44269658Y-56272386D01*
X44322000Y-56261000D01*
X45039500Y-56261000D01*
X45107621Y-56281002D01*
G37*
%TD.AperFunction*%
%TD*%
%TA.AperFunction,Conductor*%
%TO.N,GND*%
G36*
X54933121Y-44851002D02*
G01*
X54979614Y-44904658D01*
X54991000Y-44957000D01*
X54991000Y-47245000D01*
X54970998Y-47313121D01*
X54917342Y-47359614D01*
X54865000Y-47371000D01*
X54300745Y-47371000D01*
X54232624Y-47350998D01*
X54186131Y-47297342D01*
X54176027Y-47227068D01*
X54192292Y-47180861D01*
X54221645Y-47131227D01*
X54227893Y-47116790D01*
X54270269Y-46970935D01*
X54272570Y-46958333D01*
X54274807Y-46929916D01*
X54275000Y-46924986D01*
X54275000Y-46308115D01*
X54270525Y-46292876D01*
X54269135Y-46291671D01*
X54261452Y-46290000D01*
X53739115Y-46290000D01*
X53723876Y-46294475D01*
X53722671Y-46295865D01*
X53721000Y-46303548D01*
X53721000Y-46674125D01*
X53700998Y-46742246D01*
X53647342Y-46788739D01*
X53609095Y-46794238D01*
X53625870Y-46793599D01*
X53687014Y-46829681D01*
X53718944Y-46893092D01*
X53721000Y-46915759D01*
X53721000Y-47497878D01*
X53724973Y-47511409D01*
X53732870Y-47512544D01*
X53813846Y-47489018D01*
X53884843Y-47489220D01*
X53944459Y-47527774D01*
X53973768Y-47592439D01*
X53975000Y-47610015D01*
X53975000Y-47754500D01*
X53954998Y-47822621D01*
X53901342Y-47869114D01*
X53849000Y-47880500D01*
X53504721Y-47880500D01*
X53436600Y-47860498D01*
X53390107Y-47806842D01*
X53379411Y-47767671D01*
X53362433Y-47606135D01*
X53362433Y-47606133D01*
X53361743Y-47599572D01*
X53303544Y-47420455D01*
X53301516Y-47349488D01*
X53314258Y-47318519D01*
X53398723Y-47172221D01*
X53398724Y-47172220D01*
X53402027Y-47166498D01*
X53461042Y-46984870D01*
X53469690Y-46902589D01*
X53496703Y-46836932D01*
X53554925Y-46796302D01*
X53570228Y-46795719D01*
X53512488Y-46769349D01*
X53474104Y-46709623D01*
X53469690Y-46687295D01*
X53461732Y-46611577D01*
X53461732Y-46611575D01*
X53461042Y-46605014D01*
X53402027Y-46423386D01*
X53306540Y-46257998D01*
X53245364Y-46190055D01*
X53214646Y-46126048D01*
X53213000Y-46105745D01*
X53213000Y-45908000D01*
X53233002Y-45839879D01*
X53286658Y-45793386D01*
X53339000Y-45782000D01*
X54256884Y-45782000D01*
X54272123Y-45777525D01*
X54273328Y-45776135D01*
X54274999Y-45768452D01*
X54274999Y-45147017D01*
X54274805Y-45142080D01*
X54272570Y-45113664D01*
X54270269Y-45101066D01*
X54249439Y-45029369D01*
X54249642Y-44958373D01*
X54276799Y-44909906D01*
X54310308Y-44872690D01*
X54370754Y-44835450D01*
X54403945Y-44831000D01*
X54865000Y-44831000D01*
X54933121Y-44851002D01*
G37*
%TD.AperFunction*%
%TD*%
M02*
